<?xml version="1.0" encoding="utf-8"?>
<!-- Generator: Adobe Illustrator 16.0.2, SVG Export Plug-In . SVG Version: 6.00 Build 0)  -->
<!DOCTYPE svg PUBLIC "-//W3C//DTD SVG 1.1//EN" "http://www.w3.org/Graphics/SVG/1.1/DTD/svg11.dtd">
<svg version="1.1" id="Слой_1" xmlns="http://www.w3.org/2000/svg" xmlns:xlink="http://www.w3.org/1999/xlink" x="0px" y="0px"
	 width="940px" height="423px" viewBox="0 0 940 423" xml:space="preserve">
<g>
	<g>
		<path fill-rule="evenodd" clip-rule="evenodd" fill="#D8D697" d="M319.577,299.088c10.648,22.607,33.795,93.936,33,124.336
			c-45.854-22.592-78.293-50.547-104.281-78.115c-28.027-29.729-31.501-77.962-26.649-113.055l-0.269-0.39l0.317,0.073l0.041-0.321
			l0.268,0.391C256.567,239.781,301.434,260.569,319.577,299.088z"/>
		<path fill-rule="evenodd" clip-rule="evenodd" fill="#D8D697" d="M187.586,348.512c-18.196,17.132-78.841,61.238-107.993,69.901
			c7.275-50.599,23.802-90.102,41.964-123.357c19.583-35.858,64.367-54.103,99.238-60.357l0.284-0.38l0.029,0.322l0.315-0.058
			l-0.287,0.378C224.455,270.232,218.587,319.33,187.586,348.512z"/>
		<path fill-rule="evenodd" clip-rule="evenodd" fill="#D8D697" d="M312.5,157.07c24.75-3.443,99.732-4.325,128.521,5.478
			c-35.207,37.059-71.545,59.714-105.598,76.327c-36.721,17.914-83.803,6.883-115.862-8.191l-0.454,0.142l0.162-0.278l-0.292-0.137
			l0.454-0.143C237.137,199.583,270.331,162.934,312.5,157.07z"/>
		<path fill-rule="evenodd" clip-rule="evenodd" fill="#D8D697" d="M99.765,239.594C77.716,227.834,16.532,184.479-1,159.629
			c50.264-9.292,92.981-6.265,130.297,0.306c40.238,7.086,71.846,43.683,88.925,74.719l0.45,0.152l-0.293,0.13l0.154,0.283
			l-0.449-0.153C185.726,249.489,137.331,259.632,99.765,239.594z"/>
		<path fill-rule="evenodd" clip-rule="evenodd" fill="#D8D697" d="M175.02,121.491c4.124-24.645,25.727-96.455,43.696-120.991
			c24.82,44.686,35.563,86.14,41.223,123.606c6.102,40.398-18.518,82.02-42.495,108.098v0.474l-0.218-0.236l-0.217,0.236v-0.474
			C193.028,206.126,167.995,163.484,175.02,121.491z"/>
	</g>
	<g>
		<path fill-rule="evenodd" clip-rule="evenodd" fill="#B2C76E" d="M218.071,234.482c-29.447-21.396-35.518-63.237-13.562-93.457
			c21.954-30.221,63.63-37.376,93.074-15.982c29.447,21.394,35.52,63.237,13.561,93.459
			C289.188,248.722,247.52,255.877,218.071,234.482z"/>
		<path fill-rule="evenodd" clip-rule="evenodd" fill="#B2C76E" d="M218.071,234.482c-29.447,21.395-71.116,14.239-93.074-15.98
			c-21.954-30.222-15.882-72.065,13.564-93.459c29.445-21.394,71.117-14.239,93.072,15.982
			C253.592,171.245,247.52,213.086,218.071,234.482z"/>
		<path fill-rule="evenodd" clip-rule="evenodd" fill="#B2C76E" d="M218.071,234.482c11.248,34.615-8.431,72.038-43.958,83.58
			c-35.529,11.545-73.446-7.16-84.692-41.779c-11.248-34.617,8.432-72.036,43.96-83.58
			C168.908,181.161,206.824,199.863,218.071,234.482z"/>
		<path fill-rule="evenodd" clip-rule="evenodd" fill="#B2C76E" d="M218.071,234.482c11.248-34.619,49.168-53.322,84.693-41.779
			c35.527,11.544,55.209,48.963,43.959,83.58c-11.246,34.619-49.164,53.324-84.691,41.779
			C226.506,306.521,206.824,269.098,218.071,234.482z"/>
		<path fill-rule="evenodd" clip-rule="evenodd" fill="#B2C76E" d="M218.075,369.756c36.299,0,65.904-30.385,65.904-67.637
			s-29.605-67.639-65.904-67.639c-36.301,0-65.907,30.387-65.907,67.639S181.774,369.756,218.075,369.756z"/>
	</g>
	<g>
		<path fill-rule="evenodd" clip-rule="evenodd" fill="#F2EFBC" d="M185.624,120.429c6.363-42.107,29.417-106.673,32.742-116.278
			c0.093-0.348,0.23-0.485,0.349-0.253v0.253c-0.373,7.71-2.365,49.735-3.613,88.676c1.202-1.073,2.443-1.639,3.712-1.639
			c1.219,0,2.411,0.525,3.57,1.517c-1.249-38.905-3.239-80.854-3.609-88.554V4.054l0.027,0.097
			c3.326,9.605,23.404,72.472,30.025,116.278c6.107,40.403-7.408,85.697-31.385,111.775v0.474l-0.218-0.236l-0.217,0.236v-0.474
			C193.028,206.126,179.26,162.536,185.624,120.429z"/>
		<path fill-rule="evenodd" clip-rule="evenodd" fill="#F2EFBC" d="M101.006,227.512C62.929,208.448,8.645,166.569,0.538,160.439
			c-0.303-0.197-0.389-0.368-0.134-0.409l0.242,0.078c7.218,2.735,46.57,17.616,83.219,30.838c-0.648-1.477-0.805-2.832-0.412-4.037
			c0.377-1.161,1.246-2.132,2.545-2.926c-37.387-10.836-77.894-21.905-85.333-23.935l-0.094-0.032l0.102,0.007
			c10.162-0.195,76.157,0.134,119.865,7.375c40.314,6.676,79.214,33.527,96.604,64.389l0.454,0.148l-0.294,0.131l0.159,0.281
			l-0.451-0.146C184.796,246.951,139.085,246.576,101.006,227.512z"/>
		<path fill-rule="evenodd" clip-rule="evenodd" fill="#F2EFBC" d="M176.7,341.079c-29.897,30.321-86.502,69.01-94.837,74.826
			c-0.28,0.226-0.469,0.256-0.43,0l0.15-0.207c4.832-6.021,31.143-38.849,55.043-69.616c-1.603,0.158-2.938-0.109-3.965-0.855
			c-0.986-0.719-1.644-1.844-1.999-3.326c-21.857,32.21-44.903,67.314-49.13,73.763l-0.059,0.079l0.037-0.097
			c2.956-9.724,23.664-72.388,44.056-111.72c18.808-36.275,56.363-64.977,91.091-71.979l0.278-0.385l0.035,0.32l0.316-0.064
			l-0.279,0.386C221.083,267.395,206.597,310.753,176.7,341.079z"/>
		<path fill-rule="evenodd" clip-rule="evenodd" fill="#F2EFBC" d="M313.614,167.813c42.01-6.957,110.543-4.983,120.701-4.789
			c0.363-0.021,0.537,0.068,0.352,0.252l-0.238,0.08c-7.449,2.03-48.033,13.121-85.453,23.964c1.389,0.814,2.313,1.817,2.705,3.024
			c0.375,1.16,0.246,2.457-0.34,3.863c36.615-13.209,75.891-28.063,83.104-30.795l0.094-0.029l-0.086,0.056
			c-8.107,6.129-61.693,44.652-101.311,64.486c-36.537,18.294-83.787,19.439-116,4.69l-0.451,0.148l0.159-0.28l-0.292-0.135
			l0.451-0.146C234.399,201.338,271.6,174.774,313.614,167.813z"/>
		<path fill-rule="evenodd" clip-rule="evenodd" fill="#F2EFBC" d="M308.1,304.184c19.596,37.805,38.898,103.591,41.852,113.317
			c0.133,0.337,0.102,0.526-0.133,0.409l-0.146-0.206c-4.229-6.453-27.322-41.625-49.199-73.861
			c-0.342,1.573-1.012,2.76-2.041,3.505c-0.984,0.719-2.26,0.994-3.777,0.872c23.875,30.741,50.141,63.509,54.967,69.522
			l0.057,0.078l-0.076-0.064c-8.336-5.816-61.533-44.871-92.639-76.422c-28.688-29.099-44.378-73.684-40.306-108.875l-0.28-0.384
			l0.315,0.063l0.037-0.32l0.279,0.386C251.733,239.207,288.495,266.379,308.1,304.184z"/>
	</g>
	<path fill-rule="evenodd" clip-rule="evenodd" fill="#F2EFBC" d="M185.624,120.429c6.363-42.107,29.417-106.673,32.742-116.278
		c0.093-0.348,0.23-0.485,0.349-0.253v0.253c-0.373,7.71-2.365,49.735-3.613,88.676c1.202-1.073,2.443-1.639,3.712-1.639
		c1.219,0,2.411,0.525,3.57,1.517c-1.249-38.905-3.239-80.854-3.609-88.554V4.054l0.027,0.097
		c3.326,9.605,23.404,72.472,30.025,116.278c6.107,40.403-7.408,85.697-31.385,111.775v0.474l-0.218-0.236l-0.217,0.236v-0.474
		C193.028,206.126,179.26,162.536,185.624,120.429z"/>
	<g>
		<path fill-rule="evenodd" clip-rule="evenodd" fill="#D8D697" d="M135.872,172.692c-12.818-48.767-6.303-73.553,51.132-37.151
			c34.514,21.875,16.783,37.135,12.713,72.326l0.28,0.384l-0.317-0.065l-0.037,0.323l-0.278-0.386
			C164.638,201.12,146.259,212.211,135.872,172.692z"/>
		<path fill-rule="evenodd" clip-rule="evenodd" fill="#8F1016" d="M198.18,206.109c-11.6-8.057-27.768-17.021-32.935-30.518
			l-12.92,2.043C167.809,195.919,180.234,200.183,198.18,206.109z"/>
		<path fill-rule="evenodd" clip-rule="evenodd" fill="#8F1016" d="M197.757,205.813c-3.799-13.604-6.956-31.817-18.007-41.131
			l6.176-11.533C198.11,173.777,198.055,186.918,197.757,205.813z"/>
		<path fill-rule="evenodd" clip-rule="evenodd" fill="#FFFFFF" d="M136.379,171.031c17.381,5.401,29.855,4.979,37.581-1.076
			c7.712-6.042,10.897-17.879,9.713-35.304l3.472-0.231c1.271,18.637-2.354,31.464-11.044,38.272
			c-8.674,6.799-22.204,7.423-40.741,1.659L136.379,171.031z"/>
		<path fill-rule="evenodd" clip-rule="evenodd" fill="#FFFFFF" d="M163.287,177.619c-9.393-4.033-16.138-11.266-20.875-20.92
			c-4.651-9.479-7.351-21.296-8.713-34.696l3.459-0.338c1.324,13.01,3.917,24.432,8.374,33.51
			c4.369,8.906,10.555,15.56,19.131,19.245L163.287,177.619z"/>
		<path fill-rule="evenodd" clip-rule="evenodd" fill="#FFFFFF" d="M179.607,163.638c-1.1-9.265-5.73-17.082-13.033-23.803
			c-7.447-6.851-17.663-12.583-29.76-17.542l1.32-3.213c12.466,5.112,23.032,11.051,30.797,18.195
			c7.909,7.277,12.929,15.801,14.131,25.956L179.607,163.638z"/>
		<path fill-rule="evenodd" clip-rule="evenodd" fill="#7C7B4C" d="M169.055,120.225c6.354,3.11,13.083,6.884,19.99,11.262
			c26.688,16.916,22.286,32.572,17.098,53.136c-1.677,6.646-3.564,14.117-4.614,22.771c-0.181,2.076-1.62,2.565-3.176,2.298
			c-8.128-1.594-15.436-2.204-21.921-2.74c-2.547-0.213-5.005-0.405-7.376-0.638v-3.546c2.415,0.272,4.966,0.484,7.663,0.708
			c6.316,0.525,13.406,1.117,21.454,2.644l0.003-0.015l0.006,0.002c1.094-8.504,2.94-15.809,4.584-22.332
			c4.811-19.071,7.872-31.196-16.692-46.765c-6.302-3.993-11.958-7.239-17.017-9.792V120.225z M131.79,173.687
			c-6.557-24.946-14.141-52.001-6.453-60.26c5.998-6.447,22.853-3.414,43.718,6.798v6.995c-17.297-8.726-27.595-9.329-32.688-3.856
			c-6.722,7.223-5.073,25.069,1.185,48.885c6.49,24.689,16.26,28.803,31.503,30.52v3.546
			C151.624,204.628,138.958,200.96,131.79,173.687z"/>
	</g>
	<g>
		<path fill-rule="evenodd" clip-rule="evenodd" fill="#D8D697" d="M135.482,290.65c-50.338-2.877-71.898-16.737-19.529-60.109
			c31.468-26.066,40.502-4.489,72.714,10.26l0.453-0.148l-0.158,0.279l0.292,0.135l-0.451,0.146
			C171.409,272.076,176.276,292.985,135.482,290.65z"/>
		<path fill-rule="evenodd" clip-rule="evenodd" fill="#8F1016" d="M186.52,241.717c-11.251,8.545-24.77,21.148-39.201,21.895
			l-2.05,12.919C167.445,267.456,175.339,256.953,186.52,241.717z"/>
		<path fill-rule="evenodd" clip-rule="evenodd" fill="#8F1016" d="M186.106,242.026c-14.112-0.587-32.409-3.216-44.683,4.419
			l-9.058-9.438C155.751,231.795,168.23,235.906,186.106,242.026z"/>
		<path fill-rule="evenodd" clip-rule="evenodd" fill="#FFFFFF" d="M134.061,289.653c10.507-14.86,13.961-26.856,10.592-36.073
			c-3.365-9.203-13.638-15.891-30.576-20.146l0.852-3.374c18.118,4.554,29.197,11.964,32.987,22.331
			c3.784,10.352,0.196,23.41-11.012,39.26L134.061,289.653z"/>
		<path fill-rule="evenodd" clip-rule="evenodd" fill="#FFFFFF" d="M148.641,266.101c-6.738,7.688-15.7,11.867-26.345,13.39
			c-10.453,1.493-22.526,0.406-35.691-2.434l0.746-3.396c12.784,2.761,24.448,3.822,34.458,2.391
			c9.821-1.402,18.062-5.229,24.215-12.246L148.641,266.101z"/>
		<path fill-rule="evenodd" clip-rule="evenodd" fill="#FFFFFF" d="M140.388,246.26c-9.149-1.818-18.018,0.168-26.664,5.037
			c-8.818,4.967-17.425,12.912-25.881,22.883l-2.647-2.249c8.71-10.274,17.626-18.489,26.82-23.667
			c9.365-5.271,19.023-7.412,29.054-5.42L140.388,246.26z"/>
		<path fill-rule="evenodd" clip-rule="evenodd" fill="#7C7B4C" d="M136.973,215.504c11.204-0.998,20.555,5.076,31.573,12.002
			c5.801,3.648,12.324,7.752,20.23,11.426c1.92,0.813,1.938,2.332,1.203,3.729c-4.026,7.239-6.865,14-9.379,20.003
			c-8.09,19.295-13.25,33.453-43.627,32.262v-5.938c28.28,1.265,32.879-9.701,40.413-27.671c2.449-5.846,5.203-12.404,9.141-19.588
			l-0.011-0.006l0.004-0.006c-7.751-3.667-14.126-7.681-19.823-11.26c-10.834-6.813-19.102-12.006-29.724-9.695V215.504z
			 M135.169,294.84c-25.75-1.473-53.827-2.619-59.307-12.482c-5.579-10.041,9.891-32.67,36.865-55.011
			c9.401-7.787,17.191-11.216,24.246-11.843v5.258c-5.703,1.237-12.084,4.641-19.909,11.121
			c-25.395,21.029-33.034,34.604-28.341,43.055c4.791,8.625,22.274,12.569,46.859,13.979l1.391,0.071v5.938
			C136.379,294.902,135.782,294.875,135.169,294.84z"/>
	</g>
	<g>
		<path fill-rule="evenodd" clip-rule="evenodd" fill="#D8D697" d="M247.551,327.473c-18.295,46.984-38.138,63.209-63.208,0
			c-15.063-37.984,8.25-39.908,32.228-65.988v-0.473l0.216,0.235l0.22-0.235v0.475C240.983,287.564,262.375,289.395,247.551,327.473
			z"/>
		<path fill-rule="evenodd" clip-rule="evenodd" fill="#8F1016" d="M216.783,263.813c4.649,13.339,12.459,30.091,8.708,44.049
			l11.654,5.94C235.368,289.906,227.821,279.154,216.783,263.813z"/>
		<path fill-rule="evenodd" clip-rule="evenodd" fill="#8F1016" d="M216.95,264.301c-4.922,13.238-13.073,29.828-9.608,43.861
			l-11.772,5.699C197.835,290.008,205.604,279.412,216.95,264.301z"/>
		<path fill-rule="evenodd" clip-rule="evenodd" fill="#FFFFFF" d="M246.161,328.516c-10.885-14.584-21.228-21.575-31.034-21.219
			c-9.792,0.355-19.327,8.059-28.606,22.854l-2.947-1.854c9.927-15.824,20.399-24.07,31.431-24.473
			c11.012-0.4,22.327,7.045,33.936,22.604L246.161,328.516z"/>
		<path fill-rule="evenodd" clip-rule="evenodd" fill="#FFFFFF" d="M228.268,307.373c5.225,8.782,6.432,18.598,4.592,29.191
			c-1.813,10.402-6.574,21.551-13.343,33.191l-3-1.758c6.575-11.305,11.189-22.068,12.924-32.031
			c1.697-9.774,0.607-18.795-4.168-26.816L228.268,307.373z"/>
		<path fill-rule="evenodd" clip-rule="evenodd" fill="#FFFFFF" d="M206.846,309.088c-4.556,8.141-5.406,17.188-3.448,26.917
			c1.998,9.921,6.894,20.563,13.766,31.687l-2.959,1.822c-7.079-11.461-12.136-22.479-14.218-32.821
			c-2.122-10.537-1.172-20.384,3.824-29.306L206.846,309.088z"/>
		<path fill-rule="evenodd" clip-rule="evenodd" fill="#7C7B4C" d="M251.438,329.064c-9.359,24.035-19.127,50.383-30.201,52.545
			c-1.635,0.322-3.388,0.133-5.227-0.514v-13.82c0.721,0.014,1.436-0.048,2.144-0.188c9.685-1.891,18.843-17.298,27.776-40.245
			c10.73-27.557,1.67-35.363-13.332-48.287c-4.801-4.135-10.188-8.779-15.804-14.746l-0.008,0.009l-0.003-0.005l-0.773,0.813v-4.703
			c0.986-0.378,1.953,0.084,2.739,0.892c5.639,6.065,11.193,10.853,16.125,15.101C251.038,289.837,263.061,299.211,251.438,329.064z
			 M216.01,381.096c-10.827-3.816-24.662-23.712-35.699-51.544c-11.65-29.374,1.118-39.45,17.402-53.038
			c5.261-4.391,11.179-9.325,17.117-15.709c0.39-0.449,0.786-0.734,1.18-0.883v4.703c-5.618,5.845-11.124,10.438-16.061,14.561
			c-15.104,12.602-24.708,20.61-13.984,47.643c11.246,28.36,21.119,40.289,30.045,40.447V381.096z"/>
	</g>
	<g>
		<path fill-rule="evenodd" clip-rule="evenodd" fill="#D8D697" d="M248.178,136.608c42.416-27.258,68.002-28.72,51.133,37.151
			c-10.143,39.584-30.127,27.438-64.859,34.443l-0.275,0.383l-0.039-0.321l-0.316,0.064l0.281-0.387
			C230.034,172.754,213.803,158.697,248.178,136.608z"/>
		<path fill-rule="evenodd" clip-rule="evenodd" fill="#8F1016" d="M235.653,206.194c4.078-13.523,7.605-31.668,18.848-40.754
			l-5.941-11.656C235.956,174.16,235.737,187.298,235.653,206.194z"/>
		<path fill-rule="evenodd" clip-rule="evenodd" fill="#8F1016" d="M235.801,205.702c11.766-7.818,28.111-16.448,33.551-29.836
			l12.879,2.307C266.374,196.138,253.864,200.146,235.801,205.702z"/>
		<path fill-rule="evenodd" clip-rule="evenodd" fill="#FFFFFF" d="M249.915,136.58c0.234,18.198,4.492,29.933,12.633,35.409
			c8.131,5.469,20.371,4.84,36.58-1.674l1.291,3.232c-17.328,6.966-30.648,7.483-39.807,1.322
			c-9.148-6.149-13.926-18.821-14.172-38.233L249.915,136.58z"/>
		<path fill-rule="evenodd" clip-rule="evenodd" fill="#FFFFFF" d="M251.963,164.205c0.934-10.179,5.727-18.829,13.443-26.317
			c7.576-7.353,17.982-13.569,30.307-19.009l1.391,3.183c-11.965,5.282-22.025,11.277-29.279,18.321
			c-7.121,6.908-11.543,14.847-12.395,24.142L251.963,164.205z"/>
		<path fill-rule="evenodd" clip-rule="evenodd" fill="#FFFFFF" d="M270.303,175.404c8.467-3.905,14.473-10.726,18.609-19.746
			c4.215-9.202,6.508-20.689,7.484-33.726l3.469,0.262c-1.01,13.437-3.393,25.32-7.791,34.915
			c-4.475,9.768-11.029,17.176-20.316,21.459L270.303,175.404z"/>
		<path fill-rule="evenodd" clip-rule="evenodd" fill="#7C7B4C" d="M265.702,120.549c14.902-9.017,28.445-15.593,35.586-12.275
			c10.414,4.845,11.201,32.245,2.512,66.172c-6.934,27.062-20.439,30.707-38.098,32.17v-3.521
			c15.43-1.455,25.656-5.312,31.92-29.769c8.184-31.94,6.383-47.414-2.381-51.488c-6.398-2.979-16.641-0.2-29.539,6.494V120.549z
			 M245.969,133.035c6.563-4.216,13.273-8.582,19.732-12.486v7.783c-5.131,2.667-10.684,5.949-16.584,9.739
			c-24.877,15.986-22.14,27.628-17.598,46.899c1.453,6.168,3.08,13.093,4.117,21.223l0.016-0.004v0.005
			c8.424-1.587,15.939-2.089,22.65-2.541c2.59-0.174,5.057-0.339,7.398-0.559v3.521c-2.314,0.192-4.703,0.348-7.156,0.511
			c-6.84,0.46-14.527,0.975-23.086,2.649c-2.027,0.471-2.936-0.748-3.16-2.31c-0.998-8.224-2.676-15.361-4.172-21.696
			C223.236,165.007,219.017,150.353,245.969,133.035z"/>
	</g>
	<g>
		<path fill-rule="evenodd" clip-rule="evenodd" fill="#D8D697" d="M317.2,232.268c39.029,31.92,48.328,55.803-19.535,60.112
			c-40.777,2.588-35.402-20.177-52.797-51.04l-0.447-0.146l0.291-0.133l-0.16-0.283l0.451,0.146
			C277.217,226.18,285.569,206.403,317.2,232.268z"/>
		<path fill-rule="evenodd" clip-rule="evenodd" fill="#8F1016" d="M247.149,241.857c14.119-0.299,32.467-2.551,44.582,5.332
			l9.246-9.25C277.708,232.247,265.149,236.104,247.149,241.857z"/>
		<path fill-rule="evenodd" clip-rule="evenodd" fill="#8F1016" d="M247.665,241.85c11.072,8.771,24.326,21.65,38.744,22.691
			l1.779,12.957C266.206,267.971,258.526,257.312,247.665,241.85z"/>
		<path fill-rule="evenodd" clip-rule="evenodd" fill="#FFFFFF" d="M317.76,233.912c-17.232,5.846-27.076,13.521-29.77,22.957
			c-2.688,9.422,1.693,20.871,12.895,34.271l-2.67,2.227c-11.982-14.328-16.594-26.838-13.561-37.453
			c3.02-10.598,13.598-19.056,31.98-25.289L317.76,233.912z"/>
		<path fill-rule="evenodd" clip-rule="evenodd" fill="#FFFFFF" d="M292.122,244.396c9.971-2.26,19.678-0.371,29.184,4.654
			c9.338,4.935,18.467,12.909,27.447,22.945l-2.602,2.311c-8.717-9.748-17.529-17.465-26.473-22.189
			c-8.768-4.636-17.684-6.385-26.787-4.324L292.122,244.396z"/>
		<path fill-rule="evenodd" clip-rule="evenodd" fill="#FFFFFF" d="M287.137,265.297c6.334,6.85,14.676,10.455,24.535,11.6
			c10.049,1.164,21.684-0.203,34.391-3.301l0.818,3.377c-13.092,3.19-25.129,4.596-35.611,3.381
			c-10.678-1.242-19.746-5.184-26.691-12.691L287.137,265.297z"/>
		<path fill-rule="evenodd" clip-rule="evenodd" fill="#7C7B4C" d="M319.917,229.063c19.967,16.328,42.004,33.758,40.641,44.961
			c-1.389,11.402-27.203,20.615-62.156,22.834c-0.643,0.041-1.268,0.073-1.893,0.098v-6.254l1.049-0.061
			c32.904-2.09,47.063-8.582,48.236-18.174c1.191-9.797-10.633-23.264-29.695-38.854c-7.723-6.314-14.006-9.791-19.59-11.234v-5.314
			C303.249,218.014,310.752,221.569,319.917,229.063z M296.508,296.955c-29.869,1.281-35.441-13.749-43.174-33.034
			c-2.551-6.364-5.412-13.517-9.648-21.138c-1.08-1.783-0.203-3.025,1.217-3.723c7.512-3.49,13.779-7.291,19.346-10.67
			c11.496-6.975,20.764-12.945,32.26-11.326v5.314c-10.965-2.831-19.236,2.186-30.453,8.992c-5.418,3.288-11.498,6.977-18.91,10.474
			l0.01,0.011l-0.006,0.002c4.113,7.521,6.914,14.518,9.418,20.761c7.225,18.034,11.855,29.581,39.941,28.083V296.955z"/>
	</g>
	<path fill-rule="evenodd" clip-rule="evenodd" fill="#D8D697" d="M218.874,274.966c23.566,0,42.791-19.222,42.791-42.794
		c0-23.566-19.225-42.793-42.791-42.793c-23.57,0-42.794,19.227-42.794,42.793C176.079,255.744,195.304,274.966,218.874,274.966z"/>
	<g>
		<g>
			<path fill-rule="evenodd" clip-rule="evenodd" fill="#BD2723" d="M219.539,232.887c-4.085-9.729-0.371-20.804,8.397-27.794
				c15.373-12.257,55.324-64.23,55.324-64.23l0.367,0.345c0,0-35.873,54.735-41.549,73.559
				C238.913,225.274,229.965,233.15,219.539,232.887z"/>
			<path fill-rule="evenodd" clip-rule="evenodd" fill="#F2EFBC" d="M219.504,232.864c-1.323-5.077,1.313-11.458,6.154-15.949
				c8.484-7.872,31.98-39.439,31.98-39.439l0.158,0.164c0,0-21.682,32.8-25.838,43.6
				C229.639,227.271,224.646,232.263,219.504,232.864z"/>
		</g>
		<g>
			<path fill-rule="evenodd" clip-rule="evenodd" fill="#BD2723" d="M219.535,232.839c-10.522,0.743-19.817-6.329-23.621-16.882
				c-6.67-18.495-43.859-72.334-43.859-72.334l0.446-0.235c0,0,41.115,50.864,57.118,62.284
				C218.554,212.049,223.139,223.049,219.535,232.839z"/>
			<path fill-rule="evenodd" clip-rule="evenodd" fill="#F2EFBC" d="M219.504,232.864c-5.233-0.378-10.43-4.921-13.128-10.948
				c-4.727-10.565-27.071-42.959-27.071-42.959l0.207-0.096c0,0,24.095,31.067,32.986,38.477
				C217.464,221.475,220.589,227.803,219.504,232.864z"/>
		</g>
		<g>
			<path fill-rule="evenodd" clip-rule="evenodd" fill="#BD2723" d="M219.492,232.902c8.077-6.788,19.76-6.525,29.036-0.226
				c16.264,11.044,77.828,34.794,77.828,34.794l-0.223,0.455c0,0-62.988-19.039-82.65-18.873
				C232.51,249.146,222.335,242.939,219.492,232.902z"/>
			<path fill-rule="evenodd" clip-rule="evenodd" fill="#F2EFBC" d="M219.504,232.864c4.455-2.77,11.334-2.148,17.059,1.143
				c10.035,5.769,47.15,18.846,47.15,18.846l-0.109,0.196c0,0-37.756-10.974-49.303-11.739
				C227.852,240.882,221.608,237.597,219.504,232.864z"/>
		</g>
		<g>
			<path fill-rule="evenodd" clip-rule="evenodd" fill="#BD2723" d="M219.492,232.828c-2.75,10.186-12.482,16.643-23.698,16.777
				c-19.656,0.234-83.106,16.719-83.106,16.719l-0.078-0.498c0,0,61.927-21.169,77.965-32.539
				C199.528,226.936,211.425,226.217,219.492,232.828z"/>
			<path fill-rule="evenodd" clip-rule="evenodd" fill="#F2EFBC" d="M219.504,232.864c-2.075,4.819-8.071,8.239-14.648,8.812
				c-11.532,1.001-49.461,11.485-49.461,11.485l-0.024-0.228c0,0,37.252-12.571,47.167-18.543
				C208.075,231.057,215.075,230.182,219.504,232.864z"/>
		</g>
		<g>
			<path fill-rule="evenodd" clip-rule="evenodd" fill="#BD2723" d="M219.466,232.864c8.794,5.831,11.843,17.104,8.423,27.787
				c-5.993,18.724-10.416,84.13-10.416,84.13l-0.499-0.085c0,0-0.499-65.442-6.217-84.253
				C207.565,249.942,210.641,238.43,219.466,232.864z"/>
			<path fill-rule="evenodd" clip-rule="evenodd" fill="#F2EFBC" d="M219.504,232.864c3.917,3.491,5.267,10.263,3.727,16.686
				c-2.693,11.255-4.743,50.554-4.743,50.554l-0.222-0.049c0,0-0.147-39.318-2.679-50.611
				C214.176,243.139,215.563,236.217,219.504,232.864z"/>
		</g>
	</g>
</g>
<path fill-rule="evenodd" clip-rule="evenodd" fill="#8F1016" d="M555.662,215.814h-17.666c0-2.434-1.678-9.313-5.031-20.659
	h-25.506c-3.469,11.158-5.201,18.038-5.201,20.659h-16.625c0-1.432,4.295-13.213,12.893-35.344
	c8.596-22.131,12.893-34.309,12.893-36.57h20.887c0,2.113,3.883,14.119,11.668,36.045
	C551.775,201.865,555.662,213.818,555.662,215.814L555.662,215.814z M599.229,233.773h0.604h12.783h235.408h0.162h0.18h0.191h0.201
	h25.357h0.119c1.125-0.002,2.213,0,3.238,0h0.115h0.109h0.109h3.24c5.527-0.037,9.869-1.658,9.869-8.402
	c0-2.732-1.041-4.693-3.111-5.918c-2.094-1.205-5.676-1.809-10.748-1.809c-8.74,0-25.01,0.164-25.01-12.102
	c0-4.055,2.109-7.428,6.354-10.162v-0.771c-5.98-2.979-8.957-7.635-8.957-13.967c0-5.41,2.053-9.955,6.164-13.592
	c4.092-3.641,10.445-5.467,19.02-5.467c5.846,0,10.594,1.111,14.25,3.318h0.771c1.055-6.955,4.641-10.445,10.707-10.445
	c2.396,0,4.488,0.434,6.299,1.264l-1.209,10.273c-5.746,0-9.346,0.83-10.779,2.488v0.715c2.186,2.771,3.26,5.863,3.26,9.295
	c0,5.258-1.939,9.744-5.822,13.459c-3.887,3.73-9.67,5.58-17.361,5.58c-3.77,0-6.844-0.285-9.234-0.887
	c-1.943,0.887-2.928,2.055-2.928,3.488c0,2.246,1.168,3.826,3.51,4.715c2.336,0.902,7.783,1.357,16.324,1.357
	c14.758,0,22.148,5.029,22.148,15.077c0,7.068-3.072,12.689-9.238,16.854c-5.131,3.465-11.033,3.926-17.975,3.982l-0.02,0.01h-1.359
	h-0.402h-1.613h-0.824H627.586l0.213,0.119c-1.52-0.131-9.217-0.152-17.818,0.121c-12.094,0.387-24.113,4-31.777,13.945
	c-3.727,4.832-5.58,10.695-5.58,17.604c0,7.059,2.213,13.193,6.617,18.369c4.426,5.195,10.6,7.793,18.564,7.793
	c4.676,0,9.732-0.811,15.217-2.426l-0.943,12.947c-5.35,1.287-10.598,1.924-15.795,1.924c-12.887,0-22.697-3.561-29.449-10.676
	c-6.734-7.119-10.1-15.777-10.1-25.953c0-10.561,3.578-19.756,10.734-27.566c2.01-2.191,4.459-4.301,7.219-6.201h-0.213l0.422-0.143
	c6.869-4.68,15.629-8.053,24.314-8.203L599.229,233.773L599.229,233.773z M530.156,184.619c-6.297-19.002-9.445-29.275-9.445-30.82
	h-0.885c0,1.43-3.26,11.703-9.785,30.82H530.156L530.156,184.619z M644.238,215.814c-0.15-12.194-0.225-21.356-0.225-27.5
	c0-0.699,0.035-2.037,0.111-3.998c0.076-1.98,0.113-3.318,0.113-4.014c0-7.109-1.584-12.01-4.77-14.723
	c-3.186-2.697-7.916-4.053-14.174-4.053c-5.334,0-10.727,2.168-16.176,6.52h-0.885c-3.053-4.352-8.332-6.52-15.854-6.52
	c-5.996,0-11.385,2.168-16.174,6.52h-0.885l-0.943-5.859l-14.139,1.545c1.811,7.992,2.697,16.305,2.697,24.92
	c0,6.615-0.32,15.684-0.98,27.163h14.854c0-11.479-0.094-24.524-0.283-39.094c2.658-2.695,5.994-4.037,9.99-4.037
	c4.355,0,7.221,1.059,8.598,3.154c1.375,2.086,2.072,5.611,2.072,10.535c0,9.539-0.416,19.357-1.225,29.442h14.816
	c-0.227-12.194-0.338-21.356-0.338-27.5c0-3.641,0.074-7.77,0.227-12.367c3.318-2.17,6.465-3.264,9.443-3.264
	c3.713,0,6.428,1.021,8.104,3.037c1.697,2.018,2.545,6.332,2.545,12.932c0,8.783-0.377,17.85-1.148,27.163H644.238L644.238,215.814z
	 M701.447,215.76c-1.186-4.864-1.768-11.106-1.768-18.719c0-1.359,0.072-4.09,0.186-8.182c0.133-4.092,0.209-6.898,0.209-8.445
	c0-6.992-1.813-11.895-5.449-14.686c-3.621-2.809-8.766-4.201-15.438-4.201c-9.125,0-16.193,0.867-21.207,2.6l-1.207,10.16
	c5.297-1.471,10.725-2.203,16.285-2.203c5.127,0,8.637,0.621,10.559,1.902c1.904,1.266,2.863,3.885,2.863,7.859
	c0,0.586-0.037,1.227-0.113,1.887c-11.854,0.227-20.148,2.109-24.881,5.691c-4.732,3.563-7.088,8.145-7.088,13.742
	c0,4.242,1.506,7.633,4.563,10.2c3.035,2.547,6.842,3.826,11.459,3.826c6.885,0,12.348-1.734,16.402-5.184h0.717
	c0,1.246,0.281,2.639,0.883,4.205L701.447,215.76L701.447,215.76z M686.707,204.279c-0.227-4.975-0.34-9.275-0.34-12.877
	c-12.553,0-18.83,3.186-18.83,9.559c0,4.373,2.771,6.561,8.295,6.561C680.168,207.521,683.785,206.447,686.707,204.279
	L686.707,204.279z M751.965,204.771c-8.199,0.693-16.494,1.055-24.84,1.055v-0.832c0-1.338,3.486-6.521,10.441-15.57
	c5.955-7.783,10.104-12.93,12.422-15.479l0.828-10.59h-40.092l-0.285,10.877c7.373-0.623,15.438-0.943,24.188-0.943v0.887
	c0,1.32-3.639,6.578-10.934,15.736c-6.805,8.578-11.123,13.709-12.969,15.346l-0.775,10.557h41.756L751.965,204.771L751.965,204.771
	z M776.869,215.814c-0.506-8.028-0.771-16.776-0.771-26.239c0-11.084,0.246-20.188,0.715-27.332l-15.889,1.602
	c1.24,7.369,1.865,15.947,1.865,25.73c0,9.879-0.246,18.623-0.775,26.239H776.869L776.869,215.814z M779.416,146.671
	c0-2.242-0.719-4.166-2.135-5.768c-1.41-1.602-3.426-2.412-6.049-2.412c-3.092,0-5.482,0.922-7.199,2.77
	c-1.717,1.85-2.563,4.016-2.563,6.523c0,2.279,0.715,4.223,2.182,5.842c1.455,1.621,3.473,2.432,6.035,2.432
	c3.053,0,5.447-0.941,7.164-2.809C778.566,151.367,779.416,149.179,779.416,146.671L779.416,146.671z M839.281,215.814
	c-0.186-12.194-0.279-20.77-0.279-25.731c0-1.885,0.035-3.711,0.127-5.506c0.1-1.789,0.152-3.201,0.152-4.275
	c0-7.186-1.713-12.102-5.105-14.781c-3.41-2.658-7.957-3.994-13.631-3.994c-6.541,0-12.348,2.168-17.377,6.52h-0.887l-0.945-5.859
	l-14.139,1.545c1.813,7.803,2.699,16.117,2.699,24.92c0,6.58-0.324,15.643-0.982,27.163h14.854c0-11.52-0.094-24.469-0.283-38.831
	c3.752-2.863,7.732-4.301,11.934-4.301c3.508,0,6.109,1.039,7.82,3.094c1.701,2.055,2.568,5.975,2.568,11.764
	c0,9.537-0.416,18.961-1.227,28.274H839.281L839.281,215.814z M884.391,179.919c0-3.313-1.055-5.838-3.205-7.574
	c-2.131-1.734-4.58-2.58-7.33-2.58c-2.773,0-5.188,0.83-7.262,2.506c-2.09,1.674-3.125,4.129-3.125,7.371
	c0,3.277,1.072,5.766,3.201,7.465c2.131,1.676,4.621,2.525,7.447,2.525c2.693,0,5.072-0.813,7.164-2.453
	C883.357,185.541,884.391,183.13,884.391,179.919L884.391,179.919z M666.35,310.975c-1.188-4.863-1.771-11.1-1.771-18.719
	c0-1.357,0.066-4.088,0.189-8.178c0.121-4.09,0.207-6.9,0.207-8.445c0-6.996-1.818-11.887-5.447-14.684
	c-3.629-2.801-8.766-4.205-15.439-4.205c-9.127,0-16.193,0.867-21.205,2.602l-1.209,10.16c5.299-1.471,10.727-2.207,16.289-2.207
	c5.127,0,8.631,0.627,10.555,1.904c1.9,1.264,2.865,3.883,2.865,7.861c0,0.586-0.039,1.227-0.113,1.887
	c-11.857,0.227-20.146,2.117-24.881,5.691c-4.729,3.568-7.092,8.145-7.092,13.74c0,4.246,1.51,7.639,4.564,10.201
	c3.033,2.545,6.844,3.826,11.461,3.826c6.881,0,12.348-1.734,16.4-5.184h0.717c0,1.242,0.283,2.639,0.885,4.205L666.35,310.975
	L666.35,310.975z M651.609,299.496c-0.227-4.975-0.34-9.273-0.34-12.875c-12.553,0-18.83,3.186-18.83,9.557
	c0,4.375,2.771,6.563,8.291,6.563C645.066,302.74,648.688,301.664,651.609,299.496L651.609,299.496z M718.754,299.443
	c-4.863,1.467-8.934,2.203-12.197,2.203c-5.598,0-9.938-1.734-12.986-5.184c-3.059-3.463-4.578-7.709-4.578-12.703
	c0-4.602,1.281-8.482,3.863-11.635c2.582-3.146,6.088-4.729,10.553-4.729c4.189,0,7.973,0.715,11.369,2.109l1.887-11.275
	c-3.549-1.014-7.58-1.541-12.105-1.541c-9.271,0-16.586,2.887-21.922,8.652c-5.33,5.752-8.012,12.496-8.012,20.225
	c0,7.445,2.549,13.816,7.654,19.115c5.094,5.291,12.404,7.955,21.9,7.955c5.732,0,10.275-0.885,13.633-2.662L718.754,299.443
	L718.754,299.443z M772.27,310.975c-1.189-4.863-1.771-11.1-1.771-18.719c0-1.357,0.064-4.088,0.189-8.178
	c0.119-4.09,0.205-6.9,0.205-8.445c0-6.996-1.818-11.887-5.447-14.684c-3.629-2.801-8.764-4.205-15.438-4.205
	c-9.123,0-16.191,0.867-21.209,2.602l-1.203,10.16c5.299-1.471,10.723-2.207,16.283-2.207c5.131,0,8.635,0.627,10.561,1.904
	c1.9,1.264,2.863,3.883,2.863,7.861c0,0.586-0.039,1.227-0.115,1.887c-11.855,0.227-20.146,2.117-24.877,5.691
	c-4.73,3.568-7.09,8.145-7.09,13.74c0,4.246,1.508,7.639,4.561,10.201c3.033,2.545,6.844,3.826,11.463,3.826
	c6.879,0,12.346-1.734,16.402-5.184h0.709c0,1.242,0.287,2.639,0.889,4.205L772.27,310.975L772.27,310.975z M757.525,299.496
	c-0.223-4.975-0.338-9.273-0.338-12.875c-12.553,0-18.83,3.186-18.83,9.557c0,4.375,2.773,6.563,8.297,6.563
	C750.986,302.74,754.605,301.664,757.525,299.496L757.525,299.496z M836.096,283.588c0-8.691-2.619-15.439-7.861-20.244
	c-5.24-4.807-11.535-7.203-18.869-7.203c-7.725,0-14.453,2.625-20.203,7.9c-5.746,5.262-8.617,12.551-8.617,21.865
	c0,8.652,2.641,15.363,7.896,20.131c5.26,4.77,11.572,7.145,18.949,7.145c7.725,0,14.447-2.611,20.152-7.842
	C833.242,300.107,836.096,292.861,836.096,283.588L836.096,283.588z M821.699,285.248c0-5.338-1.258-9.832-3.754-13.463
	c-2.498-3.625-5.771-5.426-9.783-5.426c-3.906,0-7.076,1.695-9.523,5.07c-2.451,3.389-3.672,7.631-3.672,12.705
	c0,5.332,1.24,9.824,3.752,13.459c2.5,3.625,5.77,5.426,9.783,5.426c3.898,0,7.074-1.693,9.518-5.064
	C820.473,294.563,821.699,290.316,821.699,285.248z"/>
</svg>
