
<svg xmlns="http://www.w3.org/2000/svg" version="1.1" xmlns:xlink="http://www.w3.org/1999/xlink" preserveAspectRatio="none" x="0px" y="0px" width="109px" height="22px" viewBox="0 0 109 22">
<defs>
<g id="Layer0_0_FILL">
<path fill="#724C35" stroke="none" d="
M 5.15 7.95
Q 4.55 7.95 4 8.15 3.4 8.4 2.9 8.85 2.05 9.75 2 11.05
L 2 11.2
Q 2.05 12.45 2.9 13.3 3.4 13.8 4 14.05 4.55 14.25 5.15 14.25 6.45 14.25 7.35 13.3 8.3 12.4 8.3 11.1 8.3 9.8 7.35 8.85 6.45 7.95 5.15 7.95
M 24.4 8.85
Q 23.5 9.8 23.5 11.1 23.5 12.4 24.4 13.3 25.35 14.25 26.65 14.25 27.95 14.25 28.85 13.3 29.8 12.4 29.8 11.1 29.8 9.8 28.85 8.85 27.95 7.95 26.65 7.95 25.35 7.95 24.4 8.85
M 68.3 11.25
L 68.15 11.5 52.15 21.25 60.95 21.25 76.95 11.5 61.1 1.5 52.3 1.5 68.3 11.25
M 109.05 11.5
L 93.2 1.5 84.4 1.5 100.4 11.25 100.25 11.5 84.25 21.25 93.05 21.25 109.05 11.5 Z"/>

<path fill="#B94D4D" stroke="none" d="
M 19.05 11.1
Q 19.05 9.8 18.1 8.85 17.2 7.95 15.9 7.95 14.6 7.95 13.65 8.85 12.75 9.8 12.75 11.1 12.75 12.4 13.65 13.3 14.6 14.25 15.9 14.25 17.2 14.25 18.1 13.3 19.05 12.4 19.05 11.1 Z"/>

<path fill="#FFD11E" stroke="none" d="
M 52.8 11.25
L 52.65 11.5 36.65 21.25 45.45 21.25 61.45 11.5 45.6 1.5 36.8 1.5 52.8 11.25
M 84.9 11.25
L 84.75 11.5 68.75 21.25 77.55 21.25 93.55 11.5 77.7 1.5 68.9 1.5 84.9 11.25 Z"/>
</g>
</defs>

<g transform="matrix( 1, 0, 0, 1, 0,0) ">
<use xlink:href="#Layer0_0_FILL"/>
</g>
</svg>
