<?xml version="1.0" standalone="no"?>
<!DOCTYPE svg PUBLIC "-//W3C//DTD SVG 1.1//EN" "http://www.w3.org/Graphics/SVG/1.1/DTD/svg11.dtd" >
<svg xmlns="http://www.w3.org/2000/svg" xmlns:xlink="http://www.w3.org/1999/xlink" version="1.1">
<metadata></metadata>
<defs>
<font id="fira_sans_otitalic" horiz-adv-x="542" >
<font-face units-per-em="2048" ascent="1638" descent="-410" />
<missing-glyph horiz-adv-x="500" />
<glyph horiz-adv-x="0" />
<glyph horiz-adv-x="0" />
<glyph horiz-adv-x="682" />
<glyph unicode="&#xd;" />
<glyph unicode=" " />
<glyph unicode="!" d="M74 119q0 59 40.5 100t100.5 41q61 0 102 -41t41 -100q0 -60 -41 -102t-102 -42q-60 0 -100.5 42t-40.5 102zM170 459l86 952h225l-143 -924z" />
<glyph unicode="&#x22;" horiz-adv-x="931" d="M289 874v537h203l-64 -537h-139zM657 874v537h203l-63 -537h-140z" />
<glyph unicode="#" horiz-adv-x="1024" d="M-23 342l19 141h174l106 408h-163l16 143h182l86 336h160l-88 -336h289l86 336h160l-89 -336h158l-16 -143h-176l-105 -408h162l-18 -141h-183l-84 -342h-159l86 342h-287l-86 -342h-160l86 342h-156zM330 483h286l107 408h-289z" />
<glyph unicode="$" horiz-adv-x="1030" d="M-4 162l119 121q97 -82 179 -113t181 -31q133 0 220 69t87 175q0 93 -56.5 149t-213.5 105q-215 67 -301 157.5t-86 235.5q0 140 109 238t296 108l33 314h160l-35 -320q182 -23 326 -147l-109 -125q-74 64 -151.5 92.5t-180.5 28.5q-118 0 -181.5 -48.5t-63.5 -134.5 q0 -56 21 -93.5t84.5 -76t182.5 -78.5q203 -68 285.5 -157t85.5 -234q0 -170 -131.5 -291t-343.5 -131l-35 -290h-162l37 301q-216 29 -356 176z" />
<glyph unicode="%" horiz-adv-x="1740" d="M207 1006q0 184 93 284.5t259 100.5q140 0 229 -88.5t91 -221.5q0 -80 -21.5 -148.5t-63 -121.5t-110 -83t-156.5 -30q-143 0 -232 84.5t-89 223.5zM260 23l1122 1427l129 -82l-1124 -1427zM373 1014q0 -92 40.5 -140.5t110.5 -48.5q88 0 137.5 62.5t49.5 185.5 q0 92 -41.5 141.5t-110.5 49.5q-83 0 -134.5 -64t-51.5 -186zM887 283q0 184 93 284.5t259 100.5q140 0 229 -88.5t91 -221.5q0 -80 -21 -148t-62.5 -121.5t-109.5 -83.5t-156 -30q-145 0 -234 84.5t-89 223.5zM1053 285q0 -88 41.5 -135.5t111.5 -47.5q88 0 136.5 62.5 t48.5 185.5q0 92 -41.5 141.5t-110.5 49.5q-83 0 -134.5 -66t-51.5 -190z" />
<glyph unicode="&#x26;" horiz-adv-x="1767" d="M92 506q0 173 53.5 319.5t140.5 241.5t195.5 148t220.5 53q152 0 246 -81t94 -208q0 -205 -202.5 -336t-548.5 -154q4 -187 88.5 -270.5t263.5 -83.5q278 0 484 185.5t278 500.5h-225l18 156h635l-18 -156h-226q-27 -133 -83 -256t-143 -231t-196 -187.5t-249 -125.5 t-295 -46q-251 0 -391 134t-140 397zM297 633q149 12 256 42t169 75.5t90 100.5t28 124q0 67 -37.5 102t-108.5 35q-138 0 -253.5 -128.5t-143.5 -350.5z" />
<glyph unicode="'" horiz-adv-x="563" d="M289 874v537h203l-64 -537h-139z" />
<glyph unicode="(" horiz-adv-x="665" d="M82 551q0 149 27.5 290t72.5 258.5t112.5 232.5t138.5 207t159 187l117 -84q-433 -515 -433 -1091q0 -232 53.5 -409t159.5 -351l-133 -82q-154 260 -214 439.5t-60 402.5z" />
<glyph unicode=")" horiz-adv-x="665" d="M-16 -207q432 513 432 1092q0 232 -53.5 409t-159.5 351l137 81q151 -258 210.5 -439t59.5 -402q0 -184 -40.5 -354.5t-115.5 -317t-160.5 -265.5t-197.5 -239z" />
<glyph unicode="*" horiz-adv-x="901" d="M131 1147l55 174l285 -123l-31 313h185l-33 -313l287 123l55 -174l-301 -66l215 -223l-150 -113l-163 267l-154 -271l-154 105l207 235z" />
<glyph unicode="+" horiz-adv-x="1024" d="M123 559l20 156h297l37 307h172l-37 -307h299l-20 -156h-299l-37 -305h-172l37 305h-297z" />
<glyph unicode="," d="M-27 -340l136 350q-48 42 -48 109q0 59 42 100t106 41q60 0 98.5 -38t38.5 -95q0 -61 -55 -154l-182 -313h-136z" />
<glyph unicode="-" horiz-adv-x="829" d="M121 561l22 160h580l-23 -160h-579z" />
<glyph unicode="." d="M66 119q0 59 40.5 100t100.5 41q61 0 102 -41t41 -100q0 -60 -41 -102t-102 -42q-60 0 -100.5 42t-40.5 102z" />
<glyph unicode="/" horiz-adv-x="1064" d="M63 -154l799 1813l154 -55l-797 -1815z" />
<glyph unicode="0" horiz-adv-x="1146" d="M113 512q0 222 43.5 393.5t119.5 276t173 157t210 52.5q179 0 286.5 -126t111.5 -368q0 -73 -6 -150t-23 -169.5t-42.5 -175.5t-69 -162.5t-98.5 -137t-133.5 -92.5t-172.5 -35q-197 0 -298 140t-101 397zM307 512q0 -387 221 -387q80 0 145 62t106 166.5t63 235.5 t22 275q0 377 -221 377q-66 0 -126 -46.5t-107 -134.5t-75 -229.5t-28 -318.5z" />
<glyph unicode="1" horiz-adv-x="823" d="M98 1110l455 260h162l-170 -1370h-185l142 1163l-328 -190z" />
<glyph unicode="2" horiz-adv-x="1034" d="M18 0l19 150q152 135 249 224.5t182.5 176t132 144t80.5 117.5t46 109.5t12 106.5q0 101 -52 154t-144 53q-76 0 -147 -36.5t-150 -115.5l-121 105q194 203 448 203q165 0 264 -90.5t99 -237.5q0 -103 -45.5 -211.5t-95.5 -184t-164 -185t-168.5 -155t-190.5 -154.5 l-18 -15h604l-41 -158h-799z" />
<glyph unicode="3" horiz-adv-x="1028" d="M-10 180l135 103q56 -72 134.5 -113t164.5 -41q126 0 199 75.5t73 213.5q0 105 -60.5 165t-184.5 60h-89l41 145h56q118 0 197 75t79 192q0 85 -54.5 134.5t-150.5 49.5q-134 0 -292 -125l-88 119q94 76 201 117t200 41q164 0 270.5 -88t106.5 -228q0 -115 -78.5 -214 t-216.5 -130l-2 -8q117 -20 188 -103t74 -198q0 -202 -130.5 -324.5t-342.5 -122.5q-131 0 -247 54.5t-183 150.5z" />
<glyph unicode="4" horiz-adv-x="1073" d="M47 338l14 135l506 918l152 -66l-453 -838h367l74 369h153l-45 -369h178l-16 -149h-178l-43 -338h-183l43 338h-569z" />
<glyph unicode="5" horiz-adv-x="1054" d="M14 160l131 104q52 -65 137.5 -100t161.5 -35q141 0 219 92.5t78 257.5q0 122 -57 185t-160 63q-81 0 -192 -49h-148l88 692h738l-41 -149h-537l-55 -400q114 51 221 51q150 0 243.5 -100.5t96.5 -279.5q0 -228 -133 -372.5t-361 -144.5q-125 0 -241.5 46t-188.5 139z " />
<glyph unicode="6" horiz-adv-x="1095" d="M111 485q0 213 46.5 386t127.5 286t189 173.5t233 60.5q180 0 284 -82l-94 -127q-44 32 -89 45.5t-108 13.5q-60 0 -119.5 -34.5t-111.5 -98.5t-93 -165.5t-61 -225.5q75 93 163.5 138.5t172.5 45.5q139 0 238.5 -101.5t99.5 -271.5q0 -128 -38 -234t-103 -175 t-149.5 -106.5t-178.5 -37.5q-210 0 -309.5 128.5t-99.5 381.5zM297 481q0 -193 50.5 -274.5t168.5 -81.5q122 0 202.5 107.5t80.5 283.5q0 119 -55 177.5t-144 58.5q-82 0 -159.5 -52.5t-141.5 -144.5q-2 -25 -2 -74z" />
<glyph unicode="7" horiz-adv-x="907" d="M125 39l610 1178h-606l21 153h796l-18 -141l-633 -1249z" />
<glyph unicode="8" horiz-adv-x="1138" d="M63 332q0 268 324 387q-87 47 -133.5 123.5t-46.5 167.5q0 174 112.5 277.5t325.5 103.5q172 0 281.5 -86.5t111.5 -223.5q0 -108 -60 -194.5t-204 -153.5q120 -52 182 -137.5t62 -194.5q0 -180 -136.5 -303t-371.5 -123q-194 0 -320.5 103t-126.5 254zM260 338 q0 -97 68.5 -155t185.5 -58q134 0 219.5 79.5t85.5 192.5q0 91 -67 152.5t-250 120.5q-242 -114 -242 -332zM393 1018q0 -82 57 -138t199 -100q111 57 157 125.5t46 155.5t-56.5 137.5t-154.5 50.5q-116 0 -182 -63t-66 -168z" />
<glyph unicode="9" horiz-adv-x="1093" d="M135 887q0 228 128.5 366t336.5 138q188 0 301 -116t113 -312q0 -431 -207.5 -672t-636.5 -336l-29 147q275 75 446 213t210 336l-4 2q-65 -74 -150 -114.5t-172 -40.5q-66 0 -126 25.5t-107 73t-75 123t-28 167.5zM326 899q0 -120 54.5 -187t141.5 -67q165 0 291 168 q10 71 10 152q0 137 -65 206.5t-164 69.5q-121 0 -194.5 -90t-73.5 -252z" />
<glyph unicode=":" d="M66 119q0 59 40.5 100t100.5 41q61 0 102 -41t41 -100q0 -60 -41 -102t-102 -42q-60 0 -100.5 42t-40.5 102zM172 883q0 59 40.5 100t100.5 41q61 0 102.5 -41t41.5 -100q0 -60 -41.5 -102t-102.5 -42q-60 0 -100.5 42t-40.5 102z" />
<glyph unicode=";" d="M-27 -340l136 350q-48 42 -48 109q0 59 42 100t106 41q60 0 98.5 -38t38.5 -95q0 -61 -55 -154l-182 -313h-136zM172 883q0 59 40.5 100t100.5 41q61 0 102.5 -41t41.5 -100q0 -60 -41.5 -102t-102.5 -42q-60 0 -100.5 42t-40.5 102z" />
<glyph unicode="&#x3c;" horiz-adv-x="1024" d="M127 586l25 192l774 350l57 -153l-694 -297l616 -291l-90 -151z" />
<glyph unicode="=" horiz-adv-x="1024" d="M98 360l19 160h770l-19 -160h-770zM147 754l19 159h770l-18 -159h-771z" />
<glyph unicode="&#x3e;" horiz-adv-x="1024" d="M66 389l694 297l-617 291l90 151l689 -350l-25 -192l-774 -350z" />
<glyph unicode="?" horiz-adv-x="1038" d="M158 1243q100 101 201.5 147t226.5 46q172 0 276.5 -84.5t104.5 -202.5q0 -68 -17 -123t-46 -92t-67 -67t-79.5 -51.5t-83 -41.5t-79.5 -42t-67 -47.5t-46 -62.5t-17 -83q0 -35 6 -60l-168 -28q-20 52 -20 102q0 75 27 134t70 96.5t94.5 69t103.5 58.5t95 56t70 71t27 95 q0 71 -52.5 109t-146.5 38q-154 0 -292 -147zM236 119q0 59 40.5 100t100.5 41q61 0 102 -41t41 -100q0 -60 -41 -102t-102 -42q-60 0 -100.5 42t-40.5 102z" />
<glyph unicode="@" horiz-adv-x="2088" d="M121 352q0 187 47.5 354t138 300t216 229.5t288.5 148.5t348 52q183 0 333.5 -52t251.5 -144.5t156.5 -220t55.5 -278.5q0 -144 -32.5 -274t-92 -230t-150.5 -159.5t-200 -59.5q-97 0 -163.5 55.5t-70.5 155.5l-8 2q-52 -98 -136 -150t-183 -52q-136 0 -223 97.5 t-87 276.5q0 147 39 263.5t108 190t160.5 112.5t198.5 39q169 0 324 -82l-72 -582q-20 -180 117 -180q119 0 199.5 153t80.5 418q0 253 -160.5 399t-447.5 146q-255 0 -447.5 -117t-294.5 -324.5t-102 -476.5q0 -296 169.5 -469.5t469.5 -173.5q214 0 420 70l33 -145 q-120 -40 -224 -60t-233 -20q-250 0 -437 96t-288.5 274.5t-101.5 417.5zM795 406q0 -121 46 -180.5t117 -59.5q148 0 240 176l62 496q-66 34 -154 34q-144 0 -227.5 -116t-83.5 -350z" />
<glyph unicode="A" horiz-adv-x="1165" d="M-70 0l631 1411h246l285 -1411h-199l-64 354h-544l-152 -354h-203zM352 512h449l-131 723h-8z" />
<glyph unicode="B" horiz-adv-x="1261" d="M133 0l172 1411h383q227 0 345 -86.5t118 -239.5q0 -111 -78 -207t-207 -124l-2 -9q126 -23 198.5 -105.5t72.5 -199.5q0 -205 -148.5 -322.5t-423.5 -117.5h-430zM346 158h250q166 0 249 73t83 209q0 226 -264 226h-254zM426 815h240q134 0 209 71.5t75 198.5 q0 86 -63 129t-197 43h-209z" />
<glyph unicode="C" horiz-adv-x="1157" d="M125 573q0 196 54 360.5t146 273t212.5 169t253.5 60.5q126 0 220 -37t173 -115l-117 -115q-66 57 -130 81t-151 24q-88 0 -168 -43t-144.5 -126.5t-103 -221t-38.5 -310.5q0 -430 332 -430q88 0 157 28t154 95l94 -133q-179 -158 -432 -158q-234 0 -373 153t-139 445z " />
<glyph unicode="D" horiz-adv-x="1335" d="M133 0l172 1411h334q280 0 442 -145t162 -416q0 -401 -196 -625.5t-535 -224.5h-379zM346 154h176q231 0 373.5 176t142.5 512q0 215 -105.5 314t-307.5 99h-144z" />
<glyph unicode="E" horiz-adv-x="1085" d="M133 0l172 1411h764l-41 -156h-547l-57 -460h475l-18 -156h-475l-60 -483h586l-19 -156h-780z" />
<glyph unicode="F" horiz-adv-x="1015" d="M133 0l172 1411h750l-41 -156h-533l-59 -481h461l-19 -153h-461l-75 -621h-195z" />
<glyph unicode="G" horiz-adv-x="1290" d="M125 584q0 164 36.5 303.5t101 239.5t151 170.5t186 104.5t207.5 34q250 0 420 -156l-125 -119q-69 61 -139.5 88t-167.5 27q-92 0 -174.5 -44.5t-148 -128.5t-104 -219t-38.5 -304q0 -232 87.5 -338.5t256.5 -106.5q136 0 262 72l51 411h-266l-6 158h481l-82 -667 q-101 -67 -220.5 -100.5t-236.5 -33.5q-262 0 -397 151.5t-135 457.5z" />
<glyph unicode="H" horiz-adv-x="1370" d="M133 0l172 1411h195l-72 -590h573l72 590h195l-172 -1411h-195l80 662h-573l-80 -662h-195z" />
<glyph unicode="I" horiz-adv-x="602" d="M133 0l172 1411h195l-172 -1411h-195z" />
<glyph unicode="J" horiz-adv-x="606" d="M-98 -125q142 50 198 123.5t74 220.5l145 1192h195l-149 -1218q-25 -201 -122 -311t-302 -167z" />
<glyph unicode="K" horiz-adv-x="1185" d="M133 0l172 1411h195l-172 -1411h-195zM430 754l612 657h226l-619 -663l486 -748h-230z" />
<glyph unicode="L" horiz-adv-x="1009" d="M133 0l172 1411h195l-154 -1241h580l-41 -170h-752z" />
<glyph unicode="M" horiz-adv-x="1609" d="M45 0l289 1411h256l182 -1030h8l426 1030h271l-56 -1411h-188l27 723q4 132 15 277t17 192h-8l-442 -1042h-187l-198 1042h-8q-33 -256 -76 -469l-144 -723h-184z" />
<glyph unicode="N" horiz-adv-x="1388" d="M133 0l172 1411h252l418 -1200h8q0 209 37 512l84 688h182l-172 -1411h-258l-412 1194h-8q0 -52 -9 -208t-26 -298l-84 -688h-184z" />
<glyph unicode="O" horiz-adv-x="1409" d="M125 555q0 89 12 177.5t37.5 175.5t63.5 165t93 145t121.5 115t154 75.5t186.5 27.5q238 0 380 -151.5t142 -432.5q0 -127 -23.5 -249.5t-75.5 -237t-128 -200.5t-189.5 -138t-251.5 -52q-238 0 -380 150t-142 430zM330 545q0 -410 319 -410q76 0 140.5 24.5t111 66 t83 100.5t59.5 123.5t38 138.5t21 142.5t6 139.5q0 406 -317 406q-87 0 -159.5 -32.5t-121.5 -89.5t-85 -128t-56 -155.5t-29.5 -164.5t-9.5 -161z" />
<glyph unicode="P" horiz-adv-x="1189" d="M133 0l172 1411h352q251 0 385 -101.5t134 -283.5q0 -236 -151 -372t-411 -136h-223l-63 -518h-195zM410 672h211q163 0 256.5 90t93.5 260q0 120 -78.5 179t-245.5 59h-166z" />
<glyph unicode="Q" horiz-adv-x="1409" d="M125 555q0 89 12 177.5t37.5 175.5t63.5 165t93 145t121.5 115t154 75.5t186.5 27.5q238 0 380 -151.5t142 -432.5q0 -284 -96 -477t-273 -289l-2 -6q232 -11 379 -123l-147 -168q-107 107 -225 149t-308 42q-239 2 -378.5 148.5t-139.5 426.5zM330 545q0 -410 319 -410 q76 0 140.5 24.5t111 66t83 100.5t59.5 123.5t38 138.5t21 142.5t6 139.5q0 406 -317 406q-87 0 -159.5 -32.5t-121.5 -89.5t-85 -128t-56 -155.5t-29.5 -164.5t-9.5 -161z" />
<glyph unicode="R" horiz-adv-x="1218" d="M133 0l172 1411h352q251 0 380.5 -93.5t129.5 -260.5t-101 -283.5t-271 -150.5l321 -623h-221l-289 598h-207l-71 -598h-195zM418 748h213q156 0 241.5 78.5t85.5 226.5q0 104 -74.5 155.5t-234.5 51.5h-168z" />
<glyph unicode="S" horiz-adv-x="1085" d="M2 164l123 123q97 -84 177 -116t179 -32q130 0 221 77t91 192q0 93 -56.5 148t-216.5 106q-203 65 -289 159t-86 240q0 155 126.5 265t328.5 110q136 0 240 -37t198 -119l-110 -127q-73 64 -149.5 92.5t-180.5 28.5q-116 0 -183 -57t-67 -156q0 -58 21.5 -95t82.5 -72.5 t179 -74.5q198 -66 282 -158t84 -243q0 -184 -146 -313.5t-370 -129.5q-147 0 -272 52t-207 137z" />
<glyph unicode="T" horiz-adv-x="1038" d="M102 1245l21 166h1010l-41 -166h-390l-151 -1245h-195l152 1245h-406z" />
<glyph unicode="U" horiz-adv-x="1353" d="M166 397q0 47 6 97l113 917h194l-114 -915q-7 -61 -7 -95q0 -137 67 -199.5t202 -62.5q139 0 224.5 83t104.5 237l119 952h197l-117 -944q-29 -233 -170 -362.5t-356 -129.5q-223 0 -343 108.5t-120 313.5z" />
<glyph unicode="V" horiz-adv-x="1169" d="M121 1411h203l213 -1196h6l512 1196h202l-634 -1411h-209z" />
<glyph unicode="W" horiz-adv-x="1681" d="M143 1411h185l73 -1223h9l421 1223h207l129 -1216h7l382 1216h185l-459 -1411h-254l-119 1143h-8l-399 -1143h-244z" />
<glyph unicode="X" horiz-adv-x="1128" d="M-74 0l527 752l-318 659h211l229 -524h9l364 524h219l-483 -649l358 -762h-211l-266 618h-8l-412 -618h-219z" />
<glyph unicode="Y" horiz-adv-x="1105" d="M100 1411h203l256 -690h8l424 690h215l-561 -870l-65 -541h-197l66 541z" />
<glyph unicode="Z" horiz-adv-x="1042" d="M-25 0l19 156l833 1091h-626l20 164h842l-19 -158l-829 -1087h694l-41 -166h-893z" />
<glyph unicode="[" horiz-adv-x="665" d="M35 -238l235 1909h424l-20 -158h-246l-195 -1595h246l-20 -156h-424z" />
<glyph unicode="\" horiz-adv-x="1064" d="M82 1612l162 47l696 -1813l-164 -49z" />
<glyph unicode="]" horiz-adv-x="665" d="M2 -238l21 156h245l195 1595h-246l21 158h424l-236 -1909h-424z" />
<glyph unicode="^" horiz-adv-x="1064" d="M131 1079l477 641h168l297 -641h-194l-207 477l-336 -477h-205z" />
<glyph unicode="_" horiz-adv-x="1064" d="M-86 -291l20 162h996l-23 -162h-993z" />
<glyph unicode="`" horiz-adv-x="620" d="M61 1466l84 176l414 -253l-51 -109z" />
<glyph unicode="a" horiz-adv-x="1177" d="M92 410q0 155 46 286.5t124 220t182 138t220 49.5q115 0 193.5 -19t193.5 -73l-113 -750q-6 -38 -6 -59q0 -39 13.5 -59.5t45.5 -32.5l-59 -136q-81 9 -132 59t-57 128q-67 -87 -151 -137t-162 -50q-157 0 -247.5 110.5t-90.5 324.5zM297 410q0 -147 51 -216t131 -69 q63 0 137 56t142 157l90 582q-77 34 -174 34q-77 0 -144 -34t-119.5 -99t-83 -171t-30.5 -240z" />
<glyph unicode="b" horiz-adv-x="1189" d="M111 53l204 1460l193 23l-96 -664q71 109 170.5 170.5t189.5 61.5q142 0 222.5 -96t80.5 -295q0 -217 -75.5 -386.5t-206 -260.5t-291.5 -91q-200 0 -391 78zM311 166q95 -41 199 -41q71 0 135.5 38t115.5 110t81 186t30 254q0 241 -149 241q-76 0 -167.5 -78.5 t-176.5 -234.5z" />
<glyph unicode="c" horiz-adv-x="954" d="M92 438q0 154 44.5 282t120 211t172.5 128t204 45q182 0 321 -115l-92 -127q-60 47 -109.5 65.5t-117.5 18.5q-139 0 -239.5 -135.5t-100.5 -372.5q0 -154 60 -228.5t167 -74.5q116 0 250 90l72 -135q-160 -115 -342 -115q-185 0 -297.5 122t-112.5 341z" />
<glyph unicode="d" horiz-adv-x="1200" d="M92 424q0 154 41.5 284.5t110.5 215.5t156 132.5t180 47.5q174 0 297 -129l79 561l189 -23l-215 -1513h-166l2 166q-70 -90 -154.5 -140.5t-169.5 -50.5q-157 0 -253.5 116t-96.5 333zM295 424q0 -157 53.5 -228t145.5 -71q68 0 146 59.5t148 167.5l68 473 q-58 72 -116.5 100.5t-129.5 28.5q-48 0 -93 -20t-85.5 -62.5t-70.5 -104t-48 -150t-18 -193.5z" />
<glyph unicode="e" horiz-adv-x="1044" d="M92 430q0 155 44 283.5t119.5 213t176 131t213.5 46.5q161 0 253.5 -73.5t92.5 -203.5q0 -169 -171.5 -277t-528.5 -132q3 -141 62.5 -212t152.5 -71q78 0 144.5 22t142.5 76l79 -131q-172 -127 -358 -127q-199 0 -310.5 121.5t-111.5 333.5zM299 551q141 11 238 35 t151 59.5t77 78.5t23 99q0 63 -39 97t-108 34q-124 0 -220 -109.5t-122 -293.5z" />
<glyph unicode="f" horiz-adv-x="641" d="M-127 -297q84 36 132.5 78.5t78 109.5t45.5 175l123 868h-172l20 145h172l17 121q24 179 109 257.5t239 78.5q134 0 270 -82l-71 -129q-100 59 -203 59q-71 0 -107 -38.5t-49 -143.5l-16 -123h262l-41 -145h-242l-123 -868q-31 -214 -115.5 -321t-277.5 -179z" />
<glyph unicode="g" horiz-adv-x="1187" d="M47 -332l72 139q156 -86 293 -86q127 0 210.5 78t106.5 234l21 141q-67 -83 -150 -130.5t-160 -47.5q-155 0 -251.5 116t-96.5 328q0 144 47 269.5t126.5 211t185 134.5t221.5 49q113 0 196.5 -20t192.5 -72l-141 -979q-33 -227 -166 -348t-336 -121q-193 0 -371 104z M297 440q0 -151 51 -220.5t133 -69.5q71 0 149.5 55t145.5 157l82 558q-47 20 -84.5 27t-95.5 7q-75 0 -142.5 -32.5t-121 -94.5t-85.5 -162t-32 -225z" />
<glyph unicode="h" horiz-adv-x="1179" d="M104 0l211 1513l193 23l-94 -668q168 236 368 236q116 0 182 -67.5t66 -200.5q0 -38 -6 -82l-104 -754h-189l96 713q9 55 9 96q0 79 -29 109t-90 30q-165 0 -334 -307l-90 -641h-189z" />
<glyph unicode="i" d="M94 0l152 1079h188l-151 -1079h-189zM258 1464q0 55 36.5 91t94.5 36t95.5 -36.5t37.5 -90.5q0 -56 -37.5 -92.5t-95.5 -36.5t-94.5 36.5t-36.5 92.5z" />
<glyph unicode="j" d="M-158 -293q62 27 101 52.5t73 66t54 98.5t32 142l144 1013h188l-143 -1013q-16 -115 -46.5 -196.5t-81.5 -138.5t-112.5 -94t-154.5 -71zM258 1464q0 55 36.5 91t94.5 36t95.5 -36.5t37.5 -90.5q0 -56 -37.5 -92.5t-95.5 -36.5t-94.5 36.5t-36.5 92.5z" />
<glyph unicode="k" horiz-adv-x="1107" d="M104 0l211 1513l193 23l-92 -657q76 112 173.5 168.5t203.5 56.5q112 0 187 -68.5t75 -169.5q0 -136 -84 -236t-250 -153l244 -477h-211l-256 526q191 54 274.5 127t83.5 185q0 56 -31.5 86t-87.5 30q-95 0 -193 -83.5t-163 -243.5l-88 -627h-189z" />
<glyph unicode="l" horiz-adv-x="557" d="M115 236l180 1277l192 23l-186 -1317q-2 -17 -3 -30q0 -25 9 -37q13 -19 49 -19t66 12l43 -133q-81 -37 -158 -37q-104 -1 -157 67q-40 50 -40 134q0 28 5 60z" />
<glyph unicode="m" horiz-adv-x="1746" d="M104 0l152 1079h162l-21 -229q175 254 383 254q95 0 154 -58t65 -172q166 230 375 230q103 0 163 -63t60 -189q0 -38 -6 -82l-108 -770h-189l101 721q8 55 8 104q0 70 -23 96.5t-71 26.5q-71 0 -157 -72.5t-175 -232.5l-90 -643h-187l101 721q8 55 8 104q0 70 -23 96.5 t-71 26.5q-71 0 -158.5 -73.5t-175.5 -235.5l-88 -639h-189z" />
<glyph unicode="n" horiz-adv-x="1179" d="M104 0l152 1079h162l-21 -229q175 254 385 254q116 0 182 -67.5t66 -200.5q0 -38 -6 -82l-104 -754h-189l96 713q9 55 9 96q0 79 -29 109t-90 30q-165 0 -336 -309l-88 -639h-189z" />
<glyph unicode="o" horiz-adv-x="1177" d="M92 428q0 104 21 201t66 183.5t109 151.5t156 102.5t201 37.5q198 0 309 -121t111 -330q0 -196 -67.5 -349.5t-193.5 -241t-290 -87.5q-198 0 -310 121.5t-112 331.5zM293 412q0 -145 56 -215t171 -70q88 0 156 46.5t108 125t60 172t20 197.5q0 284 -225 284 q-153 0 -249.5 -137.5t-96.5 -402.5z" />
<glyph unicode="p" horiz-adv-x="1189" d="M43 -436l213 1515h162l-19 -229q70 119 173.5 186.5t199.5 67.5q140 0 222.5 -96.5t82.5 -286.5q0 -167 -40 -309t-107 -236.5t-155 -147.5t-185 -53q-165 0 -283 134l-74 -523zM328 252q95 -129 233 -129q56 0 111 40.5t100.5 113.5t73.5 188t28 252q0 119 -43.5 178 t-107.5 59q-76 0 -166.5 -77t-173.5 -230z" />
<glyph unicode="q" horiz-adv-x="1187" d="M92 430q0 147 47 274.5t126.5 214t185 136t221.5 49.5q113 0 196.5 -20t192.5 -72l-203 -1426l-192 -22l84 588q-68 -82 -151 -129.5t-159 -47.5q-155 0 -251.5 118t-96.5 337zM295 430q0 -158 51.5 -229.5t134.5 -71.5q70 0 148 55t147 158l82 578q-50 21 -85.5 27.5 t-96.5 6.5q-73 0 -140 -33t-121.5 -95.5t-87 -165t-32.5 -230.5z" />
<glyph unicode="r" horiz-adv-x="770" d="M104 0l152 1079h162l-27 -284q67 157 155 233t181 76q57 0 104 -12l-63 -201q-46 12 -88 12q-186 -3 -315 -387l-72 -516h-189z" />
<glyph unicode="s" horiz-adv-x="946" d="M-6 131l112 119q61 -57 141 -90t163 -33q98 0 158.5 46.5t60.5 121.5q0 69 -48 112t-186 89q-144 48 -214 125t-70 174q0 140 105.5 224.5t291.5 84.5q204 0 350 -119l-94 -127q-119 96 -264 96q-89 0 -138 -38.5t-49 -104.5q0 -41 16 -66t65 -52t149 -62 q147 -51 217.5 -128t70.5 -190q0 -156 -113.5 -247t-322.5 -91q-116 0 -225 45.5t-176 110.5z" />
<glyph unicode="t" horiz-adv-x="733" d="M80 936l20 143h174l74 250l150 17l-37 -267h272l-43 -143h-250l-90 -645q-4 -27 -4 -49q0 -48 18 -72q26 -36 89 -35q63 0 147 47l66 -133q-117 -74 -248 -74q-126 0 -192 65t-66 193q0 37 6 84l86 619h-172z" />
<glyph unicode="u" horiz-adv-x="1167" d="M133 236q0 36 6 83l107 760h188l-106 -751q-6 -40 -6 -70q0 -73 33 -104t100 -31q69 0 156.5 64t144.5 161l104 731h189l-152 -1079h-162l6 180q-72 -99 -161.5 -152t-176.5 -53q-133 0 -201.5 65.5t-68.5 195.5z" />
<glyph unicode="v" horiz-adv-x="983" d="M78 1079h194l154 -905h8l410 905h200l-528 -1079h-219z" />
<glyph unicode="w" horiz-adv-x="1464" d="M98 1079h183l59 -929h8l350 929h211l78 -925h8l324 925h186l-399 -1079h-256l-70 889h-8l-326 -889h-249z" />
<glyph unicode="x" horiz-adv-x="952" d="M-96 0l452 571l-258 508h211l166 -387h8l279 387h223l-403 -504l292 -575h-217l-196 449h-8l-328 -449h-221z" />
<glyph unicode="y" horiz-adv-x="978" d="M-35 -285q155 27 239.5 92t145.5 193h-69l-201 1079h194l148 -927h8l410 927h200l-508 -1083q-46 -97 -95 -167.5t-115 -128.5t-153.5 -91.5t-197.5 -44.5z" />
<glyph unicode="z" horiz-adv-x="872" d="M-43 0l18 141l658 779h-500l23 159h729l-21 -143l-651 -778h547l-43 -158h-760z" />
<glyph unicode="{" horiz-adv-x="665" d="M59 641l19 152q87 0 119.5 34t42.5 117l57 463q21 172 118 238.5t302 66.5l-19 -145q-111 0 -161.5 -32t-59.5 -108l-59 -489q-13 -103 -58.5 -152.5t-121.5 -64.5l-2 -8q72 -18 104.5 -68.5t21.5 -148.5l-59 -490q-9 -77 34 -108t155 -31l-19 -146q-190 0 -278 73 t-68 233l57 460q10 84 -14.5 119t-110.5 35z" />
<glyph unicode="|" horiz-adv-x="825" d="M229 -209l230 1862h170l-230 -1862h-170z" />
<glyph unicode="}" horiz-adv-x="665" d="M-23 -279l19 146q111 0 161.5 31.5t59.5 107.5l59 490q13 103 59 152.5t122 64.5l2 8q-72 18 -105 68.5t-22 148.5l59 489q9 77 -34 108.5t-154 31.5l18 145q190 0 278 -72.5t68 -232.5l-57 -461q-10 -84 14.5 -118.5t110.5 -34.5l-19 -152q-86 0 -118.5 -34.5 t-42.5 -117.5l-58 -462q-21 -172 -118.5 -239t-301.5 -67z" />
<glyph unicode="~" horiz-adv-x="1024" d="M84 588q119 188 287 188q55 0 106 -18t82 -39t66 -39t63 -18q47 0 80.5 26t67.5 76l116 -66q-113 -186 -284 -186q-55 0 -106.5 18.5t-82.5 40t-66 40t-63 18.5q-47 0 -80.5 -27t-68.5 -78z" />
<glyph unicode="&#xa0;" />
<glyph unicode="&#xa1;" d="M35 -414l145 928l164 29l-84 -957h-225zM158 881q0 60 41 101.5t102 41.5q60 0 100.5 -41.5t40.5 -101.5q0 -59 -40.5 -100.5t-100.5 -41.5q-61 0 -102 41.5t-41 100.5z" />
<glyph unicode="&#xa2;" horiz-adv-x="976" d="M104 438q0 140 36.5 258.5t100 200.5t146.5 133.5t178 67.5l37 303h162l-35 -303q125 -19 238 -109l-93 -127q-60 47 -109.5 65.5t-117.5 18.5q-139 0 -239.5 -135.5t-100.5 -372.5q0 -154 60.5 -228.5t167.5 -74.5q61 0 119 20.5t130 69.5l72 -135q-128 -90 -268 -108 l-35 -297h-164l35 299q-147 29 -233.5 146.5t-86.5 307.5z" />
<glyph unicode="&#xa3;" horiz-adv-x="1024" d="M-10 0l16 150q49 15 83.5 36.5t55 43.5t33.5 55.5t18.5 62t10.5 72.5l29 229h-166l14 123h166l31 248q21 177 115 274t268 97q235 0 368 -181l-137 -94q-98 121 -229 121q-94 0 -140.5 -51.5t-58.5 -163.5l-31 -250h416l-14 -123h-416l-27 -221q-12 -94 -44.5 -160.5 t-100.5 -101.5l-2 -8h663l-41 -158h-880z" />
<glyph unicode="&#xa5;" horiz-adv-x="1024" d="M88 1370h199l241 -596h9l387 596h209l-461 -661h239l-14 -125h-289l-22 -183h288l-14 -122h-289l-34 -279h-193l35 279h-289l14 122h289l23 183h-289l14 125h238z" />
<glyph unicode="&#xa7;" horiz-adv-x="1024" d="M55 -33l101 123q121 -86 272 -86q98 0 145.5 42.5t47.5 115.5q0 35 -16 59t-66.5 50t-147.5 57q-149 48 -214.5 121t-65.5 178q0 81 42.5 142t141.5 114q-84 81 -84 204q0 132 103.5 215.5t285.5 83.5q106 0 199.5 -29.5t158.5 -80.5l-102 -121q-119 80 -262 80 q-90 0 -137 -40.5t-47 -115.5q0 -54 48.5 -89.5t180.5 -78.5q156 -50 217.5 -120t61.5 -173q0 -152 -189 -266q88 -76 88 -198q0 -140 -100.5 -219.5t-292.5 -79.5q-92 0 -200 31.5t-169 80.5zM299 627q0 -47 33.5 -76t126.5 -66l155 -63q4 -4 9 -4q54 38 81 91.5t27 100.5 q0 42 -28 71t-101 58l-205 78q-98 -79 -98 -190z" />
<glyph unicode="&#xa8;" horiz-adv-x="788" d="M61 1440q0 51 34 83.5t85 32.5q50 0 83.5 -32.5t33.5 -83.5q0 -49 -33.5 -82t-83.5 -33q-51 0 -85 33t-34 82zM492 1440q0 51 33 83.5t83 32.5q51 0 85 -32.5t34 -83.5q0 -49 -34 -82t-85 -33q-50 0 -83 33t-33 82z" />
<glyph unicode="&#xa9;" horiz-adv-x="1638" d="M178 889q0 175 86 323t234 234t323 86q174 0 321 -86t232.5 -234t85.5 -323q0 -174 -85.5 -321.5t-232.5 -233.5t-321 -86q-175 0 -323 86t-234 233.5t-86 321.5zM303 889q0 -146 67 -268t186 -193.5t265 -71.5q145 0 263.5 71.5t185.5 193.5t67 268q0 147 -67 270 t-185.5 194.5t-263.5 71.5q-146 0 -265 -71.5t-186 -194.5t-67 -270zM485 891q0 183 96 286t238 103q75 0 129.5 -19.5t110.5 -62.5l-76 -100q-73 59 -156 59q-84 0 -135 -65.5t-51 -200.5q0 -129 50 -194.5t136 -65.5q97 0 172 69l70 -102q-107 -96 -248 -96 q-152 0 -244 102t-92 287z" />
<glyph unicode="&#xaa;" horiz-adv-x="1228" d="M150 0l18 162h788l-18 -162h-788zM250 883q0 143 116.5 223t346.5 80h125l8 57q14 82 -22.5 119t-133.5 37q-107 0 -256 -53l-31 129q178 63 332 63q145 0 215 -56t70 -177q0 -45 -4 -70l-53 -379q-7 -53 2.5 -73t38.5 -25l-17 -129q-87 5 -130 35.5t-50 97.5 q-57 -60 -136 -95.5t-145 -35.5q-130 0 -203 69.5t-73 182.5zM442 891q0 -61 35 -96t103 -35q119 0 213 112l28 193h-119q-147 0 -203.5 -43t-56.5 -131z" />
<glyph unicode="&#xab;" horiz-adv-x="1128" d="M104 532l19 134l420 430l102 -88l-332 -408l213 -424l-114 -76zM535 532l18 134l420 430l102 -88l-332 -408l213 -424l-114 -76z" />
<glyph unicode="&#xac;" horiz-adv-x="1024" d="M121 561l20 158h770l-57 -451h-170l37 293h-600z" />
<glyph unicode="&#xad;" horiz-adv-x="829" d="M121 561l22 160h580l-23 -160h-579z" />
<glyph unicode="&#xae;" horiz-adv-x="1323" d="M137 1006q0 143 70 264t191 191.5t264 70.5t263 -70.5t189.5 -191.5t69.5 -264q0 -218 -152 -370.5t-370 -152.5q-143 0 -264 69.5t-191 190t-70 263.5zM250 1006q0 -178 118 -300t294 -122t292.5 122t116.5 300q0 179 -117 302.5t-292 123.5q-176 0 -294 -124t-118 -302 zM457 725v578h174q254 0 254 -175q0 -62 -36.5 -102.5t-98.5 -58.5l174 -242h-140l-151 221h-58v-221h-118zM575 1038h64q123 0 123 90q0 82 -127 82h-60v-172z" />
<glyph unicode="&#xaf;" horiz-adv-x="700" d="M61 1380l19 142h559l-18 -142h-560z" />
<glyph unicode="&#xb0;" horiz-adv-x="1024" d="M182 1085q0 163 97.5 257t259.5 94q129 0 225 -86.5t96 -214.5q0 -161 -94 -254t-262 -93q-129 0 -225.5 86t-96.5 211zM342 1098q0 -83 46.5 -133t119.5 -50q88 0 140 56.5t52 154.5q0 81 -47.5 131t-117.5 50q-88 0 -140.5 -54t-52.5 -155z" />
<glyph unicode="&#xb1;" horiz-adv-x="1024" d="M53 0l19 160h770l-19 -160h-770zM121 561l20 156h297l37 307h176l-37 -307h297l-20 -156h-297l-31 -254h-176l31 254h-297z" />
<glyph unicode="&#xb4;" horiz-adv-x="620" d="M61 1382l414 254l84 -176l-446 -186z" />
<glyph unicode="&#xb5;" horiz-adv-x="1177" d="M43 -434l213 1513h188l-106 -751q-6 -40 -6 -70q0 -73 33 -104t100 -31q69 0 155.5 63.5t143.5 159.5l106 733h189l-105 -731q-10 -69 -10 -153q0 -102 14 -195l-176 -25q-12 26 -22 94.5t-8 110.5q-71 -98 -160.5 -151.5t-167.5 -53.5q-94 0 -150 68l-6 -4q8 -36 8 -82 q0 -54 -10 -129l-35 -242z" />
<glyph unicode="&#xb6;" horiz-adv-x="1503" d="M229 991q0 197 148 308.5t422 111.5h549l-224 -1825l-174 -22l209 1696h-223l-154 -1262q-27 -223 -114 -342t-256 -182l-54 141q118 51 176 130.5t76 227.5l74 613q-210 4 -332.5 116t-122.5 289z" />
<glyph unicode="&#xb7;" d="M145 692q0 59 41 100.5t101 41.5q61 0 102 -41.5t41 -100.5q0 -60 -41 -101.5t-102 -41.5q-60 0 -101 41.5t-41 101.5z" />
<glyph unicode="&#xb8;" horiz-adv-x="600" d="M61 -438l70 104q68 -37 141 -37q107 0 107 92q0 38 -38 57t-130 19l61 236h117l-24 -148q82 -7 128 -52t46 -112q0 -91 -73.5 -153t-189.5 -62q-126 0 -215 56z" />
<glyph unicode="&#xba;" horiz-adv-x="1228" d="M100 0l19 162h788l-18 -162h-789zM209 1004q0 257 121 394.5t323 137.5q164 0 265.5 -98t101.5 -273q0 -244 -118 -388t-324 -144q-165 0 -267 96.5t-102 274.5zM393 1004q0 -118 51.5 -175t139.5 -57q120 0 189 98.5t69 296.5q0 112 -56.5 170t-138.5 58 q-254 0 -254 -391z" />
<glyph unicode="&#xbb;" horiz-adv-x="1128" d="M53 188l332 408l-213 424l115 76l307 -432l-19 -134l-419 -430zM483 188l332 408l-213 424l115 76l307 -432l-18 -134l-420 -430z" />
<glyph unicode="&#xbf;" horiz-adv-x="1038" d="M18 -133q0 81 27.5 142.5t72 99t98 67.5t107 55.5t98 54t72 72.5t27.5 103q0 34 -6 59l168 29q20 -52 20 -103q0 -75 -27 -133.5t-70 -95.5t-95 -67.5t-103.5 -56t-94.5 -53t-70 -67t-27 -90.5q0 -73 54 -118.5t145 -45.5q154 0 293 148l120 -111q-99 -101 -201 -146.5 t-227 -45.5q-170 0 -275.5 91.5t-105.5 211.5zM446 881q0 60 41.5 101.5t102.5 41.5q60 0 100.5 -41.5t40.5 -101.5q0 -59 -40.5 -100.5t-100.5 -41.5q-61 0 -102.5 41.5t-41.5 100.5z" />
<glyph unicode="&#xc0;" horiz-adv-x="1165" d="M-70 0l631 1411h246l285 -1411h-199l-64 354h-544l-152 -354h-203zM352 512h449l-131 723h-8zM481 1712l84 176l414 -233l-51 -109z" />
<glyph unicode="&#xc1;" horiz-adv-x="1165" d="M-70 0l631 1411h246l285 -1411h-199l-64 354h-544l-152 -354h-203zM352 512h449l-131 723h-8zM467 1659l414 233l84 -176l-447 -166z" />
<glyph unicode="&#xc2;" horiz-adv-x="1165" d="M-70 0l631 1411h246l285 -1411h-199l-64 354h-544l-152 -354h-203zM352 512h449l-131 723h-8zM371 1651l301 223h125l254 -227l-90 -93l-240 166l-270 -166z" />
<glyph unicode="&#xc3;" horiz-adv-x="1165" d="M-70 0l631 1411h246l285 -1411h-199l-64 354h-544l-152 -354h-203zM352 512h449l-131 723h-8zM375 1642q47 85 103 134t138 49q42 0 78.5 -15.5t57.5 -34t45.5 -34t44.5 -15.5q32 0 57 21t57 68l111 -52q-48 -83 -105.5 -131.5t-138.5 -48.5q-40 0 -76 15.5t-57 33.5 t-45.5 33.5t-44.5 15.5q-33 0 -57.5 -21t-57.5 -69z" />
<glyph unicode="&#xc4;" horiz-adv-x="1165" d="M-70 0l631 1411h246l285 -1411h-199l-64 354h-544l-152 -354h-203zM352 512h449l-131 723h-8zM389 1692q0 49 33.5 81.5t83.5 32.5q51 0 85 -32.5t34 -81.5q0 -51 -34 -84t-85 -33q-50 0 -83.5 33t-33.5 84zM817 1692q0 49 34 81.5t85 32.5q50 0 84.5 -32.5t34.5 -81.5 q0 -50 -34.5 -83.5t-84.5 -33.5q-51 0 -85 33t-34 84z" />
<glyph unicode="&#xc5;" horiz-adv-x="1165" d="M-70 0l631 1411h246l285 -1411h-199l-64 354h-544l-152 -354h-203zM352 512h449l-131 723h-8zM485 1714q0 99 70 165.5t178 66.5q103 0 163 -59.5t60 -143.5q0 -94 -72.5 -162t-176.5 -68q-106 0 -164 57.5t-58 143.5zM608 1714q0 -44 28.5 -72t74.5 -28q52 0 85 34.5 t33 94.5q0 44 -28 73t-72 29q-54 0 -87.5 -35.5t-33.5 -95.5z" />
<glyph unicode="&#xc6;" horiz-adv-x="1626" d="M-96 0l737 1411h936l-41 -156h-633l49 -460h531l-19 -156h-489l55 -483h465l-18 -156h-613l-41 354h-538l-176 -354h-205zM360 512h447l-70 727h-10z" />
<glyph unicode="&#xc7;" horiz-adv-x="1157" d="M125 573q0 196 54 360.5t146 273t212.5 169t253.5 60.5q126 0 220 -37t173 -115l-117 -115q-66 57 -130 81t-151 24q-88 0 -168 -43t-144.5 -126.5t-103 -221t-38.5 -310.5q0 -430 332 -430q88 0 157 28t154 95l94 -133q-166 -150 -412 -158l-14 -90q82 -7 128 -52 t46 -112q0 -91 -73 -153t-189 -62q-126 0 -215 56l70 104q68 -37 141 -37q106 0 106 92q0 38 -38 57t-130 19l50 187q-191 30 -302.5 180t-111.5 409z" />
<glyph unicode="&#xc8;" horiz-adv-x="1085" d="M133 0l172 1411h764l-41 -156h-547l-57 -460h475l-18 -156h-475l-60 -483h586l-19 -156h-780zM492 1712l83 176l414 -233l-51 -109z" />
<glyph unicode="&#xc9;" horiz-adv-x="1085" d="M133 0l172 1411h764l-41 -156h-547l-57 -460h475l-18 -156h-475l-60 -483h586l-19 -156h-780zM492 1655l413 233l84 -176l-446 -166z" />
<glyph unicode="&#xca;" horiz-adv-x="1085" d="M133 0l172 1411h764l-41 -156h-547l-57 -460h475l-18 -156h-475l-60 -483h586l-19 -156h-780zM369 1651l301 223h125l254 -227l-91 -93l-239 166l-270 -166z" />
<glyph unicode="&#xcb;" horiz-adv-x="1085" d="M133 0l172 1411h764l-41 -156h-547l-57 -460h475l-18 -156h-475l-60 -483h586l-19 -156h-780zM387 1692q0 49 33.5 81.5t83.5 32.5q51 0 85 -32.5t34 -81.5q0 -51 -34 -84t-85 -33q-50 0 -83.5 33t-33.5 84zM815 1692q0 49 34 81.5t85 32.5q50 0 84.5 -32.5t34.5 -81.5 q0 -50 -34.5 -83.5t-84.5 -33.5q-51 0 -85 33t-34 84z" />
<glyph unicode="&#xcc;" horiz-adv-x="602" d="M133 0l172 1411h195l-172 -1411h-195zM207 1712l84 176l414 -233l-52 -109z" />
<glyph unicode="&#xcd;" horiz-adv-x="602" d="M133 0l172 1411h195l-172 -1411h-195zM184 1655l414 233l84 -176l-446 -166z" />
<glyph unicode="&#xce;" horiz-adv-x="602" d="M90 1651l301 223h125l254 -227l-90 -93l-240 166l-270 -166zM133 0l172 1411h195l-172 -1411h-195z" />
<glyph unicode="&#xcf;" horiz-adv-x="602" d="M109 1692q0 49 33 81.5t83 32.5q51 0 85 -32.5t34 -81.5q0 -51 -34 -84t-85 -33q-50 0 -83 33t-33 84zM133 0l172 1411h195l-172 -1411h-195zM537 1692q0 49 33.5 81.5t84.5 32.5q50 0 84.5 -32.5t34.5 -81.5q0 -50 -34.5 -83.5t-84.5 -33.5q-51 0 -84.5 33t-33.5 84z " />
<glyph unicode="&#xd0;" horiz-adv-x="1335" d="M45 651l16 144h168l76 616h334q280 0 442 -145t162 -416q0 -401 -196 -625.5t-535 -224.5h-379l80 651h-168zM346 154h176q231 0 373.5 176t142.5 512q0 215 -105.5 314t-307.5 99h-144l-57 -460h352l-16 -144h-352z" />
<glyph unicode="&#xd1;" horiz-adv-x="1388" d="M133 0l172 1411h252l418 -1200h8q0 209 37 512l84 688h182l-172 -1411h-258l-412 1194h-8q0 -52 -9 -208t-26 -298l-84 -688h-184zM481 1642q47 85 103.5 134t138.5 49q42 0 78 -15.5t57 -34t45.5 -34t44.5 -15.5q32 0 57.5 21.5t57.5 67.5l111 -52 q-48 -83 -105.5 -131.5t-138.5 -48.5q-40 0 -76 15.5t-57 33.5t-45.5 33.5t-44.5 15.5q-33 0 -57.5 -21t-57.5 -69z" />
<glyph unicode="&#xd2;" horiz-adv-x="1409" d="M125 555q0 89 12 177.5t37.5 175.5t63.5 165t93 145t121.5 115t154 75.5t186.5 27.5q238 0 380 -151.5t142 -432.5q0 -127 -23.5 -249.5t-75.5 -237t-128 -200.5t-189.5 -138t-251.5 -52q-238 0 -380 150t-142 430zM330 545q0 -410 319 -410q76 0 140.5 24.5t111 66 t83 100.5t59.5 123.5t38 138.5t21 142.5t6 139.5q0 406 -317 406q-87 0 -159.5 -32.5t-121.5 -89.5t-85 -128t-56 -155.5t-29.5 -164.5t-9.5 -161zM604 1712l84 176l414 -233l-51 -109z" />
<glyph unicode="&#xd3;" horiz-adv-x="1409" d="M125 555q0 89 12 177.5t37.5 175.5t63.5 165t93 145t121.5 115t154 75.5t186.5 27.5q238 0 380 -151.5t142 -432.5q0 -127 -23.5 -249.5t-75.5 -237t-128 -200.5t-189.5 -138t-251.5 -52q-238 0 -380 150t-142 430zM330 545q0 -410 319 -410q76 0 140.5 24.5t111 66 t83 100.5t59.5 123.5t38 138.5t21 142.5t6 139.5q0 406 -317 406q-87 0 -159.5 -32.5t-121.5 -89.5t-85 -128t-56 -155.5t-29.5 -164.5t-9.5 -161zM592 1655l414 233l84 -176l-447 -166z" />
<glyph unicode="&#xd4;" horiz-adv-x="1409" d="M125 555q0 89 12 177.5t37.5 175.5t63.5 165t93 145t121.5 115t154 75.5t186.5 27.5q238 0 380 -151.5t142 -432.5q0 -127 -23.5 -249.5t-75.5 -237t-128 -200.5t-189.5 -138t-251.5 -52q-238 0 -380 150t-142 430zM330 545q0 -410 319 -410q76 0 140.5 24.5t111 66 t83 100.5t59.5 123.5t38 138.5t21 142.5t6 139.5q0 406 -317 406q-87 0 -159.5 -32.5t-121.5 -89.5t-85 -128t-56 -155.5t-29.5 -164.5t-9.5 -161zM494 1651l301 223h125l254 -227l-91 -93l-239 166l-271 -166z" />
<glyph unicode="&#xd5;" horiz-adv-x="1409" d="M125 555q0 89 12 177.5t37.5 175.5t63.5 165t93 145t121.5 115t154 75.5t186.5 27.5q238 0 380 -151.5t142 -432.5q0 -127 -23.5 -249.5t-75.5 -237t-128 -200.5t-189.5 -138t-251.5 -52q-238 0 -380 150t-142 430zM330 545q0 -410 319 -410q76 0 140.5 24.5t111 66 t83 100.5t59.5 123.5t38 138.5t21 142.5t6 139.5q0 406 -317 406q-87 0 -159.5 -32.5t-121.5 -89.5t-85 -128t-56 -155.5t-29.5 -164.5t-9.5 -161zM498 1642q47 85 103 134t138 49q42 0 78.5 -15.5t57.5 -34t45.5 -34t44.5 -15.5q32 0 57 21t57 68l111 -52 q-48 -83 -105.5 -131.5t-138.5 -48.5q-40 0 -76 15.5t-57 33.5t-45.5 33.5t-44.5 15.5q-33 0 -57.5 -21t-57.5 -69z" />
<glyph unicode="&#xd6;" horiz-adv-x="1409" d="M125 555q0 89 12 177.5t37.5 175.5t63.5 165t93 145t121.5 115t154 75.5t186.5 27.5q238 0 380 -151.5t142 -432.5q0 -127 -23.5 -249.5t-75.5 -237t-128 -200.5t-189.5 -138t-251.5 -52q-238 0 -380 150t-142 430zM330 545q0 -410 319 -410q76 0 140.5 24.5t111 66 t83 100.5t59.5 123.5t38 138.5t21 142.5t6 139.5q0 406 -317 406q-87 0 -159.5 -32.5t-121.5 -89.5t-85 -128t-56 -155.5t-29.5 -164.5t-9.5 -161zM512 1692q0 49 33.5 81.5t83.5 32.5q51 0 85 -32.5t34 -81.5q0 -51 -34 -84t-85 -33q-50 0 -83.5 33t-33.5 84zM940 1692 q0 49 34 81.5t85 32.5q50 0 84.5 -32.5t34.5 -81.5q0 -50 -34.5 -83.5t-84.5 -33.5q-51 0 -85 33t-34 84z" />
<glyph unicode="&#xd8;" horiz-adv-x="1409" d="M125 555q0 89 12 177.5t37.5 175.5t63.5 165t93 145t121.5 115t154 75.5t186.5 27.5q62 0 139 -17l106 258l164 -43l-119 -276q110 -69 171 -197.5t61 -308.5q0 -127 -23.5 -249.5t-75.5 -237t-128 -200.5t-189.5 -138t-251.5 -52q-64 0 -141 17l-109 -260l-164 43 l121 276q-110 69 -169.5 197t-59.5 307zM330 545q0 -246 110 -342l441 1063q-45 10 -90 10q-87 0 -159.5 -32.5t-121.5 -89.5t-85 -128t-56 -155.5t-29.5 -164.5t-9.5 -161zM555 143q39 -8 94 -8q76 0 140.5 24.5t111 66t83 100.5t59.5 123.5t38 138.5t21 142.5t6 139.5 q0 244 -113 340z" />
<glyph unicode="&#xd9;" horiz-adv-x="1353" d="M166 397q0 47 6 97l113 917h194l-114 -915q-7 -61 -7 -95q0 -137 67 -199.5t202 -62.5q139 0 224.5 83t104.5 237l119 952h197l-117 -944q-29 -233 -170 -362.5t-356 -129.5q-223 0 -343 108.5t-120 313.5zM561 1712l84 176l414 -233l-51 -109z" />
<glyph unicode="&#xda;" horiz-adv-x="1353" d="M166 397q0 47 6 97l113 917h194l-114 -915q-7 -61 -7 -95q0 -137 67 -199.5t202 -62.5q139 0 224.5 83t104.5 237l119 952h197l-117 -944q-29 -233 -170 -362.5t-356 -129.5q-223 0 -343 108.5t-120 313.5zM580 1655l413 233l84 -176l-446 -166z" />
<glyph unicode="&#xdb;" horiz-adv-x="1353" d="M166 397q0 47 6 97l113 917h194l-114 -915q-7 -61 -7 -95q0 -137 67 -199.5t202 -62.5q139 0 224.5 83t104.5 237l119 952h197l-117 -944q-29 -233 -170 -362.5t-356 -129.5q-223 0 -343 108.5t-120 313.5zM467 1651l301 223h125l254 -227l-90 -93l-240 166l-270 -166z " />
<glyph unicode="&#xdc;" horiz-adv-x="1353" d="M166 397q0 47 6 97l113 917h194l-114 -915q-7 -61 -7 -95q0 -137 67 -199.5t202 -62.5q139 0 224.5 83t104.5 237l119 952h197l-117 -944q-29 -233 -170 -362.5t-356 -129.5q-223 0 -343 108.5t-120 313.5zM483 1692q0 49 33.5 81.5t83.5 32.5q51 0 85 -32.5t34 -81.5 q0 -51 -34 -84t-85 -33q-50 0 -83.5 33t-33.5 84zM911 1692q0 49 34 81.5t85 32.5q50 0 84.5 -32.5t34.5 -81.5q0 -50 -34.5 -83.5t-84.5 -33.5q-51 0 -85 33t-34 84z" />
<glyph unicode="&#xdd;" horiz-adv-x="1105" d="M100 1411h203l256 -690h8l424 690h215l-561 -870l-65 -541h-197l66 541zM457 1655l413 233l84 -176l-446 -166z" />
<glyph unicode="&#xde;" horiz-adv-x="1159" d="M133 0l172 1411h195l-33 -258h160q251 0 384.5 -101.5t133.5 -283.5q0 -237 -151 -372.5t-410 -135.5h-226l-30 -260h-195zM379 414h211q163 0 256.5 90t93.5 260q0 120 -78.5 178.5t-245.5 58.5h-165z" />
<glyph unicode="&#xdf;" horiz-adv-x="1181" d="M-143 -297q81 36 127.5 73.5t79.5 107.5t49 182l143 1026q34 238 143.5 341t321.5 103q154 0 251 -76.5t97 -191.5q0 -57 -21.5 -105t-53 -78t-69 -60t-69 -52.5t-53 -53.5t-21.5 -65q0 -32 24.5 -66.5t61 -66t79.5 -73.5t79.5 -85t61 -105.5t24.5 -131.5 q0 -159 -101 -255t-276 -96q-82 0 -162 28t-143 79l90 123q100 -78 205 -78q80 0 134 50t54 145q0 47 -18 88.5t-47 72.5t-63.5 61t-69.5 59.5t-64 61t-47 74t-18 90.5q0 67 29.5 118.5t71.5 83.5t84 61.5t71.5 69.5t29.5 91q0 62 -42.5 99t-122.5 37q-110 0 -173 -64.5 t-85 -220.5l-148 -1038q-17 -115 -47.5 -196.5t-81 -138.5t-111.5 -94t-153 -71z" />
<glyph unicode="&#xe0;" horiz-adv-x="1177" d="M92 410q0 155 46 286.5t124 220t182 138t220 49.5q115 0 193.5 -19t193.5 -73l-113 -750q-6 -38 -6 -59q0 -39 13.5 -59.5t45.5 -32.5l-59 -136q-81 9 -132 59t-57 128q-67 -87 -151 -137t-162 -50q-157 0 -247.5 110.5t-90.5 324.5zM297 410q0 -147 51 -216t131 -69 q63 0 137 56t142 157l90 582q-77 34 -174 34q-77 0 -144 -34t-119.5 -99t-83 -171t-30.5 -240zM461 1466l84 176l413 -253l-51 -109z" />
<glyph unicode="&#xe1;" horiz-adv-x="1177" d="M92 410q0 155 46 286.5t124 220t182 138t220 49.5q115 0 193.5 -19t193.5 -73l-113 -750q-6 -38 -6 -59q0 -39 13.5 -59.5t45.5 -32.5l-59 -136q-81 9 -132 59t-57 128q-67 -87 -151 -137t-162 -50q-157 0 -247.5 110.5t-90.5 324.5zM297 410q0 -147 51 -216t131 -69 q63 0 137 56t142 157l90 582q-77 34 -174 34q-77 0 -144 -34t-119.5 -99t-83 -171t-30.5 -240zM424 1382l414 254l84 -176l-447 -186z" />
<glyph unicode="&#xe2;" horiz-adv-x="1177" d="M92 410q0 155 46 286.5t124 220t182 138t220 49.5q115 0 193.5 -19t193.5 -73l-113 -750q-6 -38 -6 -59q0 -39 13.5 -59.5t45.5 -32.5l-59 -136q-81 9 -132 59t-57 128q-67 -87 -151 -137t-162 -50q-157 0 -247.5 110.5t-90.5 324.5zM297 410q0 -147 51 -216t131 -69 q63 0 137 56t142 157l90 582q-77 34 -174 34q-77 0 -144 -34t-119.5 -99t-83 -171t-30.5 -240zM356 1374l314 248h125l241 -248l-94 -90l-229 186l-283 -186z" />
<glyph unicode="&#xe3;" horiz-adv-x="1177" d="M92 410q0 155 46 286.5t124 220t182 138t220 49.5q115 0 193.5 -19t193.5 -73l-113 -750q-6 -38 -6 -59q0 -39 13.5 -59.5t45.5 -32.5l-59 -136q-81 9 -132 59t-57 128q-67 -87 -151 -137t-162 -50q-157 0 -247.5 110.5t-90.5 324.5zM297 410q0 -147 51 -216t131 -69 q63 0 137 56t142 157l90 582q-77 34 -174 34q-77 0 -144 -34t-119.5 -99t-83 -171t-30.5 -240zM348 1393q103 180 250 180q42 0 77 -15.5t55 -33.5t43.5 -33.5t43.5 -15.5q32 0 57.5 21.5t59.5 68.5l110 -52q-104 -182 -249 -182q-40 0 -75.5 15.5t-56 34t-44.5 34t-44 15.5 q-31 0 -56 -21.5t-60 -69.5z" />
<glyph unicode="&#xe4;" horiz-adv-x="1177" d="M92 410q0 155 46 286.5t124 220t182 138t220 49.5q115 0 193.5 -19t193.5 -73l-113 -750q-6 -38 -6 -59q0 -39 13.5 -59.5t45.5 -32.5l-59 -136q-81 9 -132 59t-57 128q-67 -87 -151 -137t-162 -50q-157 0 -247.5 110.5t-90.5 324.5zM297 410q0 -147 51 -216t131 -69 q63 0 137 56t142 157l90 582q-77 34 -174 34q-77 0 -144 -34t-119.5 -99t-83 -171t-30.5 -240zM362 1440q0 51 34 83.5t85 32.5q50 0 83.5 -32.5t33.5 -83.5q0 -49 -33.5 -82t-83.5 -33q-51 0 -85 33t-34 82zM793 1440q0 51 33 83.5t83 32.5q51 0 85 -32.5t34 -83.5 q0 -49 -34 -82t-85 -33q-50 0 -83 33t-33 82z" />
<glyph unicode="&#xe5;" horiz-adv-x="1177" d="M92 410q0 155 46 286.5t124 220t182 138t220 49.5q115 0 193.5 -19t193.5 -73l-113 -750q-6 -38 -6 -59q0 -39 13.5 -59.5t45.5 -32.5l-59 -136q-81 9 -132 59t-57 128q-67 -87 -151 -137t-162 -50q-157 0 -247.5 110.5t-90.5 324.5zM297 410q0 -147 51 -216t131 -69 q63 0 137 56t142 157l90 582q-77 34 -174 34q-77 0 -144 -34t-119.5 -99t-83 -171t-30.5 -240zM473 1464q0 99 70 165.5t178 66.5q103 0 163 -59.5t60 -143.5q0 -94 -73 -161.5t-177 -67.5q-106 0 -163.5 57t-57.5 143zM596 1464q0 -44 28 -72t74 -28q52 0 85.5 34.5 t33.5 94.5q0 44 -28 73t-72 29q-54 0 -87.5 -35.5t-33.5 -95.5z" />
<glyph unicode="&#xe6;" horiz-adv-x="1648" d="M41 260q0 174 141 265t418 91h145l13 125q12 109 -36 159t-173 50q-126 0 -291 -55l-31 139q201 70 357 70q276 0 315 -186q129 186 361 186q155 0 245 -73.5t90 -203.5q0 -124 -89 -212.5t-242.5 -135.5t-368.5 -61q3 -138 61 -210.5t154 -72.5q76 0 144 22t143 76 l80 -131q-168 -127 -359 -127q-128 0 -212 50t-136 151q-146 -201 -401 -201q-328 0 -328 285zM246 260q0 -76 42 -109.5t132 -33.5t180.5 66t132.5 157q-4 54 -4 76t4 76h-141q-182 0 -264 -58t-82 -174zM903 551q265 23 377.5 86.5t112.5 185.5q0 62 -39 96.5t-109 34.5 q-124 0 -220 -109.5t-122 -293.5z" />
<glyph unicode="&#xe7;" horiz-adv-x="954" d="M92 438q0 154 44.5 282t120 211t172.5 128t204 45q182 0 321 -115l-92 -127q-60 47 -109.5 65.5t-117.5 18.5q-139 0 -239.5 -135.5t-100.5 -372.5q0 -154 60 -228.5t167 -74.5q116 0 250 90l72 -135q-154 -109 -326 -115l-14 -90q82 -7 128 -52t46 -112q0 -91 -73 -153 t-189 -62q-126 0 -215 56l69 104q68 -37 142 -37q106 0 106 92q0 38 -38 57t-130 19l51 191q-143 30 -226 146.5t-83 303.5z" />
<glyph unicode="&#xe8;" horiz-adv-x="1044" d="M92 430q0 155 44 283.5t119.5 213t176 131t213.5 46.5q161 0 253.5 -73.5t92.5 -203.5q0 -169 -171.5 -277t-528.5 -132q3 -141 62.5 -212t152.5 -71q78 0 144.5 22t142.5 76l79 -131q-172 -127 -358 -127q-199 0 -310.5 121.5t-111.5 333.5zM299 551q141 11 238 35 t151 59.5t77 78.5t23 99q0 63 -39 97t-108 34q-124 0 -220 -109.5t-122 -293.5zM440 1466l84 176l414 -253l-51 -109z" />
<glyph unicode="&#xe9;" horiz-adv-x="1044" d="M92 430q0 155 44 283.5t119.5 213t176 131t213.5 46.5q161 0 253.5 -73.5t92.5 -203.5q0 -169 -171.5 -277t-528.5 -132q3 -141 62.5 -212t152.5 -71q78 0 144.5 22t142.5 76l79 -131q-172 -127 -358 -127q-199 0 -310.5 121.5t-111.5 333.5zM299 551q141 11 238 35 t151 59.5t77 78.5t23 99q0 63 -39 97t-108 34q-124 0 -220 -109.5t-122 -293.5zM424 1382l414 254l84 -176l-447 -186z" />
<glyph unicode="&#xea;" horiz-adv-x="1044" d="M92 430q0 155 44 283.5t119.5 213t176 131t213.5 46.5q161 0 253.5 -73.5t92.5 -203.5q0 -169 -171.5 -277t-528.5 -132q3 -141 62.5 -212t152.5 -71q78 0 144.5 22t142.5 76l79 -131q-172 -127 -358 -127q-199 0 -310.5 121.5t-111.5 333.5zM299 551q141 11 238 35 t151 59.5t77 78.5t23 99q0 63 -39 97t-108 34q-124 0 -220 -109.5t-122 -293.5zM328 1374l313 248h125l242 -248l-95 -90l-229 186l-283 -186z" />
<glyph unicode="&#xeb;" horiz-adv-x="1044" d="M92 430q0 155 44 283.5t119.5 213t176 131t213.5 46.5q161 0 253.5 -73.5t92.5 -203.5q0 -169 -171.5 -277t-528.5 -132q3 -141 62.5 -212t152.5 -71q78 0 144.5 22t142.5 76l79 -131q-172 -127 -358 -127q-199 0 -310.5 121.5t-111.5 333.5zM299 551q141 11 238 35 t151 59.5t77 78.5t23 99q0 63 -39 97t-108 34q-124 0 -220 -109.5t-122 -293.5zM348 1440q0 51 34 83.5t85 32.5q50 0 83.5 -32.5t33.5 -83.5q0 -49 -33.5 -82t-83.5 -33q-51 0 -85 33t-34 82zM778 1440q0 51 33.5 83.5t83.5 32.5q51 0 85 -32.5t34 -83.5q0 -49 -34 -82 t-85 -33q-50 0 -83.5 33t-33.5 82z" />
<glyph unicode="&#xec;" d="M94 0l152 1079h188l-151 -1079h-189zM154 1466l84 176l413 -253l-51 -109z" />
<glyph unicode="&#xed;" d="M94 0l152 1079h188l-151 -1079h-189zM145 1382l414 254l84 -176l-446 -186z" />
<glyph unicode="&#xee;" d="M45 1374l313 248h125l242 -248l-94 -90l-230 186l-282 -186zM94 0l152 1079h188l-151 -1079h-189z" />
<glyph unicode="&#xef;" d="M61 1440q0 51 34 83.5t85 32.5q50 0 83.5 -32.5t33.5 -83.5q0 -49 -33.5 -82t-83.5 -33q-51 0 -85 33t-34 82zM94 0l152 1079h188l-151 -1079h-189zM492 1440q0 51 33 83.5t83 32.5q51 0 85 -32.5t34 -83.5q0 -49 -34 -82t-85 -33q-50 0 -83 33t-33 82z" />
<glyph unicode="&#xf0;" horiz-adv-x="1155" d="M92 416q0 127 40 236t105.5 180.5t148.5 112t169 40.5q112 0 199 -51t137 -150l6 2q2 20 2 62q0 281 -203 416l-196 -177l-121 66l192 176q-86 37 -202 64l61 143q179 -44 272 -88l154 141l96 -96l-127 -115q121 -85 179.5 -211.5t58.5 -306.5q0 -86 -21 -229 q-45 -324 -187.5 -490t-360.5 -166q-177 0 -289.5 120t-112.5 321zM293 418q0 -143 59.5 -218t155.5 -75q86 0 156 53.5t122 178t68 309.5q-92 174 -276 174q-116 0 -200.5 -113t-84.5 -309z" />
<glyph unicode="&#xf1;" horiz-adv-x="1179" d="M104 0l152 1079h162l-21 -229q175 254 385 254q116 0 182 -67.5t66 -200.5q0 -38 -6 -82l-104 -754h-189l96 713q9 55 9 96q0 79 -29 109t-90 30q-165 0 -336 -309l-88 -639h-189zM367 1393q103 180 249 180q42 0 77.5 -15.5t55.5 -33.5t43.5 -33.5t43.5 -15.5 q31 0 56.5 21t59.5 69l111 -52q-104 -182 -250 -182q-40 0 -75 15.5t-55.5 34t-44.5 34t-44 15.5q-31 0 -57 -21.5t-60 -69.5z" />
<glyph unicode="&#xf2;" horiz-adv-x="1177" d="M92 428q0 104 21 201t66 183.5t109 151.5t156 102.5t201 37.5q198 0 309 -121t111 -330q0 -196 -67.5 -349.5t-193.5 -241t-290 -87.5q-198 0 -310 121.5t-112 331.5zM293 412q0 -145 56 -215t171 -70q88 0 156 46.5t108 125t60 172t20 197.5q0 284 -225 284 q-153 0 -249.5 -137.5t-96.5 -402.5zM457 1466l84 176l413 -253l-51 -109z" />
<glyph unicode="&#xf3;" horiz-adv-x="1177" d="M92 428q0 104 21 201t66 183.5t109 151.5t156 102.5t201 37.5q198 0 309 -121t111 -330q0 -196 -67.5 -349.5t-193.5 -241t-290 -87.5q-198 0 -310 121.5t-112 331.5zM293 412q0 -145 56 -215t171 -70q88 0 156 46.5t108 125t60 172t20 197.5q0 284 -225 284 q-153 0 -249.5 -137.5t-96.5 -402.5zM449 1382l413 254l84 -176l-446 -186z" />
<glyph unicode="&#xf4;" horiz-adv-x="1177" d="M92 428q0 104 21 201t66 183.5t109 151.5t156 102.5t201 37.5q198 0 309 -121t111 -330q0 -196 -67.5 -349.5t-193.5 -241t-290 -87.5q-198 0 -310 121.5t-112 331.5zM293 412q0 -145 56 -215t171 -70q88 0 156 46.5t108 125t60 172t20 197.5q0 284 -225 284 q-153 0 -249.5 -137.5t-96.5 -402.5zM346 1374l313 248h125l242 -248l-94 -90l-230 186l-282 -186z" />
<glyph unicode="&#xf5;" horiz-adv-x="1177" d="M92 428q0 104 21 201t66 183.5t109 151.5t156 102.5t201 37.5q198 0 309 -121t111 -330q0 -196 -67.5 -349.5t-193.5 -241t-290 -87.5q-198 0 -310 121.5t-112 331.5zM293 412q0 -145 56 -215t171 -70q88 0 156 46.5t108 125t60 172t20 197.5q0 284 -225 284 q-153 0 -249.5 -137.5t-96.5 -402.5zM352 1393q103 180 250 180q42 0 77 -15.5t55 -33.5t43.5 -33.5t43.5 -15.5q32 0 57.5 21.5t59.5 68.5l111 -52q-104 -182 -250 -182q-40 0 -75 15.5t-55.5 34t-44.5 34t-44 15.5q-31 0 -57 -21.5t-60 -69.5z" />
<glyph unicode="&#xf6;" horiz-adv-x="1177" d="M92 428q0 104 21 201t66 183.5t109 151.5t156 102.5t201 37.5q198 0 309 -121t111 -330q0 -196 -67.5 -349.5t-193.5 -241t-290 -87.5q-198 0 -310 121.5t-112 331.5zM293 412q0 -145 56 -215t171 -70q88 0 156 46.5t108 125t60 172t20 197.5q0 284 -225 284 q-153 0 -249.5 -137.5t-96.5 -402.5zM365 1440q0 51 33.5 83.5t84.5 32.5q50 0 83.5 -32.5t33.5 -83.5q0 -49 -33.5 -82t-83.5 -33q-51 0 -84.5 32.5t-33.5 82.5zM795 1440q0 51 33 83.5t83 32.5q51 0 85 -32.5t34 -83.5q0 -49 -34 -82t-85 -33q-50 0 -83 33t-33 82z" />
<glyph unicode="&#xf7;" horiz-adv-x="1024" d="M123 561l20 158h770l-20 -158h-770zM328 236q0 59 41.5 100t101.5 41t101.5 -41t41.5 -100q0 -60 -41.5 -102t-101.5 -42t-101.5 42t-41.5 102zM426 1047q0 59 41.5 100t101.5 41t102 -41t42 -100q0 -60 -42 -101t-102 -41t-101.5 41t-41.5 101z" />
<glyph unicode="&#xf8;" horiz-adv-x="1177" d="M92 428q0 104 21 201t66 183.5t109 151.5t156 102.5t201 37.5q59 0 109 -12l114 249l150 -45l-123 -262q82 -57 126 -155t44 -226q0 -196 -67.5 -349.5t-193.5 -241t-290 -87.5q-46 0 -106 11l-113 -254l-152 45l123 266q-85 55 -129.5 154t-44.5 231zM293 412 q0 -159 65 -230l347 762q-27 8 -66 8q-153 0 -249.5 -137.5t-96.5 -402.5zM461 131q28 -4 59 -4q64 0 117.5 24t90 66.5t64 95.5t43 115t22.5 121.5t7 118.5q0 151 -61 221z" />
<glyph unicode="&#xf9;" horiz-adv-x="1167" d="M133 236q0 36 6 83l107 760h188l-106 -751q-6 -40 -6 -70q0 -73 33 -104t100 -31q69 0 156.5 64t144.5 161l104 731h189l-152 -1079h-162l6 180q-72 -99 -161.5 -152t-176.5 -53q-133 0 -201.5 65.5t-68.5 195.5zM436 1466l84 176l414 -253l-51 -109z" />
<glyph unicode="&#xfa;" horiz-adv-x="1167" d="M133 236q0 36 6 83l107 760h188l-106 -751q-6 -40 -6 -70q0 -73 33 -104t100 -31q69 0 156.5 64t144.5 161l104 731h189l-152 -1079h-162l6 180q-72 -99 -161.5 -152t-176.5 -53q-133 0 -201.5 65.5t-68.5 195.5zM471 1382l414 254l84 -176l-447 -186z" />
<glyph unicode="&#xfb;" horiz-adv-x="1167" d="M133 236q0 36 6 83l107 760h188l-106 -751q-6 -40 -6 -70q0 -73 33 -104t100 -31q69 0 156.5 64t144.5 161l104 731h189l-152 -1079h-162l6 180q-72 -99 -161.5 -152t-176.5 -53q-133 0 -201.5 65.5t-68.5 195.5zM338 1374l313 248h125l242 -248l-94 -90l-230 186 l-282 -186z" />
<glyph unicode="&#xfc;" horiz-adv-x="1167" d="M133 236q0 36 6 83l107 760h188l-106 -751q-6 -40 -6 -70q0 -73 33 -104t100 -31q69 0 156.5 64t144.5 161l104 731h189l-152 -1079h-162l6 180q-72 -99 -161.5 -152t-176.5 -53q-133 0 -201.5 65.5t-68.5 195.5zM354 1440q0 51 34 83.5t85 32.5q50 0 83.5 -32.5 t33.5 -83.5q0 -49 -33.5 -82t-83.5 -33q-51 0 -85 33t-34 82zM784 1440q0 51 33.5 83.5t83.5 32.5q51 0 85 -32.5t34 -83.5q0 -49 -34 -82t-85 -33q-50 0 -83.5 33t-33.5 82z" />
<glyph unicode="&#xfd;" horiz-adv-x="978" d="M-35 -285q155 27 239.5 92t145.5 193h-69l-201 1079h194l148 -927h8l410 927h200l-508 -1083q-46 -97 -95 -167.5t-115 -128.5t-153.5 -91.5t-197.5 -44.5zM385 1382l414 254l84 -176l-447 -186z" />
<glyph unicode="&#xfe;" horiz-adv-x="1191" d="M43 -436l272 1949l193 23l-94 -662q72 108 170 169t188 61q140 0 222.5 -96.5t82.5 -286.5q0 -166 -39.5 -307t-106 -236.5t-155 -149t-186.5 -53.5q-165 0 -283 134l-74 -523zM328 252q95 -129 233 -129q56 0 111 40.5t99.5 113.5t72.5 188t28 252q0 120 -42.5 178.5 t-106.5 58.5q-76 0 -166.5 -76.5t-173.5 -228.5z" />
<glyph unicode="&#xff;" horiz-adv-x="978" d="M-35 -285q155 27 239.5 92t145.5 193h-69l-201 1079h194l148 -927h8l410 927h200l-508 -1083q-46 -97 -95 -167.5t-115 -128.5t-153.5 -91.5t-197.5 -44.5zM270 1440q0 51 34 83.5t85 32.5q50 0 83.5 -32.5t33.5 -83.5q0 -49 -33.5 -82t-83.5 -33q-51 0 -85 33t-34 82z M700 1440q0 51 33.5 83.5t83.5 32.5q51 0 85 -32.5t34 -83.5q0 -49 -34 -82t-85 -33q-50 0 -83.5 33t-33.5 82z" />
<glyph unicode="&#x131;" d="M94 0l152 1079h188l-151 -1079h-189z" />
<glyph unicode="&#x152;" horiz-adv-x="1857" d="M127 555q0 126 23 248.5t74 237.5t125 202.5t183.5 140t241.5 52.5q79 0 156 -25h911l-41 -154h-655q123 -155 123 -405q0 -41 -2 -59h405l-18 -154h-404q-51 -305 -217 -485h672l-18 -154h-891q-80 -25 -166 -25q-236 0 -369 148.5t-133 431.5zM332 545 q0 -217 75 -313.5t224 -96.5q100 0 178 47t126 121t79 174t43 196t12 197q0 209 -79 307.5t-218 98.5q-98 0 -176.5 -47t-126.5 -121.5t-80 -173.5t-44.5 -194.5t-12.5 -194.5z" />
<glyph unicode="&#x153;" horiz-adv-x="1777" d="M92 428q0 131 34 249.5t100 215t173.5 154t243.5 57.5q120 0 209 -56t139 -159q149 215 383 215q161 0 253.5 -73.5t92.5 -203.5q0 -124 -89 -212.5t-242.5 -135.5t-368.5 -61q3 -137 60.5 -209t154.5 -72q77 0 144.5 21.5t142.5 74.5l82 -133q-173 -125 -361 -125 q-231 0 -340 213q-142 -213 -391 -213q-198 0 -309 121t-111 332zM293 412q0 -145 56 -215t169 -70q64 0 117.5 24t90 66.5t64 95.5t43 115t22.5 121.5t7 118.5q0 284 -225 284q-151 0 -247.5 -137.5t-96.5 -402.5zM1028 551q265 23 377.5 86.5t112.5 185.5q0 62 -39 96.5 t-109 34.5q-124 0 -220 -109.5t-122 -293.5z" />
<glyph unicode="&#x178;" horiz-adv-x="1105" d="M100 1411h203l256 -690h8l424 690h215l-561 -870l-65 -541h-197l66 541zM360 1692q0 49 33.5 81.5t83.5 32.5q51 0 85 -32.5t34 -81.5q0 -51 -34 -84t-85 -33q-50 0 -83.5 33t-33.5 84zM788 1692q0 49 34 81.5t85 32.5q50 0 84.5 -32.5t34.5 -81.5q0 -50 -34.5 -83.5 t-84.5 -33.5q-51 0 -85 33t-34 84z" />
<glyph unicode="&#x192;" horiz-adv-x="688" d="M-98 -297q79 36 124 73.5t77.5 107.5t46.5 182l106 868h-172l18 145h172l15 121q21 176 106 256t238 80q131 0 270 -82l-69 -129q-105 59 -203 59q-73 0 -107.5 -39t-46.5 -143l-14 -123h262l-39 -145h-242l-106 -868q-14 -115 -43.5 -196.5t-79.5 -138.5t-110 -93.5 t-150 -71.5z" />
<glyph unicode="&#x2c6;" horiz-adv-x="802" d="M61 1374l314 248h125l241 -248l-94 -90l-229 186l-283 -186z" />
<glyph unicode="&#x2c7;" horiz-adv-x="802" d="M61 1532l99 90l229 -186l283 186l69 -90l-311 -248h-125z" />
<glyph unicode="&#x2d8;" horiz-adv-x="745" d="M63 1573l130 26q24 -172 157 -172q71 0 125 46t88 126l121 -26q-14 -51 -43.5 -100.5t-72.5 -92t-105 -68.5t-131 -26q-68 0 -122 26t-85 68.5t-47 92t-15 100.5z" />
<glyph unicode="&#x2d9;" horiz-adv-x="387" d="M61 1464q0 55 37 91t95 36q59 0 96 -36t37 -91q0 -56 -37 -92.5t-96 -36.5q-58 0 -95 36.5t-37 92.5z" />
<glyph unicode="&#x2da;" horiz-adv-x="593" d="M61 1464q0 99 70 165.5t178 66.5q103 0 163 -59.5t60 -143.5q0 -94 -72.5 -161.5t-176.5 -67.5q-106 0 -164 57t-58 143zM184 1464q0 -44 28.5 -72t74.5 -28q52 0 85.5 34.5t33.5 94.5q0 44 -28.5 73t-72.5 29q-54 0 -87.5 -35.5t-33.5 -95.5z" />
<glyph unicode="&#x2db;" horiz-adv-x="569" d="M61 -299q0 107 96.5 205t256.5 147l22 -53q-118 -67 -167.5 -141t-49.5 -138q0 -42 30 -66t91 -24q74 0 129 31l39 -111q-95 -45 -205 -45q-117 0 -179.5 52t-62.5 143z" />
<glyph unicode="&#x2dc;" horiz-adv-x="819" d="M61 1393q103 180 250 180q42 0 77 -15.5t55 -33.5t43.5 -33.5t43.5 -15.5q32 0 57.5 21.5t59.5 68.5l111 -52q-104 -182 -250 -182q-40 0 -75 15.5t-55.5 34t-44.5 34t-44 15.5q-31 0 -57 -21.5t-60 -69.5z" />
<glyph unicode="&#x2dd;" horiz-adv-x="841" d="M61 1358l215 360l154 -78l-254 -340zM397 1358l234 360l149 -84l-272 -338z" />
<glyph unicode="&#x3a9;" horiz-adv-x="1443" d="M102 0l19 160h248l2 8q-95 57 -159.5 179.5t-64.5 246.5q0 79 12 160t37.5 164t63.5 158.5t93 141.5t121.5 114t154 76t186.5 28q238 0 380 -151t142 -429q0 -247 -96.5 -435.5t-247.5 -252.5l-2 -8h228l-19 -160h-438l18 150q72 26 133.5 83t111 143.5t77.5 210 t28 269.5q0 224 -81 322t-236 98q-87 0 -159.5 -33t-121.5 -89.5t-85 -126t-56 -149.5t-29.5 -152.5t-9.5 -141.5q0 -163 56 -277.5t153 -156.5l-18 -150h-441z" />
<glyph unicode="&#x3c0;" horiz-adv-x="1243" d="M123 920l22 159h748q117 0 191 10t153 35l27 -161q-98 -31 -217 -41l-84 -588q-7 -58 -7 -80q0 -48 18.5 -67.5t67.5 -32.5l-43 -179q-132 24 -184.5 77t-52.5 171q0 59 12 142l78 555h-375l-127 -920h-188l127 920h-166z" />
<glyph unicode="&#x401;" horiz-adv-x="1085" d="M133 0l172 1411h764l-41 -156h-547l-57 -460h475l-18 -156h-475l-60 -483h586l-19 -156h-780zM387 1692q0 49 33.5 81.5t83.5 32.5q51 0 85 -32.5t34 -81.5q0 -51 -34 -84t-85 -33q-50 0 -83.5 33t-33.5 84zM815 1692q0 49 34 81.5t85 32.5q50 0 84.5 -32.5t34.5 -81.5 q0 -50 -34.5 -83.5t-84.5 -33.5q-51 0 -85 33t-34 84z" />
<glyph unicode="&#x402;" horiz-adv-x="1478" d="M102 1245l21 166h1010l-41 -166h-390l-57 -465q181 146 356 146q183 0 283 -92t100 -283q0 -62 -8 -117l-33 -241q-19 -143 -74 -238.5t-138 -149.5t-211 -90l-29 160q135 52 189.5 127.5t72.5 216.5l27 207q8 74 8 100q0 126 -57.5 180t-174.5 54q-86 0 -175 -39.5 t-154 -95.5l-76 -625h-195l152 1245h-406z" />
<glyph unicode="&#x403;" horiz-adv-x="1009" d="M133 0l172 1411h799l-41 -168h-584l-151 -1243h-195zM510 1655l414 233l84 -176l-447 -166z" />
<glyph unicode="&#x404;" horiz-adv-x="1165" d="M123 573q0 197 51 361t139.5 273t207.5 169t255 60q135 0 227.5 -36t178.5 -116l-117 -115q-69 59 -133 83t-158 24q-152 0 -268.5 -120.5t-157.5 -350.5h594l-20 -160h-590q-2 -25 -2 -72q0 -430 332 -430q88 0 157 28t154 95l94 -133q-175 -158 -432 -158 q-234 0 -373 152.5t-139 445.5z" />
<glyph unicode="&#x405;" horiz-adv-x="1085" d="M2 164l123 123q97 -84 177 -116t179 -32q130 0 221 77t91 192q0 93 -56.5 148t-216.5 106q-203 65 -289 159t-86 240q0 155 126.5 265t328.5 110q136 0 240 -37t198 -119l-110 -127q-73 64 -149.5 92.5t-180.5 28.5q-116 0 -183 -57t-67 -156q0 -58 21.5 -95t82.5 -72.5 t179 -74.5q198 -66 282 -158t84 -243q0 -184 -146 -313.5t-370 -129.5q-147 0 -272 52t-207 137z" />
<glyph unicode="&#x406;" horiz-adv-x="602" d="M133 0l172 1411h195l-172 -1411h-195z" />
<glyph unicode="&#x407;" horiz-adv-x="602" d="M109 1692q0 49 33 81.5t83 32.5q51 0 85 -32.5t34 -81.5q0 -51 -34 -84t-85 -33q-50 0 -83 33t-33 84zM133 0l172 1411h195l-172 -1411h-195zM537 1692q0 49 33.5 81.5t84.5 32.5q50 0 84.5 -32.5t34.5 -81.5q0 -50 -34.5 -83.5t-84.5 -33.5q-51 0 -84.5 33t-33.5 84z " />
<glyph unicode="&#x408;" horiz-adv-x="606" d="M-98 -125q142 50 198 123.5t74 220.5l145 1192h195l-149 -1218q-25 -201 -122 -311t-302 -167z" />
<glyph unicode="&#x409;" horiz-adv-x="1843" d="M-61 127q42 25 70 44.5t57 50t47.5 57t42.5 79t40.5 101.5t42 138.5t47 176t56.5 227.5l100 410h748l-64 -518h134q250 0 386 -105t136 -299q0 -232 -147 -360.5t-423 -128.5h-389l152 1251h-383l-60 -258q-36 -154 -63.5 -263.5t-57 -205.5t-52 -159t-53.5 -119.5 t-56.5 -90t-66 -68.5t-76.5 -58t-93 -54zM1036 154h195q165 0 253.5 83.5t88.5 247.5q0 120 -82.5 188t-228.5 68h-154z" />
<glyph unicode="&#x40a;" horiz-adv-x="1910" d="M133 0l172 1411h195l-68 -547h543l67 547h195l-63 -545h153q255 0 388.5 -96t133.5 -291q0 -228 -146.5 -353.5t-422.5 -125.5h-410l86 715h-542l-86 -715h-195zM1083 154h215q165 0 253.5 81.5t88.5 239.5q0 240 -311 240h-174z" />
<glyph unicode="&#x40b;" horiz-adv-x="1476" d="M102 1245l21 166h1010l-41 -166h-390l-57 -465q181 146 356 146q184 0 283.5 -93.5t99.5 -287.5q0 -33 -8 -111l-53 -434h-195l52 426q6 55 6 98q0 128 -56 182t-174 54q-86 0 -175 -39.5t-154 -95.5l-76 -625h-195l152 1245h-406z" />
<glyph unicode="&#x40c;" horiz-adv-x="1212" d="M133 0l172 1411h195l-72 -590h137l324 404q78 96 137 138t158 73l59 -148q-68 -20 -106 -46.5t-90 -90.5l-324 -401l412 -750h-215l-359 662h-153l-80 -662h-195zM563 1655l414 233l84 -176l-447 -166z" />
<glyph unicode="&#x40e;" horiz-adv-x="1122" d="M123 1411h196l267 -891h8l442 891h203l-530 -1030q-72 -140 -146.5 -222t-173.5 -125.5t-244 -58.5l-10 160q164 27 244 77t141 175h-69zM426 1788l127 27q23 -115 168 -115q148 0 201 115l122 -27q-25 -88 -113.5 -160t-215.5 -72q-139 0 -212 71.5t-77 160.5z" />
<glyph unicode="&#x40f;" horiz-adv-x="1359" d="M133 0l172 1411h195l-154 -1253h563l154 1253h194l-172 -1411h-395l-37 -307h-153l8 307h-375z" />
<glyph unicode="&#x410;" horiz-adv-x="1165" d="M-70 0l631 1411h246l285 -1411h-199l-64 354h-544l-152 -354h-203zM352 512h449l-131 723h-8z" />
<glyph unicode="&#x411;" horiz-adv-x="1189" d="M133 0l172 1411h799l-37 -158h-588l-47 -387h154q251 0 386.5 -101t135.5 -288q0 -221 -146 -349t-419 -128h-410zM346 154h215q165 0 251.5 79t86.5 240q0 114 -82.5 178t-228.5 64h-174z" />
<glyph unicode="&#x412;" horiz-adv-x="1261" d="M133 0l172 1411h383q227 0 345 -86.5t118 -239.5q0 -111 -78 -207t-207 -124l-2 -9q126 -23 198.5 -105.5t72.5 -199.5q0 -205 -148.5 -322.5t-423.5 -117.5h-430zM346 158h250q166 0 249 73t83 209q0 226 -264 226h-254zM426 815h240q134 0 209 71.5t75 198.5 q0 86 -63 129t-197 43h-209z" />
<glyph unicode="&#x413;" horiz-adv-x="1009" d="M133 0l172 1411h799l-41 -168h-584l-151 -1243h-195z" />
<glyph unicode="&#x414;" horiz-adv-x="1335" d="M133 0l172 1411h334q280 0 442 -145t162 -416q0 -401 -196 -625.5t-535 -224.5h-379zM346 154h176q231 0 373.5 176t142.5 512q0 215 -105.5 314t-307.5 99h-144z" />
<glyph unicode="&#x415;" horiz-adv-x="1085" d="M133 0l172 1411h764l-41 -156h-547l-57 -460h475l-18 -156h-475l-60 -483h586l-19 -156h-780z" />
<glyph unicode="&#x416;" horiz-adv-x="1767" d="M-4 0l520 752l-176 383q-33 70 -68.5 99t-105.5 50l55 152q120 -33 179.5 -77t99.5 -136l180 -402h151l72 590h191l-72 -590h139l228 330q70 102 116 153t93 79t124 53l56 -150q-73 -23 -120.5 -65t-133.5 -170l-205 -306l338 -745h-211l-289 662h-156l-79 -662h-191 l80 662h-147l-445 -662h-223z" />
<glyph unicode="&#x417;" horiz-adv-x="1105" d="M4 186l123 105q143 -152 330 -152q139 0 220 78.5t81 216.5q0 117 -73 179.5t-208 62.5h-145l43 160h121q140 0 220.5 71.5t80.5 186.5q0 88 -57 135t-169 47q-162 0 -325 -129l-101 123q202 166 453 166q192 0 299 -88t107 -230q0 -126 -83 -227.5t-219 -128.5l-2 -8 q119 -28 194 -114t75 -202q0 -203 -138 -333t-374 -130q-127 0 -250.5 57t-202.5 154z" />
<glyph unicode="&#x418;" horiz-adv-x="1376" d="M133 0l172 1411h195l-84 -688q-34 -279 -92 -518h8l678 1206h264l-172 -1411h-195l84 688q17 141 47.5 297.5t44.5 216.5h-8l-672 -1202h-270z" />
<glyph unicode="&#x419;" horiz-adv-x="1376" d="M133 0l172 1411h195l-84 -688q-34 -279 -92 -518h8l678 1206h264l-172 -1411h-195l84 688q17 141 47.5 297.5t44.5 216.5h-8l-672 -1202h-270zM539 1788l127 27q23 -115 168 -115q147 0 200 115l123 -27q-25 -88 -114 -160t-216 -72q-73 0 -129.5 21.5t-89.5 56.5t-50 74 t-19 80z" />
<glyph unicode="&#x41a;" horiz-adv-x="1212" d="M133 0l172 1411h195l-72 -590h137l324 404q78 96 137 138t158 73l59 -148q-68 -20 -106 -46.5t-90 -90.5l-324 -401l412 -750h-215l-359 662h-153l-80 -662h-195z" />
<glyph unicode="&#x41b;" horiz-adv-x="1312" d="M-61 127q42 25 70 44.5t57 50t47.5 57t42.5 79t40.5 101.5t42 138.5t47 176t56.5 227.5l100 410h768l-172 -1411h-194l153 1251h-405l-60 -258q-47 -203 -82 -335.5t-73.5 -240.5t-69.5 -169t-79.5 -115t-93.5 -85t-120 -73z" />
<glyph unicode="&#x41c;" horiz-adv-x="1609" d="M45 0l289 1411h256l182 -1030h8l426 1030h271l-56 -1411h-188l27 723q4 132 15 277t17 192h-8l-442 -1042h-187l-198 1042h-8q-33 -256 -76 -469l-144 -723h-184z" />
<glyph unicode="&#x41d;" horiz-adv-x="1370" d="M133 0l172 1411h195l-72 -590h573l72 590h195l-172 -1411h-195l80 662h-573l-80 -662h-195z" />
<glyph unicode="&#x41e;" horiz-adv-x="1409" d="M125 555q0 89 12 177.5t37.5 175.5t63.5 165t93 145t121.5 115t154 75.5t186.5 27.5q238 0 380 -151.5t142 -432.5q0 -127 -23.5 -249.5t-75.5 -237t-128 -200.5t-189.5 -138t-251.5 -52q-238 0 -380 150t-142 430zM330 545q0 -410 319 -410q76 0 140.5 24.5t111 66 t83 100.5t59.5 123.5t38 138.5t21 142.5t6 139.5q0 406 -317 406q-87 0 -159.5 -32.5t-121.5 -89.5t-85 -128t-56 -155.5t-29.5 -164.5t-9.5 -161z" />
<glyph unicode="&#x41f;" horiz-adv-x="1370" d="M133 0l172 1411h963l-172 -1411h-195l154 1247h-574l-153 -1247h-195z" />
<glyph unicode="&#x420;" horiz-adv-x="1189" d="M133 0l172 1411h352q251 0 385 -101.5t134 -283.5q0 -236 -151 -372t-411 -136h-223l-63 -518h-195zM410 672h211q163 0 256.5 90t93.5 260q0 120 -78.5 179t-245.5 59h-166z" />
<glyph unicode="&#x421;" horiz-adv-x="1157" d="M125 573q0 196 54 360.5t146 273t212.5 169t253.5 60.5q126 0 220 -37t173 -115l-117 -115q-66 57 -130 81t-151 24q-88 0 -168 -43t-144.5 -126.5t-103 -221t-38.5 -310.5q0 -430 332 -430q88 0 157 28t154 95l94 -133q-179 -158 -432 -158q-234 0 -373 153t-139 445z " />
<glyph unicode="&#x422;" horiz-adv-x="1038" d="M102 1245l21 166h1010l-41 -166h-390l-151 -1245h-195l152 1245h-406z" />
<glyph unicode="&#x423;" horiz-adv-x="1122" d="M123 1411h196l267 -891h8l442 891h203l-530 -1030q-72 -140 -146.5 -222t-173.5 -125.5t-244 -58.5l-10 160q164 27 244 77t141 175h-69z" />
<glyph unicode="&#x424;" horiz-adv-x="1685" d="M92 618q0 161 46.5 293t138.5 229.5t236 153t331 60.5l14 119h189l-15 -121q272 -19 432 -165t160 -382q0 -221 -89 -387.5t-260 -260t-403 -96.5l-14 -122h-188l14 124q-270 15 -431 165.5t-161 389.5zM295 625q0 -174 107 -287.5t303 -128.5l124 997 q-272 0 -403 -146.5t-131 -434.5zM885 209q263 0 399.5 157.5t136.5 438.5q0 188 -108.5 289.5t-300.5 109.5z" />
<glyph unicode="&#x425;" horiz-adv-x="1128" d="M-74 0l527 752l-318 659h211l229 -524h9l364 524h219l-483 -649l358 -762h-211l-266 618h-8l-412 -618h-219z" />
<glyph unicode="&#x426;" horiz-adv-x="1359" d="M133 0l172 1411h195l-154 -1253h563l154 1253h194l-153 -1253h164l-58 -465h-153l8 307h-932z" />
<glyph unicode="&#x427;" horiz-adv-x="1255" d="M135 858q0 46 6 98l56 455h194l-55 -446q-6 -47 -6 -86q0 -121 58 -174.5t181 -53.5q178 0 312 119l77 641h195l-172 -1411h-195l74 614q-170 -129 -342 -129q-185 0 -284 94t-99 279z" />
<glyph unicode="&#x428;" horiz-adv-x="1933" d="M133 0l172 1411h191l-154 -1253h481l154 1253h182l-153 -1253h481l153 1253h191l-172 -1411h-1526z" />
<glyph unicode="&#x429;" horiz-adv-x="1933" d="M133 0l172 1411h191l-154 -1253h481l154 1253h182l-153 -1253h481l153 1253h191l-154 -1253h164l-57 -465h-154l8 307h-1505z" />
<glyph unicode="&#x42a;" horiz-adv-x="1302" d="M70 1245l20 166h539l-64 -518h154q250 0 386 -104t136 -295q0 -232 -146.5 -363t-422.5 -131h-410l152 1245h-344zM475 154h215q165 0 253.5 85t88.5 250q0 117 -82.5 184.5t-228.5 67.5h-174z" />
<glyph unicode="&#x42b;" horiz-adv-x="1675" d="M133 0l172 1411h195l-64 -518h133q250 0 386.5 -105t136.5 -299q0 -232 -147 -360.5t-423 -128.5h-389zM346 154h195q165 0 253.5 83.5t88.5 247.5q0 120 -83 188t-229 68h-153zM1206 0l172 1411h195l-172 -1411h-195z" />
<glyph unicode="&#x42c;" horiz-adv-x="1173" d="M133 0l172 1411h195l-64 -518h154q250 0 386 -104t136 -295q0 -232 -146.5 -363t-422.5 -131h-410zM346 154h215q165 0 253.5 85t88.5 250q0 117 -82.5 184.5t-228.5 67.5h-174z" />
<glyph unicode="&#x42d;" horiz-adv-x="1163" d="M18 156l111 110q134 -131 295 -131q160 0 275 126.5t153 383.5h-582l19 160h579q0 14 1 44.5t1 47.5q0 192 -78.5 286.5t-218.5 94.5q-88 0 -163.5 -34.5t-157.5 -94.5l-94 121q203 166 444 166q206 0 337.5 -144.5t131.5 -402.5q0 -220 -51.5 -396.5t-141 -288 t-206 -170.5t-250.5 -59q-241 0 -404 181z" />
<glyph unicode="&#x42e;" horiz-adv-x="1859" d="M133 0l172 1411h195l-72 -590h219q20 100 54.5 188t88 167.5t121 136t158.5 90t195 33.5q231 0 366 -151t135 -433q0 -104 -18 -208t-53 -202.5t-90 -183t-125 -148t-163 -99.5t-198 -36q-127 0 -224.5 47t-156 128.5t-87.5 183.5t-29 221q0 51 6 107h-219l-80 -662h-195 zM819 547q0 -212 80.5 -312t220.5 -100q84 0 152.5 32t115.5 89t81 128.5t53 156.5t28 165.5t9 163.5q0 406 -297 406q-83 0 -151.5 -32.5t-115.5 -89t-82.5 -127.5t-55 -155t-29 -164t-9.5 -161z" />
<glyph unicode="&#x42f;" horiz-adv-x="1286" d="M-10 0l407 610q-101 54 -154 144.5t-53 197.5q0 218 144.5 338.5t408.5 120.5h441l-172 -1411h-195l68 561h-310l-360 -561h-225zM397 958q0 -120 68.5 -181.5t202.5 -61.5h235l68 545h-244q-330 0 -330 -302z" />
<glyph unicode="&#x430;" horiz-adv-x="1177" d="M92 410q0 155 46 286.5t124 220t182 138t220 49.5q115 0 193.5 -19t193.5 -73l-113 -750q-6 -38 -6 -59q0 -39 13.5 -59.5t45.5 -32.5l-59 -136q-81 9 -132 59t-57 128q-67 -87 -151 -137t-162 -50q-157 0 -247.5 110.5t-90.5 324.5zM297 410q0 -147 51 -216t131 -69 q63 0 137 56t142 157l90 582q-77 34 -174 34q-77 0 -144 -34t-119.5 -99t-83 -171t-30.5 -240z" />
<glyph unicode="&#x431;" horiz-adv-x="1171" d="M119 469q0 188 29.5 341.5t80 258.5t122.5 180.5t151 116t170 57.5q76 14 135 38.5t133 74.5l92 -137q-88 -61 -155 -87t-191 -50q-68 -13 -121 -41.5t-103 -83.5t-89.5 -147t-69.5 -224l6 -2q75 126 190.5 197t237.5 71q145 0 241.5 -104t96.5 -295q0 -149 -42 -273.5 t-115 -208t-171 -130t-210 -46.5q-195 0 -306.5 127.5t-111.5 366.5zM315 446q0 -162 58.5 -240.5t167.5 -78.5q63 0 121.5 32t105 91t74.5 154t28 212q0 134 -51 199.5t-133 65.5q-106 0 -197.5 -72.5t-158.5 -198.5q-15 -96 -15 -164z" />
<glyph unicode="&#x432;" horiz-adv-x="1087" d="M92 434q0 154 46.5 281.5t126.5 211.5t186.5 130.5t226.5 46.5q150 0 233.5 -69t83.5 -179q0 -94 -62 -164t-177 -100l-2 -8q102 -15 165.5 -82t63.5 -156q0 -72 -30.5 -138.5t-85.5 -118.5t-140 -83t-186 -31q-205 0 -327 123t-122 336zM287 440q0 -149 66.5 -231 t195.5 -82q112 0 174.5 59.5t62.5 159.5q0 121 -133 180q-204 -33 -364 -41q-2 -14 -2 -45zM303 604q128 5 221.5 21t148 37t86.5 51.5t42 59.5t10 67q0 123 -147 123q-130 0 -228 -98t-133 -261z" />
<glyph unicode="&#x433;" horiz-adv-x="935" d="M16 279q0 132 85.5 209.5t306.5 136.5q114 30 175.5 61.5t82 63.5t20.5 79q0 57 -43.5 89t-124.5 32q-153 0 -291 -84l-73 131q75 48 175.5 77.5t196.5 29.5q165 0 262 -75.5t97 -192.5q0 -123 -86.5 -207.5t-288.5 -136.5q-123 -32 -185 -61t-85 -62.5t-23 -89.5 q0 -65 57.5 -105.5t155.5 -40.5q164 0 305 107l101 -127q-175 -138 -422 -138q-177 0 -287.5 85.5t-110.5 218.5z" />
<glyph unicode="&#x434;" horiz-adv-x="1138" d="M82 416q0 139 40 256t107 193.5t153 118.5t179 42q218 0 324 -188l6 4q6 71 6 125q0 227 -116 322t-396 100l37 147q328 -11 486.5 -144t158.5 -427q0 -79 -6.5 -162.5t-24.5 -182.5t-46 -188.5t-74 -174t-104.5 -146t-142 -99t-182.5 -37.5q-186 0 -295.5 117 t-109.5 324zM283 418q0 -144 57 -218.5t158 -74.5q135 0 233 146.5t123 428.5q-45 90 -117 135.5t-162 45.5q-117 0 -204.5 -122t-87.5 -341z" />
<glyph unicode="&#x435;" horiz-adv-x="1044" d="M92 430q0 155 44 283.5t119.5 213t176 131t213.5 46.5q161 0 253.5 -73.5t92.5 -203.5q0 -169 -171.5 -277t-528.5 -132q3 -141 62.5 -212t152.5 -71q78 0 144.5 22t142.5 76l79 -131q-172 -127 -358 -127q-199 0 -310.5 121.5t-111.5 333.5zM299 551q141 11 238 35 t151 59.5t77 78.5t23 99q0 63 -39 97t-108 34q-124 0 -220 -109.5t-122 -293.5z" />
<glyph unicode="&#x436;" horiz-adv-x="1419" d="M-72 0l404 588l-105 239q-26 60 -56.5 88t-90.5 50l57 139q109 -37 158.5 -78t83.5 -123l106 -258h144l61 434h182l-61 -434h131l133 213q76 121 132.5 167t162.5 79l60 -141q-79 -31 -123 -72.5t-109 -145.5l-106 -174l243 -571h-190l-209 498h-145l-70 -498h-182 l69 498h-143l-338 -498h-199z" />
<glyph unicode="&#x437;" horiz-adv-x="962" d="M-14 145l114 113q138 -131 306 -131q108 0 170.5 52t62.5 140q0 80 -57 125t-162 45h-131l35 148h106q110 0 168.5 48t58.5 130q0 143 -172 143q-158 0 -299 -104l-86 121q176 129 398 129q165 0 261.5 -72.5t96.5 -195.5q0 -89 -61 -161t-160 -95l-2 -7 q100 -26 154.5 -91.5t54.5 -159.5q0 -146 -123 -246.5t-322 -100.5q-123 0 -230.5 47t-180.5 123z" />
<glyph unicode="&#x438;" horiz-adv-x="1167" d="M133 236q0 36 6 83l107 760h188l-106 -751q-6 -40 -6 -70q0 -73 33 -104t100 -31q69 0 156.5 64t144.5 161l104 731h189l-152 -1079h-162l6 180q-72 -99 -161.5 -152t-176.5 -53q-133 0 -201.5 65.5t-68.5 195.5z" />
<glyph unicode="&#x439;" horiz-adv-x="1167" d="M133 236q0 36 6 83l107 760h188l-106 -751q-6 -40 -6 -70q0 -73 33 -104t100 -31q69 0 156.5 64t144.5 161l104 731h189l-152 -1079h-162l6 180q-72 -99 -161.5 -152t-176.5 -53q-133 0 -201.5 65.5t-68.5 195.5zM393 1526l129 26q24 -125 164 -125q144 0 207 125 l121 -26q-29 -101 -122.5 -170.5t-213.5 -69.5q-122 0 -202.5 69.5t-82.5 170.5z" />
<glyph unicode="&#x43a;" horiz-adv-x="1026" d="M104 0l152 1079h188l-61 -434h119l241 297q61 75 102 103.5t134 58.5l61 -141q-53 -17 -91.5 -46.5t-86.5 -87.5l-211 -251l307 -578h-202l-267 498h-127l-69 -498h-189z" />
<glyph unicode="&#x43b;" horiz-adv-x="1196" d="M-47 113q83 53 131 109t94 176t92 333l76 348h731l-151 -1079h-189l129 928h-370l-41 -185q-37 -169 -70 -282t-67 -193.5t-79 -133.5t-93 -87.5t-123 -71.5z" />
<glyph unicode="&#x43c;" horiz-adv-x="1435" d="M45 0l248 1079h237l154 -747h8l342 747h254l-53 -1079h-182l18 414q10 216 41 467h-8l-352 -762h-179l-167 762h-9q-27 -233 -57 -369l-111 -512h-184z" />
<glyph unicode="&#x43d;" horiz-adv-x="1196" d="M104 0l152 1079h188l-63 -452h444l64 452h188l-151 -1079h-189l66 475h-445l-65 -475h-189z" />
<glyph unicode="&#x43e;" horiz-adv-x="1177" d="M92 428q0 104 21 201t66 183.5t109 151.5t156 102.5t201 37.5q198 0 309 -121t111 -330q0 -196 -67.5 -349.5t-193.5 -241t-290 -87.5q-198 0 -310 121.5t-112 331.5zM293 412q0 -145 56 -215t171 -70q88 0 156 46.5t108 125t60 172t20 197.5q0 284 -225 284 q-153 0 -249.5 -137.5t-96.5 -402.5z" />
<glyph unicode="&#x43f;" horiz-adv-x="1179" d="M104 0l152 1079h162l-21 -229q175 254 385 254q116 0 182 -67.5t66 -200.5q0 -38 -6 -82l-104 -754h-189l96 713q9 55 9 96q0 79 -29 109t-90 30q-165 0 -336 -309l-88 -639h-189z" />
<glyph unicode="&#x440;" horiz-adv-x="1189" d="M43 -436l213 1515h162l-19 -229q70 119 173.5 186.5t199.5 67.5q140 0 222.5 -96.5t82.5 -286.5q0 -167 -40 -309t-107 -236.5t-155 -147.5t-185 -53q-165 0 -283 134l-74 -523zM328 252q95 -129 233 -129q56 0 111 40.5t100.5 113.5t73.5 188t28 252q0 119 -43.5 178 t-107.5 59q-76 0 -166.5 -77t-173.5 -230z" />
<glyph unicode="&#x441;" horiz-adv-x="954" d="M92 438q0 154 44.5 282t120 211t172.5 128t204 45q182 0 321 -115l-92 -127q-60 47 -109.5 65.5t-117.5 18.5q-139 0 -239.5 -135.5t-100.5 -372.5q0 -154 60 -228.5t167 -74.5q116 0 250 90l72 -135q-160 -115 -342 -115q-185 0 -297.5 122t-112.5 341z" />
<glyph unicode="&#x442;" horiz-adv-x="1746" d="M104 0l152 1079h162l-21 -229q175 254 383 254q95 0 154 -58t65 -172q166 230 375 230q103 0 163 -63t60 -189q0 -38 -6 -82l-108 -770h-189l101 721q8 55 8 104q0 70 -23 96.5t-71 26.5q-71 0 -157 -72.5t-175 -232.5l-90 -643h-187l101 721q8 55 8 104q0 70 -23 96.5 t-71 26.5q-71 0 -158.5 -73.5t-175.5 -235.5l-88 -639h-189z" />
<glyph unicode="&#x443;" horiz-adv-x="978" d="M-35 -285q155 27 239.5 92t145.5 193h-69l-201 1079h194l148 -927h8l410 927h200l-508 -1083q-46 -97 -95 -167.5t-115 -128.5t-153.5 -91.5t-197.5 -44.5z" />
<glyph unicode="&#x444;" horiz-adv-x="1732" d="M92 416q0 152 42.5 283t112.5 218.5t160 137t185 49.5q140 0 235 -117l74 526l182 23l-82 -580q71 73 152.5 110.5t157.5 37.5q309 0 309 -387q0 -165 -39.5 -305.5t-106.5 -235.5t-157 -148t-189 -53q-146 0 -249 109l-70 -498l-182 -22l71 508q-115 -97 -252 -97 q-159 0 -256.5 113.5t-97.5 327.5zM289 416q0 -144 61 -217.5t148 -73.5q110 0 225 121l82 588q-76 120 -189 120q-60 0 -118 -38.5t-104.5 -106.5t-75.5 -171t-29 -222zM899 227q76 -98 203 -98q128 0 224.5 156.5t96.5 427.5q0 124 -42 182.5t-111 58.5q-149 0 -295 -178z " />
<glyph unicode="&#x445;" horiz-adv-x="952" d="M-96 0l452 571l-258 508h211l166 -387h8l279 387h223l-403 -504l292 -575h-217l-196 449h-8l-328 -449h-221z" />
<glyph unicode="&#x446;" horiz-adv-x="1187" d="M133 236q0 36 6 83l107 760h188l-106 -751q-6 -40 -6 -70q0 -73 33 -104t100 -31q69 0 156.5 64t144.5 161l104 731h189l-115 -817q-6 -41 -6 -67q0 -39 17 -56t61 -18h26l-63 -408h-144l9 293q-54 18 -71.5 63.5t-6.5 120.5l-6 3q-74 -104 -166.5 -161t-180.5 -57 q-133 0 -201.5 65.5t-68.5 195.5z" />
<glyph unicode="&#x447;" horiz-adv-x="1097" d="M115 584q0 38 6 84l57 411h189l-58 -403q-6 -40 -6 -70q0 -73 33 -104t100 -31q69 0 155.5 63.5t143.5 159.5l56 385h188l-152 -1079h-188l72 512q-72 -92 -157 -140t-169 -48q-270 0 -270 260z" />
<glyph unicode="&#x448;" horiz-adv-x="1740" d="M133 236q0 36 6 83l107 760h188l-106 -751q-6 -40 -6 -72q0 -72 30 -102.5t90 -30.5q63 0 148.5 64t146.5 159l103 733h188l-106 -751q-7 -47 -7 -72q0 -72 30.5 -102.5t90.5 -30.5q62 0 146 62.5t145 154.5l107 739h188l-152 -1079h-161l6 182q-72 -96 -159 -151.5 t-165 -55.5q-118 0 -185 54t-77 161q-74 -99 -163.5 -157t-168.5 -58q-129 0 -196.5 66t-67.5 195z" />
<glyph unicode="&#x449;" horiz-adv-x="1761" d="M133 236q0 36 6 83l107 760h188l-106 -751q-6 -40 -6 -72q0 -72 30 -102.5t90 -30.5q63 0 148.5 64t146.5 159l103 733h188l-106 -751q-7 -47 -7 -72q0 -72 30.5 -102.5t90.5 -30.5q62 0 147 63t144 156l107 737h188l-115 -817q-6 -37 -6 -65q0 -43 20 -59.5t72 -16.5h13 l-64 -408h-143l8 293q-100 35 -78 184l-6 3q-73 -101 -161.5 -159.5t-170.5 -58.5q-118 0 -185 54t-77 161q-74 -99 -163.5 -157t-168.5 -58q-129 0 -196.5 66t-67.5 195z" />
<glyph unicode="&#x44a;" horiz-adv-x="1097" d="M33 932l22 147h463l-49 -348h98q218 0 330.5 -84t112.5 -237q0 -204 -126.5 -315t-373.5 -111q-174 0 -330 43l129 905h-276zM385 150q84 -19 147 -19q277 0 277 260q0 102 -60 150.5t-188 48.5h-112z" />
<glyph unicode="&#x44b;" horiz-adv-x="1488" d="M106 27l150 1052h188l-49 -348h99q211 0 318.5 -82.5t107.5 -238.5q0 -203 -126 -314.5t-358 -111.5q-174 0 -330 43zM311 150q84 -19 148 -19q127 0 193.5 67.5t66.5 192.5q0 96 -60.5 147.5t-171.5 51.5h-112zM1030 0l152 1079h188l-151 -1079h-189z" />
<glyph unicode="&#x44c;" horiz-adv-x="1024" d="M106 27l150 1052h188l-49 -348h99q218 0 330 -84t112 -237q0 -204 -126.5 -315t-373.5 -111q-174 0 -330 43zM311 150q84 -19 148 -19q276 0 276 260q0 102 -60 150.5t-188 48.5h-112z" />
<glyph unicode="&#x44d;" horiz-adv-x="1005" d="M10 125l105 119q123 -117 254 -117q109 0 193.5 89t115.5 265h-455l19 144h450q2 97 -12.5 162.5t-45.5 101.5t-71 50.5t-96 14.5q-126 0 -266 -94l-72 123q167 121 354 121t297.5 -117.5t110.5 -322.5q0 -161 -41 -292.5t-112 -217.5t-165.5 -132.5t-201.5 -46.5 q-101 0 -197.5 40t-163.5 110z" />
<glyph unicode="&#x44e;" horiz-adv-x="1546" d="M104 0l152 1079h188l-63 -452h143q21 99 63 183.5t104.5 151t150.5 104.5t192 38q187 0 293.5 -121.5t106.5 -329.5q0 -195 -67 -349.5t-189 -241.5t-277 -87q-192 0 -298.5 133t-96.5 367h-148l-65 -475h-189zM702 420q0 -293 207 -293q61 0 111.5 24t85 66.5t60 95.5 t40 115t21 121.5t6.5 118.5q0 284 -205 284q-144 0 -235 -136.5t-91 -395.5z" />
<glyph unicode="&#x44f;" horiz-adv-x="1126" d="M-10 0l321 457q-75 43 -116 114.5t-41 149.5q0 180 124.5 281.5t368.5 101.5q156 0 361 -35l-150 -1069h-188l61 408h-235l-277 -408h-229zM352 725q0 -82 56.5 -128t169.5 -46h172l53 389q-94 18 -182 18q-269 0 -269 -233z" />
<glyph unicode="&#x451;" horiz-adv-x="1044" d="M92 430q0 155 44 283.5t119.5 213t176 131t213.5 46.5q161 0 253.5 -73.5t92.5 -203.5q0 -169 -171.5 -277t-528.5 -132q3 -141 62.5 -212t152.5 -71q78 0 144.5 22t142.5 76l79 -131q-172 -127 -358 -127q-199 0 -310.5 121.5t-111.5 333.5zM299 551q141 11 238 35 t151 59.5t77 78.5t23 99q0 63 -39 97t-108 34q-124 0 -220 -109.5t-122 -293.5zM348 1440q0 51 34 83.5t85 32.5q50 0 83.5 -32.5t33.5 -83.5q0 -49 -33.5 -82t-83.5 -33q-51 0 -85 33t-34 82zM778 1440q0 51 33.5 83.5t83.5 32.5q51 0 85 -32.5t34 -83.5q0 -49 -34 -82 t-85 -33q-50 0 -83.5 33t-33.5 82z" />
<glyph unicode="&#x452;" horiz-adv-x="1200" d="M125 0l170 1223h-162l21 143h161l21 147l192 23l-24 -170h340l-21 -143h-340l-49 -355q168 236 369 236q116 0 182 -67.5t66 -200.5q0 -31 -7 -82l-94 -688q-29 -210 -117 -319.5t-280 -180.5l-53 141q83 36 130 73t81 106t49 180l88 647q8 49 8 96q0 79 -29 109t-90 30 q-165 0 -334 -307l-90 -641h-188z" />
<glyph unicode="&#x453;" horiz-adv-x="935" d="M16 279q0 132 85.5 209.5t306.5 136.5q114 30 175.5 61.5t82 63.5t20.5 79q0 57 -43.5 89t-124.5 32q-153 0 -291 -84l-73 131q75 48 175.5 77.5t196.5 29.5q165 0 262 -75.5t97 -192.5q0 -123 -86.5 -207.5t-288.5 -136.5q-123 -32 -185 -61t-85 -62.5t-23 -89.5 q0 -65 57.5 -105.5t155.5 -40.5q164 0 305 107l101 -127q-175 -138 -422 -138q-177 0 -287.5 85.5t-110.5 218.5zM350 1382l414 254l84 -176l-447 -186z" />
<glyph unicode="&#x454;" horiz-adv-x="964" d="M92 438q0 155 43 282.5t117 210.5t172 128t209 45q182 0 321 -115l-92 -127q-60 47 -109.5 65.5t-117.5 18.5q-119 0 -205 -82.5t-119 -238.5h449l-19 -144h-446q-13 -346 227 -346q116 0 250 90l72 -135q-160 -115 -342 -115q-185 0 -297.5 122t-112.5 341z" />
<glyph unicode="&#x455;" horiz-adv-x="946" d="M-6 131l112 119q61 -57 141 -90t163 -33q98 0 158.5 46.5t60.5 121.5q0 69 -48 112t-186 89q-144 48 -214 125t-70 174q0 140 105.5 224.5t291.5 84.5q204 0 350 -119l-94 -127q-119 96 -264 96q-89 0 -138 -38.5t-49 -104.5q0 -41 16 -66t65 -52t149 -62 q147 -51 217.5 -128t70.5 -190q0 -156 -113.5 -247t-322.5 -91q-116 0 -225 45.5t-176 110.5z" />
<glyph unicode="&#x456;" d="M94 0l152 1079h188l-151 -1079h-189zM258 1464q0 55 36.5 91t94.5 36t95.5 -36.5t37.5 -90.5q0 -56 -37.5 -92.5t-95.5 -36.5t-94.5 36.5t-36.5 92.5z" />
<glyph unicode="&#x457;" d="M61 1440q0 51 34 83.5t85 32.5q50 0 83.5 -32.5t33.5 -83.5q0 -49 -33.5 -82t-83.5 -33q-51 0 -85 33t-34 82zM94 0l152 1079h188l-151 -1079h-189zM492 1440q0 51 33 83.5t83 32.5q51 0 85 -32.5t34 -83.5q0 -49 -34 -82t-85 -33q-50 0 -83 33t-33 82z" />
<glyph unicode="&#x458;" d="M-158 -293q62 27 101 52.5t73 66t54 98.5t32 142l144 1013h188l-143 -1013q-16 -115 -46.5 -196.5t-81.5 -138.5t-112.5 -94t-154.5 -71zM258 1464q0 55 36.5 91t94.5 36t95.5 -36.5t37.5 -90.5q0 -56 -37.5 -92.5t-95.5 -36.5t-94.5 36.5t-36.5 92.5z" />
<glyph unicode="&#x459;" horiz-adv-x="1622" d="M-47 113q83 53 131 109t94 176t92 333l76 348h713l-49 -348h98q211 0 318.5 -82.5t107.5 -238.5q0 -203 -125.5 -314.5t-357.5 -111.5q-174 0 -330 43l127 901h-352l-41 -185q-37 -169 -70 -282t-67 -193.5t-79 -133.5t-93 -87.5t-123 -71.5zM926 150q84 -19 147 -19 q127 0 193.5 67.5t66.5 192.5q0 96 -60 147.5t-171 51.5h-113z" />
<glyph unicode="&#x45a;" horiz-adv-x="1652" d="M119 0l151 1079h187l-60 -411h445l59 411h189l-60 -411h98q218 0 327.5 -76.5t109.5 -212.5q0 -191 -121 -293t-363 -102q-173 0 -329 43l69 495h-444l-72 -522h-186zM956 150q84 -19 148 -19q260 0 260 229q0 78 -62 122t-180 44h-112z" />
<glyph unicode="&#x45b;" horiz-adv-x="1200" d="M125 0l170 1223h-162l21 143h161l21 147l192 23l-24 -170h340l-21 -143h-340l-49 -355q168 236 369 236q116 0 182 -67.5t66 -200.5q0 -31 -7 -82l-104 -754h-188l96 713q8 49 8 96q0 79 -29 109t-90 30q-165 0 -334 -307l-90 -641h-188z" />
<glyph unicode="&#x45c;" horiz-adv-x="1026" d="M104 0l152 1079h188l-61 -434h119l241 297q61 75 102 103.5t134 58.5l61 -141q-53 -17 -91.5 -46.5t-86.5 -87.5l-211 -251l307 -578h-202l-267 498h-127l-69 -498h-189zM453 1382l413 254l84 -176l-446 -186z" />
<glyph unicode="&#x45e;" horiz-adv-x="978" d="M-35 -285q155 27 239.5 92t145.5 193h-69l-201 1079h194l148 -927h8l410 927h200l-508 -1083q-46 -97 -95 -167.5t-115 -128.5t-153.5 -91.5t-197.5 -44.5zM303 1526l129 26q24 -125 164 -125q144 0 207 125l121 -26q-29 -101 -122.5 -170.5t-213.5 -69.5 q-122 0 -202.5 69.5t-82.5 170.5z" />
<glyph unicode="&#x45f;" horiz-adv-x="1206" d="M104 0l152 1079h188l-131 -932h455l131 932h188l-151 -1079h-320l-41 -287h-145l10 287h-336z" />
<glyph unicode="&#x462;" horiz-adv-x="1415" d="M102 1245l21 166h1010l-41 -166h-387l-48 -379h154q251 0 386.5 -101t135.5 -288q0 -221 -146 -349t-419 -128h-410l152 1245h-408zM571 154h215q165 0 251.5 79t86.5 240q0 114 -82.5 178t-228.5 64h-174z" />
<glyph unicode="&#x463;" horiz-adv-x="1040" d="M80 936l20 143h172l35 244l191 23l-37 -267h272l-43 -143h-250l-28 -205h98q218 0 330 -84t112 -237q0 -207 -127.5 -316.5t-371.5 -109.5q-174 0 -330 43l129 909h-172zM328 150q84 -19 147 -19q277 0 277 260q0 94 -55.5 146.5t-192.5 52.5h-113z" />
<glyph unicode="&#x472;" horiz-adv-x="1409" d="M125 555q0 89 12 177.5t37.5 175.5t63.5 165t93 145t121.5 115t154 75.5t186.5 27.5q238 0 380 -151.5t142 -432.5q0 -127 -23.5 -249.5t-75.5 -237t-128 -200.5t-189.5 -138t-251.5 -52q-238 0 -380 150t-142 430zM330 545q0 -410 319 -410q103 0 184 43.5t132 119.5 t81.5 164t45.5 193h-758q-4 -39 -4 -110zM352 799h754q2 25 2 71q0 406 -317 406q-97 0 -174.5 -39.5t-129 -108.5t-84.5 -150.5t-51 -178.5z" />
<glyph unicode="&#x473;" horiz-adv-x="1177" d="M92 428q0 104 21 201t66 183.5t109 151.5t156 102.5t201 37.5q198 0 309 -121t111 -330q0 -196 -67.5 -349.5t-193.5 -241t-290 -87.5q-198 0 -310 121.5t-112 331.5zM293 469q-7 -184 50.5 -263t176.5 -79q129 0 210.5 95t113.5 247h-551zM311 612h551q0 9 1 28t1 28 q0 284 -225 284q-120 0 -207.5 -86.5t-120.5 -253.5z" />
<glyph unicode="&#x474;" horiz-adv-x="1173" d="M121 1411h201l217 -1196h8l383 934q45 111 76 168.5t77 118.5l193 -35q-48 -61 -83.5 -124t-84.5 -175l-481 -1102h-213z" />
<glyph unicode="&#x475;" horiz-adv-x="1011" d="M92 1079h197l153 -905h9l290 684q72 172 146 246l194 -25q-101 -124 -172 -280l-366 -799h-230z" />
<glyph unicode="&#x490;" horiz-adv-x="1009" d="M133 0l172 1411h610l37 301h189l-37 -301l-41 -168h-584l-151 -1243h-195z" />
<glyph unicode="&#x491;" horiz-adv-x="882" d="M104 0l152 1079h492l38 277h189l-39 -277l-43 -147h-469l-131 -932h-189z" />
<glyph unicode="&#x492;" horiz-adv-x="1009" d="M23 743l16 144h203l63 524h799l-41 -168h-584l-43 -356h318l-17 -144h-319l-90 -743h-195l90 743h-200z" />
<glyph unicode="&#x493;" horiz-adv-x="1009" d="M-6 528l31 134l368 -48l107 37q101 36 151 66t64 57.5t14 73.5t-43 76t-111 30q-152 0 -305 -88l-65 127q76 50 178 80.5t211 30.5q152 0 241 -71t89 -183q0 -100 -60.5 -165.5t-199.5 -102.5v-7l272 -10l-31 -133l-426 51q-68 -22 -112.5 -45t-68 -50.5t-32 -55 t-8.5 -64.5q0 -63 57 -102t152 -39q169 0 315 109l88 -119q-184 -142 -424 -142q-164 0 -277.5 78t-113.5 199q0 97 51.5 162.5t135.5 97.5v6z" />
<glyph unicode="&#x496;" horiz-adv-x="1798" d="M-4 0l520 752l-176 383q-33 70 -68.5 99t-105.5 50l55 152q120 -33 179.5 -77t99.5 -136l180 -402h151l72 590h191l-72 -590h139l228 330q70 102 116 153t93 79t124 53l56 -150q-73 -23 -120.5 -65t-133.5 -170l-205 -306l266 -587h133l-57 -465h-154l9 307h-70l-289 662 h-156l-79 -662h-191l80 662h-147l-445 -662h-223z" />
<glyph unicode="&#x497;" horiz-adv-x="1439" d="M-72 0l404 588l-105 239q-26 60 -56.5 88t-90.5 50l57 139q109 -37 158.5 -78t83.5 -123l106 -258h144l61 434h182l-61 -434h129l135 213q76 121 132.5 167t162.5 79l60 -141q-79 -31 -123 -72.5t-109 -145.5l-106 -174l131 -325q29 -71 69.5 -104t98.5 -33h12l-62 -396 h-143l10 281q-46 20 -74.5 57t-62.5 119l-139 328h-141l-70 -498h-182l69 498h-143l-338 -498h-199z" />
<glyph unicode="&#x498;" horiz-adv-x="1105" d="M4 186l123 105q143 -152 330 -152q139 0 220 78.5t81 216.5q0 117 -73 179.5t-208 62.5h-145l43 160h121q140 0 220.5 71.5t80.5 186.5q0 88 -57 135t-169 47q-162 0 -325 -129l-101 123q202 166 453 166q192 0 299 -88t107 -230q0 -126 -83 -227.5t-219 -128.5l-2 -8 q119 -28 194 -114t75 -202q0 -189 -122.5 -316.5t-334.5 -144.5l-14 -92q82 -7 128 -52t46 -112q0 -91 -73 -153t-189 -62q-126 0 -215 56l69 104q68 -37 142 -37q106 0 106 92q0 38 -38 57t-130 19l47 183q-113 14 -216 68t-171 138z" />
<glyph unicode="&#x499;" horiz-adv-x="962" d="M-14 145l114 113q138 -131 306 -131q108 0 170.5 52t62.5 140q0 80 -57 125t-162 45h-131l35 148h106q110 0 168.5 48t58.5 130q0 143 -172 143q-158 0 -299 -104l-86 121q176 129 398 129q165 0 261.5 -72.5t96.5 -195.5q0 -89 -61 -161t-160 -95l-2 -7 q100 -26 154.5 -91.5t54.5 -159.5q0 -135 -105.5 -232.5t-281.5 -112.5l-15 -92q82 -7 128 -52t46 -112q0 -91 -73 -153t-189 -62q-126 0 -215 56l70 104q68 -37 141 -37q107 0 107 92q0 38 -38 57t-130 19l47 183q-105 10 -195 54.5t-153 110.5z" />
<glyph unicode="&#x49a;" horiz-adv-x="1243" d="M133 0l172 1411h195l-72 -590h137l324 404q78 96 137 138t158 73l59 -148q-68 -20 -106 -46.5t-90 -90.5l-324 -401l324 -592h149l-57 -465h-154l8 307h-73l-359 662h-153l-80 -662h-195z" />
<glyph unicode="&#x49b;" horiz-adv-x="1046" d="M104 0l152 1079h188l-61 -434h115l245 297q61 75 102 103.5t134 58.5l61 -141q-53 -17 -91.5 -46.5t-86.5 -87.5l-211 -251l176 -332q38 -72 76.5 -104.5t93.5 -32.5h13l-62 -396h-143l10 281q-49 18 -85.5 59t-76.5 117l-168 328h-123l-69 -498h-189z" />
<glyph unicode="&#x49c;" horiz-adv-x="1245" d="M133 0l172 1411h195l-72 -590h74l43 346h110l-43 -346h43l265 404q53 79 120.5 127.5t176.5 83.5l59 -152q-71 -20 -113.5 -50.5t-81.5 -88.5l-274 -400l328 -745h-232l-266 662h-43l-43 -355h-111l43 355h-75l-80 -662h-195z" />
<glyph unicode="&#x49d;" horiz-adv-x="1073" d="M104 0l152 1079h184l-61 -438h74l34 240h99l-35 -240h29l211 301q54 75 94 105t129 57l73 -143q-56 -15 -94 -43t-80 -87l-182 -256l248 -575h-205l-207 502h-37l-34 -256h-99l35 256h-74l-69 -502h-185z" />
<glyph unicode="&#x4a0;" horiz-adv-x="1341" d="M70 1245l20 166h539l-72 -590h137l324 404q78 96 137 138t158 73l59 -148q-68 -20 -106 -46.5t-90 -90.5l-324 -401l412 -750h-215l-359 662h-153l-80 -662h-195l152 1245h-344z" />
<glyph unicode="&#x4a1;" horiz-adv-x="1099" d="M33 932l22 147h463l-61 -434h118l242 297q61 75 102 103.5t134 58.5l61 -141q-53 -17 -91.5 -46.5t-86.5 -87.5l-211 -251l307 -578h-203l-266 498h-127l-69 -498h-189l131 932h-276z" />
<glyph unicode="&#x4a2;" horiz-adv-x="1370" d="M133 0l172 1411h195l-72 -590h573l72 590h195l-154 -1253h164l-57 -465h-154l8 307h-174l80 662h-573l-80 -662h-195z" />
<glyph unicode="&#x4a3;" horiz-adv-x="1218" d="M104 0l152 1079h188l-63 -452h446l64 452h188l-116 -829q-7 -44 -7 -66q0 -43 20 -59t73 -16h12l-62 -396h-143l8 279q-98 20 -98 153q0 33 6 76l33 254h-447l-65 -475h-189z" />
<glyph unicode="&#x4aa;" horiz-adv-x="1157" d="M125 573q0 196 54 360.5t146 273t212.5 169t253.5 60.5q126 0 220 -37t173 -115l-117 -115q-66 57 -130 81t-151 24q-88 0 -168 -43t-144.5 -126.5t-103 -221t-38.5 -310.5q0 -430 332 -430q88 0 157 28t154 95l94 -133q-116 -101 -254 -135q-115 -67 -163 -140t-48 -137 q0 -42 30 -66t91 -24q74 0 129 31l39 -111q-95 -45 -205 -45q-117 0 -179.5 52t-62.5 143q0 75 47.5 147t133.5 127q-230 3 -366 156t-136 442z" />
<glyph unicode="&#x4ab;" horiz-adv-x="954" d="M92 438q0 154 44.5 282t120 211t172.5 128t204 45q182 0 321 -115l-92 -127q-60 47 -109.5 65.5t-117.5 18.5q-139 0 -239.5 -135.5t-100.5 -372.5q0 -154 60 -228.5t167 -74.5q116 0 250 90l72 -135q-84 -61 -185 -90q-117 -67 -166 -141t-49 -138q0 -42 30 -66t91 -24 q74 0 129 31l39 -111q-95 -45 -205 -45q-117 0 -179 52t-62 143q0 75 47 148t133 128q-170 11 -272.5 131.5t-102.5 329.5z" />
<glyph unicode="&#x4ae;" horiz-adv-x="1105" d="M100 1411h203l256 -690h8l424 690h215l-561 -870l-65 -541h-197l66 541z" />
<glyph unicode="&#x4af;" horiz-adv-x="983" d="M78 1079h194l166 -827h8l398 827h200l-536 -1042l-64 -451l-190 -22l65 467z" />
<glyph unicode="&#x4b0;" horiz-adv-x="1105" d="M100 1411h203l256 -690h8l424 690h215l-493 -764h207l-19 -143h-260l-61 -504h-197l61 504h-260l19 143h203z" />
<glyph unicode="&#x4b1;" horiz-adv-x="983" d="M78 1079h194l166 -827h8l398 827h200l-464 -903h159l-20 -143h-211l-64 -447l-190 -22l65 469h-210l20 143h156z" />
<glyph unicode="&#x4b2;" horiz-adv-x="1159" d="M-74 0l527 752l-318 659h211l229 -524h9l364 524h219l-483 -649l285 -604h176l-58 -465h-153l8 307h-111l-266 618h-8l-412 -618h-219z" />
<glyph unicode="&#x4b3;" horiz-adv-x="972" d="M-96 0l452 571l-258 508h211l166 -387h8l279 387h223l-403 -504l149 -294q53 -103 93 -137.5t100 -34.5h12l-62 -396h-143l10 281q-53 10 -89 52t-79 142l-112 261h-8l-328 -449h-221z" />
<glyph unicode="&#x4b8;" horiz-adv-x="1255" d="M135 856q0 48 6 100l56 455h194l-55 -446q-6 -49 -6 -91q0 -104 43 -156.5t135 -64.5l63 514h121l-63 -514q142 19 252 117l77 641h195l-172 -1411h-195l74 614q-118 -91 -250 -118l-22 -189h-121l20 178q-171 6 -261.5 99.5t-90.5 271.5z" />
<glyph unicode="&#x4b9;" horiz-adv-x="1097" d="M115 584q0 38 6 84l57 411h189l-58 -403q-6 -40 -6 -72q0 -69 29.5 -99.5t91.5 -33.5l47 328h113l-43 -297q120 65 194 192l56 385h188l-152 -1079h-188l72 512q-84 -109 -191 -158l-26 -190h-113l22 160h-18q-270 0 -270 260z" />
<glyph unicode="&#x4ba;" horiz-adv-x="1253" d="M133 0l172 1411h195l-78 -631q184 146 364 146q174 0 273.5 -95.5t99.5 -289.5q0 -49 -6 -107l-53 -434h-195l51 426q7 65 7 98q0 128 -56 182t-174 54q-86 0 -176 -39.5t-154 -95.5l-75 -625h-195z" />
<glyph unicode="&#x4bb;" horiz-adv-x="1167" d="M104 0l211 1511l193 25l-115 -825q167 229 371 229q244 0 244 -248q0 -32 -7 -86l-83 -606h-189l78 557q8 52 8 98q0 76 -28.5 107t-88.5 31q-76 0 -162.5 -76t-175.5 -240l-67 -477h-189z" />
<glyph unicode="&#x4c0;" horiz-adv-x="602" d="M133 0l172 1411h195l-172 -1411h-195z" />
<glyph unicode="&#x4cb;" horiz-adv-x="1255" d="M135 858q0 46 6 98l56 455h194l-55 -446q-6 -47 -6 -86q0 -121 58 -174.5t181 -53.5q178 0 312 119l77 641h195l-154 -1253h164l-57 -465h-154l9 307h-175l74 614q-170 -129 -342 -129q-185 0 -284 94t-99 279z" />
<glyph unicode="&#x4cc;" horiz-adv-x="1118" d="M115 584q0 38 6 84l57 411h189l-58 -403q-6 -40 -6 -70q0 -73 33 -104t100 -31q69 0 157 65t144 162l54 381h188l-117 -829q-6 -38 -6 -66q0 -43 20 -59t72 -16h13l-62 -396h-143l8 279q-96 20 -96 149q0 37 6 80l39 295q-70 -93 -157 -142.5t-171 -49.5q-270 0 -270 260 z" />
<glyph unicode="&#x4cf;" horiz-adv-x="520" d="M96 236l180 1277l193 23l-186 -1317q-7 -48 6 -67t49 -19q35 0 65 12l43 -133q-81 -37 -157 -37q-104 0 -157.5 67.5t-35.5 193.5z" />
<glyph unicode="&#x4d8;" horiz-adv-x="1370" d="M115 561q0 103 18 223h938q2 27 2 84q0 211 -83.5 310.5t-233.5 99.5q-96 0 -203 -37.5t-188 -97.5l-91 129q100 74 228 119t262 45q236 0 375 -148.5t139 -415.5q0 -215 -51 -388t-140.5 -283t-206.5 -168t-253 -58q-246 0 -379 148t-133 438zM317 504q0 -181 83 -276 t229 -95q156 0 271 125t155 371h-729q-9 -67 -9 -125z" />
<glyph unicode="&#x4d9;" horiz-adv-x="1120" d="M72 279q0 68 20.5 121t72 100.5t135 79.5t213.5 51.5t304 23.5q2 14 2 47q0 248 -207 248q-77 0 -148 -22t-163 -76l-70 133q193 119 414 119q162 0 267.5 -111t105.5 -303q0 -163 -47 -299t-127 -226.5t-186 -140t-224 -49.5q-173 0 -267.5 84.5t-94.5 219.5zM270 276 q0 -70 47.5 -110.5t131.5 -40.5q127 0 224 105t130 292q-132 -3 -228.5 -16.5t-154.5 -34.5t-92 -52.5t-46 -65t-12 -77.5z" />
<glyph unicode="&#x4e2;" horiz-adv-x="1376" d="M133 0l172 1411h195l-84 -688q-34 -279 -92 -518h8l678 1206h264l-172 -1411h-195l84 688q17 141 47.5 297.5t44.5 216.5h-8l-672 -1202h-270zM537 1630l18 144h559l-18 -144h-559z" />
<glyph unicode="&#x4e3;" horiz-adv-x="1167" d="M133 236q0 36 6 83l107 760h188l-106 -751q-6 -40 -6 -70q0 -73 33 -104t100 -31q69 0 156.5 64t144.5 161l104 731h189l-152 -1079h-162l6 180q-72 -99 -161.5 -152t-176.5 -53q-133 0 -201.5 65.5t-68.5 195.5zM399 1380l19 142h559l-19 -142h-559z" />
<glyph unicode="&#x4e8;" horiz-adv-x="1409" d="M125 555q0 89 12 177.5t37.5 175.5t63.5 165t93 145t121.5 115t154 75.5t186.5 27.5q238 0 380 -151.5t142 -432.5q0 -127 -23.5 -249.5t-75.5 -237t-128 -200.5t-189.5 -138t-251.5 -52q-238 0 -380 150t-142 430zM330 545q0 -410 319 -410q103 0 184 43.5t132 119.5 t81.5 164t45.5 193h-758q-4 -39 -4 -110zM352 799h754q2 25 2 71q0 406 -317 406q-97 0 -174.5 -39.5t-129 -108.5t-84.5 -150.5t-51 -178.5z" />
<glyph unicode="&#x4e9;" horiz-adv-x="1177" d="M92 428q0 104 21 201t66 183.5t109 151.5t156 102.5t201 37.5q198 0 309 -121t111 -330q0 -196 -67.5 -349.5t-193.5 -241t-290 -87.5q-198 0 -310 121.5t-112 331.5zM293 469q-7 -184 50.5 -263t176.5 -79q129 0 210.5 95t113.5 247h-551zM311 612h551q0 9 1 28t1 28 q0 284 -225 284q-120 0 -207.5 -86.5t-120.5 -253.5z" />
<glyph unicode="&#x4ee;" horiz-adv-x="1122" d="M123 1411h196l267 -891h8l442 891h203l-530 -1030q-72 -140 -146.5 -222t-173.5 -125.5t-244 -58.5l-10 160q164 27 244 77t141 175h-69zM420 1630l18 144h559l-18 -144h-559z" />
<glyph unicode="&#x4ef;" horiz-adv-x="978" d="M-35 -285q155 27 239.5 92t145.5 193h-69l-201 1079h194l148 -927h8l410 927h200l-508 -1083q-46 -97 -95 -167.5t-115 -128.5t-153.5 -91.5t-197.5 -44.5zM313 1380l19 142h559l-19 -142h-559z" />
<glyph unicode="&#x2000;" horiz-adv-x="973" />
<glyph unicode="&#x2001;" horiz-adv-x="1946" />
<glyph unicode="&#x2002;" horiz-adv-x="973" />
<glyph unicode="&#x2003;" horiz-adv-x="1946" />
<glyph unicode="&#x2004;" horiz-adv-x="648" />
<glyph unicode="&#x2005;" horiz-adv-x="486" />
<glyph unicode="&#x2006;" horiz-adv-x="324" />
<glyph unicode="&#x2007;" horiz-adv-x="324" />
<glyph unicode="&#x2008;" horiz-adv-x="243" />
<glyph unicode="&#x2009;" horiz-adv-x="389" />
<glyph unicode="&#x200a;" horiz-adv-x="108" />
<glyph unicode="&#x2010;" horiz-adv-x="829" d="M121 561l22 160h580l-23 -160h-579z" />
<glyph unicode="&#x2011;" horiz-adv-x="829" d="M121 561l22 160h580l-23 -160h-579z" />
<glyph unicode="&#x2012;" horiz-adv-x="829" d="M121 561l22 160h580l-23 -160h-579z" />
<glyph unicode="&#x2013;" horiz-adv-x="1064" d="M61 561l23 160h934l-23 -160h-934z" />
<glyph unicode="&#x2014;" horiz-adv-x="1619" d="M61 561l23 160h1487l-23 -160h-1487z" />
<glyph unicode="&#x2018;" horiz-adv-x="524" d="M209 1149q0 66 55 156l158 258h117l-113 -314q47 -32 47 -96q0 -54 -39.5 -91.5t-93.5 -37.5q-55 0 -93 36t-38 89z" />
<glyph unicode="&#x2019;" horiz-adv-x="522" d="M178 1024l113 313q-47 32 -47 97q0 54 39.5 91.5t93.5 37.5q55 0 93 -36t38 -89q0 -66 -55 -156l-158 -258h-117z" />
<glyph unicode="&#x201a;" horiz-adv-x="522" d="M-10 -319l112 313q-47 32 -47 96q0 54 39.5 91.5t93.5 37.5q55 0 93 -36t38 -89q0 -65 -55 -155l-158 -258h-116z" />
<glyph unicode="&#x201c;" horiz-adv-x="894" d="M209 1149q0 66 55 156l158 258h117l-113 -314q47 -32 47 -96q0 -54 -39.5 -91.5t-93.5 -37.5q-55 0 -93 36t-38 89zM580 1149q0 66 55 156l158 258h116l-112 -314q47 -32 47 -96q0 -54 -39.5 -91.5t-93.5 -37.5q-55 0 -93 36t-38 89z" />
<glyph unicode="&#x201d;" horiz-adv-x="894" d="M178 1024l113 313q-47 32 -47 97q0 54 39.5 91.5t93.5 37.5q55 0 93 -36t38 -89q0 -66 -55 -156l-158 -258h-117zM549 1024l113 313q-48 33 -48 97q0 54 40 91.5t94 37.5q55 0 93 -36t38 -89q0 -64 -56 -156l-157 -258h-117z" />
<glyph unicode="&#x201e;" horiz-adv-x="890" d="M-10 -319l112 313q-47 32 -47 96q0 54 39.5 91.5t93.5 37.5q55 0 93 -36t38 -89q0 -65 -55 -155l-158 -258h-116zM360 -319l113 313q-47 32 -47 96q0 54 39.5 91.5t93.5 37.5q55 0 93 -36t38 -89q0 -65 -55 -155l-158 -258h-117z" />
<glyph unicode="&#x2020;" horiz-adv-x="1024" d="M117 911l18 158h346l41 317h180l-40 -317h346l-19 -158h-346l-113 -911h-180l113 911h-346z" />
<glyph unicode="&#x2021;" horiz-adv-x="1024" d="M45 326l18 157h347l51 414h-346l18 158h346l43 331h180l-43 -331h347l-19 -158h-346l-51 -414h346l-18 -157h-347l-41 -326h-180l41 326h-346z" />
<glyph unicode="&#x2022;" horiz-adv-x="819" d="M172 700q0 109 72.5 180.5t181.5 71.5t181.5 -72.5t72.5 -181.5t-72.5 -180.5t-181.5 -71.5t-181.5 72.5t-72.5 181.5z" />
<glyph unicode="&#x2026;" horiz-adv-x="1626" d="M66 119q0 59 40.5 100t100.5 41q61 0 102 -41t41 -100q0 -60 -41 -102t-102 -42q-60 0 -100.5 42t-40.5 102zM606 119q0 59 42 100t102 41t100.5 -41t40.5 -100q0 -60 -40.5 -102t-100.5 -42t-102 42t-42 102zM1149 119q0 59 40.5 100t100.5 41q61 0 102.5 -41t41.5 -100 q0 -60 -41.5 -102t-102.5 -42q-60 0 -100.5 42t-40.5 102z" />
<glyph unicode="&#x202f;" horiz-adv-x="389" />
<glyph unicode="&#x2030;" horiz-adv-x="2418" d="M207 1006q0 184 93 284.5t259 100.5q140 0 229 -88.5t91 -221.5q0 -80 -21.5 -148.5t-63 -121.5t-110 -83t-156.5 -30q-143 0 -232 84.5t-89 223.5zM260 23l1122 1427l129 -82l-1124 -1427zM373 1014q0 -92 40.5 -140.5t110.5 -48.5q88 0 137.5 62.5t49.5 185.5 q0 92 -41.5 141.5t-110.5 49.5q-83 0 -134.5 -64t-51.5 -186zM887 283q0 184 93 284.5t259 100.5q140 0 229 -88.5t91 -221.5q0 -80 -21 -148t-62.5 -121.5t-109.5 -83.5t-156 -30q-145 0 -234 84.5t-89 223.5zM1053 285q0 -88 41.5 -135.5t111.5 -47.5q88 0 136.5 62.5 t48.5 185.5q0 92 -41.5 141.5t-110.5 49.5q-83 0 -134.5 -66t-51.5 -190zM1636 283q0 184 93 284.5t260 100.5q140 0 228.5 -88.5t90.5 -221.5q0 -80 -21 -148t-62 -121.5t-109 -83.5t-156 -30q-145 0 -234.5 84.5t-89.5 223.5zM1802 285q0 -88 42 -135.5t112 -47.5 q88 0 136 62t48 186q0 92 -41 141.5t-110 49.5q-83 0 -135 -66t-52 -190z" />
<glyph unicode="&#x2039;" horiz-adv-x="696" d="M104 532l19 134l420 430l102 -88l-332 -408l213 -424l-114 -76z" />
<glyph unicode="&#x203a;" horiz-adv-x="704" d="M53 188l332 408l-213 424l115 76l307 -432l-19 -134l-419 -430z" />
<glyph unicode="&#x2044;" horiz-adv-x="102" d="M-524 -98l1056 1638l125 -65l-1056 -1639z" />
<glyph unicode="&#x205f;" horiz-adv-x="486" />
<glyph unicode="&#x20ac;" horiz-adv-x="1150" d="M41 473l47 125h141q2 70 21 184h-170l47 127h152q30 103 76 186.5t113.5 152t162.5 106t211 37.5q163 0 309 -91l-90 -141q-102 76 -225 76q-131 0 -225 -84.5t-140 -241.5h504l-47 -127h-486q-13 -72 -16 -184h440l-45 -125h-393q12 -165 83.5 -252.5t203.5 -87.5 q153 0 289 103l-23 -187q-141 -74 -293 -74q-199 0 -322 135t-137 363h-188z" />
<glyph unicode="&#x2122;" horiz-adv-x="1843" d="M72 1280v131h690l-25 -131h-248v-670h-157v670h-260zM815 610l33 801h215l182 -543h8l166 543h221l31 -801h-153l-19 432q-2 35 -2 109q0 71 2 104h-6l-176 -561h-137l-195 561h-6q2 -29 2 -86q0 -84 -2 -125l-16 -434h-148z" />
<glyph unicode="&#x2202;" horiz-adv-x="1124" d="M90 385q0 209 119.5 344t296.5 135q213 0 325 -192l7 2q0 8 1 23.5t1 23.5q0 210 -122 337.5t-401 190.5l58 144q318 -74 472 -239.5t154 -436.5q0 -361 -133.5 -551.5t-378.5 -190.5q-172 0 -285.5 112.5t-113.5 297.5zM285 379q0 -117 62 -185.5t157 -68.5 q258 0 295 420q-101 172 -273 172q-108 0 -174.5 -90t-66.5 -248z" />
<glyph unicode="&#x2206;" horiz-adv-x="1165" d="M-70 0l631 1411h246l285 -1411h-1162zM199 160h663l-192 1075h-8z" />
<glyph unicode="&#x220f;" horiz-adv-x="1372" d="M178 1214l19 156h1185l-18 -156h-188l-170 -1628l-189 -22l174 1650h-438l-170 -1628l-190 -22l174 1650h-189z" />
<glyph unicode="&#x2211;" horiz-adv-x="1064" d="M27 0l18 160l524 540l-393 510l21 160h825l-21 -160h-620l354 -460l-16 -127l-447 -463h598l-18 -160h-825z" />
<glyph unicode="&#x221a;" horiz-adv-x="1064" d="M-12 936l168 55l188 -784h8l592 1569h512l-18 -158h-377l-619 -1618h-213z" />
<glyph unicode="&#x221e;" horiz-adv-x="1843" d="M111 600q0 100 25.5 183.5t77.5 149t139.5 102t203.5 36.5q125 0 231.5 -72t155.5 -190q39 58 77 101t87.5 82t111.5 59t134 20q91 0 166.5 -32t124 -85.5t74.5 -121t26 -140.5q0 -100 -25.5 -183t-77 -148.5t-138 -102.5t-201.5 -37q-126 0 -233.5 71.5t-158.5 188.5 q-39 -59 -76 -101t-86 -80.5t-110 -58.5t-133 -20q-91 0 -167.5 32.5t-125 86t-75.5 121t-27 139.5zM299 625q0 -105 62 -176.5t157 -71.5q190 0 332 291q-18 42 -42.5 80.5t-61.5 79.5t-90 65.5t-113 24.5q-119 0 -181.5 -81.5t-62.5 -211.5zM1006 625q117 -250 309 -250 q121 0 183.5 83t62.5 212q0 104 -64 174.5t-158 70.5q-58 0 -109 -24.5t-92.5 -70t-71 -90.5t-60.5 -105z" />
<glyph unicode="&#x222b;" horiz-adv-x="593" d="M-360 -377l67 131q79 -39 170 -39q67 0 103 39.5t49 143.5l182 1511q21 176 104.5 256t233.5 80q128 0 258 -68l-72 -131q-92 47 -190 47q-67 0 -103 -39t-49 -143l-182 -1511q-21 -178 -103 -257t-235 -79q-118 0 -233 59z" />
<glyph unicode="&#x2248;" horiz-adv-x="1024" d="M61 393q119 189 287 189q55 0 106.5 -18t82.5 -39.5t66 -39.5t63 -18q47 0 80 26t67 76l117 -65q-23 -37 -47 -65.5t-59 -58.5t-81.5 -46.5t-99.5 -16.5q-55 0 -106 18.5t-82 40t-66 40t-63 18.5q-46 0 -79.5 -26.5t-70.5 -77.5zM109 780q24 37 48.5 66t60 59.5t81.5 47 t98 16.5q55 0 106.5 -18t82 -39.5t66 -39.5t63.5 -18q46 0 78 25.5t69 76.5l115 -65q-113 -186 -285 -186q-55 0 -106 18t-82 40t-66 40t-63 18q-47 0 -81.5 -27t-68.5 -77z" />
<glyph unicode="&#x2260;" horiz-adv-x="1024" d="M68 113l178 247h-148l19 160h243l168 234h-383l21 159h477l221 308l99 -58l-179 -250h152l-21 -159h-245l-168 -234h385l-19 -160h-479l-221 -309z" />
<glyph unicode="&#x2264;" horiz-adv-x="1024" d="M53 0l21 162h770l-21 -162h-770zM129 618l23 193l774 332l57 -154l-694 -278l624 -260l-90 -152z" />
<glyph unicode="&#x2265;" horiz-adv-x="1024" d="M53 0l21 162h770l-21 -162h-770zM72 451l692 266l-623 272l90 152l693 -332l-23 -193l-772 -319z" />
<glyph unicode="&#x25ca;" horiz-adv-x="1087" d="M74 688l452 682h219l295 -678l-452 -692h-219zM270 690l213 -545h9l352 545l-217 535h-9z" />
<glyph unicode="&#x25fc;" horiz-adv-x="1075" d="M0 0v1075h1075v-1075h-1075z" />
<glyph unicode="&#xfb01;" horiz-adv-x="1171" d="M-127 -297q81 36 127.5 73.5t79.5 107.5t49 182l123 868h-172l20 145h172l17 121q24 177 119.5 256.5t263.5 79.5q73 0 162.5 -21.5t154.5 -54.5l-71 -135q-121 59 -250 59q-88 0 -133 -39.5t-58 -142.5l-16 -123h602l-152 -1079h-186l131 934h-416l-123 -868 q-17 -115 -47.5 -196.5t-81 -138.5t-111.5 -94t-153 -71z" />
<glyph unicode="&#xfb02;" horiz-adv-x="1191" d="M-127 -297q81 36 127.5 73.5t79.5 107.5t49 182l123 868h-172l20 145h172l17 121q24 177 119.5 256.5t263.5 79.5q128 0 262 -43l188 29l-180 -1291q-7 -56 5 -78t48 -22q42 0 72 12l31 -131q-79 -37 -162 -37q-93 0 -138.5 47t-45.5 146q0 36 6 80l151 1089 q-113 47 -241 47q-88 0 -133 -39.5t-58 -142.5l-16 -123h246l-41 -145h-226l-123 -868q-17 -115 -47.5 -196.5t-81 -138.5t-111.5 -94t-153 -71z" />
</font>
</defs>
</svg>
