<?xml version="1.0" standalone="no"?>
<!DOCTYPE svg PUBLIC "-//W3C//DTD SVG 1.1//EN" "http://www.w3.org/Graphics/SVG/1.1/DTD/svg11.dtd" >
<svg xmlns="http://www.w3.org/2000/svg" xmlns:xlink="http://www.w3.org/1999/xlink" version="1.1">
<metadata></metadata>
<defs>
<font id="fira_sans_otmedium_italic" horiz-adv-x="1044" >
<font-face units-per-em="2048" ascent="1638" descent="-410" />
<missing-glyph horiz-adv-x="512" />
<glyph horiz-adv-x="0" />
<glyph horiz-adv-x="0" />
<glyph horiz-adv-x="682" />
<glyph unicode="&#xd;" horiz-adv-x="512" />
<glyph unicode=" "  horiz-adv-x="512" />
<glyph unicode="&#x09;" horiz-adv-x="512" />
<glyph unicode="&#xa0;" horiz-adv-x="512" />
<glyph unicode="!" horiz-adv-x="524" d="M45 135q0 69 48.5 117.5t117.5 48.5q70 0 118 -48.5t48 -117.5q0 -68 -48 -117t-118 -49q-69 0 -117.5 49t-48.5 117zM139 467l76 948h293l-148 -911z" />
<glyph unicode="&#x22;" horiz-adv-x="995" d="M252 1415h252l-66 -555h-184zM645 1415h252l-66 -555h-184z" />
<glyph unicode="#" horiz-adv-x="1079" d="M-18 317l22 181h162l102 393h-145l20 182h170l78 305h219l-78 -305h238l78 305h219l-80 -305h137l-20 -182h-162l-100 -393h141l-22 -181h-168l-78 -317h-219l79 317h-237l-80 -317h-217l80 317h-139zM385 498h238l102 393h-240z" />
<glyph unicode="$" horiz-adv-x="1103" d="M-4 174l158 156q89 -79 173.5 -112.5t178.5 -33.5q117 0 190.5 56t73.5 147q0 80 -50 128.5t-192 94.5q-216 71 -304.5 165.5t-88.5 244.5q0 146 114 250t310 121l33 305h201l-35 -312q200 -30 342 -157l-144 -160q-138 123 -323 123q-104 0 -158.5 -41t-54.5 -113 q0 -47 19 -79.5t77.5 -67t169.5 -72.5q201 -69 285 -164.5t86 -242.5q0 -175 -129 -297.5t-348 -139.5l-35 -297h-203l37 306q-117 18 -216 69t-167 123z" />
<glyph unicode="%" horiz-adv-x="1761" d="M168 1004q0 187 100.5 293t272.5 106q144 0 237.5 -90.5t95.5 -227.5q0 -171 -97 -285t-277 -114q-145 0 -238.5 87.5t-93.5 230.5zM254 35l1122 1427l162 -106l-1124 -1428zM369 1012q0 -78 36 -120t99 -42q81 0 123.5 59.5t42.5 165.5q0 80 -35.5 122t-97.5 42 q-77 0 -122.5 -61t-45.5 -166zM909 287q0 187 100.5 293t272.5 106q144 0 238 -90t96 -227q0 -111 -40 -199.5t-126.5 -144.5t-206.5 -56q-146 0 -240 87.5t-94 230.5zM1110 291q0 -76 37 -117t100 -41q80 0 122 59.5t42 165.5q0 80 -35.5 122t-97.5 42q-77 0 -122.5 -62 t-45.5 -169z" />
<glyph unicode="&#x26;" horiz-adv-x="1839" d="M72 510q0 140 37 264.5t100.5 217t147 160t178.5 102t192 34.5q178 0 279.5 -83t101.5 -224q0 -203 -200.5 -341t-561.5 -167q9 -158 87.5 -227.5t244.5 -69.5q260 0 454 163t277 458h-199l23 194h649l-24 -194h-211q-43 -174 -133.5 -324.5t-217 -263t-294 -176.5 t-353.5 -64q-283 0 -430 137t-147 404zM354 651q251 22 364 105.5t113 208.5q0 118 -126 118q-118 0 -220.5 -116t-130.5 -316z" />
<glyph unicode="'" horiz-adv-x="602" d="M252 1415h252l-66 -555h-184z" />
<glyph unicode="(" horiz-adv-x="665" d="M57 532q0 155 28.5 302t74.5 267t115 239t139.5 212t158.5 191l158 -119q-412 -490 -412 -1112q0 -207 49 -375t146 -332l-184 -114q-98 165 -153 284t-87.5 259t-32.5 298z" />
<glyph unicode=")" horiz-adv-x="665" d="M-37 -190q410 488 410 1114q0 207 -48.5 375t-144.5 331l187 113q145 -246 207.5 -429t62.5 -413q0 -154 -28.5 -300.5t-75 -266.5t-116.5 -239t-140.5 -212t-159.5 -192z" />
<glyph unicode="*" horiz-adv-x="905" d="M109 1122l71 219l269 -122l-37 299h235l-39 -301l271 124l69 -219l-291 -55l211 -213l-190 -141l-148 262l-143 -264l-190 135l204 221z" />
<glyph unicode="+" d="M98 541l27 207h303l39 315h225l-39 -315h305l-26 -207h-305l-37 -314h-225l36 314h-303z" />
<glyph unicode="," horiz-adv-x="524" d="M-41 -352l135 358q-63 48 -63 131q0 70 49 117t123 47q70 0 114.5 -45t44.5 -113q0 -74 -67 -190l-178 -305h-158z" />
<glyph unicode="-" horiz-adv-x="833" d="M98 537l31 208h619l-29 -208h-621z" />
<glyph unicode="." horiz-adv-x="524" d="M35 135q0 69 48 117.5t118 48.5q69 0 117.5 -48.5t48.5 -117.5q0 -68 -48.5 -117t-117.5 -49q-70 0 -118 49t-48 117z" />
<glyph unicode="/" horiz-adv-x="1064" d="M29 -154l809 1835l213 -77l-807 -1837z" />
<glyph unicode="0" horiz-adv-x="1175" d="M94 518q0 176 29.5 322t81.5 249.5t125 174.5t159.5 105t184.5 34q199 0 315.5 -135.5t116.5 -384.5q0 -88 -9.5 -176.5t-30.5 -179t-52 -171.5t-78 -152.5t-105 -123t-135.5 -81.5t-167.5 -30q-212 0 -323 143t-111 406zM360 512q0 -48 2 -84.5t12.5 -88.5t28.5 -86.5 t54 -59.5t86 -25q92 0 160 91t102.5 249t34.5 362q0 42 -2 74.5t-7.5 74t-18.5 72t-32.5 57.5t-51.5 41.5t-73 14.5q-92 0 -159.5 -92.5t-101.5 -248t-34 -351.5z" />
<glyph unicode="1" horiz-adv-x="870" d="M86 1108l479 270h230l-170 -1378h-254l133 1106l-318 -182z" />
<glyph unicode="2" horiz-adv-x="1050" d="M4 0l25 193q178 157 284 255.5t191.5 186.5t125.5 150t59.5 117.5t19.5 117.5q0 86 -46 131t-126 45q-139 0 -283 -147l-152 133q101 107 226.5 164t261.5 57q180 0 285.5 -92.5t105.5 -247.5q0 -56 -13.5 -113.5t-33.5 -107t-56.5 -104.5t-69 -97.5t-85.5 -96t-90.5 -89 t-100.5 -88t-99 -81t-101 -79.5h577l-53 -207h-852z" />
<glyph unicode="3" horiz-adv-x="1048" d="M-37 184l174 133q122 -143 289 -143q113 0 177.5 66.5t64.5 187.5q0 197 -230 197h-94l55 188h54q118 0 188 63.5t70 167.5q0 73 -46.5 115.5t-129.5 42.5q-132 0 -295 -123l-113 150q219 174 455 174q177 0 284 -87.5t107 -228.5q0 -122 -78.5 -219.5t-224.5 -134.5 l-2 -8q121 -20 194.5 -104t75.5 -203q0 -196 -139 -322.5t-365 -126.5q-144 0 -271 57.5t-200 157.5z" />
<glyph unicode="4" horiz-adv-x="1116" d="M33 315l18 181l502 917l213 -92l-432 -805h297l82 346h215l-43 -346h168l-25 -201h-166l-39 -315h-256l39 315h-573z" />
<glyph unicode="5" horiz-adv-x="1089" d="M-10 166l168 137q57 -64 137.5 -97.5t157.5 -33.5q126 0 196 83t70 234q0 107 -49.5 161.5t-139.5 54.5q-79 0 -182 -50h-188l92 723h797l-54 -194h-518l-45 -340q110 49 215 49q154 0 248.5 -102.5t95.5 -284.5q0 -153 -62 -274t-183.5 -192t-284.5 -71 q-139 0 -267.5 51t-203.5 146z" />
<glyph unicode="6" horiz-adv-x="1128" d="M90 483q0 213 48 387t133.5 290.5t203.5 179.5t258 63q88 0 169 -24t136 -66l-120 -164q-82 59 -191 59q-115 0 -212 -120t-134 -336q73 83 160 124.5t168 41.5q143 0 239 -101.5t96 -277.5q0 -128 -40 -236t-108.5 -180.5t-161.5 -113t-199 -40.5q-445 0 -445 514z M356 467q0 -164 42.5 -233.5t138.5 -69.5q105 0 174 98.5t69 265.5q0 102 -43.5 150.5t-115.5 48.5q-136 0 -261 -158q-4 -39 -4 -102z" />
<glyph unicode="7" horiz-adv-x="933" d="M96 53l590 1123h-577l26 202h852l-24 -184l-635 -1221z" />
<glyph unicode="8" horiz-adv-x="1169" d="M45 334q0 130 80 228.5t237 154.5q-87 50 -131.5 126t-44.5 165q0 177 126 286t352 109q194 0 310 -89t116 -229q0 -232 -267 -350q121 -53 182.5 -137.5t61.5 -191.5q0 -87 -36.5 -165.5t-104 -139.5t-172.5 -96.5t-234 -35.5q-213 0 -344 105.5t-131 259.5zM315 350 q0 -85 59.5 -135.5t160.5 -50.5q119 0 192.5 68.5t73.5 168.5q0 81 -62 136t-223 108q-201 -104 -201 -295zM442 1014q0 -71 48.5 -121t168.5 -88q96 53 136.5 115t40.5 139q0 74 -48 117t-131 43q-101 0 -158 -55.5t-57 -149.5z" />
<glyph unicode="9" horiz-adv-x="1126" d="M111 883q0 234 142.5 377t373.5 143q206 0 327 -119t121 -319q0 -430 -227.5 -677t-691.5 -339l-35 190q270 68 431.5 185t215.5 297l-6 4q-129 -138 -305 -138q-146 0 -246 105.5t-100 290.5zM377 897q0 -106 46 -162.5t122 -56.5q140 0 250 139q12 76 12 158 q0 117 -53 175t-138 58q-107 0 -173 -81.5t-66 -229.5z" />
<glyph unicode=":" horiz-adv-x="524" d="M35 135q0 69 48 117.5t118 48.5q69 0 117.5 -48.5t48.5 -117.5q0 -68 -48.5 -117t-117.5 -49q-70 0 -118 49t-48 117zM139 872q0 68 48 116t118 48q69 0 117.5 -48t48.5 -116q0 -69 -48.5 -118t-117.5 -49q-70 0 -118 49t-48 118z" />
<glyph unicode=";" horiz-adv-x="524" d="M-41 -352l137 358q-63 45 -63 131q0 70 48 117t122 47q70 0 114.5 -45t44.5 -113q0 -74 -67 -190l-176 -305h-160zM137 872q0 68 48.5 116t117.5 48q70 0 118 -48t48 -116q0 -69 -48 -118t-118 -49q-69 0 -117.5 49t-48.5 118z" />
<glyph unicode="&#x3c;" d="M98 569l31 244l819 350l68 -200l-684 -279l610 -278l-113 -191z" />
<glyph unicode="=" d="M123 332l24 209h836l-25 -209h-835zM174 748l27 208h835l-26 -208h-836z" />
<glyph unicode="&#x3e;" d="M55 416l684 276l-610 281l111 190l731 -354l-31 -244l-817 -350z" />
<glyph unicode="?" horiz-adv-x="1030" d="M135 1239q107 107 218 157t245 50q188 0 295.5 -85.5t107.5 -211.5q0 -84 -26.5 -149t-69.5 -104.5t-94.5 -70.5t-103 -56.5t-94.5 -52.5t-70 -68t-27 -95q0 -24 6 -51l-229 -37q-19 59 -19 100q0 73 25 131t64.5 95.5t88 68t96.5 56t87.5 52t64.5 63.5t25 83 q0 59 -42 91t-116 32q-143 0 -274 -137zM223 135q0 69 48.5 117.5t117.5 48.5q70 0 118 -48.5t48 -117.5q0 -68 -48 -117t-118 -49q-69 0 -117.5 49t-48.5 117z" />
<glyph unicode="@" horiz-adv-x="2088" d="M96 352q0 237 77 440t215.5 347t338 225.5t436.5 81.5q189 0 344.5 -54t258.5 -149t159.5 -225t56.5 -281q0 -200 -61.5 -365t-176.5 -262.5t-261 -97.5q-101 0 -169.5 56t-72.5 151l-8 2q-49 -94 -135 -146t-185 -52q-147 0 -232 97.5t-85 276.5q0 298 146 460.5 t380 162.5q177 0 338 -88l-69 -574q-10 -90 13.5 -130t80.5 -40q101 0 176.5 149t75.5 398q0 239 -151.5 375.5t-430.5 136.5q-247 0 -432 -112t-282 -311t-97 -457q0 -288 157.5 -450.5t454.5 -162.5q223 0 426 70l43 -186q-238 -84 -477 -84q-390 0 -621 216t-231 582z M838 397q0 -103 36.5 -151.5t92.5 -48.5q115 0 192 135l62 487q-59 27 -121 27q-119 0 -190.5 -113.5t-71.5 -335.5z" />
<glyph unicode="A" horiz-adv-x="1193" d="M-88 0l620 1415h334l271 -1415h-283l-49 328h-473l-131 -328h-289zM408 532h370l-100 658h-8z" />
<glyph unicode="B" horiz-adv-x="1265" d="M94 0l172 1415h420q244 0 369 -87t125 -241q0 -113 -77.5 -208t-209.5 -125l-2 -9q128 -26 201 -107t73 -194q0 -208 -154.5 -326t-453.5 -118h-463zM389 205h189q305 0 305 246q0 194 -238 194h-201zM467 836h180q122 0 189 60.5t67 168.5q0 75 -55.5 113.5t-175.5 38.5 h-158z" />
<glyph unicode="C" horiz-adv-x="1167" d="M98 573q0 250 89.5 449.5t248.5 311.5t357 112q133 0 233.5 -39t183.5 -123l-153 -149q-60 54 -119.5 78t-140.5 24q-180 0 -297 -186t-117 -476q0 -387 287 -387q86 0 156.5 29t152.5 92l117 -174q-195 -166 -457 -166q-247 0 -394 155.5t-147 448.5z" />
<glyph unicode="D" horiz-adv-x="1339" d="M94 0l172 1415h369q300 0 468.5 -144.5t168.5 -418.5q0 -402 -201 -627t-563 -225h-414zM389 203h141q99 0 181.5 39.5t145 117t97.5 202.5t35 286q0 189 -91.5 276.5t-266.5 87.5h-117z" />
<glyph unicode="E" horiz-adv-x="1079" d="M94 0l172 1415h824l-56 -201h-520l-49 -395h455l-25 -201h-455l-51 -415h557l-22 -203h-830z" />
<glyph unicode="F" horiz-adv-x="1007" d="M94 0l172 1415h803l-55 -201h-500l-53 -423h436l-25 -201h-436l-71 -590h-271z" />
<glyph unicode="G" horiz-adv-x="1306" d="M98 578q0 205 56.5 371.5t154 274t227.5 165t279 57.5q277 0 449 -164l-160 -156q-64 59 -132 87t-155 28q-89 0 -166.5 -42t-138.5 -123t-96 -212t-35 -297q0 -206 75.5 -298.5t221.5 -92.5q113 0 221 60l45 360h-221l-8 201h516l-84 -684q-109 -70 -238 -107t-254 -37 q-271 0 -414 153t-143 456z" />
<glyph unicode="H" horiz-adv-x="1361" d="M94 0l172 1415h273l-70 -567h489l70 567h270l-172 -1415h-272l78 633h-490l-77 -633h-271z" />
<glyph unicode="I" horiz-adv-x="600" d="M94 0l172 1415h273l-174 -1415h-271z" />
<glyph unicode="J" horiz-adv-x="608" d="M-123 -111q135 47 190 119.5t72 220.5l146 1186h272l-147 -1194q-28 -228 -136.5 -349.5t-343.5 -190.5z" />
<glyph unicode="K" horiz-adv-x="1241" d="M94 0l172 1415h273l-174 -1415h-271zM469 758l565 657h297l-569 -655l436 -760h-309z" />
<glyph unicode="L" horiz-adv-x="1026" d="M94 0l172 1415h273l-148 -1194h565l-55 -221h-807z" />
<glyph unicode="M" horiz-adv-x="1613" d="M14 0l287 1415h344l133 -997h8l371 997h359l-62 -1415h-266l33 631q14 288 53 526h-8l-385 -1010h-260l-150 1010h-8q-3 -74 -23.5 -235t-44.5 -291l-116 -631h-265z" />
<glyph unicode="N" horiz-adv-x="1370" d="M94 0l172 1415h340l344 -1145h8q0 5 -1 26t-1 36q0 238 35 514l70 569h246l-172 -1415h-349l-335 1141h-9v-38q0 -71 -4 -200q-6 -168 -26 -323l-72 -580h-246z" />
<glyph unicode="O" horiz-adv-x="1411" d="M98 563q0 131 25 255t79.5 239t133.5 200.5t196.5 137t258.5 51.5q254 0 402 -155.5t148 -440.5q0 -131 -24.5 -255.5t-79 -238.5t-133.5 -199.5t-196.5 -136.5t-258.5 -51q-254 0 -402.5 155t-148.5 439zM381 539q0 -190 69.5 -276.5t202.5 -86.5q80 0 145 32.5t108 89 t74 125.5t47.5 151.5t24 156t7.5 148.5q0 188 -69 274t-204 86q-79 0 -143.5 -32.5t-107.5 -89t-74 -126t-48 -151t-24.5 -155t-7.5 -146.5z" />
<glyph unicode="P" horiz-adv-x="1210" d="M94 0l172 1415h396q266 0 405 -105t139 -294q0 -240 -157.5 -381t-427.5 -141h-195l-61 -494h-271zM451 696h165q142 0 226 82t84 232q0 104 -68.5 155.5t-214.5 51.5h-129z" />
<glyph unicode="Q" horiz-adv-x="1411" d="M98 563q0 131 25 255t79.5 239t133.5 200.5t196.5 137t258.5 51.5q254 0 402 -155.5t148 -440.5q0 -557 -387 -758l-2 -8q247 -6 398 -123l-195 -219q-103 119 -220.5 174.5t-289.5 58.5q-253 0 -400 152.5t-147 435.5zM381 539q0 -190 69.5 -276.5t202.5 -86.5 q80 0 145 32.5t108 89t74 125.5t47.5 151.5t24 156t7.5 148.5q0 188 -69 274t-204 86q-79 0 -143.5 -32.5t-107.5 -89t-74 -126t-48 -151t-24.5 -155t-7.5 -146.5z" />
<glyph unicode="R" horiz-adv-x="1239" d="M94 0l172 1415h400q268 0 403 -97t135 -276q0 -159 -95 -275t-257 -161l309 -606h-293l-266 567h-168l-69 -567h-271zM457 762h174q139 0 214 69.5t75 200.5q0 187 -271 187h-135z" />
<glyph unicode="S" horiz-adv-x="1124" d="M-12 174l159 160q91 -82 173 -116t178 -34q113 0 189.5 63t76.5 159q0 82 -50.5 131.5t-193.5 95.5q-209 69 -297 167t-88 251q0 167 137.5 281t360.5 114q148 0 261.5 -41t209.5 -127l-146 -160q-141 123 -321 123q-102 0 -159.5 -48t-57.5 -130q0 -73 51 -117.5 t211 -99.5q196 -68 282.5 -168t86.5 -252q0 -94 -38.5 -177t-108 -145t-174.5 -98.5t-230 -36.5q-155 0 -291.5 58t-220.5 147z" />
<glyph unicode="T" horiz-adv-x="1071" d="M92 1200l27 215h1052l-55 -215h-366l-146 -1200h-272l145 1200h-385z" />
<glyph unicode="U" horiz-adv-x="1341" d="M127 412q0 46 6 96l113 907h272l-115 -919q-6 -46 -6 -86q0 -120 56 -175t172 -55q122 0 194.5 74.5t89.5 216.5l117 944h274l-116 -942q-31 -240 -177.5 -372t-383.5 -132q-242 0 -369 115t-127 328z" />
<glyph unicode="V" horiz-adv-x="1196" d="M109 1415h280l162 -1165h8l453 1165h284l-606 -1415h-321z" />
<glyph unicode="W" horiz-adv-x="1708" d="M129 1415h262l35 -1184h8l373 1184h287l82 -1179h6l338 1179h262l-432 -1415h-355l-80 1094h-8l-350 -1094h-344z" />
<glyph unicode="X" horiz-adv-x="1167" d="M-80 0l510 754l-303 661h287l188 -481h8l314 481h301l-473 -651l340 -764h-289l-221 569h-9l-352 -569h-301z" />
<glyph unicode="Y" horiz-adv-x="1161" d="M90 1415h287l215 -649h8l375 649h299l-563 -878l-66 -537h-272l65 535z" />
<glyph unicode="Z" horiz-adv-x="1075" d="M-33 0l25 207l784 993h-596l27 215h901l-27 -209l-774 -985h660l-56 -221h-944z" />
<glyph unicode="[" horiz-adv-x="665" d="M-4 -246l235 1925h490l-27 -204h-239l-187 -1518h240l-25 -203h-487z" />
<glyph unicode="\" horiz-adv-x="1071" d="M61 1616l222 65l706 -1841l-223 -67z" />
<glyph unicode="]" horiz-adv-x="665" d="M-23 -246l25 203h240l186 1520h-240l25 202h489l-237 -1925h-488z" />
<glyph unicode="^" horiz-adv-x="1099" d="M113 1079l479 645h237l295 -645h-256l-182 439l-299 -439h-274z" />
<glyph unicode="_" horiz-adv-x="1064" d="M-98 -324l26 211h1012l-29 -211h-1009z" />
<glyph unicode="`" horiz-adv-x="671" d="M61 1466l101 213l448 -276l-65 -139z" />
<glyph unicode="a" horiz-adv-x="1181" d="M66 410q0 157 47 290t128 223t190.5 140.5t234.5 50.5q118 0 214 -24.5t207 -81.5l-104 -715q-5 -31 -5 -55t6 -40q11 -30 50 -48l-78 -179q-194 18 -225 185q-66 -89 -150.5 -138t-170.5 -49q-159 0 -251.5 111t-92.5 330zM338 412q0 -128 43.5 -186t112.5 -58 q54 0 116.5 50.5t116.5 139.5l82 531q-74 29 -143 29q-137 0 -232.5 -131.5t-95.5 -374.5z" />
<glyph unicode="b" horiz-adv-x="1202" d="M78 57l205 1461l266 28l-92 -651q73 104 168 161.5t184 57.5q142 0 223.5 -98t81.5 -303q0 -220 -78.5 -390.5t-215 -262t-306.5 -91.5q-224 0 -436 88zM358 201q77 -35 162 -35q61 0 118.5 36.5t103 103.5t73 171.5t27.5 229.5q0 198 -121 198q-67 0 -145.5 -70.5 t-157.5 -216.5z" />
<glyph unicode="c" horiz-adv-x="956" d="M66 442q0 152 46 280.5t123.5 213t180 131.5t215.5 47q195 0 346 -121l-119 -164q-54 43 -101 60.5t-110 17.5q-129 0 -218 -124t-89 -341q0 -134 54 -198t151 -64q100 0 231 82l90 -174q-168 -119 -362 -119q-197 0 -317.5 124.5t-120.5 348.5z" />
<glyph unicode="d" horiz-adv-x="1200" d="M66 420q0 157 42.5 290.5t112.5 220t159 135t183 48.5q165 0 279 -117l78 549l260 -28l-215 -1518h-232l2 152q-66 -82 -148 -132.5t-169 -50.5q-158 0 -255 117.5t-97 333.5zM338 420q0 -132 45 -192t121 -60q58 0 124.5 54t125.5 147l63 450q-48 55 -95.5 77t-105.5 22 q-52 0 -100.5 -30.5t-89 -89.5t-64.5 -157t-24 -221z" />
<glyph unicode="e" horiz-adv-x="1067" d="M66 438q0 151 44.5 278t123 214t187 135.5t234.5 48.5q178 0 277.5 -77t99.5 -210q0 -172 -168.5 -281.5t-529.5 -137.5q6 -118 58 -176t138 -58q72 0 134.5 20.5t138.5 71.5l104 -164q-176 -133 -387 -133q-219 0 -336.5 122t-117.5 347zM342 573q160 14 255 49t130 82 t35 115q0 52 -32.5 80.5t-90.5 28.5q-104 0 -187.5 -96t-109.5 -259z" />
<glyph unicode="f" horiz-adv-x="684" d="M-147 -254q128 50 184.5 123t77.5 223l112 803h-170l29 188h168l14 107q25 183 120.5 269.5t270.5 86.5q72 0 154 -23.5t152 -66.5l-95 -168q-102 60 -192 60q-67 0 -101.5 -36t-46.5 -128l-14 -101h260l-55 -188h-232l-112 -795q-34 -228 -135.5 -349t-319.5 -195z" />
<glyph unicode="g" horiz-adv-x="1196" d="M23 -334l92 182q160 -86 299 -86q247 0 286 273l19 129q-64 -75 -142 -119.5t-157 -44.5q-158 0 -255 115.5t-97 330.5q0 145 48 270.5t130.5 212t194 136t235.5 49.5q119 0 218.5 -25t207.5 -81l-133 -947q-72 -507 -547 -507q-96 0 -201 29t-198 83zM342 446 q0 -128 43 -186.5t113 -58.5q61 0 129.5 49t122.5 137l73 500q-71 31 -149 31q-64 0 -123 -30t-106 -87t-75 -149t-28 -206z" />
<glyph unicode="h" horiz-adv-x="1177" d="M70 0l213 1518l266 28l-92 -653q162 221 362 221q114 0 179 -68.5t65 -205.5q0 -40 -6 -86l-105 -754h-262l96 709q7 58 7 84q0 61 -21 83.5t-67 22.5q-133 0 -285 -283l-88 -616h-262z" />
<glyph unicode="i" horiz-adv-x="555" d="M63 0l152 1083h262l-151 -1083h-263zM233 1470q0 67 46.5 112.5t117.5 45.5q73 0 119.5 -45.5t46.5 -112.5q0 -68 -46.5 -113.5t-119.5 -45.5q-71 0 -117.5 45.5t-46.5 113.5z" />
<glyph unicode="j" horiz-adv-x="555" d="M-188 -252q127 49 184.5 120t79.5 224l139 991h262l-139 -983q-22 -159 -79 -264.5t-146 -168.5t-232 -111zM233 1470q0 67 46.5 112.5t117.5 45.5q73 0 119.5 -45.5t46.5 -112.5q0 -68 -46.5 -113.5t-119.5 -45.5q-71 0 -117.5 45.5t-46.5 113.5z" />
<glyph unicode="k" horiz-adv-x="1153" d="M70 0l213 1518l266 28l-90 -641q160 209 379 209q121 0 199.5 -70t78.5 -178q0 -133 -79 -231t-238 -154l225 -481h-287l-225 526q181 54 258.5 124.5t77.5 170.5q0 49 -27.5 76t-77.5 27q-81 0 -167.5 -73.5t-153.5 -217.5l-90 -633h-262z" />
<glyph unicode="l" horiz-adv-x="577" d="M84 209q0 31 6 72l174 1237l268 28l-182 -1280q-2 -15 -2 -28q0 -25 8 -37q12 -19 45 -19t58 11l39 -185q-89 -39 -181 -39q-110 0 -171.5 60.5t-61.5 179.5z" />
<glyph unicode="m" horiz-adv-x="1736" d="M70 0l153 1083h228l-17 -215q166 246 369 246q94 0 154.5 -54.5t70.5 -164.5q161 219 361 219q106 0 169.5 -65.5t63.5 -196.5q0 -42 -6 -88l-109 -764h-262l101 713q6 55 6 88q0 56 -17 77t-53 21q-56 0 -127.5 -68t-148.5 -213l-86 -618h-261l99 713q8 49 8 90 q0 54 -17.5 75t-52.5 21q-57 0 -128 -68.5t-150 -216.5l-86 -614h-262z" />
<glyph unicode="n" horiz-adv-x="1177" d="M70 0l153 1083h228l-17 -215q169 246 383 246q115 0 180.5 -67.5t65.5 -202.5q0 -40 -6 -90l-105 -754h-262l96 709q7 58 7 84q0 61 -21 83.5t-67 22.5q-133 0 -287 -285l-86 -614h-262z" />
<glyph unicode="o" horiz-adv-x="1179" d="M66 430q0 106 22.5 205.5t70 186.5t115 152t163 102.5t208.5 37.5q211 0 330 -124.5t119 -338.5q0 -192 -67.5 -345.5t-200 -245t-308.5 -91.5q-211 0 -331.5 123t-120.5 338zM338 414q0 -127 46 -186.5t142 -59.5q77 0 136 46.5t92.5 122t50 160t16.5 173.5 q0 245 -186 245q-135 0 -216 -140.5t-81 -360.5z" />
<glyph unicode="p" horiz-adv-x="1202" d="M8 -446l215 1529h228l-17 -215q73 117 175 181.5t200 64.5q141 0 223 -98.5t82 -296.5q0 -166 -40.5 -308.5t-108.5 -238t-156.5 -149.5t-185.5 -54q-163 0 -279 125l-72 -512zM369 270q80 -104 194 -104q105 0 192 152t87 395q0 96 -35.5 144t-87.5 48q-67 0 -144 -69 t-155 -213z" />
<glyph unicode="q" horiz-adv-x="1193" d="M66 422q0 153 48 283.5t130 219.5t193.5 139t236.5 50q118 0 218 -25t210 -81l-203 -1426l-266 -28l82 577q-67 -76 -146 -119t-155 -43q-156 0 -252 116t-96 337zM338 426q0 -135 45 -195.5t115 -60.5q61 0 128 50.5t122 141.5l73 525q-43 18 -73 24.5t-78 6.5 q-63 0 -121.5 -31t-106 -90t-76 -155t-28.5 -216z" />
<glyph unicode="r" horiz-adv-x="790" d="M70 0l153 1083h228l-23 -264q67 150 154.5 222.5t179.5 72.5q58 0 104 -14l-84 -275q-44 15 -88 15q-175 -3 -291 -336l-71 -504h-262z" />
<glyph unicode="s" horiz-adv-x="972" d="M-23 139l140 152q62 -56 144 -90.5t159 -34.5q87 0 135.5 36t48.5 97q0 57 -42.5 93t-168.5 79q-295 99 -295 320q0 144 111.5 232.5t308.5 88.5q121 0 213.5 -32t177.5 -99l-118 -158q-129 97 -269 97q-75 0 -114 -30.5t-39 -82.5q0 -48 40 -79t169 -77 q159 -58 229 -134.5t70 -190.5q0 -160 -120 -258.5t-341 -98.5q-126 0 -244.5 48.5t-194.5 121.5z" />
<glyph unicode="t" horiz-adv-x="761" d="M53 897l27 186h170l74 246l223 25l-37 -271h262l-55 -186h-234l-82 -571q-3 -25 -3 -45q0 -43 15 -65q22 -32 81 -32t137 41l76 -176q-131 -80 -279 -80q-140 0 -215.5 72.5t-75.5 216.5q0 42 6 88l78 551h-168z" />
<glyph unicode="u" horiz-adv-x="1165" d="M102 254q0 33 7 94l104 735h262l-104 -733q-4 -23 -4 -61q0 -61 24 -85t76 -24q58 0 127.5 53t124.5 146l100 704h262l-151 -1083h-228l5 170q-71 -98 -159 -149.5t-179 -51.5q-129 0 -198 72t-69 213z" />
<glyph unicode="v" horiz-adv-x="1015" d="M66 1083h274l109 -868h8l358 868h275l-510 -1083h-310z" />
<glyph unicode="w" horiz-adv-x="1501" d="M86 1083h258l23 -878h8l315 878h268l54 -874h8l278 874h258l-389 -1083h-327l-49 836h-9l-288 -836h-322z" />
<glyph unicode="x" horiz-adv-x="995" d="M-104 0l440 573l-250 510h287l129 -360h8l229 360h297l-387 -505l283 -578h-293l-160 420h-8l-276 -420h-299z" />
<glyph unicode="y" horiz-adv-x="1013" d="M-39 -250q163 21 249 78.5t142 171.5h-88l-196 1083h270l113 -893h8l348 893h278l-479 -1079q-62 -139 -142.5 -231.5t-204.5 -150t-290 -68.5z" />
<glyph unicode="z" horiz-adv-x="905" d="M-53 0l26 190l607 689h-465l30 204h781l-29 -190l-600 -688h512l-53 -205h-809z" />
<glyph unicode="{" horiz-adv-x="665" d="M39 610l27 213q83 0 114.5 35t42.5 123l45 360q14 109 39.5 176t78.5 114t137.5 66t215.5 19l-24 -188q-100 0 -143 -29t-52 -102l-35 -289q-26 -207 -71 -288t-162 -99q0 -1 -1 -4t-1 -4q51 -14 84.5 -39.5t48.5 -58t20 -73.5t-2 -87l-49 -418q-9 -71 29 -101t137 -30 l-24 -189q-213 1 -301.5 65t-88.5 200q0 28 7 79l47 390q11 90 -13.5 124.5t-105.5 34.5z" />
<glyph unicode="|" horiz-adv-x="794" d="M178 -213l230 1870h241l-229 -1870h-242z" />
<glyph unicode="}" horiz-adv-x="665" d="M-43 -283l25 189q100 0 142.5 29t51.5 102l35 289q26 207 71 288t162 99q0 1 1 4t1 4q-51 14 -84.5 39.5t-48.5 58t-20 73.5t2 87l49 418q9 71 -29 101t-137 30l25 188q213 -1 301 -64.5t88 -199.5q0 -36 -6 -80l-47 -389q-11 -90 13 -125t105 -35l-26 -213 q-83 0 -115 -35t-43 -122l-45 -361q-14 -109 -39.5 -176t-78.5 -114t-137.5 -66t-215.5 -19z" />
<glyph unicode="~" d="M59 584q29 46 57 81t67.5 70.5t90 54.5t107.5 19q59 0 112 -18.5t84.5 -40t68 -40t67.5 -18.5q47 0 79 26.5t64 78.5l143 -82q-27 -45 -55 -80.5t-67.5 -70t-90 -53.5t-108.5 -19t-110.5 18.5t-84 40.5t-68 40.5t-67.5 18.5q-47 0 -80 -27.5t-65 -78.5z" />
<glyph unicode="&#xa1;" horiz-adv-x="524" d="M-8 -418l151 922l217 37l-73 -959h-295zM125 870q0 69 48 117.5t118 48.5q69 0 117.5 -48.5t48.5 -117.5q0 -68 -48.5 -115.5t-117.5 -47.5q-70 0 -118 47.5t-48 115.5z" />
<glyph unicode="&#xa2;" horiz-adv-x="991" d="M76 442q0 137 37 255t102 201.5t150.5 137t183.5 70.5l37 303h200l-34 -305q123 -22 235 -111l-119 -164q-54 43 -101 60.5t-110 17.5q-129 0 -218 -124t-89 -341q0 -134 54 -198t151 -64q100 0 231 82l91 -174q-128 -90 -267 -111l-37 -301h-202l37 304 q-153 32 -242.5 151t-89.5 311z" />
<glyph unicode="&#xa3;" horiz-adv-x="1085" d="M-16 0l22 195q110 33 149 91t52 171l22 184h-157l18 145h158l26 213q49 404 428 404q258 0 406 -197l-178 -121q-88 115 -215 115q-85 0 -128 -47.5t-55 -153.5l-26 -213h393l-18 -145h-394l-20 -170q-11 -95 -45 -158.5t-105 -99.5l-2 -8h660l-55 -205h-936z" />
<glyph unicode="&#xa5;" horiz-adv-x="1105" d="M92 1378h270l207 -587h9l350 587h282l-452 -663h223l-16 -148h-283l-18 -161h280l-16 -148h-283l-31 -258h-264l31 258h-279l17 148h280l21 161h-281l19 148h219z" />
<glyph unicode="&#xa7;" horiz-adv-x="1064" d="M43 -33l123 156q134 -92 278 -92q158 0 158 114q0 49 -41 83.5t-172 78.5q-158 54 -223.5 126t-65.5 179q0 164 191 262q-84 81 -84 209q0 139 110 227.5t306 88.5q230 0 387 -123l-125 -154q-127 86 -264 86q-74 0 -113 -28.5t-39 -81.5t42.5 -88t170.5 -78 q162 -55 224.5 -123t62.5 -170q0 -87 -53.5 -158.5t-141.5 -122.5q90 -81 90 -200q0 -143 -108.5 -230.5t-309.5 -87.5q-104 0 -215.5 34t-187.5 93zM346 643q0 -37 18.5 -62.5t82 -59.5t190.5 -79q38 34 63 78t25 76q0 38 -17.5 62t-82.5 56.5t-199 78.5q-80 -74 -80 -150z " />
<glyph unicode="&#xa8;" horiz-adv-x="849" d="M61 1456q0 60 43 100.5t103 40.5q62 0 103.5 -40.5t41.5 -100.5t-41.5 -100.5t-103.5 -40.5q-60 0 -103 40.5t-43 100.5zM498 1456q0 60 42.5 100.5t102.5 40.5q62 0 103.5 -40.5t41.5 -100.5t-41.5 -100.5t-103.5 -40.5q-60 0 -102.5 40.5t-42.5 100.5z" />
<glyph unicode="&#xa9;" horiz-adv-x="1644" d="M154 887q0 182 89.5 335.5t243.5 241.5t338 88q137 0 260.5 -52t212 -141t141 -212t52.5 -260q0 -182 -88.5 -334.5t-241.5 -241t-336 -88.5q-184 0 -338 88.5t-243.5 241t-89.5 334.5zM313 887q0 -145 66 -265t183.5 -190t262.5 -70q143 0 260 70t182.5 190t65.5 265 t-65.5 266t-182.5 191.5t-260 70.5q-145 0 -262.5 -70.5t-183.5 -191.5t-66 -266zM475 889q0 184 99 290.5t251 106.5q143 0 254 -94l-88 -115q-72 56 -149 56q-76 0 -122 -59.5t-46 -184.5q0 -123 44.5 -182.5t121.5 -59.5q91 0 168 68l82 -121q-118 -102 -263 -102 q-161 0 -256.5 104t-95.5 293z" />
<glyph unicode="&#xaa;" horiz-adv-x="1228" d="M121 0l24 211h832l-25 -211h-831zM219 887q0 148 120.5 229.5t360.5 81.5h107l6 55q6 66 -27.5 93.5t-117.5 27.5q-101 0 -258 -53l-37 162q189 63 350 63q162 0 237.5 -57.5t75.5 -181.5q0 -45 -4 -70l-47 -352q-6 -50 3.5 -70.5t39.5 -28.5l-24 -163q-100 3 -153.5 35 t-68.5 100q-58 -60 -136 -95.5t-150 -35.5q-128 0 -202.5 71.5t-74.5 188.5zM469 907q0 -60 25.5 -88t80.5 -28q105 0 189 104l22 158h-96q-120 0 -170.5 -36t-50.5 -110z" />
<glyph unicode="&#xab;" horiz-adv-x="1210" d="M80 510l24 172l439 440l143 -116l-326 -412l207 -424l-168 -107zM573 510l23 172l440 440l144 -116l-328 -412l209 -424l-170 -107z" />
<glyph unicode="&#xac;" d="M96 543l27 209h835l-63 -514h-223l37 305h-613z" />
<glyph unicode="&#xad;" horiz-adv-x="833" d="M98 537l31 208h619l-29 -208h-621z" />
<glyph unicode="&#xae;" horiz-adv-x="1314" d="M111 997q0 229 158.5 387t389.5 158q112 0 213 -42.5t173 -115t114.5 -173.5t42.5 -214q0 -150 -71.5 -274.5t-196.5 -196t-275 -71.5q-152 0 -278 71.5t-198 196t-72 274.5zM250 997q0 -179 116.5 -300.5t292.5 -121.5q174 0 290 121.5t116 300.5q0 180 -116 303 t-290 123q-176 0 -292.5 -123t-116.5 -303zM446 721v579h177q264 0 264 -178q0 -116 -127 -159l166 -242h-156l-139 215h-51v-215h-134zM580 1042h55q115 0 115 82q0 74 -119 74h-51v-156z" />
<glyph unicode="&#xaf;" horiz-adv-x="741" d="M61 1362l25 186h594l-25 -186h-594z" />
<glyph unicode="&#xb0;" horiz-adv-x="1038" d="M162 1081q0 167 103.5 266t273.5 99q136 0 233.5 -88t97.5 -221q0 -166 -101.5 -265.5t-274.5 -99.5q-136 0 -234 89t-98 220zM356 1094q0 -74 41 -117t105 -43q79 0 126.5 51t47.5 141q0 73 -42 116.5t-104 43.5q-79 0 -126.5 -50t-47.5 -142z" />
<glyph unicode="&#xb1;" d="M31 0l24 207h836l-25 -207h-835zM98 557l27 205h303l39 315h227l-39 -315h306l-27 -205h-303l-29 -227h-227l28 227h-305z" />
<glyph unicode="&#xb4;" horiz-adv-x="671" d="M61 1399l449 276l100 -213l-483 -202z" />
<glyph unicode="&#xb5;" horiz-adv-x="1175" d="M8 -442l215 1525h262l-104 -733q-4 -23 -4 -61q0 -61 24 -85t76 -24q58 0 127 52.5t123 144.5l102 706h263l-105 -725q-12 -94 -12 -172q0 -97 14 -186l-244 -31q-13 29 -21.5 87t-6.5 108q-63 -90 -141.5 -139.5t-149.5 -49.5q-89 0 -143 68l-7 -4q25 -55 25 -137 q0 -45 -10 -123l-29 -197z" />
<glyph unicode="&#xb6;" horiz-adv-x="1562" d="M201 977q0 208 150.5 323t434.5 115h639l-225 -1837l-235 -22l204 1667h-200l-144 -1184q-21 -174 -76.5 -290t-143 -184.5t-224.5 -115.5l-70 193q134 53 196.5 131.5t80.5 224.5l67 563q-212 6 -333 122t-121 294z" />
<glyph unicode="&#xb7;" horiz-adv-x="524" d="M104 682q0 68 47.5 116t116.5 48q70 0 119 -48t49 -116q0 -69 -49 -117.5t-119 -48.5q-69 0 -116.5 48.5t-47.5 117.5z" />
<glyph unicode="&#xb8;" horiz-adv-x="647" d="M61 -455l84 129q66 -39 142 -39q98 0 98 80q0 36 -38 53t-136 17l68 248h145l-21 -139q86 -10 134.5 -59.5t48.5 -121.5q0 -100 -79 -165.5t-210 -65.5q-64 0 -127.5 18t-108.5 45z" />
<glyph unicode="&#xba;" horiz-adv-x="1228" d="M88 0l25 211h831l-24 -211h-832zM205 1012q0 244 127.5 389t341.5 145q176 0 283.5 -103.5t107.5 -279.5q0 -237 -125.5 -384.5t-343.5 -147.5q-178 0 -284.5 100.5t-106.5 280.5zM442 1008q0 -105 43 -155t119 -50q110 0 168.5 99.5t58.5 268.5q0 100 -47 150.5 t-118 50.5q-110 0 -167 -96.5t-57 -267.5z" />
<glyph unicode="&#xbb;" horiz-adv-x="1210" d="M33 182l325 412l-206 422l167 106l320 -446l-25 -172l-438 -441zM524 182l328 412l-209 422l170 106l317 -446l-22 -172l-440 -441z" />
<glyph unicode="&#xbf;" horiz-adv-x="1030" d="M-14 -139q0 81 26.5 143.5t69.5 100.5t94.5 68.5t103 56t94.5 52.5t70 68.5t27 95.5q0 22 -6 52l229 37q19 -59 19 -101q0 -73 -25 -131t-64.5 -95t-87.5 -67t-96.5 -54.5t-88 -49.5t-64.5 -61t-25 -80q0 -61 42.5 -97.5t115.5 -36.5q142 0 274 138l158 -140 q-106 -106 -217.5 -156t-245.5 -50q-186 0 -294.5 90.5t-108.5 216.5zM422 870q0 69 48.5 117.5t117.5 48.5t117.5 -48.5t48.5 -117.5q0 -68 -48.5 -116.5t-117.5 -48.5t-117.5 48.5t-48.5 116.5z" />
<glyph unicode="&#xc0;" horiz-adv-x="1193" d="M-88 0l620 1415h334l271 -1415h-283l-49 328h-473l-131 -328h-289zM408 532h370l-100 658h-8zM461 1729l100 217l447 -263l-66 -141z" />
<glyph unicode="&#xc1;" horiz-adv-x="1193" d="M-88 0l620 1415h334l271 -1415h-283l-49 328h-473l-131 -328h-289zM408 532h370l-100 658h-8zM459 1686l446 262l101 -217l-482 -187z" />
<glyph unicode="&#xc2;" horiz-adv-x="1193" d="M-88 0l620 1415h334l271 -1415h-283l-49 328h-473l-131 -328h-289zM356 1663l314 242h164l258 -248l-113 -115l-244 172l-282 -172zM408 532h370l-100 658h-8z" />
<glyph unicode="&#xc3;" horiz-adv-x="1193" d="M-88 0l620 1415h334l271 -1415h-283l-49 328h-473l-131 -328h-289zM365 1653q109 213 266 213q44 0 81.5 -14.5t58 -31.5t45 -31.5t44.5 -14.5q33 0 58 20.5t57 67.5l133 -66q-113 -213 -268 -213q-42 0 -79 14.5t-58.5 31.5t-46 31.5t-44.5 14.5q-34 0 -57.5 -20 t-56.5 -68zM408 532h370l-100 658h-8z" />
<glyph unicode="&#xc4;" horiz-adv-x="1193" d="M-88 0l620 1415h334l271 -1415h-283l-49 328h-473l-131 -328h-289zM362 1704q0 60 43 100.5t103 40.5q62 0 103.5 -40.5t41.5 -100.5q0 -61 -41.5 -102t-103.5 -41q-61 0 -103.5 41t-42.5 102zM408 532h370l-100 658h-8zM815 1704q0 60 43 100.5t105 40.5 q60 0 102.5 -40.5t42.5 -100.5q0 -61 -42 -102t-103 -41q-62 0 -105 41t-43 102z" />
<glyph unicode="&#xc5;" horiz-adv-x="1193" d="M-88 0l620 1415h334l271 -1415h-283l-49 328h-473l-131 -328h-289zM408 532h370l-100 658h-8zM475 1739q0 112 78.5 188t200.5 76q110 0 178.5 -64.5t68.5 -160.5q0 -113 -79 -190t-197 -77q-115 0 -182.5 65t-67.5 163zM637 1741q0 -41 25.5 -66.5t68.5 -25.5 q48 0 78.5 34t30.5 91q0 41 -26 66.5t-66 25.5q-50 0 -80.5 -33.5t-30.5 -91.5z" />
<glyph unicode="&#xc6;" horiz-adv-x="1671" d="M-109 0l736 1415h1011l-55 -201h-588l37 -395h514l-24 -203h-471l43 -413h467l-23 -203h-682l-31 328h-483l-158 -328h-293zM434 532h379l-49 660h-10z" />
<glyph unicode="&#xc7;" horiz-adv-x="1167" d="M98 573q0 250 89.5 449.5t248.5 311.5t357 112q133 0 233.5 -39t183.5 -123l-153 -149q-60 54 -119.5 78t-140.5 24q-180 0 -297 -186t-117 -476q0 -387 287 -387q86 0 156.5 29t152.5 92l117 -174q-180 -156 -428 -164l-11 -77q86 -10 134.5 -59.5t48.5 -121.5 q0 -100 -79 -165.5t-210 -65.5q-64 0 -129 18.5t-107 44.5l84 129q66 -39 142 -39q98 0 98 80q0 36 -38 53t-136 17l53 197q-195 35 -307.5 185.5t-112.5 405.5z" />
<glyph unicode="&#xc8;" horiz-adv-x="1079" d="M94 0l172 1415h824l-56 -201h-520l-49 -395h455l-25 -201h-455l-51 -415h557l-22 -203h-830zM449 1729l100 217l446 -263l-65 -141z" />
<glyph unicode="&#xc9;" horiz-adv-x="1079" d="M94 0l172 1415h824l-56 -201h-520l-49 -395h455l-25 -201h-455l-51 -415h557l-22 -203h-830zM457 1683l446 263l101 -217l-482 -187z" />
<glyph unicode="&#xca;" horiz-adv-x="1079" d="M94 0l172 1415h824l-56 -201h-520l-49 -395h455l-25 -201h-455l-51 -415h557l-22 -203h-830zM334 1663l313 242h164l258 -248l-113 -115l-243 172l-283 -172z" />
<glyph unicode="&#xcb;" horiz-adv-x="1079" d="M94 0l172 1415h824l-56 -201h-520l-49 -395h455l-25 -201h-455l-51 -415h557l-22 -203h-830zM338 1704q0 60 42.5 100.5t102.5 40.5q62 0 104 -40.5t42 -100.5q0 -61 -42 -102t-104 -41q-61 0 -103 41t-42 102zM791 1704q0 60 42.5 100.5t104.5 40.5q60 0 102.5 -40.5 t42.5 -100.5q0 -61 -42 -102t-103 -41q-62 0 -104.5 41t-42.5 102z" />
<glyph unicode="&#xcc;" horiz-adv-x="600" d="M94 0l172 1415h273l-174 -1415h-271zM170 1729l100 217l447 -263l-66 -141z" />
<glyph unicode="&#xcd;" horiz-adv-x="600" d="M94 0l172 1415h273l-174 -1415h-271zM162 1683l446 263l101 -217l-482 -187z" />
<glyph unicode="&#xce;" horiz-adv-x="600" d="M61 1663l314 242h164l258 -248l-113 -115l-244 172l-282 -172zM94 0l172 1415h273l-174 -1415h-271z" />
<glyph unicode="&#xcf;" horiz-adv-x="600" d="M68 1704q0 60 42.5 100.5t102.5 40.5q62 0 103.5 -40.5t41.5 -100.5q0 -61 -41.5 -102t-103.5 -41q-61 0 -103 41t-42 102zM94 0l172 1415h273l-174 -1415h-271zM520 1704q0 60 43 100.5t105 40.5q60 0 102.5 -40.5t42.5 -100.5q0 -61 -42 -102t-103 -41q-62 0 -105 41 t-43 102z" />
<glyph unicode="&#xd0;" horiz-adv-x="1343" d="M31 635l20 176h146l73 604h371q298 0 466.5 -144.5t168.5 -418.5q0 -402 -201 -627t-563 -225h-414l78 635h-145zM393 203h142q99 0 182 39.5t145.5 117t97.5 202.5t35 286q0 364 -360 364h-117l-49 -401h315l-22 -176h-316z" />
<glyph unicode="&#xd1;" horiz-adv-x="1370" d="M94 0l172 1415h340l344 -1145h8q0 5 -1 26t-1 36q0 238 35 514l70 569h246l-172 -1415h-349l-335 1141h-9q2 -70 -4.5 -238t-25.5 -323l-72 -580h-246zM451 1653q109 213 266 213q44 0 81.5 -14.5t58 -31.5t45 -31.5t44.5 -14.5q33 0 58 20.5t57 67.5l133 -66 q-113 -213 -268 -213q-42 0 -79 14.5t-58.5 31.5t-46 31.5t-44.5 14.5q-34 0 -57.5 -20t-56.5 -68z" />
<glyph unicode="&#xd2;" horiz-adv-x="1411" d="M98 563q0 131 25 255t79.5 239t133.5 200.5t196.5 137t258.5 51.5q254 0 402 -155.5t148 -440.5q0 -131 -24.5 -255.5t-79 -238.5t-133.5 -199.5t-196.5 -136.5t-258.5 -51q-254 0 -402.5 155t-148.5 439zM381 539q0 -190 69.5 -276.5t202.5 -86.5q80 0 145 32.5t108 89 t74 125.5t47.5 151.5t24 156t7.5 148.5q0 188 -69 274t-204 86q-79 0 -143.5 -32.5t-107.5 -89t-74 -126t-48 -151t-24.5 -155t-7.5 -146.5zM571 1729l101 217l446 -263l-65 -141z" />
<glyph unicode="&#xd3;" horiz-adv-x="1411" d="M98 563q0 131 25 255t79.5 239t133.5 200.5t196.5 137t258.5 51.5q254 0 402 -155.5t148 -440.5q0 -131 -24.5 -255.5t-79 -238.5t-133.5 -199.5t-196.5 -136.5t-258.5 -51q-254 0 -402.5 155t-148.5 439zM381 539q0 -190 69.5 -276.5t202.5 -86.5q80 0 145 32.5t108 89 t74 125.5t47.5 151.5t24 156t7.5 148.5q0 188 -69 274t-204 86q-79 0 -143.5 -32.5t-107.5 -89t-74 -126t-48 -151t-24.5 -155t-7.5 -146.5zM575 1683l447 263l100 -217l-481 -187z" />
<glyph unicode="&#xd4;" horiz-adv-x="1411" d="M98 563q0 131 25 255t79.5 239t133.5 200.5t196.5 137t258.5 51.5q254 0 402 -155.5t148 -440.5q0 -131 -24.5 -255.5t-79 -238.5t-133.5 -199.5t-196.5 -136.5t-258.5 -51q-254 0 -402.5 155t-148.5 439zM381 539q0 -190 69.5 -276.5t202.5 -86.5q80 0 145 32.5t108 89 t74 125.5t47.5 151.5t24 156t7.5 148.5q0 188 -69 274t-204 86q-79 0 -143.5 -32.5t-107.5 -89t-74 -126t-48 -151t-24.5 -155t-7.5 -146.5zM467 1663l313 242h164l258 -248l-112 -115l-244 172l-283 -172z" />
<glyph unicode="&#xd5;" horiz-adv-x="1411" d="M98 563q0 131 25 255t79.5 239t133.5 200.5t196.5 137t258.5 51.5q254 0 402 -155.5t148 -440.5q0 -131 -24.5 -255.5t-79 -238.5t-133.5 -199.5t-196.5 -136.5t-258.5 -51q-254 0 -402.5 155t-148.5 439zM381 539q0 -190 69.5 -276.5t202.5 -86.5q80 0 145 32.5t108 89 t74 125.5t47.5 151.5t24 156t7.5 148.5q0 188 -69 274t-204 86q-79 0 -143.5 -32.5t-107.5 -89t-74 -126t-48 -151t-24.5 -155t-7.5 -146.5zM475 1653q109 213 266 213q44 0 81.5 -14.5t58.5 -31.5t45.5 -31.5t44.5 -14.5q33 0 57.5 20.5t56.5 67.5l134 -66 q-113 -213 -269 -213q-54 0 -97 23t-74 46t-56 23q-34 0 -58 -20t-57 -68z" />
<glyph unicode="&#xd6;" horiz-adv-x="1411" d="M98 563q0 131 25 255t79.5 239t133.5 200.5t196.5 137t258.5 51.5q254 0 402 -155.5t148 -440.5q0 -131 -24.5 -255.5t-79 -238.5t-133.5 -199.5t-196.5 -136.5t-258.5 -51q-254 0 -402.5 155t-148.5 439zM381 539q0 -190 69.5 -276.5t202.5 -86.5q80 0 145 32.5t108 89 t74 125.5t47.5 151.5t24 156t7.5 148.5q0 188 -69 274t-204 86q-79 0 -143.5 -32.5t-107.5 -89t-74 -126t-48 -151t-24.5 -155t-7.5 -146.5zM471 1704q0 60 42.5 100.5t102.5 40.5q62 0 104 -40.5t42 -100.5q0 -61 -42 -102t-104 -41q-61 0 -103 41t-42 102zM924 1704 q0 60 42.5 100.5t104.5 40.5q60 0 103 -40.5t43 -100.5q0 -61 -42.5 -102t-103.5 -41q-62 0 -104.5 41t-42.5 102z" />
<glyph unicode="&#xd8;" horiz-adv-x="1411" d="M98 563q0 131 25 255t79.5 239t133.5 200.5t196.5 137t258.5 51.5q63 0 124 -12l107 254l209 -58l-119 -272q229 -154 229 -508q0 -131 -24.5 -255.5t-79 -238.5t-133.5 -199.5t-196.5 -136.5t-258.5 -51q-52 0 -125 15l-108 -258l-209 57l121 272q-111 73 -170.5 202 t-59.5 306zM375 539q0 -188 80 -275l403 967q-31 8 -72 8q-79 0 -144 -32.5t-108.5 -89t-75.5 -126t-49.5 -150.5t-25.5 -155t-8 -147zM582 182q38 -6 71 -6q80 0 145.5 32.5t109 89t75 126t48.5 151.5t24.5 156t7.5 148q0 187 -80 270z" />
<glyph unicode="&#xd9;" horiz-adv-x="1341" d="M127 412q0 46 6 96l113 907h272l-115 -919q-6 -46 -6 -86q0 -120 56 -175t172 -55q122 0 194.5 74.5t89.5 216.5l117 944h274l-116 -942q-31 -240 -177.5 -372t-383.5 -132q-242 0 -369 115t-127 328zM526 1729l101 217l446 -263l-65 -141z" />
<glyph unicode="&#xda;" horiz-adv-x="1341" d="M127 412q0 46 6 96l113 907h272l-115 -919q-6 -46 -6 -86q0 -120 56 -175t172 -55q122 0 194.5 74.5t89.5 216.5l117 944h274l-116 -942q-31 -240 -177.5 -372t-383.5 -132q-242 0 -369 115t-127 328zM545 1683l446 263l101 -217l-482 -187z" />
<glyph unicode="&#xdb;" horiz-adv-x="1341" d="M127 412q0 46 6 96l113 907h272l-115 -919q-6 -46 -6 -86q0 -120 56 -175t172 -55q122 0 194.5 74.5t89.5 216.5l117 944h274l-116 -942q-31 -240 -177.5 -372t-383.5 -132q-242 0 -369 115t-127 328zM432 1663l313 242h164l258 -248l-112 -115l-244 172l-283 -172z" />
<glyph unicode="&#xdc;" horiz-adv-x="1341" d="M127 412q0 46 6 96l113 907h272l-115 -919q-6 -46 -6 -86q0 -120 56 -175t172 -55q122 0 194.5 74.5t89.5 216.5l117 944h274l-116 -942q-31 -240 -177.5 -372t-383.5 -132q-242 0 -369 115t-127 328zM436 1704q0 60 43 100.5t103 40.5q62 0 103.5 -40.5t41.5 -100.5 q0 -61 -41.5 -102t-103.5 -41q-61 0 -103.5 41t-42.5 102zM889 1704q0 60 42.5 100.5t104.5 40.5q60 0 103 -40.5t43 -100.5q0 -61 -42.5 -102t-103.5 -41q-62 0 -104.5 41t-42.5 102z" />
<glyph unicode="&#xdd;" horiz-adv-x="1161" d="M90 1415h287l215 -649h8l375 649h299l-563 -878l-66 -537h-272l65 535zM455 1683l446 263l100 -217l-481 -187z" />
<glyph unicode="&#xde;" horiz-adv-x="1187" d="M94 0l172 1415h273l-31 -246h125q266 0 405.5 -105t139.5 -294q0 -241 -159 -381.5t-429 -140.5h-195l-30 -248h-271zM420 451h168q142 0 224.5 82t82.5 231q0 104 -68.5 155.5t-214.5 51.5h-129z" />
<glyph unicode="&#xdf;" horiz-adv-x="1204" d="M-178 -254q126 49 182.5 120.5t77.5 225.5l135 963q36 262 156 376.5t348 114.5q174 0 276.5 -79t102.5 -203q0 -49 -15 -90t-39 -69.5t-53 -53.5t-58.5 -46t-53.5 -41.5t-39 -46.5t-15 -55q0 -36 33 -75.5t80 -80.5t94 -89t80 -119t33 -152q0 -165 -111.5 -271 t-290.5 -106q-79 0 -161 27t-140 72l113 168q80 -62 164 -62q67 0 111.5 42.5t44.5 123.5q0 58 -31 107t-74.5 86t-87.5 74.5t-75 90t-31 115.5q0 59 19.5 106.5t48.5 75.5t63 56t63 51t48.5 59t19.5 80q0 52 -35 82.5t-100 30.5q-91 0 -145 -57t-73 -195l-139 -981 q-24 -169 -82 -279t-146 -174t-231 -112z" />
<glyph unicode="&#xe0;" horiz-adv-x="1181" d="M66 410q0 157 47 290t128 223t190.5 140.5t234.5 50.5q118 0 214 -24.5t207 -81.5l-104 -715q-10 -66 1 -95.5t50 -47.5l-78 -179q-194 18 -225 185q-66 -89 -150.5 -138t-170.5 -49q-159 0 -251.5 111t-92.5 330zM338 412q0 -128 43.5 -186t112.5 -58q54 0 116.5 50.5 t116.5 139.5l82 531q-74 29 -143 29q-137 0 -232.5 -131.5t-95.5 -374.5zM436 1466l101 213l448 -276l-65 -139z" />
<glyph unicode="&#xe1;" horiz-adv-x="1181" d="M66 410q0 157 47 290t128 223t190.5 140.5t234.5 50.5q118 0 214 -24.5t207 -81.5l-104 -715q-10 -66 1 -95.5t50 -47.5l-78 -179q-194 18 -225 185q-66 -89 -150.5 -138t-170.5 -49q-159 0 -251.5 111t-92.5 330zM338 412q0 -128 43.5 -186t112.5 -58q54 0 116.5 50.5 t116.5 139.5l82 531q-74 29 -143 29q-137 0 -232.5 -131.5t-95.5 -374.5zM418 1399l448 276l101 -213l-484 -202z" />
<glyph unicode="&#xe2;" horiz-adv-x="1181" d="M66 410q0 157 47 290t128 223t190.5 140.5t234.5 50.5q118 0 214 -24.5t207 -81.5l-104 -715q-10 -66 1 -95.5t50 -47.5l-78 -179q-194 18 -225 185q-66 -89 -150.5 -138t-170.5 -49q-159 0 -251.5 111t-92.5 330zM334 1382l323 267h164l248 -269l-117 -114l-233 192 l-293 -192zM338 412q0 -128 43.5 -186t112.5 -58q54 0 116.5 50.5t116.5 139.5l82 531q-74 29 -143 29q-137 0 -232.5 -131.5t-95.5 -374.5z" />
<glyph unicode="&#xe3;" horiz-adv-x="1181" d="M66 410q0 157 47 290t128 223t190.5 140.5t234.5 50.5q118 0 214 -24.5t207 -81.5l-104 -715q-10 -66 1 -95.5t50 -47.5l-78 -179q-194 18 -225 185q-66 -89 -150.5 -138t-170.5 -49q-159 0 -251.5 111t-92.5 330zM332 1384q114 211 274 211q43 0 79.5 -14.5t56.5 -31.5 t43.5 -31.5t43.5 -14.5q33 0 58 20.5t59 67.5l133 -65q-115 -213 -272 -213q-42 0 -78.5 14.5t-57.5 31.5t-45 31.5t-44 14.5q-33 0 -56.5 -20t-58.5 -68zM338 412q0 -128 43.5 -186t112.5 -58q54 0 116.5 50.5t116.5 139.5l82 531q-74 29 -143 29q-137 0 -232.5 -131.5 t-95.5 -374.5z" />
<glyph unicode="&#xe4;" horiz-adv-x="1181" d="M66 410q0 157 47 290t128 223t190.5 140.5t234.5 50.5q118 0 214 -24.5t207 -81.5l-104 -715q-10 -66 1 -95.5t50 -47.5l-78 -179q-194 18 -225 185q-66 -89 -150.5 -138t-170.5 -49q-159 0 -251.5 111t-92.5 330zM338 412q0 -128 43.5 -186t112.5 -58q54 0 116.5 50.5 t116.5 139.5l82 531q-74 29 -143 29q-137 0 -232.5 -131.5t-95.5 -374.5zM348 1456q0 60 43 100.5t103 40.5q62 0 103.5 -40.5t41.5 -100.5t-41.5 -100.5t-103.5 -40.5q-60 0 -103 40.5t-43 100.5zM784 1456q0 60 43 100.5t103 40.5q62 0 103.5 -40.5t41.5 -100.5 t-41.5 -100.5t-103.5 -40.5q-60 0 -103 40.5t-43 100.5z" />
<glyph unicode="&#xe5;" horiz-adv-x="1181" d="M66 410q0 157 47 290t128 223t190.5 140.5t234.5 50.5q118 0 214 -24.5t207 -81.5l-104 -715q-10 -66 1 -95.5t50 -47.5l-78 -179q-194 18 -225 185q-66 -89 -150.5 -138t-170.5 -49q-159 0 -251.5 111t-92.5 330zM338 412q0 -128 43.5 -186t112.5 -58q54 0 116.5 50.5 t116.5 139.5l82 531q-74 29 -143 29q-137 0 -232.5 -131.5t-95.5 -374.5zM455 1473q0 114 77.5 189t200.5 75q110 0 179 -65t69 -161q0 -111 -80 -188.5t-199 -77.5q-115 0 -181 65t-66 163zM614 1475q0 -41 26.5 -66t68.5 -25q48 0 79 33t31 90q0 41 -26 66.5t-66 25.5 q-50 0 -81.5 -33t-31.5 -91z" />
<glyph unicode="&#xe6;" horiz-adv-x="1669" d="M18 264q0 181 145.5 277t420.5 96h137l10 94q11 96 -32 139t-160 43q-129 0 -291 -55l-39 180q216 76 379 76q128 0 209.5 -44t105.5 -130q68 88 164 131t205 43q169 0 265.5 -77t96.5 -210q0 -182 -178 -287.5t-520 -131.5q6 -116 58.5 -175t140.5 -59q70 0 132 20.5 t138 71.5l104 -164q-176 -133 -387 -133q-258 0 -372 193q-142 -193 -398 -193q-172 0 -253 79.5t-81 215.5zM297 279q0 -119 143 -119q73 0 148.5 51.5t111.5 124.5q-3 77 5 143h-99q-165 0 -237 -49.5t-72 -150.5zM944 573q228 21 325 80t97 166q0 51 -32.5 80t-92.5 29 q-103 0 -187 -96t-110 -259z" />
<glyph unicode="&#xe7;" horiz-adv-x="956" d="M66 442q0 152 46 280.5t123.5 213t180 131.5t215.5 47q195 0 346 -121l-119 -164q-54 43 -101 60.5t-110 17.5q-129 0 -218 -124t-89 -341q0 -134 54 -198t151 -64q100 0 231 82l90 -174q-151 -108 -331 -117l-11 -77q86 -10 134.5 -59.5t48.5 -121.5q0 -100 -79 -165.5 t-210 -65.5q-64 0 -129 18.5t-107 44.5l82 129q70 -39 144 -39q98 0 98 80q0 36 -38 53t-136 17l55 199q-149 33 -235 151.5t-86 306.5z" />
<glyph unicode="&#xe8;" horiz-adv-x="1067" d="M66 438q0 151 44.5 278t123 214t187 135.5t234.5 48.5q178 0 277.5 -77t99.5 -210q0 -172 -168.5 -281.5t-529.5 -137.5q6 -118 58 -176t138 -58q72 0 134.5 20.5t138.5 71.5l104 -164q-176 -133 -387 -133q-219 0 -336.5 122t-117.5 347zM342 573q160 14 255 49t130 82 t35 115q0 52 -32.5 80.5t-90.5 28.5q-104 0 -187.5 -96t-109.5 -259zM412 1466l100 213l449 -276l-66 -139z" />
<glyph unicode="&#xe9;" horiz-adv-x="1067" d="M66 438q0 151 44.5 278t123 214t187 135.5t234.5 48.5q178 0 277.5 -77t99.5 -210q0 -172 -168.5 -281.5t-529.5 -137.5q6 -118 58 -176t138 -58q72 0 134.5 20.5t138.5 71.5l104 -164q-176 -133 -387 -133q-219 0 -336.5 122t-117.5 347zM342 573q160 14 255 49t130 82 t35 115q0 52 -32.5 80.5t-90.5 28.5q-104 0 -187.5 -96t-109.5 -259zM408 1399l448 276l100 -213l-483 -202z" />
<glyph unicode="&#xea;" horiz-adv-x="1067" d="M66 438q0 151 44.5 278t123 214t187 135.5t234.5 48.5q178 0 277.5 -77t99.5 -210q0 -172 -168.5 -281.5t-529.5 -137.5q6 -118 58 -176t138 -58q72 0 134.5 20.5t138.5 71.5l104 -164q-176 -133 -387 -133q-219 0 -336.5 122t-117.5 347zM303 1382l324 267h164l247 -269 l-116 -114l-234 192l-293 -192zM342 573q160 14 255 49t130 82t35 115q0 52 -32.5 80.5t-90.5 28.5q-104 0 -187.5 -96t-109.5 -259z" />
<glyph unicode="&#xeb;" horiz-adv-x="1067" d="M66 438q0 151 44.5 278t123 214t187 135.5t234.5 48.5q178 0 277.5 -77t99.5 -210q0 -172 -168.5 -281.5t-529.5 -137.5q6 -118 58 -176t138 -58q72 0 134.5 20.5t138.5 71.5l104 -164q-176 -133 -387 -133q-219 0 -336.5 122t-117.5 347zM328 1456q0 60 42.5 100.5 t102.5 40.5q62 0 103.5 -40.5t41.5 -100.5t-41.5 -100.5t-103.5 -40.5q-60 0 -102.5 40.5t-42.5 100.5zM342 573q160 14 255 49t130 82t35 115q0 52 -32.5 80.5t-90.5 28.5q-104 0 -187.5 -96t-109.5 -259zM764 1456q0 60 42.5 100.5t102.5 40.5q62 0 104 -40.5t42 -100.5 t-42 -100.5t-104 -40.5q-60 0 -102.5 40.5t-42.5 100.5z" />
<glyph unicode="&#xec;" horiz-adv-x="555" d="M63 0l152 1083h262l-151 -1083h-263zM135 1466l101 213l448 -276l-66 -139z" />
<glyph unicode="&#xed;" horiz-adv-x="555" d="M63 0l152 1083h262l-151 -1083h-263zM127 1399l448 276l101 -213l-483 -202z" />
<glyph unicode="&#xee;" horiz-adv-x="555" d="M20 1382l324 267h164l248 -269l-117 -114l-233 192l-293 -192zM63 0l152 1083h262l-151 -1083h-263z" />
<glyph unicode="&#xef;" horiz-adv-x="555" d="M41 1456q0 60 42.5 100.5t102.5 40.5q62 0 104 -40.5t42 -100.5t-42 -100.5t-104 -40.5q-60 0 -102.5 40.5t-42.5 100.5zM63 0l152 1083h262l-151 -1083h-263zM477 1456q0 60 43 100.5t103 40.5q62 0 103.5 -40.5t41.5 -100.5t-41.5 -100.5t-103.5 -40.5q-60 0 -103 40.5 t-43 100.5z" />
<glyph unicode="&#xf0;" horiz-adv-x="1169" d="M66 426q0 117 37 221.5t98 178t142 116.5t167 43q118 0 195 -37.5t145 -136.5l6 4q6 147 -36.5 249t-143.5 171l-172 -154l-160 80l164 152q-104 35 -180 51l80 182q177 -41 270 -80l160 148l125 -123l-121 -109q131 -93 192.5 -225.5t61.5 -314.5q0 -31 -4 -97 q-30 -371 -180 -573.5t-408 -202.5q-199 0 -318.5 123t-119.5 334zM334 422q0 -125 50.5 -191.5t135.5 -66.5q116 0 195 120t100 365q-85 146 -235 146q-104 0 -175 -98.5t-71 -274.5z" />
<glyph unicode="&#xf1;" horiz-adv-x="1177" d="M70 0l153 1083h228l-17 -215q169 246 383 246q115 0 180.5 -67.5t65.5 -202.5q0 -40 -6 -90l-105 -754h-262l96 709q7 58 7 84q0 61 -21 83.5t-67 22.5q-133 0 -287 -285l-86 -614h-262zM342 1384q114 211 274 211q43 0 79.5 -14.5t56.5 -31.5t44 -31.5t44 -14.5 q33 0 57.5 20t58.5 68l134 -65q-115 -213 -273 -213q-42 0 -78.5 14.5t-57.5 31.5t-45 31.5t-44 14.5q-33 0 -56.5 -20t-58.5 -68z" />
<glyph unicode="&#xf2;" horiz-adv-x="1179" d="M66 430q0 106 22.5 205.5t70 186.5t115 152t163 102.5t208.5 37.5q211 0 330 -124.5t119 -338.5q0 -192 -67.5 -345.5t-200 -245t-308.5 -91.5q-211 0 -331.5 123t-120.5 338zM338 414q0 -127 46 -186.5t142 -59.5q77 0 136 46.5t92.5 122t50 160t16.5 173.5 q0 245 -186 245q-135 0 -216 -140.5t-81 -360.5zM430 1466l100 213l449 -276l-66 -139z" />
<glyph unicode="&#xf3;" horiz-adv-x="1179" d="M66 430q0 106 22.5 205.5t70 186.5t115 152t163 102.5t208.5 37.5q211 0 330 -124.5t119 -338.5q0 -192 -67.5 -345.5t-200 -245t-308.5 -91.5q-211 0 -331.5 123t-120.5 338zM338 414q0 -127 46 -186.5t142 -59.5q77 0 136 46.5t92.5 122t50 160t16.5 173.5 q0 245 -186 245q-135 0 -216 -140.5t-81 -360.5zM432 1399l449 276l100 -213l-483 -202z" />
<glyph unicode="&#xf4;" horiz-adv-x="1179" d="M66 430q0 106 22.5 205.5t70 186.5t115 152t163 102.5t208.5 37.5q211 0 330 -124.5t119 -338.5q0 -192 -67.5 -345.5t-200 -245t-308.5 -91.5q-211 0 -331.5 123t-120.5 338zM324 1382l323 267h164l248 -269l-117 -114l-233 192l-293 -192zM338 414q0 -127 46 -186.5 t142 -59.5q77 0 136 46.5t92.5 122t50 160t16.5 173.5q0 245 -186 245q-135 0 -216 -140.5t-81 -360.5z" />
<glyph unicode="&#xf5;" horiz-adv-x="1179" d="M66 430q0 106 22.5 205.5t70 186.5t115 152t163 102.5t208.5 37.5q211 0 330 -124.5t119 -338.5q0 -192 -67.5 -345.5t-200 -245t-308.5 -91.5q-211 0 -331.5 123t-120.5 338zM332 1384q114 211 274 211q43 0 79.5 -14.5t56.5 -31.5t43.5 -31.5t43.5 -14.5q33 0 58 20.5 t59 67.5l133 -65q-115 -213 -272 -213q-42 0 -78.5 14.5t-57.5 31.5t-45 31.5t-44 14.5q-33 0 -56.5 -20t-58.5 -68zM338 414q0 -127 46 -186.5t142 -59.5q77 0 136 46.5t92.5 122t50 160t16.5 173.5q0 245 -186 245q-135 0 -216 -140.5t-81 -360.5z" />
<glyph unicode="&#xf6;" horiz-adv-x="1179" d="M66 430q0 106 22.5 205.5t70 186.5t115 152t163 102.5t208.5 37.5q211 0 330 -124.5t119 -338.5q0 -192 -67.5 -345.5t-200 -245t-308.5 -91.5q-211 0 -331.5 123t-120.5 338zM338 414q0 -127 46 -186.5t142 -59.5q77 0 136 46.5t92.5 122t50 160t16.5 173.5 q0 245 -186 245q-135 0 -216 -140.5t-81 -360.5zM346 1456q0 60 43 100.5t103 40.5q62 0 103.5 -40.5t41.5 -100.5t-41.5 -100.5t-103.5 -40.5q-60 0 -103 40.5t-43 100.5zM782 1456q0 60 43 100.5t103 40.5q62 0 103.5 -40.5t41.5 -100.5t-41.5 -100.5t-103.5 -40.5 q-60 0 -103 40.5t-43 100.5z" />
<glyph unicode="&#xf7;" d="M98 543l27 209h836l-27 -209h-836zM313 223q0 68 48.5 117t117.5 49t117.5 -49t48.5 -117q0 -69 -48.5 -117.5t-117.5 -48.5t-117.5 48.5t-48.5 117.5zM416 1071q0 68 48.5 116t117.5 48t117.5 -48t48.5 -116q0 -69 -48.5 -117.5t-117.5 -48.5t-117.5 48.5t-48.5 117.5z " />
<glyph unicode="&#xf8;" horiz-adv-x="1183" d="M66 430q0 106 23 205.5t70.5 186.5t115.5 152t163.5 102.5t208.5 37.5q58 0 94 -10l113 246l193 -58l-121 -258q83 -59 127.5 -157.5t44.5 -225.5q0 -143 -39.5 -267.5t-112 -216.5t-182.5 -145t-244 -53q-34 0 -92 8l-113 -251l-194 57l121 264q-85 57 -130.5 155 t-45.5 228zM334 414q0 -114 45 -168l305 663q-21 6 -47 6q-92 0 -161.5 -65t-105.5 -178t-36 -258zM489 172q18 -4 46 -4q71 0 129 47t93 122t53.5 161.5t18.5 171.5q0 104 -41 157z" />
<glyph unicode="&#xf9;" horiz-adv-x="1165" d="M102 254q0 33 7 94l104 735h262l-104 -733q-4 -23 -4 -61q0 -61 24 -85t76 -24q58 0 127.5 53t124.5 146l100 704h262l-151 -1083h-228l5 170q-71 -98 -159 -149.5t-179 -51.5q-129 0 -198 72t-69 213zM410 1466l100 213l448 -276l-65 -139z" />
<glyph unicode="&#xfa;" horiz-adv-x="1165" d="M102 254q0 33 7 94l104 735h262l-104 -733q-4 -23 -4 -61q0 -61 24 -85t76 -24q58 0 127.5 53t124.5 146l100 704h262l-151 -1083h-228l5 170q-71 -98 -159 -149.5t-179 -51.5q-129 0 -198 72t-69 213zM438 1399l449 276l100 -213l-483 -202z" />
<glyph unicode="&#xfb;" horiz-adv-x="1165" d="M102 254q0 33 7 94l104 735h262l-104 -733q-4 -23 -4 -61q0 -61 24 -85t76 -24q58 0 127.5 53t124.5 146l100 704h262l-151 -1083h-228l5 170q-71 -98 -159 -149.5t-179 -51.5q-129 0 -198 72t-69 213zM311 1382l324 267h164l248 -269l-117 -114l-234 192l-293 -192z" />
<glyph unicode="&#xfc;" horiz-adv-x="1165" d="M102 254q0 33 7 94l104 735h262l-104 -733q-4 -23 -4 -61q0 -61 24 -85t76 -24q58 0 127.5 53t124.5 146l100 704h262l-151 -1083h-228l5 170q-71 -98 -159 -149.5t-179 -51.5q-129 0 -198 72t-69 213zM332 1456q0 60 42.5 100.5t102.5 40.5q62 0 104 -40.5t42 -100.5 t-42 -100.5t-104 -40.5q-60 0 -102.5 40.5t-42.5 100.5zM768 1456q0 60 42.5 100.5t102.5 40.5q62 0 104 -40.5t42 -100.5t-42 -100.5t-104 -40.5q-60 0 -102.5 40.5t-42.5 100.5z" />
<glyph unicode="&#xfd;" horiz-adv-x="1013" d="M-39 -250q163 21 249 78.5t142 171.5h-88l-196 1083h270l113 -893h8l348 893h278l-479 -1079q-62 -139 -142.5 -231.5t-204.5 -150t-290 -68.5zM375 1399l448 276l101 -213l-484 -202z" />
<glyph unicode="&#xfe;" horiz-adv-x="1202" d="M8 -446l275 1964l266 28l-92 -651q72 104 166.5 161.5t185.5 57.5q141 0 223 -98.5t82 -296.5q0 -219 -68.5 -392.5t-180 -265.5t-242.5 -92q-163 0 -279 125l-72 -512zM369 270q80 -104 194 -104q105 0 192 152t87 395q0 96 -35.5 144t-87.5 48q-67 0 -144 -68.5 t-157 -211.5z" />
<glyph unicode="&#xff;" horiz-adv-x="1013" d="M-39 -250q163 21 249 78.5t142 171.5h-88l-196 1083h270l113 -893h8l348 893h278l-479 -1079q-62 -139 -142.5 -231.5t-204.5 -150t-290 -68.5zM262 1456q0 60 43 100.5t103 40.5q62 0 103.5 -40.5t41.5 -100.5t-41.5 -100.5t-103.5 -40.5q-60 0 -103 40.5t-43 100.5z M698 1456q0 60 43 100.5t103 40.5q62 0 103.5 -40.5t41.5 -100.5t-41.5 -100.5t-103.5 -40.5q-60 0 -103 40.5t-43 100.5z" />
<glyph unicode="&#x131;" horiz-adv-x="555" d="M63 0l152 1083h262l-151 -1083h-263z" />
<glyph unicode="&#x152;" horiz-adv-x="1882" d="M115 563q0 130 24.5 254.5t78 239t130 200.5t190 137.5t248.5 51.5q98 0 183 -31h921l-53 -201h-631q97 -142 97 -397h417l-22 -201h-416q-40 -253 -178 -415h645l-23 -201h-841q-124 -31 -242 -31q-246 0 -387 154.5t-141 439.5zM395 539q0 -191 63.5 -277t188.5 -86 q75 0 136.5 32.5t102 89t70.5 126t46 151t23 156t7 148.5q0 360 -250 360q-74 0 -135.5 -32.5t-102.5 -89t-71 -126t-46.5 -150.5t-24 -155t-7.5 -147z" />
<glyph unicode="&#x153;" horiz-adv-x="1783" d="M66 430q0 106 22.5 205.5t69.5 186.5t113.5 152t160.5 102.5t205 37.5q116 0 206.5 -50.5t147.5 -141.5q158 192 389 192q171 0 269 -77t98 -210q0 -182 -178 -287.5t-520 -131.5q6 -116 57.5 -175t138.5 -59q71 0 134 20.5t139 71.5l106 -164q-84 -63 -185.5 -98 t-203.5 -35q-224 0 -342 191q-148 -191 -377 -191q-211 0 -330.5 123t-119.5 338zM338 414q0 -127 46 -186.5t140 -59.5q66 0 119 34t85.5 86.5t54 121t30 133t8.5 127.5q0 245 -188 245q-133 0 -214 -140.5t-81 -360.5zM1057 573q228 21 325 80t97 166q0 51 -32.5 80 t-92.5 29q-104 0 -187.5 -96t-109.5 -259z" />
<glyph unicode="&#x178;" horiz-adv-x="1161" d="M90 1415h287l215 -649h8l375 649h299l-563 -878l-66 -537h-272l65 535zM348 1704q0 60 43 100.5t103 40.5q62 0 103.5 -40.5t41.5 -100.5q0 -61 -41.5 -102t-103.5 -41q-61 0 -103.5 41t-42.5 102zM801 1704q0 60 42.5 100.5t104.5 40.5q60 0 103 -40.5t43 -100.5 q0 -61 -42.5 -102t-103.5 -41q-62 0 -104.5 41t-42.5 102z" />
<glyph unicode="&#x192;" horiz-adv-x="714" d="M-123 -254q83 33 130 71t78 103.5t44 171.5l100 803h-170l23 188h170l12 107q23 180 117.5 268t267.5 88q158 0 307 -90l-90 -168q-102 60 -194 60q-68 0 -102 -36.5t-44 -127.5l-12 -101h260l-53 -188h-229l-101 -795q-20 -159 -74.5 -264.5t-141 -168.5t-226.5 -111z " />
<glyph unicode="&#x2c6;" horiz-adv-x="858" d="M61 1382l324 267h164l248 -269l-117 -114l-234 192l-292 -192z" />
<glyph unicode="&#x2c7;" horiz-adv-x="858" d="M61 1536l119 113l236 -191l293 191l88 -117l-322 -266h-166z" />
<glyph unicode="&#x2d8;" horiz-adv-x="788" d="M61 1593l158 29q9 -78 47.5 -123t106.5 -45q136 0 205 168l149 -29q-15 -62 -45.5 -118t-76 -103.5t-110.5 -75.5t-141 -28q-74 0 -132 28t-92 75.5t-51.5 104t-17.5 117.5z" />
<glyph unicode="&#x2d9;" horiz-adv-x="452" d="M61 1470q0 67 46.5 112.5t117.5 45.5q73 0 119.5 -45.5t46.5 -112.5q0 -68 -46.5 -113.5t-119.5 -45.5q-71 0 -117.5 45.5t-46.5 113.5z" />
<glyph unicode="&#x2da;" horiz-adv-x="649" d="M61 1473q0 114 78 189t201 75q110 0 179 -65t69 -161q0 -111 -80 -188.5t-199 -77.5q-115 0 -181.5 65.5t-66.5 162.5zM221 1475q0 -41 26 -66t68 -25q49 0 80 33t31 90q0 41 -26 66.5t-66 25.5q-50 0 -81.5 -33t-31.5 -91z" />
<glyph unicode="&#x2db;" horiz-adv-x="606" d="M61 -307q0 112 100.5 211.5t280.5 150.5l33 -55q-117 -64 -168 -134.5t-51 -135.5q0 -39 28 -62.5t81 -23.5q75 0 133 30l47 -137q-110 -49 -228 -49q-122 0 -189 55t-67 150z" />
<glyph unicode="&#x2dc;" horiz-adv-x="870" d="M61 1384q114 211 275 211q43 0 79.5 -14.5t56.5 -31.5t43.5 -31.5t43.5 -14.5q33 0 58 20.5t59 67.5l133 -65q-115 -213 -272 -213q-42 0 -79 14.5t-57.5 31.5t-45 31.5t-44.5 14.5q-33 0 -56 -20t-58 -68z" />
<glyph unicode="&#x2dd;" horiz-adv-x="854" d="M61 1360l234 385l182 -94l-278 -361zM371 1358l241 387l181 -94l-285 -361z" />
<glyph unicode="&#x3a9;" horiz-adv-x="1439" d="M78 0l24 205h242l2 8q-100 65 -161.5 184t-61.5 248q0 114 26.5 226.5t83 216.5t136 183.5t194 127t248.5 47.5q251 0 401 -154t150 -424q0 -230 -95 -408t-247 -247l-2 -8h225l-22 -205h-480l25 193q135 43 223 217.5t88 457.5q0 201 -68.5 286t-201.5 85 q-86 0 -155.5 -38.5t-115.5 -102.5t-77 -150.5t-44.5 -179.5t-13.5 -193q0 -141 47.5 -241.5t133.5 -140.5l-25 -193h-479z" />
<glyph unicode="&#x3c0;" horiz-adv-x="1251" d="M98 881l29 202h797q195 0 329 45l33 -206q-88 -30 -205 -39l-73 -521q-9 -74 -9 -77q0 -44 18.5 -66t63.5 -33l-53 -217q-160 20 -227.5 84t-67.5 195q0 59 8 114l74 519h-303l-121 -881h-262l121 881h-152z" />
<glyph unicode="&#x401;" horiz-adv-x="1079" d="M94 0l172 1415h824l-56 -201h-520l-49 -395h455l-25 -201h-455l-51 -415h557l-22 -203h-830zM338 1704q0 60 42.5 100.5t102.5 40.5q62 0 104 -40.5t42 -100.5q0 -61 -42 -102t-104 -41q-61 0 -103 41t-42 102zM791 1704q0 60 42.5 100.5t104.5 40.5q60 0 102.5 -40.5 t42.5 -100.5q0 -61 -42 -102t-103 -41q-62 0 -104.5 41t-42.5 102z" />
<glyph unicode="&#x402;" horiz-adv-x="1511" d="M92 1202l27 213h1052l-55 -213h-368l-48 -393q177 137 351 137q183 0 282 -94.5t99 -292.5q0 -58 -9 -123l-28 -215q-15 -120 -50 -207.5t-95.5 -150.5t-139.5 -105.5t-192 -76.5l-46 208q129 50 182.5 123.5t71.5 216.5l27 201q6 52 6 96q0 114 -48.5 161.5t-149.5 47.5 q-72 0 -148 -33t-135 -81l-76 -621h-270l147 1202h-387z" />
<glyph unicode="&#x403;" horiz-adv-x="1017" d="M94 0l172 1415h852l-53 -219h-553l-147 -1196h-271zM473 1683l447 263l100 -217l-481 -187z" />
<glyph unicode="&#x404;" horiz-adv-x="1173" d="M96 571q0 196 55 361.5t149.5 277t222 174t270.5 62.5q138 0 236.5 -38.5t184.5 -119.5l-155 -153q-63 55 -123.5 78.5t-147.5 23.5q-134 0 -239 -105.5t-146 -304.5h545l-24 -202h-549q-8 -218 62 -326.5t229 -108.5q84 0 156.5 28.5t152.5 90.5l117 -170 q-193 -170 -469 -170q-240 0 -383.5 159t-143.5 443z" />
<glyph unicode="&#x405;" horiz-adv-x="1124" d="M-12 174l159 160q91 -82 173 -116t178 -34q113 0 189.5 63t76.5 159q0 82 -50.5 131.5t-193.5 95.5q-209 69 -297 167t-88 251q0 167 137.5 281t360.5 114q148 0 261.5 -41t209.5 -127l-146 -160q-141 123 -321 123q-102 0 -159.5 -48t-57.5 -130q0 -73 51 -117.5 t211 -99.5q196 -68 282.5 -168t86.5 -252q0 -94 -38.5 -177t-108 -145t-174.5 -98.5t-230 -36.5q-155 0 -291.5 58t-220.5 147z" />
<glyph unicode="&#x406;" horiz-adv-x="600" d="M94 0l172 1415h273l-174 -1415h-271z" />
<glyph unicode="&#x407;" horiz-adv-x="600" d="M68 1704q0 60 42.5 100.5t102.5 40.5q62 0 103.5 -40.5t41.5 -100.5q0 -61 -41.5 -102t-103.5 -41q-61 0 -103 41t-42 102zM94 0l172 1415h273l-174 -1415h-271zM520 1704q0 60 43 100.5t105 40.5q60 0 102.5 -40.5t42.5 -100.5q0 -61 -42 -102t-103 -41q-62 0 -105 41 t-43 102z" />
<glyph unicode="&#x408;" horiz-adv-x="608" d="M-123 -111q135 47 190 119.5t72 220.5l146 1186h272l-147 -1194q-28 -228 -136.5 -349.5t-343.5 -190.5z" />
<glyph unicode="&#x409;" horiz-adv-x="1873" d="M-70 158q49 30 79.5 54.5t63.5 68.5t55 93t52 139.5t58.5 197t70.5 276.5l105 428h823l-61 -491h112q257 0 397 -108t140 -308q0 -238 -155.5 -373t-440.5 -135h-436l145 1204h-317l-56 -241q-45 -195 -79 -323t-72.5 -233.5t-72 -167t-84.5 -115t-102 -86t-132 -71.5z M1087 207h152q145 0 222 74t77 221q0 103 -70.5 160t-197.5 57h-119z" />
<glyph unicode="&#x40a;" horiz-adv-x="1929" d="M94 0l172 1415h273l-66 -524h469l66 524h270l-61 -524h124q260 0 400.5 -100t140.5 -297q0 -230 -157 -362t-441 -132h-450l84 688h-469l-84 -688h-271zM1130 207h164q144 0 221.5 71t77.5 209q0 201 -268 201h-133z" />
<glyph unicode="&#x40b;" horiz-adv-x="1509" d="M92 1202l27 213h1052l-55 -213h-368l-48 -393q177 137 351 137q183 0 282 -95.5t99 -295.5q0 -54 -9 -119l-53 -436h-268l51 430q6 52 6 92q0 116 -48.5 164.5t-149.5 48.5q-72 0 -148 -33t-135 -81l-76 -621h-270l147 1202h-387z" />
<glyph unicode="&#x40c;" horiz-adv-x="1249" d="M94 0l172 1415h273l-70 -571h123l278 364q87 113 157 161t194 77l69 -189q-71 -20 -115 -50.5t-94 -94.5l-270 -350l373 -762h-293l-305 637h-144l-77 -637h-271zM549 1683l446 263l101 -217l-482 -187z" />
<glyph unicode="&#x40e;" horiz-adv-x="1161" d="M102 1415h271l223 -868h8l402 868h284l-518 -1012q-80 -156 -160.5 -243t-188 -131.5t-273.5 -59.5l-13 201q165 22 243 64.5t132 146.5h-92zM414 1815l155 28q26 -121 170 -121q145 0 201 121l152 -28q-27 -114 -124 -193.5t-241 -79.5q-151 0 -231 78.5t-82 194.5z" />
<glyph unicode="&#x40f;" horiz-adv-x="1355" d="M94 0l172 1415h273l-148 -1200h481l148 1200h272l-172 -1415h-407l-39 -326h-197l6 326h-389z" />
<glyph unicode="&#x410;" horiz-adv-x="1193" d="M-88 0l620 1415h334l271 -1415h-283l-49 328h-473l-131 -328h-289zM408 532h370l-100 658h-8z" />
<glyph unicode="&#x411;" horiz-adv-x="1206" d="M94 0l172 1415h852l-51 -209h-555l-39 -315h133q259 0 398 -103t139 -294q0 -226 -156 -360t-440 -134h-453zM389 207h168q299 0 299 280q0 96 -70.5 148.5t-203.5 52.5h-133z" />
<glyph unicode="&#x412;" horiz-adv-x="1265" d="M94 0l172 1415h420q244 0 369 -87t125 -241q0 -113 -77.5 -208t-209.5 -125l-2 -9q128 -26 201 -107t73 -194q0 -208 -154.5 -326t-453.5 -118h-463zM389 205h189q305 0 305 246q0 194 -238 194h-201zM467 836h180q122 0 189 60.5t67 168.5q0 75 -55.5 113.5t-175.5 38.5 h-158z" />
<glyph unicode="&#x413;" horiz-adv-x="1017" d="M94 0l172 1415h852l-53 -219h-553l-147 -1196h-271z" />
<glyph unicode="&#x414;" horiz-adv-x="1339" d="M94 0l172 1415h369q300 0 468.5 -144.5t168.5 -418.5q0 -402 -201 -627t-563 -225h-414zM389 203h141q99 0 181.5 39.5t145 117t97.5 202.5t35 286q0 189 -91.5 276.5t-266.5 87.5h-117z" />
<glyph unicode="&#x415;" horiz-adv-x="1079" d="M94 0l172 1415h824l-56 -201h-520l-49 -395h455l-25 -201h-455l-51 -415h557l-22 -203h-830z" />
<glyph unicode="&#x416;" horiz-adv-x="1851" d="M-31 0l518 768l-159 328q-35 70 -76 102.5t-121 54.5l70 193q143 -30 218.5 -86.5t123.5 -165.5l159 -352h134l69 573h256l-69 -573h114l221 317q99 146 171 200.5t206 86.5l68 -191q-76 -21 -125 -61.5t-125 -149.5l-203 -286l334 -758h-285l-266 639h-137l-76 -639 h-256l78 639h-127l-418 -639h-297z" />
<glyph unicode="&#x417;" horiz-adv-x="1114" d="M-12 184l162 138q130 -142 307 -142q121 0 191.5 68t70.5 188q0 105 -66 160t-194 55h-142l56 205h119q125 0 196.5 61.5t71.5 161.5q0 77 -50.5 119.5t-146.5 42.5q-150 0 -307 -119l-121 152q212 172 479 172q200 0 314 -90t114 -234q0 -134 -85.5 -233.5 t-235.5 -128.5l-2 -8q130 -26 208.5 -114.5t78.5 -209.5q0 -97 -36 -180.5t-103 -145.5t-168.5 -97.5t-225.5 -35.5q-141 0 -271.5 57.5t-213.5 157.5z" />
<glyph unicode="&#x418;" horiz-adv-x="1361" d="M94 0l172 1415h269l-43 -346q-27 -219 -74 -476t-68 -325h8l594 1147h346l-172 -1415h-268l41 340q25 210 71.5 467.5t71.5 337.5h-8l-588 -1145h-352z" />
<glyph unicode="&#x419;" horiz-adv-x="1361" d="M94 0l172 1415h269l-43 -346q-27 -219 -74 -476t-68 -325h8l594 1147h346l-172 -1415h-268l41 340q25 210 71.5 467.5t71.5 337.5h-8l-588 -1145h-352zM500 1815l155 28q26 -121 170 -121q145 0 201 121l152 -28q-27 -114 -124 -193.5t-241 -79.5q-151 0 -231 78.5 t-82 194.5z" />
<glyph unicode="&#x41a;" horiz-adv-x="1249" d="M94 0l172 1415h273l-70 -571h123l278 364q87 113 157 161t194 77l69 -189q-71 -20 -115 -50.5t-94 -94.5l-270 -350l373 -762h-293l-305 637h-144l-77 -637h-271z" />
<glyph unicode="&#x41b;" horiz-adv-x="1314" d="M-70 158q49 30 79.5 54.5t63.5 68.5t55 93t52 139.5t58.5 197t70.5 276.5l105 428h839l-174 -1415h-270l147 1204h-335l-56 -241q-44 -194 -78 -321.5t-72.5 -233t-72.5 -167.5t-85 -115.5t-102 -86.5t-132 -72z" />
<glyph unicode="&#x41c;" horiz-adv-x="1613" d="M14 0l287 1415h344l133 -997h8l371 997h359l-62 -1415h-266l33 631q14 288 53 526h-8l-385 -1010h-260l-150 1010h-8q-3 -74 -23.5 -235t-44.5 -291l-116 -631h-265z" />
<glyph unicode="&#x41d;" horiz-adv-x="1361" d="M94 0l172 1415h273l-70 -567h489l70 567h270l-172 -1415h-272l78 633h-490l-77 -633h-271z" />
<glyph unicode="&#x41e;" horiz-adv-x="1411" d="M98 563q0 131 25 255t79.5 239t133.5 200.5t196.5 137t258.5 51.5q254 0 402 -155.5t148 -440.5q0 -131 -24.5 -255.5t-79 -238.5t-133.5 -199.5t-196.5 -136.5t-258.5 -51q-254 0 -402.5 155t-148.5 439zM381 539q0 -190 69.5 -276.5t202.5 -86.5q80 0 145 32.5t108 89 t74 125.5t47.5 151.5t24 156t7.5 148.5q0 188 -69 274t-204 86q-79 0 -143.5 -32.5t-107.5 -89t-74 -126t-48 -151t-24.5 -155t-7.5 -146.5z" />
<glyph unicode="&#x41f;" horiz-adv-x="1361" d="M94 0l172 1415h1032l-172 -1415h-272l147 1200h-489l-147 -1200h-271z" />
<glyph unicode="&#x420;" horiz-adv-x="1210" d="M94 0l172 1415h396q266 0 405 -105t139 -294q0 -240 -157.5 -381t-427.5 -141h-195l-61 -494h-271zM451 696h165q142 0 226 82t84 232q0 104 -68.5 155.5t-214.5 51.5h-129z" />
<glyph unicode="&#x421;" horiz-adv-x="1167" d="M98 573q0 250 89.5 449.5t248.5 311.5t357 112q133 0 233.5 -39t183.5 -123l-153 -149q-60 54 -119.5 78t-140.5 24q-180 0 -297 -186t-117 -476q0 -387 287 -387q86 0 156.5 29t152.5 92l117 -174q-195 -166 -457 -166q-247 0 -394 155.5t-147 448.5z" />
<glyph unicode="&#x422;" horiz-adv-x="1071" d="M92 1200l27 215h1052l-55 -215h-366l-146 -1200h-272l145 1200h-385z" />
<glyph unicode="&#x423;" horiz-adv-x="1161" d="M102 1415h271l223 -868h8l402 868h284l-518 -1012q-80 -156 -160.5 -243t-188 -131.5t-273.5 -59.5l-13 201q165 22 243 64.5t132 146.5h-92z" />
<glyph unicode="&#x424;" horiz-adv-x="1720" d="M72 621q0 331 191 523.5t560 205.5l17 135h264l-17 -137q276 -17 435 -160.5t159 -380.5q0 -333 -199 -530.5t-554 -206.5l-17 -142h-264l17 142q-276 17 -434 163.5t-158 387.5zM350 621q0 -159 89 -257.5t257 -113.5l113 919q-231 -4 -345 -140.5t-114 -407.5zM940 250 q226 6 344.5 149t118.5 406q0 170 -91.5 261.5t-256.5 100.5z" />
<glyph unicode="&#x425;" horiz-adv-x="1167" d="M-80 0l510 754l-303 661h287l188 -481h8l314 481h301l-473 -651l340 -764h-289l-221 569h-9l-352 -569h-301z" />
<glyph unicode="&#x426;" horiz-adv-x="1368" d="M94 0l172 1415h273l-148 -1200h479l148 1200h270l-147 -1200h164l-66 -541h-197l7 326h-955z" />
<glyph unicode="&#x427;" horiz-adv-x="1269" d="M111 850q0 46 6 102l57 463h272l-57 -457q-6 -46 -6 -86q0 -112 51 -158t162 -46q146 0 260 94l80 653h272l-174 -1415h-272l69 567q-155 -110 -319 -110q-193 0 -297 98t-104 295z" />
<glyph unicode="&#x428;" horiz-adv-x="1902" d="M94 0l172 1415h266l-147 -1200h393l148 1200h254l-148 -1200h393l148 1200h266l-172 -1415h-1573z" />
<glyph unicode="&#x429;" horiz-adv-x="1921" d="M94 0l172 1415h266l-147 -1200h393l148 1200h254l-148 -1200h393l148 1200h266l-147 -1200h163l-65 -541h-197l6 326h-1505z" />
<glyph unicode="&#x42a;" horiz-adv-x="1370" d="M72 1202l26 213h617l-62 -491h129q260 0 400.5 -107.5t140.5 -306.5q0 -237 -157 -373.5t-443 -136.5h-453l146 1202h-344zM567 207h166q148 0 224.5 74.5t76.5 222.5q0 102 -70 158.5t-202 56.5h-133z" />
<glyph unicode="&#x42b;" horiz-adv-x="1710" d="M94 0l172 1415h273l-62 -491h113q257 0 396.5 -107.5t139.5 -308.5q0 -238 -155.5 -373t-440.5 -135h-436zM389 207h152q145 0 222 74t77 221q0 103 -71 160t-198 57h-118zM1204 0l172 1415h273l-174 -1415h-271z" />
<glyph unicode="&#x42c;" horiz-adv-x="1193" d="M94 0l172 1415h273l-62 -491h129q260 0 400.5 -107.5t140.5 -306.5q0 -236 -157.5 -373t-442.5 -137h-453zM389 207h168q148 0 224.5 74.5t76.5 222.5q0 102 -70.5 158.5t-201.5 56.5h-133z" />
<glyph unicode="&#x42d;" horiz-adv-x="1146" d="M-10 147l147 150q125 -119 273 -119q138 0 238 111.5t134 335.5h-534l24 202h533q0 12 1 38.5t1 41.5q0 171 -67.5 252.5t-190.5 81.5q-138 0 -297 -119l-117 156q208 168 461 168q218 0 350.5 -144t132.5 -415q0 -220 -51.5 -396.5t-142 -289.5t-211 -172.5 t-262.5 -59.5q-127 0 -236 47t-186 131z" />
<glyph unicode="&#x42e;" horiz-adv-x="1896" d="M94 0l172 1415h269l-70 -569h192q28 125 80 230.5t129.5 189.5t188 132t241.5 48q243 0 387 -155.5t144 -440.5q0 -130 -26 -255t-81 -239t-132.5 -199.5t-189 -136.5t-243.5 -51q-129 0 -230.5 46t-165 127t-96 187t-32.5 232q0 47 2 72h-195l-76 -633h-268zM905 541 q0 -365 254 -365q75 0 136.5 32.5t102.5 89t70.5 126t45.5 151.5t23 155.5t7 148.5q0 188 -64 274t-188 86q-89 0 -158.5 -47t-111.5 -119.5t-69.5 -169t-37.5 -185t-10 -177.5z" />
<glyph unicode="&#x42f;" horiz-adv-x="1273" d="M-41 0l395 596q-98 55 -150 146t-52 202q0 226 154.5 348.5t451.5 122.5h452l-172 -1415h-272l63 535h-233l-330 -535h-307zM436 946q0 -106 60.5 -161.5t177.5 -55.5h180l59 490h-178q-299 0 -299 -273z" />
<glyph unicode="&#x430;" horiz-adv-x="1181" d="M66 410q0 157 47 290t128 223t190.5 140.5t234.5 50.5q118 0 214 -24.5t207 -81.5l-104 -715q-10 -66 1 -95.5t50 -47.5l-78 -179q-194 18 -225 185q-66 -89 -150.5 -138t-170.5 -49q-159 0 -251.5 111t-92.5 330zM338 412q0 -128 43.5 -186t112.5 -58q54 0 116.5 50.5 t116.5 139.5l82 531q-74 29 -143 29q-137 0 -232.5 -131.5t-95.5 -374.5z" />
<glyph unicode="&#x431;" horiz-adv-x="1153" d="M86 494q0 177 28.5 323t79 249.5t121.5 179t153 118t177 59.5q100 18 161 43.5t140 79.5l109 -166q-89 -62 -164 -93t-197 -54q-137 -26 -220 -123.5t-136 -323.5l6 -2q76 116 187.5 181t222.5 65q136 0 229.5 -104t93.5 -297q0 -195 -73.5 -346.5t-199.5 -232.5 t-282 -81q-210 0 -323 133t-113 392zM340 434q0 -268 186 -268q114 0 198.5 119.5t84.5 324.5q0 117 -39.5 171.5t-105.5 54.5q-86 0 -167.5 -65.5t-142.5 -178.5q-14 -82 -14 -158z" />
<glyph unicode="&#x432;" horiz-adv-x="1101" d="M66 434q0 154 49 283t133 215t196.5 134t239.5 48q163 0 254.5 -71t91.5 -183q0 -97 -60.5 -166t-176.5 -98l-2 -8q106 -22 168.5 -88.5t62.5 -157.5q0 -156 -128.5 -264.5t-350.5 -108.5q-218 0 -347.5 126.5t-129.5 338.5zM328 440q0 -131 60.5 -203.5t166.5 -72.5 q94 0 146.5 51t52.5 137q0 107 -119 164q-153 -28 -305 -39q-2 -20 -2 -37zM350 621q106 7 184.5 21.5t125.5 33t75 44t37.5 51t9.5 58.5q0 105 -118 105q-110 0 -195.5 -84t-118.5 -229z" />
<glyph unicode="&#x433;" horiz-adv-x="952" d="M0 287q0 133 89 216.5t310 141.5q154 40 204 79t50 101q0 45 -35 71t-100 26q-147 0 -293 -86l-92 161q81 51 194 84t222 33q180 0 277.5 -77t97.5 -201q0 -128 -89 -218.5t-300 -146.5q-111 -29 -166.5 -54t-75 -53t-19.5 -73q0 -54 47.5 -86.5t133.5 -32.5 q154 0 299 104l123 -155q-194 -152 -457 -152q-191 0 -305.5 88t-114.5 230z" />
<glyph unicode="&#x434;" horiz-adv-x="1140" d="M59 418q0 135 38.5 250t104 193t152.5 121.5t183 43.5q199 0 305 -160l6 4q2 27 2 76q0 114 -23 189t-79.5 127t-151 76t-238.5 26l45 182q353 -12 520 -151.5t167 -446.5q0 -88 -7.5 -176.5t-27 -186.5t-49 -185t-77 -167t-107.5 -137.5t-145 -92t-185 -34.5 q-199 0 -316 119t-117 330zM326 418q0 -125 47 -188.5t131 -63.5q118 0 201.5 128.5t105.5 395.5q-81 141 -236 141q-104 0 -176.5 -105.5t-72.5 -307.5z" />
<glyph unicode="&#x435;" horiz-adv-x="1067" d="M66 438q0 151 44.5 278t123 214t187 135.5t234.5 48.5q178 0 277.5 -77t99.5 -210q0 -172 -168.5 -281.5t-529.5 -137.5q6 -118 58 -176t138 -58q72 0 134.5 20.5t138.5 71.5l104 -164q-176 -133 -387 -133q-219 0 -336.5 122t-117.5 347zM342 573q160 14 255 49t130 82 t35 115q0 52 -32.5 80.5t-90.5 28.5q-104 0 -187.5 -96t-109.5 -259z" />
<glyph unicode="&#x436;" horiz-adv-x="1474" d="M-82 0l381 588l-90 217q-23 55 -55 83t-95 50l72 176q126 -36 182 -83t93 -144l90 -232h133l61 428h238l-62 -428h115l131 213q75 119 135.5 167.5t177.5 78.5l74 -178q-80 -29 -124 -69t-101 -132l-96 -160l219 -575h-250l-176 481h-129l-66 -481h-239l67 481h-121 l-301 -481h-264z" />
<glyph unicode="&#x437;" horiz-adv-x="964" d="M-37 141l143 142q132 -119 287 -119q93 0 146 46t53 122q0 66 -49 102.5t-144 36.5h-143l43 180h107q100 0 152 42.5t52 115.5q0 57 -37 87t-108 30q-145 0 -279 -97l-106 152q190 133 426 133q175 0 276 -73.5t101 -194.5q0 -96 -65 -168.5t-175 -97.5l-2 -7 q105 -25 165 -92t60 -159q0 -150 -126.5 -251.5t-340.5 -101.5q-128 0 -241.5 46.5t-194.5 125.5z" />
<glyph unicode="&#x438;" horiz-adv-x="1165" d="M102 254q0 33 7 94l104 735h262l-104 -733q-4 -23 -4 -61q0 -61 24 -85t76 -24q58 0 127.5 53t124.5 146l100 704h262l-151 -1083h-228l5 170q-71 -98 -159 -149.5t-179 -51.5q-129 0 -198 72t-69 213z" />
<glyph unicode="&#x439;" horiz-adv-x="1165" d="M102 254q0 33 7 94l104 735h262l-104 -733q-4 -23 -4 -61q0 -61 24 -85t76 -24q58 0 127.5 53t124.5 146l100 704h262l-151 -1083h-228l5 170q-71 -98 -159 -149.5t-179 -51.5q-129 0 -198 72t-69 213zM365 1544l157 31q27 -127 166 -127q144 0 207 127l149 -31 q-32 -122 -129.5 -199t-236.5 -77q-140 0 -226.5 77t-86.5 199z" />
<glyph unicode="&#x43a;" horiz-adv-x="1071" d="M70 0l153 1083h262l-61 -428h104l207 267q52 66 83 96t76.5 52t129.5 44l70 -180q-59 -18 -96 -47t-93 -96l-172 -209l273 -582h-273l-223 481h-111l-67 -481h-262z" />
<glyph unicode="&#x43b;" horiz-adv-x="1181" d="M-57 143q55 34 89.5 68t69.5 97.5t64 160t63 250.5l82 364h787l-152 -1083h-264l125 887h-289l-35 -156q-47 -208 -85.5 -331t-92 -209t-113 -131.5t-159.5 -92.5z" />
<glyph unicode="&#x43c;" horiz-adv-x="1415" d="M8 0l248 1083h315l107 -714h8l289 714h330l-58 -1083h-252l23 358q15 244 55 467h-8l-303 -710h-227l-121 710h-8q-23 -243 -56 -401l-88 -424h-254z" />
<glyph unicode="&#x43d;" horiz-adv-x="1196" d="M70 0l153 1083h262l-61 -432h367l61 432h262l-153 -1083h-263l64 453h-367l-63 -453h-262z" />
<glyph unicode="&#x43e;" horiz-adv-x="1179" d="M66 430q0 106 22.5 205.5t70 186.5t115 152t163 102.5t208.5 37.5q211 0 330 -124.5t119 -338.5q0 -192 -67.5 -345.5t-200 -245t-308.5 -91.5q-211 0 -331.5 123t-120.5 338zM338 414q0 -127 46 -186.5t142 -59.5q77 0 136 46.5t92.5 122t50 160t16.5 173.5 q0 245 -186 245q-135 0 -216 -140.5t-81 -360.5z" />
<glyph unicode="&#x43f;" horiz-adv-x="1177" d="M70 0l153 1083h228l-17 -215q169 246 383 246q115 0 180.5 -67.5t65.5 -202.5q0 -40 -6 -90l-105 -754h-262l96 709q7 58 7 84q0 61 -21 83.5t-67 22.5q-133 0 -287 -285l-86 -614h-262z" />
<glyph unicode="&#x440;" horiz-adv-x="1202" d="M8 -446l215 1529h228l-17 -215q73 117 175 181.5t200 64.5q141 0 223 -98.5t82 -296.5q0 -166 -40.5 -308.5t-108.5 -238t-156.5 -149.5t-185.5 -54q-163 0 -279 125l-72 -512zM369 270q80 -104 194 -104q105 0 192 152t87 395q0 96 -35.5 144t-87.5 48q-67 0 -144 -69 t-155 -213z" />
<glyph unicode="&#x441;" horiz-adv-x="956" d="M66 442q0 152 46 280.5t123.5 213t180 131.5t215.5 47q195 0 346 -121l-119 -164q-54 43 -101 60.5t-110 17.5q-129 0 -218 -124t-89 -341q0 -134 54 -198t151 -64q100 0 231 82l90 -174q-168 -119 -362 -119q-197 0 -317.5 124.5t-120.5 348.5z" />
<glyph unicode="&#x442;" horiz-adv-x="1736" d="M70 0l153 1083h228l-17 -215q166 246 369 246q94 0 154.5 -54.5t70.5 -164.5q161 219 361 219q106 0 169.5 -65.5t63.5 -196.5q0 -42 -6 -88l-109 -764h-262l101 713q6 55 6 88q0 56 -17 77t-53 21q-56 0 -127.5 -68t-148.5 -213l-86 -618h-261l99 713q8 49 8 90 q0 54 -17.5 75t-52.5 21q-57 0 -128 -68.5t-150 -216.5l-86 -614h-262z" />
<glyph unicode="&#x443;" horiz-adv-x="1013" d="M-39 -250q163 21 249 78.5t142 171.5h-88l-196 1083h270l113 -893h8l348 893h278l-479 -1079q-62 -139 -142.5 -231.5t-204.5 -150t-290 -68.5z" />
<glyph unicode="&#x444;" horiz-adv-x="1742" d="M66 412q0 155 42.5 288.5t112.5 223t160.5 140t185.5 50.5q137 0 230 -104l71 508l250 28l-82 -579q71 71 154.5 109t159.5 38q148 0 226.5 -95.5t78.5 -303.5q0 -163 -40.5 -304t-108.5 -237t-157.5 -150.5t-187.5 -54.5q-145 0 -250 111l-69 -498l-250 -28l72 518 q-124 -103 -256 -103q-156 0 -249 113.5t-93 329.5zM334 410q0 -114 46 -173t114 -59q97 0 200 109l76 540q-66 91 -149 91q-112 0 -199.5 -142t-87.5 -366zM936 256q69 -86 168 -86q113 0 199 149t86 398q0 96 -33 142t-88 46q-127 0 -264 -168z" />
<glyph unicode="&#x445;" horiz-adv-x="995" d="M-104 0l440 573l-250 510h287l129 -360h8l229 360h297l-387 -505l283 -578h-293l-160 420h-8l-276 -420h-299z" />
<glyph unicode="&#x446;" horiz-adv-x="1187" d="M102 254q0 33 7 94l104 735h262l-104 -733q-4 -23 -4 -61q0 -61 24 -85t76 -24q58 0 127.5 53t124.5 146l100 704h262l-108 -768q-6 -38 -6 -61q0 -40 18 -56.5t62 -19.5h32l-71 -483h-181l9 303q-69 16 -93 63t-16 127l-6 2q-72 -107 -164.5 -164t-187.5 -57 q-129 0 -198 72t-69 213z" />
<glyph unicode="&#x447;" horiz-adv-x="1105" d="M88 582q0 42 6 94l58 407h262l-58 -403q-4 -23 -4 -62q0 -61 25 -85.5t78 -24.5q57 0 127 53.5t125 145.5l53 376h262l-152 -1083h-262l66 471q-141 -172 -318 -172q-130 0 -199 71t-69 212z" />
<glyph unicode="&#x448;" horiz-adv-x="1732" d="M102 252q0 35 7 96l104 735h262l-104 -733q-4 -25 -4 -63q0 -59 22 -83t68 -24q51 0 118.5 54t124.5 145l99 704h262l-103 -733q-6 -38 -6 -65q0 -58 22.5 -81.5t67.5 -23.5q51 0 118 52t124 141l102 710h263l-152 -1083h-227l4 170q-70 -95 -156.5 -148t-169.5 -53 q-108 0 -173.5 53t-80.5 156q-72 -98 -160.5 -153.5t-173.5 -55.5q-125 0 -191.5 71t-66.5 212z" />
<glyph unicode="&#x449;" horiz-adv-x="1755" d="M102 252q0 35 7 96l104 735h262l-104 -733q-4 -25 -4 -63q0 -59 22 -83t68 -24q51 0 118.5 54t124.5 145l99 704h262l-103 -733q-6 -38 -6 -65q0 -58 22.5 -81.5t67.5 -23.5q51 0 119 53t123 142l102 708h263l-109 -768q-6 -37 -6 -61q0 -41 19 -57.5t69 -18.5h25 l-72 -483h-180l8 303q-67 17 -92 64.5t-17 125.5l-6 2q-72 -105 -161 -163t-179 -58q-108 0 -173.5 53t-80.5 156q-72 -98 -160.5 -153.5t-173.5 -55.5q-125 0 -191.5 71t-66.5 212z" />
<glyph unicode="&#x44a;" horiz-adv-x="1157" d="M33 891l28 192h543l-47 -340h76q224 0 341.5 -85.5t117.5 -241.5q0 -205 -134.5 -320.5t-392.5 -115.5q-192 0 -372 49l122 862h-282zM477 184q55 -14 115 -14q111 0 169 57.5t58 169.5q0 166 -207 166h-82z" />
<glyph unicode="&#x44b;" horiz-adv-x="1527" d="M74 29l149 1054h262l-49 -340h78q218 0 331 -84.5t113 -242.5q0 -204 -132.5 -320t-379.5 -116q-192 0 -372 49zM356 180q57 -14 115 -14q104 0 160.5 60.5t56.5 172.5q0 82 -50.5 125t-143.5 43h-82zM1030 0l152 1083h262l-152 -1083h-262z" />
<glyph unicode="&#x44c;" horiz-adv-x="1036" d="M74 29l147 1054h262l-47 -340h78q223 0 340 -85.5t117 -241.5q0 -205 -134.5 -320.5t-392.5 -115.5q-190 0 -370 49zM356 184q57 -14 115 -14q111 0 169 57.5t58 169.5q0 166 -204 166h-84z" />
<glyph unicode="&#x44d;" horiz-adv-x="999" d="M-10 123l133 147q111 -102 231 -102q100 0 173 78t100 225h-422l22 166h418q4 161 -45 223t-149 62q-116 0 -250 -88l-92 151q181 129 374 129q196 0 312 -122.5t116 -332.5q0 -153 -42 -283t-114.5 -218.5t-172 -138.5t-213.5 -50q-225 0 -379 154z" />
<glyph unicode="&#x44e;" horiz-adv-x="1603" d="M70 0l153 1083h262l-63 -438h129q23 99 68 182.5t110 148.5t156 101.5t198 36.5q202 0 317.5 -125t115.5 -338q0 -192 -66 -345.5t-194.5 -245t-299.5 -91.5q-205 0 -319.5 129.5t-108.5 358.5h-133l-63 -457h-262zM793 420q0 -128 42 -190t130 -62q63 0 113.5 34t81 86 t50.5 121t27.5 133.5t7.5 127.5q0 245 -172 245q-129 0 -204.5 -139t-75.5 -356z" />
<glyph unicode="&#x44f;" horiz-adv-x="1132" d="M-45 0l324 459q-71 45 -110.5 116t-39.5 150q0 184 130.5 286.5t387.5 102.5q199 0 402 -47l-150 -1067h-258l57 399h-178l-270 -399h-295zM399 729q0 -78 48 -120t145 -42h129l49 351q-78 16 -143 16q-111 0 -169.5 -53.5t-58.5 -151.5z" />
<glyph unicode="&#x451;" horiz-adv-x="1067" d="M66 438q0 151 44.5 278t123 214t187 135.5t234.5 48.5q178 0 277.5 -77t99.5 -210q0 -172 -168.5 -281.5t-529.5 -137.5q6 -118 58 -176t138 -58q72 0 134.5 20.5t138.5 71.5l104 -164q-176 -133 -387 -133q-219 0 -336.5 122t-117.5 347zM326 1456q0 60 42.5 100.5 t102.5 40.5q62 0 103.5 -40.5t41.5 -100.5t-41.5 -100.5t-103.5 -40.5q-60 0 -102.5 40.5t-42.5 100.5zM342 573q160 14 255 49t130 82t35 115q0 52 -32.5 80.5t-90.5 28.5q-104 0 -187.5 -96t-109.5 -259zM762 1456q0 60 42.5 100.5t102.5 40.5q62 0 104 -40.5t42 -100.5 t-42 -100.5t-104 -40.5q-60 0 -102.5 40.5t-42.5 100.5z" />
<glyph unicode="&#x452;" horiz-adv-x="1191" d="M84 0l170 1219h-143l22 167h143l19 132l268 28l-24 -160h311l-23 -167h-311l-45 -326q162 221 363 221q112 0 176.5 -68t64.5 -202q0 -40 -6 -90l-90 -654q-30 -225 -134.5 -347.5t-322.5 -196.5l-69 192q85 33 134 71t81.5 103.5t46.5 169.5l86 617q6 47 6 79 q0 63 -22 87t-66 24q-135 0 -287 -283l-86 -616h-262z" />
<glyph unicode="&#x453;" horiz-adv-x="952" d="M0 287q0 133 89 216.5t310 141.5q154 40 204 79t50 101q0 45 -35 71t-100 26q-147 0 -293 -86l-92 161q81 51 194 84t222 33q180 0 277.5 -77t97.5 -201q0 -128 -89 -218.5t-300 -146.5q-111 -29 -166.5 -54t-75 -53t-19.5 -73q0 -54 47.5 -86.5t133.5 -32.5 q154 0 299 104l123 -155q-194 -152 -457 -152q-191 0 -305.5 88t-114.5 230zM340 1399l448 276l101 -213l-483 -202z" />
<glyph unicode="&#x454;" horiz-adv-x="970" d="M66 442q0 154 44.5 281.5t121 212.5t179.5 131.5t220 46.5q195 0 346 -121l-117 -162q-54 44 -101.5 62t-109.5 18q-108 0 -184.5 -70t-106.5 -204h418l-22 -166h-416q-8 -295 209 -295q100 0 231 82l88 -170q-168 -119 -362 -119q-197 0 -317.5 124.5t-120.5 348.5z" />
<glyph unicode="&#x455;" horiz-adv-x="972" d="M-23 139l140 152q62 -56 144 -90.5t159 -34.5q87 0 135.5 36t48.5 97q0 57 -42.5 93t-168.5 79q-295 99 -295 320q0 144 111.5 232.5t308.5 88.5q121 0 213.5 -32t177.5 -99l-118 -158q-129 97 -269 97q-75 0 -114 -30.5t-39 -82.5q0 -48 40 -79t169 -77 q159 -58 229 -134.5t70 -190.5q0 -160 -120 -258.5t-341 -98.5q-126 0 -244.5 48.5t-194.5 121.5z" />
<glyph unicode="&#x456;" horiz-adv-x="555" d="M63 0l152 1083h262l-151 -1083h-263zM233 1470q0 67 46.5 112.5t117.5 45.5q73 0 119.5 -45.5t46.5 -112.5q0 -68 -46.5 -113.5t-119.5 -45.5q-71 0 -117.5 45.5t-46.5 113.5z" />
<glyph unicode="&#x457;" horiz-adv-x="555" d="M41 1456q0 60 42.5 100.5t102.5 40.5q62 0 104 -40.5t42 -100.5t-42 -100.5t-104 -40.5q-60 0 -102.5 40.5t-42.5 100.5zM63 0l152 1083h262l-151 -1083h-263zM477 1456q0 60 43 100.5t103 40.5q62 0 103.5 -40.5t41.5 -100.5t-41.5 -100.5t-103.5 -40.5q-60 0 -103 40.5 t-43 100.5z" />
<glyph unicode="&#x458;" horiz-adv-x="555" d="M-188 -252q127 49 184.5 120t79.5 224l139 991h262l-139 -983q-22 -159 -79 -264.5t-146 -168.5t-232 -111zM233 1470q0 67 46.5 112.5t117.5 45.5q73 0 119.5 -45.5t46.5 -112.5q0 -68 -46.5 -113.5t-119.5 -45.5q-71 0 -117.5 45.5t-46.5 113.5z" />
<glyph unicode="&#x459;" horiz-adv-x="1619" d="M-57 143q55 34 89.5 68t69.5 97.5t64 160t63 250.5l82 364h770l-47 -340h76q218 0 331 -84.5t113 -242.5q0 -204 -132.5 -320t-379.5 -116q-192 0 -372 49l121 858h-273l-35 -156q-47 -208 -85.5 -331t-92 -209t-113 -131.5t-159.5 -92.5zM952 180q57 -14 115 -14 q105 0 162 60.5t57 172.5q0 82 -51 125t-143 43h-84z" />
<glyph unicode="&#x45a;" horiz-adv-x="1658" d="M80 0l151 1083h263l-58 -399h367l57 399h262l-57 -399h76q230 0 342 -77.5t112 -221.5q0 -190 -131.5 -297.5t-380.5 -107.5q-195 0 -372 49l65 477h-366l-70 -506h-260zM993 180q57 -14 115 -14q107 0 162 52t55 149q0 67 -51 104t-152 37h-82z" />
<glyph unicode="&#x45b;" horiz-adv-x="1189" d="M84 0l170 1219h-143l22 167h143l19 132l268 28l-24 -160h311l-23 -167h-311l-45 -326q162 221 363 221q112 0 176.5 -68t64.5 -202q0 -40 -6 -90l-104 -754h-263l99 709q6 47 6 79q0 63 -22 87t-66 24q-135 0 -287 -283l-86 -616h-262z" />
<glyph unicode="&#x45c;" horiz-adv-x="1071" d="M70 0l153 1083h262l-61 -428h104l207 267q52 66 83 96t76.5 52t129.5 44l70 -180q-59 -18 -96 -47t-93 -96l-172 -209l273 -582h-273l-223 481h-111l-67 -481h-262zM440 1399l449 276l100 -213l-483 -202z" />
<glyph unicode="&#x45e;" horiz-adv-x="1013" d="M-39 -250q163 21 249 78.5t142 171.5h-88l-196 1083h270l113 -893h8l348 893h278l-479 -1079q-62 -139 -142.5 -231.5t-204.5 -150t-290 -68.5zM299 1544l158 31q27 -127 166 -127q143 0 206 127l150 -31q-32 -122 -130 -199t-237 -77q-140 0 -226.5 77t-86.5 199z" />
<glyph unicode="&#x45f;" horiz-adv-x="1200" d="M70 0l153 1083h262l-127 -886h371l125 886h262l-151 -1083h-336l-43 -305h-183l11 305h-344z" />
<glyph unicode="&#x462;" horiz-adv-x="1445" d="M92 1200l27 215h1052l-55 -215h-364l-39 -309h133q259 0 397.5 -103t138.5 -294q0 -226 -156 -360t-440 -134h-452l145 1200h-387zM629 207h168q297 0 297 280q0 96 -70.5 148.5t-202.5 52.5h-133z" />
<glyph unicode="&#x463;" horiz-adv-x="1048" d="M61 934l25 168h150l32 233l267 29l-37 -262h272l-49 -168h-246l-26 -191h75q224 0 341.5 -85.5t117.5 -241.5q0 -208 -135 -322t-391 -114q-193 0 -373 49l129 905h-152zM367 184q57 -14 114 -14q111 0 170.5 56.5t59.5 170.5q0 166 -207 166h-82z" />
<glyph unicode="&#x472;" horiz-adv-x="1411" d="M98 563q0 131 25 255t79.5 239t133.5 200.5t196.5 137t258.5 51.5q254 0 402 -155.5t148 -440.5q0 -131 -24.5 -255.5t-79 -238.5t-133.5 -199.5t-196.5 -136.5t-258.5 -51q-254 0 -402.5 155t-148.5 439zM381 539q0 -190 69.5 -276.5t202.5 -86.5q89 0 158.5 39 t114 107.5t71.5 147t41 173.5h-653q-4 -40 -4 -104zM406 811h651q2 23 2 68q0 188 -69 274t-204 86q-83 0 -150 -35t-112 -97.5t-73.5 -135.5t-44.5 -160z" />
<glyph unicode="&#x473;" horiz-adv-x="1179" d="M66 430q0 106 22.5 205.5t70 186.5t115 152t163 102.5t208.5 37.5q211 0 330 -124.5t119 -338.5q0 -192 -67.5 -345.5t-200 -245t-308.5 -91.5q-211 0 -331.5 123t-120.5 338zM338 463q-6 -157 40.5 -226t147.5 -69q107 0 175.5 82t97.5 213h-461zM360 627h459q2 25 2 43 q0 245 -186 245q-101 0 -173.5 -75t-101.5 -213z" />
<glyph unicode="&#x474;" horiz-adv-x="1198" d="M109 1415h278l164 -1171h8l313 819q64 168 101 248t76 133l266 -49q-43 -55 -82 -132t-107 -237l-432 -1026h-325z" />
<glyph unicode="&#x475;" horiz-adv-x="1036" d="M74 1083h276l109 -868h8l248 629q76 192 149 268l258 -37q-51 -65 -88.5 -126.5t-81.5 -160.5l-356 -788h-313z" />
<glyph unicode="&#x490;" horiz-adv-x="1017" d="M94 0l172 1415h598l37 309h256l-39 -309l-53 -219h-553l-147 -1196h-271z" />
<glyph unicode="&#x491;" horiz-adv-x="886" d="M70 0l153 1083h484l41 297h245l-41 -297l-59 -200h-436l-125 -883h-262z" />
<glyph unicode="&#x492;" horiz-adv-x="1026" d="M8 711l21 176h180l63 528h854l-55 -219h-553l-37 -309h301l-20 -176h-303l-86 -711h-273l86 711h-178z" />
<glyph unicode="&#x493;" horiz-adv-x="1024" d="M-12 530l30 134l363 -46l119 44q88 31 132.5 58.5t57 52t12.5 65.5q0 38 -33.5 62t-90.5 24q-148 0 -304 -88l-86 159q81 52 194.5 85.5t231.5 33.5q171 0 263 -73.5t92 -188.5q0 -199 -254 -272l2 -7l254 -10l-31 -133l-399 49q-129 -39 -174 -83.5t-45 -110.5 q0 -53 47 -85t131 -32q162 0 305 106l115 -151q-197 -154 -459 -154q-180 0 -297 81t-117 204q0 93 47.5 159t134.5 99l-2 6z" />
<glyph unicode="&#x496;" horiz-adv-x="1871" d="M-31 0l518 768l-159 328q-35 70 -76 102.5t-121 54.5l70 193q143 -30 218.5 -86.5t123.5 -165.5l159 -352h134l69 573h256l-69 -573h114l221 317q99 146 171 200.5t206 86.5l68 -191q-76 -21 -125 -61.5t-125 -149.5l-203 -286l240 -543h147l-65 -541h-197l6 326h-82 l-266 639h-137l-76 -639h-256l78 639h-127l-418 -639h-297z" />
<glyph unicode="&#x497;" horiz-adv-x="1486" d="M-82 0l381 588l-90 217q-23 55 -55 83t-95 50l72 176q126 -36 182 -83t93 -144l90 -232h133l61 428h238l-62 -428h113l133 213q73 118 134.5 167t178.5 79l74 -178q-80 -29 -124 -69t-101 -132l-96 -160l102 -266q29 -77 65.5 -108t96.5 -31h12l-70 -475h-180l10 293 q-45 22 -73 63t-60 127l-114 303h-125l-66 -481h-239l67 481h-121l-301 -481h-264z" />
<glyph unicode="&#x498;" horiz-adv-x="1114" d="M-12 184l162 138q130 -142 307 -142q121 0 191.5 68t70.5 188q0 105 -66 160t-194 55h-142l56 205h119q125 0 196.5 61.5t71.5 161.5q0 77 -50.5 119.5t-146.5 42.5q-150 0 -307 -119l-121 152q212 172 479 172q200 0 314 -90t114 -234q0 -134 -85.5 -233.5 t-235.5 -128.5l-2 -8q130 -26 208.5 -114.5t78.5 -209.5q0 -188 -129 -315t-353 -142l-12 -77q87 -10 135.5 -59.5t48.5 -121.5q0 -100 -79 -165.5t-209 -65.5q-64 0 -129 18.5t-107 44.5l82 129q70 -39 143 -39q97 0 97 80q0 36 -37 53t-135 17l51 192q-116 18 -217.5 71.5 t-167.5 135.5z" />
<glyph unicode="&#x499;" horiz-adv-x="964" d="M-37 141l143 142q132 -119 287 -119q93 0 146 46t53 122q0 66 -49 102.5t-144 36.5h-143l43 180h107q100 0 152 42.5t52 115.5q0 57 -37 87t-108 30q-145 0 -279 -97l-106 152q190 133 426 133q175 0 276 -73.5t101 -194.5q0 -96 -65 -168.5t-175 -97.5l-2 -7 q105 -25 165 -92t60 -159q0 -139 -110 -237.5t-301 -113.5l-13 -77q86 -10 135.5 -59.5t49.5 -121.5q0 -100 -79.5 -165.5t-209.5 -65.5q-65 0 -129 18t-107 45l82 129q66 -39 144 -39q96 0 96 80q0 36 -37.5 53t-134.5 17l51 192q-203 27 -340 164z" />
<glyph unicode="&#x49a;" horiz-adv-x="1269" d="M94 0l172 1415h273l-70 -571h123l278 364q87 113 157 161t194 77l69 -189q-71 -20 -115 -50.5t-94 -94.5l-270 -350l272 -547h154l-66 -541h-196l6 326h-90l-305 637h-144l-77 -637h-271z" />
<glyph unicode="&#x49b;" horiz-adv-x="1085" d="M70 0l153 1083h262l-61 -428h102l209 267q52 66 83 96t76.5 52t129.5 44l70 -180q-59 -18 -96 -47t-93 -96l-172 -209l135 -273q39 -80 74.5 -109.5t97.5 -29.5h13l-70 -475h-180l10 297q-54 19 -91.5 60.5t-72.5 121.5l-141 307h-109l-67 -481h-262z" />
<glyph unicode="&#x49c;" horiz-adv-x="1277" d="M94 0l172 1415h266l-73 -577h71l41 333h119l-41 -333h35l184 299q60 99 108 153.5t116 92.5t172 63l69 -193q-88 -22 -136 -62.5t-110 -135.5l-190 -295l293 -760h-297l-223 643h-43l-41 -340h-119l41 340h-72l-78 -643h-264z" />
<glyph unicode="&#x49d;" horiz-adv-x="1110" d="M70 0l153 1083h250l-61 -438h63l35 240h98l-35 -240h23l170 260q45 70 77.5 104.5t79.5 59t128 45.5l75 -182q-58 -17 -97 -48t-83 -96l-145 -208l219 -580h-268l-170 492h-31l-35 -250h-96l33 250h-64l-67 -492h-252z" />
<glyph unicode="&#x4a0;" horiz-adv-x="1425" d="M72 1202l26 213h617l-70 -571h123l281 364q85 113 154.5 161t193.5 77l71 -189q-72 -20 -116.5 -51t-94.5 -94l-270 -350l373 -762h-293l-305 637h-144l-77 -637h-271l146 1202h-344z" />
<glyph unicode="&#x4a1;" horiz-adv-x="1191" d="M33 891l28 192h543l-61 -428h106l207 267q52 66 83 96t76.5 52t129.5 44l69 -180q-59 -18 -95.5 -47t-92.5 -96l-172 -209l272 -582h-272l-223 481h-111l-67 -481h-263l125 891h-282z" />
<glyph unicode="&#x4a2;" horiz-adv-x="1378" d="M94 0l172 1415h273l-70 -567h489l70 567h270l-147 -1200h164l-66 -541h-196l6 326h-205l78 633h-490l-77 -633h-271z" />
<glyph unicode="&#x4a3;" horiz-adv-x="1220" d="M70 0l153 1083h262l-61 -432h367l61 432h262l-108 -776q-7 -44 -7 -61q0 -41 19 -57.5t69 -18.5h25l-70 -475h-182l8 293q-139 23 -139 180q0 15 4 65l29 220h-367l-63 -453h-262z" />
<glyph unicode="&#x4aa;" horiz-adv-x="1167" d="M98 573q0 250 89.5 449.5t248.5 311.5t357 112q133 0 233.5 -39t183.5 -123l-153 -149q-60 54 -119.5 78t-140.5 24q-180 0 -297 -186t-117 -476q0 -387 287 -387q86 0 156.5 29t152.5 92l117 -174q-114 -96 -252 -137q-215 -118 -215 -268q0 -40 27 -63t79 -23 q75 0 133 30l47 -137q-107 -49 -227 -49t-187 55t-67 150q0 76 47.5 149t136.5 129q-240 6 -380 160.5t-140 441.5z" />
<glyph unicode="&#x4ab;" horiz-adv-x="956" d="M66 442q0 152 46 280.5t123.5 213t180 131.5t215.5 47q195 0 346 -121l-119 -164q-54 43 -101 60.5t-110 17.5q-129 0 -218 -124t-89 -341q0 -134 54 -198t151 -64q100 0 231 82l90 -174q-85 -61 -176 -88q-116 -64 -166.5 -134.5t-50.5 -135.5q0 -39 28 -62.5t81 -23.5 q71 0 133 30l47 -137q-110 -49 -227 -49q-122 0 -189 55t-67 150q0 76 47.5 149t136.5 129q-180 12 -288.5 135t-108.5 336z" />
<glyph unicode="&#x4ae;" horiz-adv-x="1161" d="M90 1415h287l215 -649h8l375 649h299l-563 -878l-66 -537h-272l65 535z" />
<glyph unicode="&#x4af;" horiz-adv-x="1015" d="M66 1083h274l117 -804h8l348 804h277l-533 -1058l-63 -443l-261 -28l66 466z" />
<glyph unicode="&#x4b0;" horiz-adv-x="1161" d="M90 1415h287l215 -649h8l375 649h299l-492 -766h191l-21 -168h-247l-60 -481h-272l59 481h-250l23 168h186z" />
<glyph unicode="&#x4b1;" horiz-adv-x="1015" d="M66 1083h274l117 -804h8l348 804h277l-453 -901h145l-22 -164h-205l-61 -436l-261 -28l66 464h-203l23 164h143z" />
<glyph unicode="&#x4b2;" horiz-adv-x="1187" d="M-80 0l510 754l-303 661h287l188 -481h8l314 481h301l-473 -651l247 -549h175l-66 -541h-197l7 326h-115l-221 569h-9l-352 -569h-301z" />
<glyph unicode="&#x4b3;" horiz-adv-x="1009" d="M-104 0l440 573l-250 510h287l129 -360h8l229 360h297l-387 -505l121 -246q49 -98 87 -130t101 -32h29l-72 -475h-182l10 297q-61 10 -97.5 54.5t-80.5 156.5l-86 217h-8l-276 -420h-299z" />
<glyph unicode="&#x4b8;" horiz-adv-x="1269" d="M111 848q0 48 6 104l57 463h272l-57 -457q-6 -50 -6 -88q0 -91 35 -138.5t108 -59.5l60 485h127l-60 -487q111 15 203 92l80 653h272l-174 -1415h-272l69 567q-98 -72 -202 -96l-23 -182h-125l19 168q-189 5 -289 102t-100 289z" />
<glyph unicode="&#x4b9;" horiz-adv-x="1105" d="M88 582q0 42 6 94l58 407h262l-58 -403q-6 -37 -6 -64q0 -56 22.5 -80.5t69.5 -27.5l43 299h107l-37 -260q90 54 152 160l53 376h262l-152 -1083h-262l66 471q-67 -85 -148 -123l-24 -182h-107l19 141q-24 -8 -58 -8q-130 0 -199 71t-69 212z" />
<glyph unicode="&#x4ba;" horiz-adv-x="1273" d="M94 0l172 1415h273l-76 -606q180 137 356 137q179 0 278 -97.5t99 -299.5q0 -31 -8 -113l-53 -436h-273l51 430q7 61 7 94q0 115 -48.5 163t-146.5 48q-73 0 -149.5 -32.5t-135.5 -81.5l-75 -621h-271z" />
<glyph unicode="&#x4bb;" horiz-adv-x="1165" d="M70 0l213 1516l266 30l-113 -798q163 217 365 217q116 0 178.5 -63t62.5 -193q0 -25 -8 -95l-84 -614h-262l78 563q8 66 8 84q0 60 -22 84.5t-66 24.5q-62 0 -135.5 -70.5t-153.5 -218.5l-65 -467h-262z" />
<glyph unicode="&#x4c0;" horiz-adv-x="600" d="M94 0l172 1415h273l-174 -1415h-271z" />
<glyph unicode="&#x4cb;" horiz-adv-x="1288" d="M111 850q0 46 6 102l57 463h272l-57 -457q-6 -46 -6 -86q0 -112 51 -158t162 -46q146 0 260 94l80 653h272l-147 -1200h164l-68 -541h-196l6 326h-205l69 567q-155 -110 -319 -110q-193 0 -297 98t-104 295z" />
<glyph unicode="&#x4cc;" horiz-adv-x="1128" d="M88 582q0 42 6 94l58 407h262l-58 -403q-4 -23 -4 -62q0 -61 25 -85.5t78 -24.5q58 0 129 55t125 148l51 372h262l-109 -776q-6 -37 -6 -61q0 -41 19.5 -57.5t68.5 -18.5h25l-70 -475h-182l8 293q-139 23 -139 176q0 32 6 69l33 240q-68 -85 -151.5 -129.5t-168.5 -44.5 q-130 0 -199 71t-69 212z" />
<glyph unicode="&#x4cf;" horiz-adv-x="552" d="M72 209q0 31 6 72l174 1237l268 28l-182 -1280q-6 -46 6 -65t45 -19q32 0 57 11l39 -185q-89 -39 -180 -39q-110 0 -171.5 60.5t-61.5 179.5z" />
<glyph unicode="&#x4d8;" horiz-adv-x="1345" d="M84 547q0 122 27 260h890q3 37 3 76q0 358 -281 358q-91 0 -191.5 -36t-175.5 -91l-112 162q109 79 242.5 124.5t275.5 45.5q235 0 376.5 -149.5t141.5 -419.5q0 -217 -52 -391t-143.5 -286t-212.5 -171.5t-262 -59.5q-256 0 -391 152t-135 426zM350 498 q0 -160 70.5 -241t195.5 -81q135 0 231.5 107t131.5 327h-621q-8 -55 -8 -112z" />
<glyph unicode="&#x4d9;" horiz-adv-x="1122" d="M47 279q0 71 21 126t72 103.5t134 81t211 54t299 28.5q9 131 -37.5 189.5t-152.5 58.5q-142 0 -307 -97l-88 166q207 125 440 125q84 0 157.5 -29t128.5 -83t87 -138.5t32 -189.5q0 -160 -47 -293.5t-129 -223t-193.5 -139t-238.5 -49.5q-183 0 -286 86.5t-103 223.5z M313 285q0 -61 39 -95t107 -34q111 0 196 92.5t115 259.5q-112 -4 -193.5 -16.5t-132 -31t-80 -46.5t-40.5 -58.5t-11 -70.5z" />
<glyph unicode="&#x4e2;" horiz-adv-x="1361" d="M94 0l172 1415h269l-43 -346q-27 -219 -74 -476t-68 -325h8l594 1147h346l-172 -1415h-268l41 340q25 210 71.5 467.5t71.5 337.5h-8l-588 -1145h-352zM508 1616l24 188h594l-22 -188h-596z" />
<glyph unicode="&#x4e3;" horiz-adv-x="1165" d="M102 254q0 33 7 94l104 735h262l-104 -733q-4 -23 -4 -61q0 -61 24 -85t76 -24q58 0 127.5 53t124.5 146l100 704h262l-151 -1083h-228l5 170q-71 -98 -159 -149.5t-179 -51.5q-129 0 -198 72t-69 213zM375 1362l24 186h594l-24 -186h-594z" />
<glyph unicode="&#x4e8;" horiz-adv-x="1411" d="M98 563q0 131 25 255t79.5 239t133.5 200.5t196.5 137t258.5 51.5q254 0 402 -155.5t148 -440.5q0 -131 -24.5 -255.5t-79 -238.5t-133.5 -199.5t-196.5 -136.5t-258.5 -51q-254 0 -402.5 155t-148.5 439zM381 539q0 -190 69.5 -276.5t202.5 -86.5q89 0 158.5 39 t114 107.5t71.5 147t41 173.5h-653q-4 -40 -4 -104zM406 811h651q2 23 2 68q0 188 -69 274t-204 86q-83 0 -150 -35t-112 -97.5t-73.5 -135.5t-44.5 -160z" />
<glyph unicode="&#x4e9;" horiz-adv-x="1179" d="M66 430q0 106 22.5 205.5t70 186.5t115 152t163 102.5t208.5 37.5q211 0 330 -124.5t119 -338.5q0 -192 -67.5 -345.5t-200 -245t-308.5 -91.5q-211 0 -331.5 123t-120.5 338zM338 463q-6 -157 40.5 -226t147.5 -69q107 0 175.5 82t97.5 213h-461zM360 627h459q2 25 2 43 q0 245 -186 245q-101 0 -173.5 -75t-101.5 -213z" />
<glyph unicode="&#x4ee;" horiz-adv-x="1161" d="M102 1415h271l223 -868h8l402 868h284l-518 -1012q-80 -156 -160.5 -243t-188 -131.5t-273.5 -59.5l-13 201q165 22 243 64.5t132 146.5h-92zM420 1616l24 188h594l-22 -188h-596z" />
<glyph unicode="&#x4ef;" horiz-adv-x="1013" d="M-39 -250q163 21 249 78.5t142 171.5h-88l-196 1083h270l113 -893h8l348 893h278l-479 -1079q-62 -139 -142.5 -231.5t-204.5 -150t-290 -68.5zM315 1362l25 186h594l-25 -186h-594z" />
<glyph unicode="&#x2000;" horiz-adv-x="1001" />
<glyph unicode="&#x2001;" horiz-adv-x="2003" />
<glyph unicode="&#x2002;" horiz-adv-x="1001" />
<glyph unicode="&#x2003;" horiz-adv-x="2003" />
<glyph unicode="&#x2004;" horiz-adv-x="667" />
<glyph unicode="&#x2005;" horiz-adv-x="500" />
<glyph unicode="&#x2006;" horiz-adv-x="333" />
<glyph unicode="&#x2007;" horiz-adv-x="333" />
<glyph unicode="&#x2008;" horiz-adv-x="250" />
<glyph unicode="&#x2009;" horiz-adv-x="400" />
<glyph unicode="&#x200a;" horiz-adv-x="111" />
<glyph unicode="&#x2010;" horiz-adv-x="833" d="M98 537l31 208h619l-29 -208h-621z" />
<glyph unicode="&#x2011;" horiz-adv-x="833" d="M98 537l31 208h619l-29 -208h-621z" />
<glyph unicode="&#x2012;" horiz-adv-x="833" d="M98 537l31 208h619l-29 -208h-621z" />
<glyph unicode="&#x2013;" horiz-adv-x="1064" d="M47 537l29 208h956l-28 -208h-957z" />
<glyph unicode="&#x2014;" horiz-adv-x="1626" d="M47 537l29 208h1517l-30 -208h-1516z" />
<glyph unicode="&#x2018;" horiz-adv-x="503" d="M170 1128q0 79 66 185l157 258h144l-119 -320q59 -40 59 -118q0 -63 -44.5 -105.5t-110.5 -42.5t-109 40.5t-43 102.5z" />
<glyph unicode="&#x2019;" horiz-adv-x="501" d="M147 993l119 320q-61 41 -61 119q0 63 45.5 105t111.5 42t108 -40.5t42 -102.5q0 -79 -66 -185l-157 -258h-142z" />
<glyph unicode="&#x201a;" horiz-adv-x="501" d="M-31 -328l119 320q-61 41 -61 119q0 63 45.5 105t111.5 42t109 -40.5t43 -102.5q0 -79 -66 -185l-159 -258h-142z" />
<glyph unicode="&#x201c;" horiz-adv-x="903" d="M170 1128q0 79 66 185l159 258h142l-119 -320q61 -41 61 -118q0 -63 -45.5 -105.5t-111.5 -42.5t-109 40.5t-43 102.5zM569 1128q0 79 66 185l160 258h141l-119 -320q62 -42 62 -118q0 -63 -46 -105.5t-112 -42.5t-109 40.5t-43 102.5z" />
<glyph unicode="&#x201d;" horiz-adv-x="903" d="M143 993l119 320q-61 41 -61 119q0 63 45.5 105t111.5 42t108 -40.5t42 -102.5q0 -79 -66 -185l-157 -258h-142zM543 993l119 320q-62 42 -62 119q0 63 46 105t112 42t107.5 -40.5t41.5 -102.5q0 -80 -65 -185l-158 -258h-141z" />
<glyph unicode="&#x201e;" horiz-adv-x="899" d="M-31 -328l119 320q-61 41 -61 119q0 63 45.5 105t111.5 42t109 -40.5t43 -102.5q0 -79 -66 -185l-159 -258h-142zM369 -328l118 320q-61 41 -61 119q0 63 46 105t112 42t108.5 -40.5t42.5 -102.5q0 -80 -65 -185l-160 -258h-141z" />
<glyph unicode="&#x2020;" horiz-adv-x="1052" d="M96 870l25 213h342l39 306h248l-39 -306h342l-27 -213h-342l-106 -870h-248l108 870h-342z" />
<glyph unicode="&#x2021;" horiz-adv-x="1052" d="M27 309l26 215h340l43 336h-342l27 215h340l41 314h248l-41 -314h342l-25 -215h-342l-43 -336h342l-25 -215h-342l-38 -309h-248l39 309h-342z" />
<glyph unicode="&#x2022;" horiz-adv-x="790" d="M137 700q0 118 78 195.5t197 77.5q118 0 196 -78t78 -197q0 -118 -77.5 -195t-196.5 -77q-118 0 -196.5 78.5t-78.5 195.5z" />
<glyph unicode="&#x2026;" horiz-adv-x="1574" d="M35 135q0 69 48 117.5t118 48.5q69 0 117.5 -48.5t48.5 -117.5q0 -68 -48.5 -117t-117.5 -49q-70 0 -118 49t-48 117zM559 135q0 69 48.5 117.5t117.5 48.5t117.5 -48.5t48.5 -117.5q0 -68 -48.5 -117t-117.5 -49t-117.5 49t-48.5 117zM1083 135q0 69 48.5 117.5 t117.5 48.5q70 0 118 -48.5t48 -117.5q0 -68 -48 -117t-118 -49q-69 0 -117.5 49t-48.5 117z" />
<glyph unicode="&#x202f;" horiz-adv-x="400" />
<glyph unicode="&#x2030;" horiz-adv-x="2480" d="M168 1004q0 187 100.5 293t272.5 106q144 0 237.5 -90.5t95.5 -227.5q0 -171 -97 -285t-277 -114q-145 0 -238.5 87.5t-93.5 230.5zM254 35l1122 1427l162 -106l-1124 -1428zM369 1012q0 -78 36 -120t99 -42q81 0 123.5 59.5t42.5 165.5q0 80 -35.5 122t-97.5 42 q-77 0 -122.5 -61t-45.5 -166zM909 287q0 187 100.5 293t272.5 106q144 0 238 -90t96 -227q0 -111 -40 -199.5t-126.5 -144.5t-206.5 -56q-146 0 -240 87.5t-94 230.5zM1110 291q0 -76 37 -117t100 -41q80 0 122 59.5t42 165.5q0 80 -35.5 122t-97.5 42q-77 0 -122.5 -62 t-45.5 -169zM1677 287q0 187 100.5 293t272.5 106q144 0 238 -90t96 -227q0 -111 -40 -199.5t-126.5 -144.5t-206.5 -56q-148 0 -241 87.5t-93 230.5zM1878 291q0 -76 37 -117t100 -41q80 0 122 59.5t42 165.5q0 80 -35.5 122t-97.5 42q-77 0 -122.5 -62t-45.5 -169z" />
<glyph unicode="&#x2039;" horiz-adv-x="718" d="M80 510l24 172l439 440l143 -116l-326 -412l207 -424l-168 -107z" />
<glyph unicode="&#x203a;" horiz-adv-x="722" d="M33 182l325 412l-206 422l167 106l320 -446l-25 -172l-438 -441z" />
<glyph unicode="&#x2044;" horiz-adv-x="200" d="M-494 -88l1059 1640l160 -86l-1057 -1640z" />
<glyph unicode="&#x205f;" horiz-adv-x="500" />
<glyph unicode="&#x20ac;" horiz-adv-x="1181" d="M20 461l58 147h133q3 85 18 164h-168l58 150h145q69 221 218.5 351t379.5 130q184 0 346 -103l-116 -172q-105 78 -230 78q-119 0 -204.5 -72t-131.5 -212h494l-55 -150h-473q-14 -71 -17 -164h434l-55 -147h-375q24 -291 269 -291q151 0 299 102l-29 -223 q-157 -80 -313 -80q-214 0 -344.5 131.5t-149.5 360.5h-191z" />
<glyph unicode="&#x2122;" horiz-adv-x="1839" d="M63 1253v162h711l-29 -162h-233v-645h-203v645h-246zM815 608l33 807h262l156 -512h8l137 512h275l28 -807h-192l-15 400q-2 95 9 223h-9l-155 -539h-164l-172 539h-8q10 -126 8 -221l-15 -402h-186z" />
<glyph unicode="&#x2202;" horiz-adv-x="1132" d="M59 391q0 218 123 358t301 140q205 0 310 -172l6 2q-17 127 -49 209t-95 141t-148.5 94.5t-223.5 67.5l79 188q351 -75 513.5 -245.5t162.5 -464.5q0 -351 -144 -545.5t-402 -194.5q-195 0 -314 113.5t-119 308.5zM326 383q0 -103 51.5 -161t130.5 -58q221 0 252 385 q-82 143 -225 143q-94 0 -151.5 -79.5t-57.5 -229.5z" />
<glyph unicode="&#x2206;" horiz-adv-x="1193" d="M-88 0l620 1415h334l271 -1415h-1225zM274 207h553l-149 983h-8z" />
<glyph unicode="&#x220f;" horiz-adv-x="1331" d="M131 -446l180 1620h-161l24 204h1186l-25 -204h-161l-177 -1592l-254 -28l181 1620h-361l-174 -1592z" />
<glyph unicode="&#x2211;" horiz-adv-x="1079" d="M6 0l25 201l495 501l-374 476l24 200h887l-27 -207h-604l330 -417l-17 -133l-411 -416h584l-25 -205h-887z" />
<glyph unicode="&#x221a;" horiz-adv-x="1093" d="M-47 944l242 66l157 -760h8l574 1534h579l-26 -207h-383l-615 -1577h-296z" />
<glyph unicode="&#x221e;" horiz-adv-x="1843" d="M86 590q0 148 52.5 260t162.5 178t264 66q129 0 233 -68.5t158 -181.5q52 74 105.5 125.5t133 88t171.5 36.5q183 0 292 -112.5t109 -279.5q0 -225 -123 -364t-352 -139q-130 0 -234.5 67.5t-158.5 179.5q-81 -115 -177.5 -181t-229.5 -66q-184 0 -295 113t-111 278z M346 616q0 -94 52 -153.5t132 -59.5q171 0 304 271q-24 54 -56.5 98.5t-90 80.5t-124.5 36q-102 0 -159.5 -75t-57.5 -198zM1022 618q18 -40 41 -74t56 -68t77.5 -53.5t95.5 -19.5q104 0 161.5 76t57.5 199q0 93 -53 152t-133 59q-51 0 -96.5 -22t-82.5 -62.5t-66 -84.5 t-58 -102z" />
<glyph unicode="&#x222b;" horiz-adv-x="782" d="M-289 -371l90 168q86 -45 172 -45q65 0 100.5 36.5t45.5 129.5l178 1477q23 184 118 272t267 88q69 0 150 -21t147 -59l-92 -168q-91 49 -187 49q-63 0 -98.5 -36t-46.5 -127l-178 -1477q-23 -185 -117 -273.5t-268 -88.5q-149 0 -281 75z" />
<glyph unicode="&#x2248;" d="M35 379q29 46 57 81t67.5 70.5t89.5 54.5t107 19q58 0 111 -18.5t84.5 -40t68.5 -40t68 -18.5q47 0 79 26.5t64 78.5l144 -82q-29 -46 -56.5 -80.5t-67 -69.5t-90 -54t-108.5 -19q-59 0 -111.5 18.5t-84 41t-67.5 41t-66 18.5q-48 0 -80.5 -27t-67.5 -80zM82 786 q29 47 58 82.5t68.5 70.5t90 54t107.5 19q59 0 111.5 -18.5t84 -40t68 -40t67.5 -18.5q47 0 77.5 25.5t68.5 80.5l141 -81q-29 -46 -56.5 -80.5t-67 -70t-90 -54.5t-108.5 -19q-59 0 -111.5 18.5t-83.5 41t-67 41t-67 18.5q-48 0 -80.5 -27.5t-67.5 -80.5z" />
<glyph unicode="&#x2260;" d="M55 119l152 213h-135l24 209h260l152 209h-385l27 206h507l209 291l133 -78l-153 -213h139l-27 -206h-262l-151 -209h387l-25 -209h-510l-211 -293z" />
<glyph unicode="&#x2264;" d="M31 0l26 207h836l-27 -207h-835zM109 662l28 243l819 338l66 -196l-684 -269l618 -250l-110 -194z" />
<glyph unicode="&#x2265;" d="M31 0l26 207h836l-27 -207h-835zM70 528l684 260l-619 259l111 194l735 -338l-29 -244l-817 -327z" />
<glyph unicode="&#x25ca;" horiz-adv-x="1138" d="M63 692l451 686h293l295 -686l-451 -692h-293zM330 692l184 -499h8l314 499l-189 492h-8z" />
<glyph unicode="&#x25fc;" horiz-adv-x="1085" d="M0 0v1085h1085v-1085h-1085z" />
<glyph unicode="&#xfb01;" horiz-adv-x="1196" d="M-147 -254q125 49 182.5 120.5t79.5 225.5l112 803h-170l29 188h168l14 107q25 184 129.5 270t298.5 86q87 0 183 -24t168 -64l-95 -172q-117 62 -243 62q-82 0 -124.5 -36.5t-54.5 -127.5l-14 -101h604l-153 -1083h-260l124 895h-342l-112 -795q-23 -159 -80.5 -264.5 t-145.5 -168.5t-229 -111z" />
<glyph unicode="&#xfb02;" horiz-adv-x="1241" d="M-147 -254q125 49 182.5 120.5t79.5 225.5l112 803h-170l29 188h168l14 107q25 184 129.5 270t298.5 86q122 0 256 -41l246 31l-178 -1262q-7 -52 5 -73t44 -21q31 0 61 10l31 -182q-86 -39 -182 -39q-111 0 -167 56.5t-56 175.5q0 39 6 88l143 1024q-95 37 -196 37 q-85 0 -126 -36t-53 -130l-14 -101h225l-55 -188h-197l-112 -795q-23 -159 -80.5 -264.5t-145.5 -168.5t-229 -111z" />
</font>
</defs>
</svg>
