
<svg xmlns="http://www.w3.org/2000/svg" version="1.1" xmlns:xlink="http://www.w3.org/1999/xlink" preserveAspectRatio="none" x="0px" y="0px" width="25px" height="25px" viewBox="0 0 25 25">
<defs>
<g id="Layer0_0_FILL">
<path fill="#FFFFFF" stroke="none" d="
M 16.35 1.5
Q 14.8 0 12.65 0 12.5 0 12.4 0 12.3 0 12.15 0 10 0 8.45 1.5 6.95 3.05 6.95 5.2 6.95 7.35 8.45 8.85 10 10.4 12.15 10.4 12.3 10.4 12.4 10.4 12.5 10.4 12.65 10.4 14.8 10.4 16.35 8.85 17.85 7.35 17.85 5.2 17.85 3.05 16.35 1.5
M 21.8 16.1
Q 21.8 15.6 21.75 15.15 21.3 11.1 16.8 11.1
L 8 11.1
Q 3 11.1 3 16.1
L 3 25.2 6.4 25.2 6.4 19.7 7.9 19.7 7.9 25.2 16.9 25.2 16.9 19.7 18.4 19.7 18.4 25.2 21.8 25.2 21.8 16.1 Z"/>
</g>
</defs>

<g transform="matrix( 1, 0, 0, 1, 0,0) ">
<use xlink:href="#Layer0_0_FILL"/>
</g>
</svg>
