<?xml version="1.0" standalone="no"?>
<!DOCTYPE svg PUBLIC "-//W3C//DTD SVG 1.1//EN" "http://www.w3.org/Graphics/SVG/1.1/DTD/svg11.dtd" >
<svg xmlns="http://www.w3.org/2000/svg" xmlns:xlink="http://www.w3.org/1999/xlink" version="1.1">
<metadata></metadata>
<defs>
<font id="fira_sans_otmedium" horiz-adv-x="1044" >
<font-face units-per-em="2048" ascent="1638" descent="-410" />
<missing-glyph horiz-adv-x="512" />
<glyph horiz-adv-x="0" />
<glyph horiz-adv-x="0" />
<glyph horiz-adv-x="682" />
<glyph unicode="&#xd;" horiz-adv-x="512" />
<glyph unicode=" "  horiz-adv-x="512" />
<glyph unicode="&#x09;" horiz-adv-x="512" />
<glyph unicode="&#xa0;" horiz-adv-x="512" />
<glyph unicode="!" horiz-adv-x="524" d="M96 135q0 69 48.5 117.5t117.5 48.5q70 0 118 -48.5t48 -117.5q0 -68 -48 -117t-118 -49q-69 0 -117.5 49t-48.5 117zM119 1415h282l-30 -915h-219z" />
<glyph unicode="&#x22;" horiz-adv-x="995" d="M147 1415h252v-555h-184zM541 1415h252v-555h-185z" />
<glyph unicode="#" horiz-adv-x="1079" d="M14 317v181h164l51 393h-145v182h170l39 305h219l-41 -305h238l41 305h219l-41 -305h137v-182h-162l-51 -393h143v-181h-168l-41 -317h-219l41 317h-235l-43 -317h-217l41 317h-140zM397 498h236l53 393h-240z" />
<glyph unicode="$" horiz-adv-x="1103" d="M29 164l141 158q153 -144 358 -144q117 0 188.5 52.5t71.5 148.5q0 84 -55.5 130t-216.5 97q-219 68 -320.5 165.5t-101.5 244.5q0 148 99 245.5t264 122.5v312h200v-305q219 -20 375 -166l-135 -148q-133 119 -307 119q-101 0 -161 -40.5t-60 -119.5q0 -74 57 -118 t229 -99q79 -25 136.5 -50t111.5 -61t87.5 -78.5t53 -102t19.5 -132.5q0 -169 -105.5 -277.5t-300.5 -133.5v-308h-202v304q-262 23 -426 184z" />
<glyph unicode="%" horiz-adv-x="1761" d="M115 1044q0 162 99 260.5t251 98.5t251 -98.5t99 -260.5t-99 -260t-251 -98t-251 98t-99 260zM317 1044q0 -84 34 -139t114 -55q147 0 147 194q0 195 -147 195q-42 0 -72 -16t-46 -45t-23 -61.5t-7 -72.5zM324 35l948 1427l170 -104l-950 -1428zM946 328q0 162 99 260 t251 98t251.5 -98.5t99.5 -259.5q0 -162 -99.5 -260.5t-251.5 -98.5t-251 98.5t-99 260.5zM1149 328q0 -84 33.5 -139.5t113.5 -55.5q148 0 148 195q0 192 -148 192q-147 0 -147 -192z" />
<glyph unicode="&#x26;" horiz-adv-x="1591" d="M139 365q0 123 65 216.5t202 182.5q-114 107 -161.5 181t-47.5 167q0 146 106.5 240t304.5 94q189 0 302.5 -90.5t113.5 -231.5q0 -63 -20.5 -118t-61.5 -101t-86.5 -82.5t-110.5 -77.5l318 -305q72 132 117 326l229 -68q-75 -234 -190 -399l329 -299h-327l-154 137 q-190 -168 -440 -168q-229 0 -358.5 106.5t-129.5 289.5zM412 381q0 -101 62 -159t179 -58q157 0 273 104l-369 357q-77 -55 -111 -112.5t-34 -131.5zM451 1110q0 -58 33 -106.5t112 -120.5q88 56 131 110t43 121q0 71 -43.5 113.5t-116.5 42.5q-77 0 -118 -42.5t-41 -117.5 z" />
<glyph unicode="'" horiz-adv-x="602" d="M147 1415h252v-555h-184z" />
<glyph unicode="(" horiz-adv-x="665" d="M57 717q0 102 11 196t28.5 170t48 154.5t59 136t73.5 128.5t79 119t88 120l166 -113q-150 -210 -217 -413.5t-67 -497.5q0 -293 67 -498t217 -414l-166 -114q-63 85 -102 141.5t-90 139.5t-81 156.5t-59 166.5t-42 198t-13 224z" />
<glyph unicode=")" horiz-adv-x="665" d="M55 -195q150 210 217.5 415t67.5 497q0 293 -67.5 497t-217.5 414l166 113q54 -72 88 -120t79 -119t73.5 -128.5t59 -136t48 -154.5t28.5 -170t11 -196q0 -119 -13 -224t-42 -198t-59 -166.5t-81 -156.5t-90 -139.5t-102 -141.5z" />
<glyph unicode="*" horiz-adv-x="905" d="M33 1122l69 219l271 -122l-39 299h235l-39 -301l273 124l69 -219l-290 -55l211 -213l-191 -141l-149 262l-142 -264l-192 135l205 221z" />
<glyph unicode="+" d="M104 541v207h306v315h223v-315h305v-207h-305v-314h-223v314h-306z" />
<glyph unicode="," horiz-adv-x="524" d="M82 -352l84 352q-70 50 -70 137q0 69 48 116.5t118 47.5t118 -47.5t48 -118.5q0 -65 -51 -184l-135 -303h-160z" />
<glyph unicode="-" horiz-adv-x="833" d="M106 537v208h621v-208h-621z" />
<glyph unicode="." horiz-adv-x="524" d="M96 135q0 69 48.5 117.5t117.5 48.5q70 0 118 -48.5t48 -117.5q0 -68 -48 -117t-118 -49q-69 0 -117.5 49t-48.5 117z" />
<glyph unicode="/" horiz-adv-x="1064" d="M180 -168l479 1835l226 -51l-477 -1837z" />
<glyph unicode="0" horiz-adv-x="1175" d="M94 688q0 347 125.5 531t368.5 184q242 0 367.5 -184.5t125.5 -530.5q0 -348 -125 -533.5t-368 -185.5t-368.5 185.5t-125.5 533.5zM365 688q0 -283 53 -401.5t170 -118.5q78 0 126 48.5t72.5 163.5t24.5 308q0 192 -24.5 306t-72.5 162t-126 48q-117 0 -170 -118 t-53 -398z" />
<glyph unicode="1" horiz-adv-x="868" d="M25 1102l442 276h231v-1378h-258v1108l-299 -182z" />
<glyph unicode="2" horiz-adv-x="1054" d="M33 1178q175 225 448 225q207 0 327 -111.5t120 -283.5q0 -168 -118.5 -337.5t-440.5 -463.5h589l-28 -207h-858v193q189 186 293 296.5t175 205t94 158t23 136.5q0 98 -53.5 152.5t-144.5 54.5q-78 0 -139 -34t-125 -111z" />
<glyph unicode="3" horiz-adv-x="1048" d="M8 170l156 139q118 -135 280 -135q111 0 177.5 62.5t66.5 169.5q0 118 -62.5 168.5t-185.5 50.5h-100l31 188h65q98 0 159.5 54.5t61.5 152.5q0 86 -55 134t-149 48q-148 0 -275 -121l-133 146q185 176 432 176q204 0 320 -101t116 -249q0 -124 -71 -207.5t-187 -112.5 v-8q128 -11 215.5 -97.5t87.5 -234.5q0 -183 -135 -303.5t-366 -120.5q-282 0 -449 201z" />
<glyph unicode="4" horiz-adv-x="1116" d="M63 315v181l392 909l221 -84l-340 -805h303l29 346h227v-346h166v-201h-166v-315h-256v315h-576z" />
<glyph unicode="5" horiz-adv-x="1089" d="M51 170l162 137q111 -135 266 -135q117 0 184.5 75t67.5 199q0 259 -219 259q-80 0 -172 -48h-186v721h796l-28 -194h-519v-336q98 45 205 45q175 0 284 -118.5t109 -325.5q0 -211 -141 -345.5t-371 -134.5q-271 0 -438 201z" />
<glyph unicode="6" horiz-adv-x="1128" d="M94 643q0 226 67 397.5t195 267t299 95.5q170 0 295 -88l-102 -164q-79 57 -191 57q-127 0 -204 -118t-88 -324q126 152 305 152q168 0 276.5 -117.5t108.5 -331.5q0 -218 -131.5 -359t-337.5 -141q-128 0 -223.5 48.5t-153.5 139t-86.5 211.5t-28.5 275zM365 582 q5 -221 56.5 -319.5t166.5 -98.5q99 0 151 81t52 220q0 141 -48.5 201.5t-138.5 60.5q-135 0 -239 -145z" />
<glyph unicode="7" horiz-adv-x="933" d="M37 1176v202h852v-184l-510 -1221l-240 76l479 1127h-581z" />
<glyph unicode="8" horiz-adv-x="1169" d="M78 367q0 233 262 348q-207 117 -207 323q0 116 66 201t166.5 124.5t218.5 39.5q125 0 225 -38t162.5 -119.5t62.5 -196.5q0 -190 -225 -310q281 -128 281 -368q0 -173 -140.5 -287.5t-371.5 -114.5q-227 0 -363.5 113.5t-136.5 284.5zM344 375q0 -98 64 -154.5 t176 -56.5q111 0 175 59t64 148q0 34 -7.5 61.5t-18.5 49t-34 41.5t-44 33.5t-59 30.5t-68 28.5t-82 29.5q-166 -90 -166 -270zM387 1036q0 -88 58 -138.5t188 -92.5q80 50 113.5 104t33.5 127q0 83 -51.5 133t-142.5 50q-92 0 -145.5 -47.5t-53.5 -135.5z" />
<glyph unicode="9" horiz-adv-x="1126" d="M74 936q0 211 137.5 339t341.5 128q228 0 355.5 -147t127.5 -390q0 -206 -46.5 -357t-148 -259.5t-247.5 -179t-358 -121.5l-58 186q258 66 403.5 183t178.5 300q-1 0 -3 1.5t-3 1.5q-108 -134 -295 -134q-165 0 -275 122.5t-110 326.5zM338 940q0 -134 54 -198t143 -64 q138 0 233 141q0 208 -52.5 298.5t-162.5 90.5q-99 0 -157 -70t-58 -198z" />
<glyph unicode=":" horiz-adv-x="524" d="M96 135q0 69 48.5 117.5t117.5 48.5q70 0 118 -48.5t48 -117.5q0 -68 -48 -117t-118 -49q-69 0 -117.5 49t-48.5 117zM96 872q0 68 48.5 116t117.5 48q70 0 118 -48t48 -116q0 -69 -48 -118t-118 -49q-69 0 -117.5 49t-48.5 118z" />
<glyph unicode=";" horiz-adv-x="524" d="M82 -352l84 352q-70 50 -70 137q0 69 48 116.5t118 47.5t118 -47.5t48 -118.5q0 -65 -51 -184l-135 -303h-160zM96 872q0 68 48.5 116t117.5 48q70 0 118 -48t48 -116q0 -69 -48 -118t-118 -49q-69 0 -117.5 49t-48.5 118z" />
<glyph unicode="&#x3c;" d="M100 567v244l777 352l90 -190l-648 -285l648 -272l-90 -201z" />
<glyph unicode="=" d="M104 332v211h836v-211h-836zM104 745v211h836v-211h-836z" />
<glyph unicode="&#x3e;" d="M78 412l647 276l-647 281l90 194l776 -352v-244l-776 -352z" />
<glyph unicode="?" horiz-adv-x="1030" d="M59 1233q185 213 453 213q204 0 315 -96t111 -236q0 -67 -20.5 -120.5t-53 -89t-71.5 -66t-78.5 -58.5t-72 -58t-53 -73t-20.5 -96v-53h-245v63q0 70 19 127t49 95t66.5 69.5t73 57.5t66.5 51.5t49 58.5t19 72q0 67 -47 105t-130 38q-141 0 -258 -135zM285 135 q0 69 48.5 117.5t117.5 48.5q70 0 117.5 -48.5t47.5 -117.5q0 -68 -47.5 -117t-117.5 -49q-69 0 -117.5 49t-48.5 117z" />
<glyph unicode="@" horiz-adv-x="2088" d="M119 494q0 204 69.5 379.5t194 302t307.5 198.5t400 72q166 0 309.5 -43t247 -119t177 -178t110 -220.5t36.5 -246.5q0 -179 -49 -319.5t-147.5 -224t-231.5 -83.5q-114 0 -182 62t-82 141h-8q-34 -83 -107.5 -137.5t-181.5 -54.5q-179 0 -272 122.5t-93 329.5 q0 256 124 400.5t339 144.5q174 0 340 -88v-574q0 -92 29.5 -131t85.5 -39q190 0 190 447q0 287 -163 449.5t-474 162.5q-174 0 -312 -56t-227 -156.5t-136 -238t-47 -302.5q0 -223 81 -388.5t243.5 -258.5t389.5 -93q197 0 398 72l65 -188q-225 -84 -465 -84 q-285 0 -502.5 115t-336.5 328.5t-119 496.5zM858 475q0 -143 38.5 -210.5t117.5 -67.5q117 0 178 135v487q-62 27 -117 27q-217 0 -217 -371z" />
<glyph unicode="A" horiz-adv-x="1206" d="M-10 0l448 1415h334l445 -1415h-291l-90 328h-474l-90 -328h-282zM414 532h370l-180 658h-8z" />
<glyph unicode="B" horiz-adv-x="1280" d="M172 0v1415h432q86 0 160 -10.5t143 -36t117 -66t77 -103.5t29 -144q0 -121 -73 -198.5t-172 -100.5v-8q45 -9 85.5 -23.5t82 -41.5t71 -62.5t48 -90t18.5 -120.5q0 -93 -31 -165t-83 -117.5t-125.5 -75t-152 -41t-169.5 -11.5h-457zM444 203h189q274 0 274 213 q0 124 -69 176.5t-193 52.5h-201v-442zM444 834h181q117 0 173 47.5t56 150.5q0 96 -61 140.5t-181 44.5h-168v-383z" />
<glyph unicode="C" horiz-adv-x="1175" d="M98 711q0 174 48 314.5t131.5 231.5t195 140t240.5 49q134 0 232.5 -37t189.5 -113l-140 -161q-120 102 -266 102q-75 0 -136 -29.5t-109 -90t-74.5 -164t-26.5 -242.5q0 -267 92.5 -396t247.5 -129q94 0 163.5 31.5t137.5 87.5l129 -164q-180 -172 -442 -172 q-135 0 -247.5 49t-194 141t-126.5 233.5t-45 318.5z" />
<glyph unicode="D" horiz-adv-x="1343" d="M172 0v1415h363q82 0 152.5 -8t144.5 -28.5t133 -54t112.5 -88t89.5 -126t57 -172t21 -223.5q0 -121 -20.5 -222t-56.5 -173.5t-87.5 -129t-110 -92t-129 -58t-138.5 -31.5t-144 -9h-387zM444 203h138q64 0 117 13.5t103.5 48.5t85 91.5t55 147.5t20.5 211 q0 104 -14.5 184.5t-42 134t-61.5 89.5t-79 55t-88 26.5t-96 7.5h-138v-1009z" />
<glyph unicode="E" horiz-adv-x="1091" d="M172 0v1415h821l-28 -201h-521v-395h453v-201h-453v-415h557v-203h-829z" />
<glyph unicode="F" horiz-adv-x="1007" d="M172 0v1415h803l-31 -201h-500v-423h435v-201h-435v-590h-272z" />
<glyph unicode="G" horiz-adv-x="1316" d="M98 709q0 176 52.5 318.5t143 232.5t207 138t247.5 48q144 0 252 -43t198 -125l-147 -152q-127 115 -293 115q-80 0 -146 -29.5t-119 -90.5t-82.5 -166t-29.5 -246q0 -283 83.5 -408t252.5 -125q131 0 227 55v365h-225l-27 201h516v-688q-223 -140 -499 -140 q-290 0 -450.5 190t-160.5 550z" />
<glyph unicode="H" horiz-adv-x="1376" d="M172 0v1415h272v-567h488v567h272v-1415h-272v633h-488v-633h-272z" />
<glyph unicode="I" horiz-adv-x="616" d="M172 0v1415h272v-1415h-272z" />
<glyph unicode="J" horiz-adv-x="624" d="M-23 -119q68 27 110 57t65 72t30.5 88.5t7.5 118.5v1198h273v-1208q0 -96 -21.5 -173.5t-57 -131t-90.5 -97t-112.5 -71.5t-132.5 -53z" />
<glyph unicode="K" horiz-adv-x="1261" d="M172 0v1415h272v-1415h-272zM455 756l489 659h293l-489 -641l528 -774h-322z" />
<glyph unicode="L" horiz-adv-x="1040" d="M172 0v1415h272v-1194h566l-31 -221h-807z" />
<glyph unicode="M" horiz-adv-x="1626" d="M94 0l113 1415h348l258 -989h8l248 989h352l111 -1415h-264l-45 711q-13 222 -13 352q0 50 2 86h-8l-262 -1002h-260l-274 1002h-9q6 -54 6 -177q-1 -10 -1 -21q0 -139 -7 -265l-41 -686h-262z" />
<glyph unicode="N" horiz-adv-x="1384" d="M172 0v1415h346l477 -1139h9q-14 68 -26.5 214t-12.5 317v608h247v-1415h-354l-471 1135h-8q13 -64 27 -219.5t14 -311.5v-604h-248z" />
<glyph unicode="O" horiz-adv-x="1421" d="M98 707q0 349 164.5 544t448.5 195q285 0 448.5 -192t163.5 -545q0 -349 -164 -544.5t-448 -195.5q-285 0 -449 192.5t-164 545.5zM383 707q0 -531 328 -531q161 0 244 126.5t83 406.5q0 279 -83.5 404.5t-243.5 125.5t-244 -126.5t-84 -405.5z" />
<glyph unicode="P" horiz-adv-x="1216" d="M172 0v1415h412q279 0 429 -112.5t150 -337.5q0 -239 -148.5 -355t-406.5 -116h-164v-494h-272zM444 696h158q135 0 207 62t72 207q0 252 -287 252h-150v-521z" />
<glyph unicode="Q" horiz-adv-x="1421" d="M98 707q0 349 164.5 544t448.5 195q285 0 448.5 -192t163.5 -545q0 -219 -76 -376.5t-225 -238.5l2 -8q126 0 222.5 -32.5t185.5 -94.5l-168 -219q-118 118 -246.5 176.5t-312.5 58.5q-285 0 -446 189.5t-161 542.5zM383 707q0 -531 328 -531q161 0 244 126.5t83 406.5 q0 279 -83.5 404.5t-243.5 125.5t-244 -126.5t-84 -405.5z" />
<glyph unicode="R" horiz-adv-x="1255" d="M172 0v1415h422q563 0 563 -416q0 -147 -85.5 -246t-223.5 -143l391 -610h-311l-338 567h-146v-567h-272zM444 762h166q131 0 197.5 56.5t66.5 180.5q0 114 -67 167t-205 53h-158v-457z" />
<glyph unicode="S" horiz-adv-x="1144" d="M29 164l145 160q159 -146 365 -146q117 0 189.5 55.5t72.5 155.5q0 88 -58 138.5t-219 101.5q-229 69 -328.5 167.5t-99.5 258.5q0 177 137.5 284t348.5 107q151 0 262 -43t205 -131l-138 -156q-137 123 -311 123q-101 0 -162 -43.5t-61 -124.5q0 -78 56.5 -122 t230.5 -99q81 -26 139.5 -51.5t114 -63t90 -82t55 -107.5t20.5 -140q0 -195 -143.5 -316t-390.5 -121q-322 0 -520 195z" />
<glyph unicode="T" horiz-adv-x="1085" d="M25 1200v215h1052l-28 -215h-367v-1200h-272v1200h-385z" />
<glyph unicode="U" horiz-adv-x="1355" d="M152 467v948h272v-938q0 -151 61.5 -224t192.5 -73q130 0 193 73.5t63 223.5v938h272v-948q0 -109 -34.5 -200t-99.5 -157.5t-166 -103.5t-228 -37q-256 0 -391 135t-135 363z" />
<glyph unicode="V" horiz-adv-x="1214" d="M12 1415h291l305 -1159h8l310 1159h276l-432 -1415h-324z" />
<glyph unicode="W" horiz-adv-x="1720" d="M33 1415h270l176 -1175h8l230 1175h287l225 -1171h8l195 1171h254l-259 -1415h-354l-213 1094h-8l-219 -1094h-342z" />
<glyph unicode="X" horiz-adv-x="1171" d="M0 0l416 752l-383 663h301l244 -481h8l256 481h288l-391 -649l432 -766h-299l-290 569h-9l-284 -569h-289z" />
<glyph unicode="Y" horiz-adv-x="1175" d="M-4 1415h299l295 -649h8l295 649h287l-457 -878v-537h-272v535z" />
<glyph unicode="Z" horiz-adv-x="1091" d="M49 0v207l664 993h-596v215h901v-209l-656 -985h662l-29 -221h-946z" />
<glyph unicode="[" horiz-adv-x="665" d="M98 -246v1925h488v-204h-240v-1518h240v-203h-488z" />
<glyph unicode="\" horiz-adv-x="1064" d="M180 1616l226 51l479 -1835l-228 -53z" />
<glyph unicode="]" horiz-adv-x="665" d="M80 -43h239v1520h-239v202h487v-1925h-487v203z" />
<glyph unicode="^" horiz-adv-x="1099" d="M43 1079l387 645h238l387 -645h-262l-246 439l-238 -439h-266z" />
<glyph unicode="_" horiz-adv-x="1064" d="M27 -113h1011v-211h-1011v211z" />
<glyph unicode="`" horiz-adv-x="647" d="M55 1499l121 205l418 -262l-80 -135z" />
<glyph unicode="a" horiz-adv-x="1120" d="M63 309q0 172 133.5 265.5t381.5 93.5h133v61q0 101 -49.5 142.5t-165.5 41.5q-126 0 -283 -55l-63 180q204 76 385 76q224 0 327 -93t103 -276v-464q0 -60 17 -89.5t58 -44.5l-57 -174q-176 15 -233 146q-57 -75 -143 -112.5t-187 -37.5q-164 0 -260.5 93t-96.5 247z M344 324q0 -164 158 -164q128 0 209 133v217h-93q-147 0 -210.5 -46.5t-63.5 -139.5z" />
<glyph unicode="b" horiz-adv-x="1216" d="M162 0v1518l262 28v-585q54 72 131.5 112.5t163.5 40.5q106 0 184 -40t126.5 -115.5t71.5 -178.5t23 -235q0 -168 -49 -296.5t-149 -204t-238 -75.5q-175 0 -282 137l-13 -106h-231zM424 283q74 -117 197 -117q229 0 229 377q0 199 -52.5 287t-156.5 88 q-64 0 -119.5 -40.5t-97.5 -105.5v-489z" />
<glyph unicode="c" horiz-adv-x="983" d="M88 537q0 256 136.5 416.5t377.5 160.5q203 0 350 -127l-118 -160q-105 80 -220 80q-247 0 -247 -370q0 -189 62.5 -272t182.5 -83q106 0 219 84l121 -172q-155 -125 -346 -125q-249 0 -383.5 153.5t-134.5 414.5z" />
<glyph unicode="d" horiz-adv-x="1222" d="M92 543q0 254 118.5 412.5t321.5 158.5q163 0 267 -110v542l262 -28v-1518h-232l-16 129q-53 -74 -132.5 -117t-176.5 -43q-205 0 -308.5 153t-103.5 421zM367 543q0 -201 54.5 -288t160.5 -87q65 0 121 39t96 104v498q-79 109 -199 109q-111 0 -172 -92.5t-61 -282.5z " />
<glyph unicode="e" horiz-adv-x="1126" d="M88 541q0 164 55.5 292.5t167.5 204.5t264 76q222 0 347 -145t125 -402q0 -5 -7 -106h-680q15 -149 84.5 -221t182.5 -72q138 0 262 100l112 -157q-172 -142 -391 -142q-170 0 -289 73.5t-176 200.5t-57 298zM358 631h428q-2 146 -50.5 221.5t-157.5 75.5 q-96 0 -153 -73.5t-67 -223.5z" />
<glyph unicode="f" horiz-adv-x="714" d="M23 895v188h170v119q0 154 98.5 249t281.5 95q150 0 289 -63l-74 -176q-93 41 -184 41q-84 0 -116.5 -35.5t-32.5 -114.5v-115h258l-29 -188h-229v-895h-262v895h-170z" />
<glyph unicode="g" horiz-adv-x="1105" d="M37 -106h235q0 -87 63 -121.5t200 -34.5q153 0 213.5 38t60.5 103q0 63 -42 97t-149 34h-153q-150 0 -231.5 57.5t-81.5 155.5q0 56 30 107t84 88q-88 51 -132 126.5t-44 188.5q0 120 63 208t163 130.5t223 42.5q161 0 280 32t225 89l70 -209q-103 -37 -309 -37v-8 q182 -79 182 -270q0 -160 -117.5 -262.5t-316.5 -102.5q-67 0 -139 16q-33 -33 -33 -77t34 -61t130 -17h106q200 0 311 -82.5t111 -228.5q0 -166 -146 -254t-397 -88q-263 0 -378 84.5t-115 250.5v5zM352 727q0 -96 51.5 -152.5t141.5 -56.5q91 0 139.5 55.5t48.5 155.5 q0 205 -188 205q-91 0 -142 -56.5t-51 -150.5z" />
<glyph unicode="h" horiz-adv-x="1193" d="M162 0v1516l262 26v-581q137 153 324 153q148 0 221 -83t73 -238v-793h-262v766q0 81 -31.5 116.5t-101.5 35.5q-114 0 -223 -152v-766h-262z" />
<glyph unicode="i" horiz-adv-x="573" d="M121 1470q0 67 46.5 112.5t119.5 45.5q71 0 118.5 -45.5t47.5 -112.5q0 -68 -47 -113.5t-119 -45.5q-73 0 -119.5 45.5t-46.5 113.5zM156 0v1083h262v-1083h-262z" />
<glyph unicode="j" horiz-adv-x="573" d="M-61 -254q59 26 94.5 49.5t66 60.5t43.5 91.5t13 132.5v1003h262v-987q0 -99 -18 -176t-47.5 -130.5t-81 -97.5t-105.5 -73.5t-133 -62.5zM121 1470q0 67 46.5 112.5t119.5 45.5q71 0 118.5 -45.5t47.5 -112.5q0 -68 -47 -113.5t-119 -45.5q-73 0 -119.5 45.5 t-46.5 113.5z" />
<glyph unicode="k" horiz-adv-x="1097" d="M162 0v1518l262 28v-1546h-262zM434 592l367 491h276l-364 -477l395 -606h-301z" />
<glyph unicode="l" horiz-adv-x="600" d="M145 260v1258l263 28v-1282q0 -84 59 -84q34 0 61 10l58 -184q-94 -37 -183 -37q-121 0 -189.5 72.5t-68.5 218.5z" />
<glyph unicode="m" horiz-adv-x="1751" d="M162 0v1083h227l19 -135q138 166 317 166q201 0 262 -166q69 80 153.5 123t170.5 43q286 0 286 -321v-793h-262v758q0 86 -26.5 123t-89.5 37q-56 0 -110.5 -41.5t-96.5 -108.5v-768h-262v762q0 84 -27.5 120t-89.5 36q-56 0 -111.5 -42t-97.5 -108v-768h-262z" />
<glyph unicode="n" horiz-adv-x="1193" d="M162 0v1083h227l19 -135q68 81 156 123.5t184 42.5q148 0 221 -83t73 -238v-793h-262v766q0 81 -31.5 116.5t-101.5 35.5q-114 0 -223 -152v-766h-262z" />
<glyph unicode="o" horiz-adv-x="1198" d="M88 543q0 258 137 414.5t375 156.5q239 0 373.5 -154.5t134.5 -416.5q0 -264 -135.5 -419t-374.5 -155q-240 0 -375 153t-135 421zM362 543q0 -375 236 -375q118 0 177 91t59 284q0 372 -234 372q-238 0 -238 -372z" />
<glyph unicode="p" horiz-adv-x="1216" d="M162 -446v1529h229l15 -133q63 82 144 123t169 41q106 0 184 -40t126.5 -115.5t71.5 -178.5t23 -235q0 -167 -49 -296.5t-147 -204.5t-232 -75q-171 0 -272 119v-506zM424 283q73 -113 199 -113q227 0 227 373q0 200 -52 287.5t-157 87.5q-64 0 -119.5 -40.5 t-97.5 -105.5v-489z" />
<glyph unicode="q" horiz-adv-x="1222" d="M92 543q0 254 118.5 412.5t321.5 158.5q180 0 287 -131l15 100h227v-1529l-262 28v529q-110 -142 -295 -142q-208 0 -310 152t-102 422zM367 543q0 -198 55 -285.5t160 -87.5q65 0 121 38t96 103v498q-79 109 -199 109q-111 0 -172 -92.5t-61 -282.5z" />
<glyph unicode="r" horiz-adv-x="796" d="M158 0v1083h231l25 -204q42 111 113.5 172t164.5 61q60 0 109 -14l-45 -254q-50 12 -97 12q-174 0 -239 -268v-588h-262z" />
<glyph unicode="s" horiz-adv-x="989" d="M31 123l135 149q137 -108 293 -108q89 0 140.5 35.5t51.5 95.5q0 47 -20 74.5t-72.5 50.5t-161.5 51q-315 79 -315 324q0 139 118.5 229t315.5 90q218 0 379 -115l-111 -163q-124 84 -264 84q-79 0 -125.5 -29.5t-46.5 -79.5q0 -55 48 -85.5t194 -72.5q81 -22 138 -47.5 t104.5 -64.5t71.5 -95t24 -131q0 -110 -65 -190.5t-167.5 -118t-228.5 -37.5q-261 0 -436 154z" />
<glyph unicode="t" horiz-adv-x="772" d="M18 897v186h166v240l262 31v-271h265l-29 -186h-236v-567q0 -79 27.5 -114.5t87.5 -35.5q63 0 129 41l92 -170q-54 -40 -126 -61t-144 -21q-174 1 -251 94t-77 267v567h-166z" />
<glyph unicode="u" horiz-adv-x="1181" d="M152 299v784h262v-751q0 -35 4.5 -61t16 -50t36 -36.5t61.5 -12.5q130 0 226 135v776h262v-1083h-227l-15 135q-59 -81 -144.5 -123.5t-182.5 -42.5q-152 0 -225.5 86t-73.5 244z" />
<glyph unicode="v" horiz-adv-x="1034" d="M4 1083h283l231 -862h8l236 862h268l-358 -1083h-307z" />
<glyph unicode="w" horiz-adv-x="1519" d="M25 1083h264l145 -870h8l193 870h268l176 -866h8l156 866h252l-235 -1083h-328l-168 825h-8l-170 -825h-320z" />
<glyph unicode="x" horiz-adv-x="1015" d="M-10 0l360 571l-323 512h299l180 -360h8l178 360h285l-311 -503l360 -580h-303l-219 420h-8l-217 -420h-289z" />
<glyph unicode="y" horiz-adv-x="1036" d="M4 1083h279l229 -893h8l240 893h270l-350 -1087q-65 -200 -198 -312.5t-361 -129.5l-33 190q158 24 231.5 81t114.5 175h-88z" />
<glyph unicode="z" horiz-adv-x="923" d="M39 0v188l524 691h-479v204h780v-188l-524 -690h532l-26 -205h-807z" />
<glyph unicode="{" horiz-adv-x="665" d="M35 610v213q82 0 109.5 36t27.5 124v391q0 103 24.5 169.5t80 104.5t131 52.5t190.5 15.5v-188q-100 0 -139 -29t-39 -102v-361q0 -151 -39 -220t-148 -95v-8q109 -26 148 -95.5t39 -220.5v-360q0 -73 39 -102t139 -29v-189q-115 1 -190.5 15.5t-131 52.5t-80 104.5 t-24.5 169.5v392q0 88 -27 123.5t-110 35.5z" />
<glyph unicode="|" horiz-adv-x="794" d="M276 -213v1870h242v-1870h-242z" />
<glyph unicode="}" horiz-adv-x="665" d="M68 -94q100 0 139 29t39 102v360q0 151 38.5 221t147.5 95v8q-109 26 -147.5 95t-38.5 220v361q0 73 -39 102t-139 29v188q115 -1 190.5 -15.5t131 -52.5t80 -104.5t24.5 -169.5v-391q0 -88 27.5 -124t109.5 -36v-213q-83 0 -110 -35.5t-27 -123.5v-392 q0 -103 -24.5 -169.5t-80 -104.5t-131 -52.5t-190.5 -15.5v189z" />
<glyph unicode="~" d="M59 584q113 225 303 225q59 0 112 -18.5t85 -40t69.5 -40t67.5 -18.5q48 0 76.5 26t58.5 79l154 -82q-111 -223 -303 -223q-59 0 -112 18.5t-85 40.5t-69.5 40.5t-67.5 18.5q-48 0 -76.5 -26.5t-58.5 -79.5z" />
<glyph unicode="&#xa1;" horiz-adv-x="524" d="M96 870q0 69 48.5 117.5t117.5 48.5t117.5 -48.5t48.5 -117.5q0 -68 -48.5 -116.5t-117.5 -48.5t-117.5 48.5t-48.5 116.5zM119 -412l37 920h213l37 -920h-287z" />
<glyph unicode="&#xa2;" horiz-adv-x="991" d="M84 537q0 224 105.5 376t297.5 187v309h201v-305q143 -21 256 -117l-117 -160q-108 80 -221 80q-246 0 -246 -370q0 -188 63.5 -271.5t182.5 -83.5q56 0 106 19t111 65l121 -172q-112 -93 -256 -114v-304h-203v308q-194 33 -297.5 178.5t-103.5 374.5z" />
<glyph unicode="&#xa3;" horiz-adv-x="1085" d="M55 0v195q40 14 68 28t47 35t29 40t15.5 53.5t7 65.5t1.5 85v139h-157v145h157v211q0 181 112.5 293.5t315.5 112.5q250 0 391 -195l-163 -123q-45 62 -93.5 88.5t-115.5 26.5q-103 0 -146 -61.5t-43 -194.5v-158h393v-145h-393v-176q0 -189 -114 -252v-8h641l-29 -205 h-924z" />
<glyph unicode="&#xa5;" horiz-adv-x="1105" d="M-6 1378h282l279 -579h8l277 579h272l-360 -663h215v-148h-281v-161h281v-148h-281v-258h-264v258h-281v148h281v161h-281v148h213z" />
<glyph unicode="&#xa7;" horiz-adv-x="1064" d="M100 623q0 79 44.5 144t115.5 110q-108 85 -108 210q0 140 115 226t298 86q216 0 377 -113l-102 -156q-122 82 -267 82q-78 0 -124 -30t-46 -82q0 -41 18.5 -66.5t69 -50t156.5 -59.5q164 -53 240 -122.5t76 -191.5q0 -141 -154 -243q109 -83 109 -213 q0 -141 -119.5 -227.5t-311.5 -86.5q-220 0 -378 115l100 164q130 -88 272 -88q83 0 133 29t50 79q0 42 -18 67.5t-69 50.5t-159 60q-167 53 -242.5 119t-75.5 187zM338 659q0 -33 9.5 -55.5t28.5 -41t58 -36t88.5 -35t128.5 -43.5q9 -3 13 -4q63 66 63 136t-58.5 106 t-271.5 109q-59 -65 -59 -136z" />
<glyph unicode="&#xa8;" horiz-adv-x="854" d="M55 1473q0 60 42 100.5t104 40.5q61 0 102 -40.5t41 -100.5t-41 -102t-102 -42t-103.5 42t-42.5 102zM508 1473q0 60 42.5 100.5t102.5 40.5q63 0 104.5 -40.5t41.5 -100.5q0 -61 -41.5 -102.5t-104.5 -41.5q-60 0 -102.5 42t-42.5 102z" />
<glyph unicode="&#xa9;" horiz-adv-x="1644" d="M154 887q0 182 89.5 335.5t243.5 241.5t338 88q137 0 260.5 -52t212 -141t141 -212t52.5 -260q0 -182 -88.5 -334.5t-241.5 -241t-336 -88.5q-184 0 -338 88.5t-243.5 241t-89.5 334.5zM313 887q0 -145 66 -265t183.5 -190t262.5 -70q143 0 260 70t182.5 190t65.5 265 t-65.5 266t-182.5 191.5t-260 70.5q-145 0 -262.5 -70.5t-183.5 -191.5t-66 -266zM475 889q0 184 99 290.5t251 106.5q143 0 254 -94l-88 -115q-72 56 -149 56q-76 0 -122 -59.5t-46 -184.5q0 -123 44.5 -182.5t121.5 -59.5q91 0 168 68l82 -121q-118 -102 -263 -102 q-161 0 -256.5 104t-95.5 293z" />
<glyph unicode="&#xaa;" horiz-adv-x="1228" d="M180 903q0 140 113.5 216.5t324.5 76.5h107v41q0 76 -40.5 105.5t-135.5 29.5q-99 0 -236 -47l-59 158q172 63 330 63q189 0 276.5 -77t87.5 -224v-364q0 -44 15 -67t49 -34l-54 -151q-80 8 -128.5 35.5t-75.5 83.5q-105 -121 -269 -121q-139 0 -222 76t-83 200zM205 0 v195h815v-195h-815zM426 913q0 -125 123 -125q104 0 176 105v158h-80q-119 0 -169 -34t-50 -104z" />
<glyph unicode="&#xab;" horiz-adv-x="1210" d="M92 506v172l375 442l160 -104l-269 -422l269 -424l-160 -102zM584 506v172l377 442l159 -104l-268 -422l268 -424l-159 -102z" />
<glyph unicode="&#xac;" d="M104 543v209h836v-514h-223v305h-613z" />
<glyph unicode="&#xad;" horiz-adv-x="833" d="M106 537v208h621v-208h-621z" />
<glyph unicode="&#xae;" horiz-adv-x="1314" d="M111 997q0 229 158.5 387t389.5 158q112 0 213 -42.5t173 -115t114.5 -173.5t42.5 -214q0 -150 -71.5 -274.5t-196.5 -196t-275 -71.5q-152 0 -278 71.5t-198 196t-72 274.5zM250 997q0 -179 116.5 -300.5t292.5 -121.5q174 0 290 121.5t116 300.5q0 180 -116 303 t-290 123q-176 0 -292.5 -123t-116.5 -303zM446 721v579h177q264 0 264 -178q0 -116 -127 -159l166 -242h-156l-139 215h-51v-215h-134zM580 1042h55q115 0 115 82q0 74 -119 74h-51v-156z" />
<glyph unicode="&#xaf;" horiz-adv-x="704" d="M55 1384v187h594v-187h-594z" />
<glyph unicode="&#xb0;" horiz-adv-x="1038" d="M94 1110q0 102 52.5 180.5t131.5 117t168 38.5q142 0 247.5 -92t105.5 -244q0 -102 -51.5 -181t-131 -118t-170.5 -39q-89 0 -168 39t-131.5 118t-52.5 181zM289 1110q0 -82 44.5 -129t112.5 -47q70 0 115 47t45 129q0 81 -45.5 128.5t-114.5 47.5t-113 -46.5t-44 -129.5 z" />
<glyph unicode="&#xb1;" d="M104 0v203h836v-203h-836zM104 557v205h306v315h227v-315h303v-205h-303v-227h-227v227h-306z" />
<glyph unicode="&#xb4;" horiz-adv-x="647" d="M55 1442l418 260l121 -203l-461 -192z" />
<glyph unicode="&#xb5;" horiz-adv-x="1191" d="M162 -444v1527h262v-655q0 -102 15 -158t55 -77q35 -17 81 -9q114 5 193 127v772h262v-725q0 -183 51 -358l-241 -31q-32 57 -47 168q-44 -75 -111 -119.5t-137 -44.5q-110 0 -170 82q-1 0 -4 -1t-4 -1q47 -133 47 -280v-191z" />
<glyph unicode="&#xb6;" horiz-adv-x="1562" d="M156 987q0 191 137 309.5t389 118.5h643v-1837l-233 -22v1667h-199v-1645l-234 -22v1005q-242 3 -372.5 120.5t-130.5 305.5z" />
<glyph unicode="&#xb7;" horiz-adv-x="524" d="M96 682q0 68 48.5 116t117.5 48q70 0 118 -48t48 -116q0 -69 -48 -117.5t-118 -48.5q-69 0 -117.5 48.5t-48.5 117.5z" />
<glyph unicode="&#xb8;" horiz-adv-x="622" d="M55 -461l68 129q64 -33 133 -33q113 0 113 72q0 43 -44.5 59.5t-138.5 16.5l23 250h156v-139q100 -10 151 -61t51 -128q0 -101 -78.5 -162t-203.5 -61q-133 0 -230 57z" />
<glyph unicode="&#xba;" horiz-adv-x="1228" d="M182 1087q0 202 116.5 330.5t315.5 128.5q200 0 316.5 -127t116.5 -332q0 -208 -116.5 -334t-316.5 -126q-202 0 -317 124.5t-115 335.5zM207 0v195h815v-195h-815zM422 1087q0 -150 48.5 -219t143.5 -69q193 0 193 288q0 285 -193 285q-192 0 -192 -285z" />
<glyph unicode="&#xbb;" horiz-adv-x="1210" d="M92 170l266 424l-266 422l160 104l375 -442v-172l-375 -438zM584 170l266 424l-266 422l159 104l377 -442v-172l-377 -438z" />
<glyph unicode="&#xbf;" horiz-adv-x="1030" d="M92 -115q0 67 20.5 121.5t53 90t71.5 66t78.5 58.5t72 58t53 73.5t20.5 96.5v59h246v-72q0 -69 -19 -126t-49 -94.5t-66.5 -69t-73 -57t-66.5 -51t-49 -58.5t-19 -72q0 -69 46 -106.5t130 -37.5q141 0 256 136l172 -133q-182 -213 -451 -213q-104 0 -187 27.5t-134 74 t-78 105t-27 124.5zM414 870q0 69 47.5 117.5t116.5 48.5t117 -48.5t48 -117.5q0 -68 -48 -116.5t-117 -48.5t-116.5 48.5t-47.5 116.5z" />
<glyph unicode="&#xc0;" horiz-adv-x="1206" d="M-10 0l448 1415h334l445 -1415h-291l-90 328h-474l-90 -328h-282zM324 1731l122 202l416 -256l-78 -135zM414 532h370l-180 658h-8z" />
<glyph unicode="&#xc1;" horiz-adv-x="1206" d="M-10 0l448 1415h334l445 -1415h-291l-90 328h-474l-90 -328h-282zM334 1679l416 256l120 -204l-458 -187zM414 532h370l-180 658h-8z" />
<glyph unicode="&#xc2;" horiz-adv-x="1206" d="M-10 0l448 1415h334l445 -1415h-291l-90 328h-474l-90 -328h-282zM236 1657l284 248h164l285 -248l-101 -115l-266 170l-266 -170zM414 532h370l-180 658h-8z" />
<glyph unicode="&#xc3;" horiz-adv-x="1206" d="M-10 0l448 1415h334l445 -1415h-291l-90 328h-474l-90 -328h-282zM238 1653q37 95 100 154t151 59q44 0 81.5 -14.5t58.5 -31.5t45.5 -31.5t44.5 -14.5q33 0 55 20.5t49 67.5l144 -66q-39 -95 -102.5 -154t-149.5 -59q-42 0 -79.5 14.5t-59 31.5t-46.5 31.5t-45 14.5 q-33 0 -55 -20.5t-49 -67.5zM414 532h370l-180 658h-8z" />
<glyph unicode="&#xc4;" horiz-adv-x="1206" d="M-10 0l448 1415h334l445 -1415h-291l-90 328h-474l-90 -328h-282zM231 1704q0 60 43 100.5t103 40.5q62 0 103.5 -40.5t41.5 -100.5q0 -61 -41.5 -102t-103.5 -41q-61 0 -103.5 41t-42.5 102zM414 532h370l-180 658h-8zM684 1704q0 60 42.5 100.5t104.5 40.5 q60 0 103 -40.5t43 -100.5q0 -61 -42.5 -102t-103.5 -41q-62 0 -104.5 41t-42.5 102z" />
<glyph unicode="&#xc5;" horiz-adv-x="1206" d="M-10 0l448 1415h334l445 -1415h-291l-90 328h-474l-90 -328h-282zM342 1759q0 101 72.5 172.5t187.5 71.5q116 0 189 -71.5t73 -172.5q0 -104 -73 -176t-189 -72t-188 72t-72 176zM414 532h370l-180 658h-8zM502 1759q0 -52 27.5 -81t72.5 -29t72.5 29t27.5 81 q0 51 -27.5 79t-72.5 28t-72.5 -28t-27.5 -79z" />
<glyph unicode="&#xc6;" horiz-adv-x="1671" d="M-37 0l559 1415h1016l-31 -201h-589l92 -397h510v-201h-467l94 -415h471v-201h-694l-70 328h-487l-117 -328h-287zM434 532h383l-133 660h-10z" />
<glyph unicode="&#xc7;" horiz-adv-x="1175" d="M98 711q0 174 48 314.5t131.5 231.5t195 140t240.5 49q134 0 232.5 -37t189.5 -113l-140 -161q-120 102 -266 102q-75 0 -136 -29.5t-109 -90t-74.5 -164t-26.5 -242.5q0 -267 92.5 -396t247.5 -129q94 0 163.5 31.5t137.5 87.5l129 -164q-163 -159 -410 -170v-77 q101 -10 152 -61t51 -128q0 -101 -78.5 -162t-203.5 -61q-131 0 -232 57l70 129q64 -33 131 -33q115 0 115 72q0 44 -45 60t-140 16l19 199q-223 42 -353.5 230.5t-130.5 498.5z" />
<glyph unicode="&#xc8;" horiz-adv-x="1091" d="M172 0v1415h821l-28 -201h-521v-395h453v-201h-453v-415h557v-203h-829zM311 1731l123 202l416 -256l-78 -135z" />
<glyph unicode="&#xc9;" horiz-adv-x="1091" d="M172 0v1415h821l-28 -201h-521v-395h453v-201h-453v-415h557v-203h-829zM332 1677l416 256l120 -204l-458 -187z" />
<glyph unicode="&#xca;" horiz-adv-x="1091" d="M172 0v1415h821l-28 -201h-521v-395h453v-201h-453v-415h557v-203h-829zM213 1657l285 248h164l284 -248l-100 -115l-266 170l-267 -170z" />
<glyph unicode="&#xcb;" horiz-adv-x="1091" d="M172 0v1415h821l-28 -201h-521v-395h453v-201h-453v-415h557v-203h-829zM205 1704q0 60 42.5 100.5t102.5 40.5q62 0 104 -40.5t42 -100.5q0 -61 -42 -102t-104 -41q-61 0 -103 41t-42 102zM657 1704q0 60 43 100.5t105 40.5q60 0 102.5 -40.5t42.5 -100.5 q0 -61 -42 -102t-103 -41q-62 0 -105 41t-43 102z" />
<glyph unicode="&#xcc;" horiz-adv-x="616" d="M35 1731l123 202l415 -256l-77 -135zM172 0v1415h272v-1415h-272z" />
<glyph unicode="&#xcd;" horiz-adv-x="616" d="M39 1677l416 256l120 -204l-458 -187zM172 0v1415h272v-1415h-272z" />
<glyph unicode="&#xce;" horiz-adv-x="616" d="M-57 1657l284 248h164l285 -248l-101 -115l-266 170l-266 -170zM172 0v1415h272v-1415h-272z" />
<glyph unicode="&#xcf;" horiz-adv-x="616" d="M-63 1704q0 60 42.5 100.5t102.5 40.5q62 0 103.5 -40.5t41.5 -100.5q0 -61 -41.5 -102t-103.5 -41q-61 0 -103 41t-42 102zM172 0v1415h272v-1415h-272zM389 1704q0 60 43 100.5t105 40.5q60 0 102.5 -40.5t42.5 -100.5q0 -61 -42 -102t-103 -41q-62 0 -105 41t-43 102z " />
<glyph unicode="&#xd0;" horiz-adv-x="1347" d="M31 635v176h145v604h365q81 0 151.5 -8t144.5 -28.5t133.5 -54t113 -88t89.5 -126t57 -172t21 -223.5q0 -121 -21 -222t-56.5 -173.5t-87.5 -129t-110.5 -92t-129.5 -58t-139 -31.5t-144 -9h-387v635h-145zM449 203h137q65 0 118 13.5t103.5 48.5t84.5 91.5t54.5 147.5 t20.5 211q0 104 -14.5 184.5t-42 134t-61.5 89.5t-79 55t-88 26.5t-96 7.5h-137v-401h315v-176h-315v-432z" />
<glyph unicode="&#xd1;" horiz-adv-x="1384" d="M172 0v1415h346l477 -1139h9q-14 68 -26.5 214t-12.5 317v608h247v-1415h-354l-471 1135h-8q13 -64 27 -219.5t14 -311.5v-604h-248zM324 1653q37 95 100 154t151 59q44 0 81.5 -14.5t58.5 -31.5t45.5 -31.5t44.5 -14.5q33 0 55 20.5t49 67.5l144 -66 q-39 -95 -102.5 -154t-149.5 -59q-42 0 -79.5 14.5t-59 31.5t-46.5 31.5t-45 14.5q-33 0 -55 -20.5t-49 -67.5z" />
<glyph unicode="&#xd2;" horiz-adv-x="1421" d="M98 707q0 349 164.5 544t448.5 195q285 0 448.5 -192t163.5 -545q0 -349 -164 -544.5t-448 -195.5q-285 0 -449 192.5t-164 545.5zM383 707q0 -531 328 -531q161 0 244 126.5t83 406.5q0 279 -83.5 404.5t-243.5 125.5t-244 -126.5t-84 -405.5zM432 1731l123 202 l416 -256l-78 -135z" />
<glyph unicode="&#xd3;" horiz-adv-x="1421" d="M98 707q0 349 164.5 544t448.5 195q285 0 448.5 -192t163.5 -545q0 -349 -164 -544.5t-448 -195.5q-285 0 -449 192.5t-164 545.5zM383 707q0 -531 328 -531q161 0 244 126.5t83 406.5q0 279 -83.5 404.5t-243.5 125.5t-244 -126.5t-84 -405.5zM451 1677l415 256 l121 -204l-459 -187z" />
<glyph unicode="&#xd4;" horiz-adv-x="1421" d="M98 707q0 349 164.5 544t448.5 195q285 0 448.5 -192t163.5 -545q0 -349 -164 -544.5t-448 -195.5q-285 0 -449 192.5t-164 545.5zM344 1657l285 248h164l284 -248l-100 -115l-266 170l-267 -170zM383 707q0 -531 328 -531q161 0 244 126.5t83 406.5q0 279 -83.5 404.5 t-243.5 125.5t-244 -126.5t-84 -405.5z" />
<glyph unicode="&#xd5;" horiz-adv-x="1421" d="M98 707q0 349 164.5 544t448.5 195q285 0 448.5 -192t163.5 -545q0 -349 -164 -544.5t-448 -195.5q-285 0 -449 192.5t-164 545.5zM346 1653q37 95 100.5 154t151.5 59q44 0 81.5 -14.5t58 -31.5t45 -31.5t44.5 -14.5q33 0 55.5 20.5t49.5 67.5l143 -66 q-39 -95 -102.5 -154t-149.5 -59q-54 0 -97.5 23t-75 46t-56.5 23q-33 0 -55.5 -20.5t-49.5 -67.5zM383 707q0 -531 328 -531q161 0 244 126.5t83 406.5q0 279 -83.5 404.5t-243.5 125.5t-244 -126.5t-84 -405.5z" />
<glyph unicode="&#xd6;" horiz-adv-x="1421" d="M98 707q0 349 164.5 544t448.5 195q285 0 448.5 -192t163.5 -545q0 -349 -164 -544.5t-448 -195.5q-285 0 -449 192.5t-164 545.5zM338 1704q0 60 42.5 100.5t102.5 40.5q62 0 104 -40.5t42 -100.5q0 -61 -42 -102t-104 -41q-61 0 -103 41t-42 102zM383 707 q0 -531 328 -531q161 0 244 126.5t83 406.5q0 279 -83.5 404.5t-243.5 125.5t-244 -126.5t-84 -405.5zM791 1704q0 60 42.5 100.5t104.5 40.5q60 0 102.5 -40.5t42.5 -100.5q0 -61 -42 -102t-103 -41q-62 0 -104.5 41t-42.5 102z" />
<glyph unicode="&#xd8;" horiz-adv-x="1421" d="M98 707q0 349 164.5 544t448.5 195q50 0 108 -10l76 252l213 -58l-84 -264q143 -85 221 -252t78 -405q0 -349 -164 -544.5t-448 -195.5q-52 0 -109 13l-76 -256l-213 57l84 266q-143 83 -221 250t-78 408zM379 707q0 -336 123 -453l284 979q-30 6 -75 6 q-161 0 -246.5 -126.5t-85.5 -405.5zM635 184q31 -8 76 -8q162 0 246.5 127t84.5 406q0 337 -120 448z" />
<glyph unicode="&#xd9;" horiz-adv-x="1355" d="M152 467v948h272v-938q0 -151 61.5 -224t192.5 -73q130 0 193 73.5t63 223.5v938h272v-948q0 -109 -34.5 -200t-99.5 -157.5t-166 -103.5t-228 -37q-256 0 -391 135t-135 363zM389 1731l123 202l416 -256l-78 -135z" />
<glyph unicode="&#xda;" horiz-adv-x="1355" d="M152 467v948h272v-938q0 -151 61.5 -224t192.5 -73q130 0 193 73.5t63 223.5v938h272v-948q0 -109 -34.5 -200t-99.5 -157.5t-166 -103.5t-228 -37q-256 0 -391 135t-135 363zM420 1677l416 256l120 -204l-458 -187z" />
<glyph unicode="&#xdb;" horiz-adv-x="1355" d="M152 467v948h272v-938q0 -151 61.5 -224t192.5 -73q130 0 193 73.5t63 223.5v938h272v-948q0 -109 -34.5 -200t-99.5 -157.5t-166 -103.5t-228 -37q-256 0 -391 135t-135 363zM313 1657l285 248h164l285 -248l-101 -115l-266 170l-266 -170z" />
<glyph unicode="&#xdc;" horiz-adv-x="1355" d="M152 467v948h272v-938q0 -151 61.5 -224t192.5 -73q130 0 193 73.5t63 223.5v938h272v-948q0 -109 -34.5 -200t-99.5 -157.5t-166 -103.5t-228 -37q-256 0 -391 135t-135 363zM305 1704q0 60 43 100.5t103 40.5q62 0 103.5 -40.5t41.5 -100.5q0 -61 -41.5 -102 t-103.5 -41q-61 0 -103.5 41t-42.5 102zM758 1704q0 60 42.5 100.5t104.5 40.5q60 0 103 -40.5t43 -100.5q0 -61 -42.5 -102t-103.5 -41q-62 0 -104.5 41t-42.5 102z" />
<glyph unicode="&#xdd;" horiz-adv-x="1175" d="M-4 1415h299l295 -649h8l295 649h287l-457 -878v-537h-272v535zM332 1677l416 256l120 -204l-458 -187z" />
<glyph unicode="&#xde;" horiz-adv-x="1218" d="M172 0v1415h272v-233h150q279 0 429.5 -114t150.5 -343q0 -241 -146.5 -359t-409.5 -118h-174v-248h-272zM444 451h172q132 0 202.5 62.5t70.5 209.5q0 260 -281 260h-164v-532z" />
<glyph unicode="&#xdf;" horiz-adv-x="1230" d="M162 0v1090q0 220 118 338t336 118q181 0 288.5 -87t107.5 -222q0 -53 -22.5 -98t-54 -75t-63.5 -57t-54.5 -58.5t-22.5 -65.5q0 -33 22 -63t56.5 -55.5t77 -53t84.5 -61.5t76.5 -75t56.5 -101t22 -132q0 -174 -115.5 -273.5t-290.5 -99.5q-150 0 -264 68l90 176 q70 -39 144 -39q79 0 122.5 42.5t43.5 121.5q0 49 -20 89.5t-51.5 69t-70 55t-77.5 54t-70.5 58.5t-51.5 76t-20 100q0 57 21 101.5t50.5 74t59.5 56.5t51 62t21 78q0 58 -36.5 100t-113.5 42q-95 0 -141.5 -61t-46.5 -191v-1102h-262z" />
<glyph unicode="&#xe0;" horiz-adv-x="1120" d="M63 309q0 172 133.5 265.5t381.5 93.5h133v61q0 101 -49.5 142.5t-165.5 41.5q-126 0 -283 -55l-63 180q204 76 385 76q224 0 327 -93t103 -276v-464q0 -60 17 -89.5t58 -44.5l-57 -174q-176 15 -233 146q-57 -75 -143 -112.5t-187 -37.5q-164 0 -260.5 93t-96.5 247z M279 1464l120 203l416 -272l-80 -135zM344 324q0 -164 158 -164q128 0 209 133v217h-93q-147 0 -210.5 -46.5t-63.5 -139.5z" />
<glyph unicode="&#xe1;" horiz-adv-x="1120" d="M63 309q0 172 133.5 265.5t381.5 93.5h133v61q0 101 -49.5 142.5t-165.5 41.5q-126 0 -283 -55l-63 180q204 76 385 76q224 0 327 -93t103 -276v-464q0 -60 17 -89.5t58 -44.5l-57 -174q-176 15 -233 146q-57 -75 -143 -112.5t-187 -37.5q-164 0 -260.5 93t-96.5 247z M285 1395l415 270l121 -203l-454 -202zM344 324q0 -164 158 -164q128 0 209 133v217h-93q-147 0 -210.5 -46.5t-63.5 -139.5z" />
<glyph unicode="&#xe2;" horiz-adv-x="1120" d="M63 309q0 172 133.5 265.5t381.5 93.5h133v61q0 101 -49.5 142.5t-165.5 41.5q-126 0 -283 -55l-63 180q204 76 385 76q224 0 327 -93t103 -276v-464q0 -60 17 -89.5t58 -44.5l-57 -174q-176 15 -233 146q-57 -75 -143 -112.5t-187 -37.5q-164 0 -260.5 93t-96.5 247z M184 1380l285 269h164l285 -269l-103 -114l-264 190l-264 -190zM344 324q0 -164 158 -164q128 0 209 133v217h-93q-147 0 -210.5 -46.5t-63.5 -139.5z" />
<glyph unicode="&#xe3;" horiz-adv-x="1120" d="M63 309q0 172 133.5 265.5t381.5 93.5h133v61q0 101 -49.5 142.5t-165.5 41.5q-126 0 -283 -55l-63 180q204 76 385 76q224 0 327 -93t103 -276v-464q0 -60 17 -89.5t58 -44.5l-57 -174q-176 15 -233 146q-57 -75 -143 -112.5t-187 -37.5q-164 0 -260.5 93t-96.5 247z M190 1384q37 94 100.5 153.5t151.5 59.5q43 0 80.5 -14.5t59 -32.5t46 -32.5t44.5 -14.5q32 0 54.5 20.5t49.5 67.5l142 -65q-38 -94 -101.5 -154.5t-150.5 -60.5q-42 0 -79 15t-58.5 33t-46 33t-44.5 15q-33 0 -55.5 -21t-50.5 -69zM344 324q0 -164 158 -164q128 0 209 133 v217h-93q-147 0 -210.5 -46.5t-63.5 -139.5z" />
<glyph unicode="&#xe4;" horiz-adv-x="1120" d="M63 309q0 172 133.5 265.5t381.5 93.5h133v61q0 101 -49.5 142.5t-165.5 41.5q-126 0 -283 -55l-63 180q204 76 385 76q224 0 327 -93t103 -276v-464q0 -60 17 -89.5t58 -44.5l-57 -174q-176 15 -233 146q-57 -75 -143 -112.5t-187 -37.5q-164 0 -260.5 93t-96.5 247z M184 1456q0 60 42 100.5t104 40.5t103.5 -40.5t41.5 -100.5t-41.5 -100.5t-103.5 -40.5t-104 40.5t-42 100.5zM344 324q0 -164 158 -164q128 0 209 133v217h-93q-147 0 -210.5 -46.5t-63.5 -139.5zM639 1456q0 60 41.5 100.5t101.5 40.5q63 0 104.5 -40.5t41.5 -100.5 t-41.5 -100.5t-104.5 -40.5q-60 0 -101.5 40.5t-41.5 100.5z" />
<glyph unicode="&#xe5;" horiz-adv-x="1120" d="M63 309q0 172 133.5 265.5t381.5 93.5h133v61q0 101 -49.5 142.5t-165.5 41.5q-126 0 -283 -55l-63 180q204 76 385 76q224 0 327 -93t103 -276v-464q0 -60 17 -89.5t58 -44.5l-57 -174q-176 15 -233 146q-57 -75 -143 -112.5t-187 -37.5q-164 0 -260.5 93t-96.5 247z M293 1491q0 104 72 175t188 71t189 -71t73 -175q0 -102 -73 -174t-189 -72t-188 71.5t-72 174.5zM344 324q0 -164 158 -164q128 0 209 133v217h-93q-147 0 -210.5 -46.5t-63.5 -139.5zM455 1491q0 -52 26.5 -79.5t71.5 -27.5q47 0 73.5 27.5t26.5 79.5t-27 80t-73 28 q-45 0 -71.5 -28t-26.5 -80z" />
<glyph unicode="&#xe6;" horiz-adv-x="1722" d="M63 309q0 172 133 263.5t382 91.5h133v65q0 100 -50 142t-165 42q-126 0 -283 -55l-63 180q204 76 385 76q245 0 327 -158q113 158 316 158q219 0 340.5 -145t121.5 -402q0 -55 -6 -98h-680q12 -152 81.5 -223.5t185.5 -71.5q136 0 264 98l112 -161q-176 -142 -391 -142 q-259 0 -389 181q-128 -181 -379 -181q-176 0 -275.5 93.5t-99.5 246.5zM342 324q0 -164 162 -164q143 0 227 155q-20 81 -20 191h-49q-177 0 -248.5 -41.5t-71.5 -140.5zM954 635h428q-5 143 -55 215t-156 72q-197 0 -217 -287z" />
<glyph unicode="&#xe7;" horiz-adv-x="983" d="M88 537q0 256 136.5 416.5t377.5 160.5q203 0 350 -127l-118 -160q-105 80 -220 80q-247 0 -247 -370q0 -189 62.5 -272t182.5 -83q106 0 219 84l121 -172q-137 -111 -313 -123v-77q101 -10 153 -61t52 -128q0 -101 -80 -162t-205 -61q-132 0 -229 57l67 129 q64 -33 133 -33q113 0 113 72q0 44 -44 60t-138 16l18 201q-189 36 -290 182t-101 371z" />
<glyph unicode="&#xe8;" horiz-adv-x="1126" d="M88 541q0 164 55.5 292.5t167.5 204.5t264 76q222 0 347 -145t125 -402q0 -5 -7 -106h-680q15 -149 84.5 -221t182.5 -72q138 0 262 100l112 -157q-172 -142 -391 -142q-170 0 -289 73.5t-176 200.5t-57 298zM305 1464l121 203l416 -272l-80 -135zM358 631h428 q-2 146 -50.5 221.5t-157.5 75.5q-96 0 -153 -73.5t-67 -223.5z" />
<glyph unicode="&#xe9;" horiz-adv-x="1126" d="M88 541q0 164 55.5 292.5t167.5 204.5t264 76q222 0 347 -145t125 -402q0 -5 -7 -106h-680q15 -149 84.5 -221t182.5 -72q138 0 262 100l112 -157q-172 -142 -391 -142q-170 0 -289 73.5t-176 200.5t-57 298zM311 1395l416 270l121 -203l-455 -202zM358 631h428 q-2 146 -50.5 221.5t-157.5 75.5q-96 0 -153 -73.5t-67 -223.5z" />
<glyph unicode="&#xea;" horiz-adv-x="1126" d="M88 541q0 164 55.5 292.5t167.5 204.5t264 76q222 0 347 -145t125 -402q0 -5 -7 -106h-680q15 -149 84.5 -221t182.5 -72q138 0 262 100l112 -157q-172 -142 -391 -142q-170 0 -289 73.5t-176 200.5t-57 298zM213 1380l285 269h164l284 -269l-102 -114l-264 190 l-265 -190zM358 631h428q-2 146 -50.5 221.5t-157.5 75.5q-96 0 -153 -73.5t-67 -223.5z" />
<glyph unicode="&#xeb;" horiz-adv-x="1126" d="M88 541q0 164 55.5 292.5t167.5 204.5t264 76q222 0 347 -145t125 -402q0 -5 -7 -106h-680q15 -149 84.5 -221t182.5 -72q138 0 262 100l112 -157q-172 -142 -391 -142q-170 0 -289 73.5t-176 200.5t-57 298zM207 1456q0 60 41.5 100.5t103.5 40.5t104 -40.5t42 -100.5 t-42 -100.5t-104 -40.5t-103.5 40.5t-41.5 100.5zM358 631h428q-2 146 -50.5 221.5t-157.5 75.5q-96 0 -153 -73.5t-67 -223.5zM662 1456q0 60 41.5 100.5t101.5 40.5q63 0 104 -40.5t41 -100.5t-41 -100.5t-104 -40.5q-60 0 -101.5 40.5t-41.5 100.5z" />
<glyph unicode="&#xec;" horiz-adv-x="573" d="M18 1464l121 203l416 -272l-80 -135zM156 0v1083h262v-1083h-262z" />
<glyph unicode="&#xed;" horiz-adv-x="573" d="M20 1395l416 270l121 -203l-455 -202zM156 0v1083h262v-1083h-262z" />
<glyph unicode="&#xee;" horiz-adv-x="573" d="M-80 1380l285 269h164l284 -269l-102 -114l-264 190l-264 -190zM156 0v1083h262v-1083h-262z" />
<glyph unicode="&#xef;" horiz-adv-x="573" d="M-86 1456q0 60 41.5 100.5t103.5 40.5t104 -40.5t42 -100.5t-42 -100.5t-104 -40.5t-103.5 40.5t-41.5 100.5zM156 0v1083h262v-1083h-262zM369 1456q0 60 41.5 100.5t101.5 40.5q63 0 104 -40.5t41 -100.5t-41 -100.5t-104 -40.5q-60 0 -101.5 40.5t-41.5 100.5z" />
<glyph unicode="&#xf0;" horiz-adv-x="1171" d="M88 479q0 111 34.5 206.5t92.5 160.5t134 102t159 37q167 0 272 -102l6 2q-58 212 -217 332l-133 -136l-170 80l135 146q-97 38 -198 57l53 180q174 -32 295 -84l145 154l142 -123l-117 -119q187 -125 271.5 -325.5t84.5 -491.5q0 -170 -60 -302.5t-174.5 -208 t-267.5 -75.5q-211 0 -349 137t-138 373zM356 487q0 -159 58.5 -240t160.5 -81q114 0 176 93.5t62 275.5q0 73 -6 141q-87 119 -238 119q-95 0 -154 -78t-59 -230z" />
<glyph unicode="&#xf1;" horiz-adv-x="1193" d="M162 0v1083h227l19 -135q68 81 156 123.5t184 42.5q148 0 221 -83t73 -238v-793h-262v766q0 81 -31.5 116.5t-101.5 35.5q-114 0 -223 -152v-766h-262zM248 1384q37 94 100.5 153.5t151.5 59.5q43 0 80.5 -14.5t58.5 -32.5t45.5 -32.5t44.5 -14.5q32 0 55 21t50 67 l141 -65q-38 -94 -101.5 -154.5t-150.5 -60.5q-42 0 -79 15t-58 33t-45.5 33t-44.5 15q-33 0 -56.5 -21.5t-50.5 -68.5z" />
<glyph unicode="&#xf2;" horiz-adv-x="1198" d="M88 543q0 258 137 414.5t375 156.5q239 0 373.5 -154.5t134.5 -416.5q0 -264 -135.5 -419t-374.5 -155q-240 0 -375 153t-135 421zM324 1464l120 203l416 -272l-80 -135zM362 543q0 -375 236 -375q118 0 177 91t59 284q0 372 -234 372q-238 0 -238 -372z" />
<glyph unicode="&#xf3;" horiz-adv-x="1198" d="M88 543q0 258 137 414.5t375 156.5q239 0 373.5 -154.5t134.5 -416.5q0 -264 -135.5 -419t-374.5 -155q-240 0 -375 153t-135 421zM334 1395l416 270l120 -203l-454 -202zM362 543q0 -375 236 -375q118 0 177 91t59 284q0 372 -234 372q-238 0 -238 -372z" />
<glyph unicode="&#xf4;" horiz-adv-x="1198" d="M88 543q0 258 137 414.5t375 156.5q239 0 373.5 -154.5t134.5 -416.5q0 -264 -135.5 -419t-374.5 -155q-240 0 -375 153t-135 421zM231 1380l285 269h164l285 -269l-103 -114l-264 190l-264 -190zM362 543q0 -375 236 -375q118 0 177 91t59 284q0 372 -234 372 q-238 0 -238 -372z" />
<glyph unicode="&#xf5;" horiz-adv-x="1198" d="M88 543q0 258 137 414.5t375 156.5q239 0 373.5 -154.5t134.5 -416.5q0 -264 -135.5 -419t-374.5 -155q-240 0 -375 153t-135 421zM236 1384q38 94 101 153.5t150 59.5q43 0 80.5 -14.5t59 -32.5t46 -32.5t44.5 -14.5q32 0 54.5 20.5t49.5 67.5l142 -65 q-38 -94 -101.5 -154.5t-150.5 -60.5q-42 0 -79 15t-58.5 33t-46 33t-44.5 15q-33 0 -55.5 -21t-50.5 -69zM362 543q0 -375 236 -375q118 0 177 91t59 284q0 372 -234 372q-238 0 -238 -372z" />
<glyph unicode="&#xf6;" horiz-adv-x="1198" d="M88 543q0 258 137 414.5t375 156.5q239 0 373.5 -154.5t134.5 -416.5q0 -264 -135.5 -419t-374.5 -155q-240 0 -375 153t-135 421zM227 1456q0 60 42 100.5t104 40.5t103.5 -40.5t41.5 -100.5t-41.5 -100.5t-103.5 -40.5t-104 40.5t-42 100.5zM362 543q0 -375 236 -375 q118 0 177 91t59 284q0 372 -234 372q-238 0 -238 -372zM682 1456q0 60 41.5 100.5t101.5 40.5q63 0 104.5 -40.5t41.5 -100.5t-41.5 -100.5t-104.5 -40.5q-60 0 -101.5 40.5t-41.5 100.5z" />
<glyph unicode="&#xf7;" d="M104 543v209h836v-209h-836zM356 223q0 68 48.5 117t117.5 49t117.5 -49t48.5 -117q0 -69 -48.5 -117.5t-117.5 -48.5t-117.5 48.5t-48.5 117.5zM356 1071q0 68 48.5 116t117.5 48t117.5 -48t48.5 -116q0 -69 -48.5 -117.5t-117.5 -48.5t-117.5 48.5t-48.5 117.5z" />
<glyph unicode="&#xf8;" horiz-adv-x="1198" d="M88 543q0 256 137 413.5t375 157.5q28 0 78 -8l78 244l198 -58l-82 -252q113 -69 174.5 -197.5t61.5 -299.5q0 -262 -135.5 -418t-374.5 -156q-45 0 -78 8l-78 -251l-198 57l82 254q-115 68 -176.5 198t-61.5 308zM358 543q0 -221 76 -303l213 671q-16 2 -51 2 q-119 0 -178.5 -90.5t-59.5 -279.5zM555 172q24 -4 49 -4q117 0 175.5 91t58.5 284q0 210 -74 293z" />
<glyph unicode="&#xf9;" horiz-adv-x="1181" d="M152 299v784h262v-751q0 -35 4.5 -61t16 -50t36 -36.5t61.5 -12.5q130 0 226 135v776h262v-1083h-227l-15 135q-59 -81 -144.5 -123.5t-182.5 -42.5q-152 0 -225.5 86t-73.5 244zM303 1464l121 203l416 -272l-80 -135z" />
<glyph unicode="&#xfa;" horiz-adv-x="1181" d="M152 299v784h262v-751q0 -35 4.5 -61t16 -50t36 -36.5t61.5 -12.5q130 0 226 135v776h262v-1083h-227l-15 135q-59 -81 -144.5 -123.5t-182.5 -42.5q-152 0 -225.5 86t-73.5 244zM342 1395l416 270l121 -203l-455 -202z" />
<glyph unicode="&#xfb;" horiz-adv-x="1181" d="M152 299v784h262v-751q0 -35 4.5 -61t16 -50t36 -36.5t61.5 -12.5q130 0 226 135v776h262v-1083h-227l-15 135q-59 -81 -144.5 -123.5t-182.5 -42.5q-152 0 -225.5 86t-73.5 244zM219 1380l285 269h164l284 -269l-102 -114l-264 190l-264 -190z" />
<glyph unicode="&#xfc;" horiz-adv-x="1181" d="M152 299v784h262v-751q0 -35 4.5 -61t16 -50t36 -36.5t61.5 -12.5q130 0 226 135v776h262v-1083h-227l-15 135q-59 -81 -144.5 -123.5t-182.5 -42.5q-152 0 -225.5 86t-73.5 244zM215 1456q0 60 41.5 100.5t103.5 40.5t104 -40.5t42 -100.5t-42 -100.5t-104 -40.5 t-103.5 40.5t-41.5 100.5zM670 1456q0 60 41.5 100.5t101.5 40.5q63 0 104 -40.5t41 -100.5t-41 -100.5t-104 -40.5q-60 0 -101.5 40.5t-41.5 100.5z" />
<glyph unicode="&#xfd;" horiz-adv-x="1036" d="M4 1083h279l229 -893h8l240 893h270l-350 -1087q-65 -200 -198 -312.5t-361 -129.5l-33 190q158 24 231.5 81t114.5 175h-88zM276 1395l416 270l121 -203l-455 -202z" />
<glyph unicode="&#xfe;" horiz-adv-x="1216" d="M162 -446v1964l262 28v-585q54 72 131.5 112.5t163.5 40.5q106 0 184 -40t126.5 -115.5t71.5 -178.5t23 -235q0 -167 -49.5 -296.5t-147.5 -204.5t-231 -75q-171 0 -272 119v-506zM424 283q73 -113 197 -113q229 0 229 373q0 199 -52.5 287t-156.5 88q-64 0 -119.5 -40.5 t-97.5 -105.5v-489z" />
<glyph unicode="&#xff;" horiz-adv-x="1036" d="M4 1083h279l229 -893h8l240 893h270l-350 -1087q-65 -200 -198 -312.5t-361 -129.5l-33 190q158 24 231.5 81t114.5 175h-88zM150 1456q0 60 41.5 100.5t103.5 40.5t103.5 -40.5t41.5 -100.5t-41.5 -100.5t-103.5 -40.5t-103.5 40.5t-41.5 100.5zM604 1456q0 60 42 100.5 t102 40.5q63 0 104 -40.5t41 -100.5t-41 -100.5t-104 -40.5q-60 0 -102 40.5t-42 100.5z" />
<glyph unicode="&#x131;" horiz-adv-x="573" d="M156 0v1083h262v-1083h-262z" />
<glyph unicode="&#x152;" horiz-adv-x="1900" d="M121 707q0 346 165.5 542.5t438.5 196.5q104 0 195 -31h882l-28 -201h-600q104 -138 122 -397h410v-201h-410q-12 -268 -127 -415h641v-201h-897q-88 -31 -188 -31q-276 0 -440 193.5t-164 544.5zM408 707q0 -276 84.5 -403.5t232.5 -127.5q163 0 235 123.5t72 409.5 q0 283 -75 405.5t-232 122.5q-317 0 -317 -530z" />
<glyph unicode="&#x153;" horiz-adv-x="1847" d="M88 543q0 258 136 414.5t370 156.5q252 0 367 -199q53 91 139.5 145t202.5 54q220 0 342 -144.5t122 -402.5q0 -19 -6 -106h-680q15 -149 84.5 -221t182.5 -72q138 0 262 100l112 -157q-172 -142 -391 -142q-260 0 -377 193q-121 -193 -360 -193q-237 0 -371.5 153 t-134.5 421zM365 543q0 -193 57 -283t174 -90t176 90.5t59 282.5q0 191 -59 280.5t-176 89.5t-174 -90t-57 -280zM1079 631h428q-3 297 -209 297q-199 0 -219 -297z" />
<glyph unicode="&#x178;" horiz-adv-x="1175" d="M-4 1415h299l295 -649h8l295 649h287l-457 -878v-537h-272v535zM217 1704q0 60 42.5 100.5t102.5 40.5q62 0 104 -40.5t42 -100.5q0 -61 -42 -102t-104 -41q-61 0 -103 41t-42 102zM670 1704q0 60 42.5 100.5t104.5 40.5q60 0 103 -40.5t43 -100.5q0 -61 -42.5 -102 t-103.5 -41q-62 0 -104.5 41t-42.5 102z" />
<glyph unicode="&#x192;" horiz-adv-x="714" d="M-25 -256q60 29 94.5 52t66 60.5t44.5 91.5t13 132v815h-170v188h170v119q0 152 98.5 248t281.5 96q150 0 289 -63l-76 -176q-90 41 -182 41q-84 0 -117.5 -36t-33.5 -116v-113h260l-29 -188h-231v-784q0 -102 -17.5 -181.5t-47.5 -136t-80.5 -101.5t-106 -75.5 t-133.5 -60.5z" />
<glyph unicode="&#x2c6;" horiz-adv-x="841" d="M55 1421l285 252h164l282 -252l-98 -112l-266 172l-266 -172z" />
<glyph unicode="&#x2c7;" horiz-adv-x="841" d="M55 1563l101 114l266 -174l266 174l98 -114l-282 -252h-164z" />
<glyph unicode="&#x2d8;" horiz-adv-x="776" d="M55 1622l154 29q45 -152 176 -152q137 0 182 152l154 -29q-6 -60 -30 -114.5t-64.5 -98.5t-103 -70t-138.5 -26t-137 26t-100.5 70.5t-63 98.5t-29.5 114z" />
<glyph unicode="&#x2d9;" horiz-adv-x="438" d="M55 1493q0 68 45.5 113t118.5 45q72 0 118 -45t46 -113t-46 -113t-118 -45q-73 0 -118.5 45t-45.5 113z" />
<glyph unicode="&#x2da;" horiz-adv-x="630" d="M55 1526q0 104 72 175t188 71t189.5 -71t73.5 -175q0 -102 -73.5 -174t-189.5 -72t-188 71.5t-72 174.5zM217 1526q0 -52 26.5 -79.5t71.5 -27.5q46 0 73.5 28t27.5 79q0 52 -27 80t-74 28q-45 0 -71.5 -28t-26.5 -80z" />
<glyph unicode="&#x2db;" horiz-adv-x="608" d="M55 -272q0 103 91.5 192t246.5 135l113 -20q-258 -113 -258 -287q0 -47 29 -75.5t88 -28.5q73 0 131 30l57 -135q-92 -51 -215 -51q-132 0 -207.5 64.5t-75.5 175.5z" />
<glyph unicode="&#x2dc;" horiz-adv-x="835" d="M55 1421q37 95 99.5 154t150.5 59q43 0 80 -14.5t58 -31.5t46 -31.5t46 -14.5q33 0 55 20.5t49 67.5l141 -65q-37 -95 -100.5 -154t-151.5 -59q-54 0 -97 23t-74 46t-56 23q-33 0 -55 -20.5t-49 -67.5z" />
<glyph unicode="&#x2dd;" horiz-adv-x="843" d="M55 1401l176 377l197 -90l-223 -349zM403 1403l195 375l193 -99l-242 -344z" />
<glyph unicode="&#x3a9;" horiz-adv-x="1443" d="M109 750q0 316 167.5 506t446.5 190q278 0 445 -190.5t167 -505.5q0 -203 -71 -339t-203 -202v-8h244v-201h-490v205q122 46 178 177t56 368q0 489 -326 489q-328 0 -328 -489q0 -237 56.5 -368t179.5 -177v-205h-492v201h242v8q-131 66 -201.5 202t-70.5 339z" />
<glyph unicode="&#x3c0;" horiz-adv-x="1273" d="M66 885v198h796q202 0 342 35l31 -203q-81 -22 -186 -28v-555q0 -65 22.5 -102.5t73.5 -61.5l-84 -199q-126 27 -200.5 107t-74.5 223v586h-305v-885h-262v885h-153z" />
<glyph unicode="&#x401;" horiz-adv-x="1091" d="M172 0v1415h821l-28 -201h-521v-395h453v-201h-453v-415h557v-203h-829zM207 1704q0 60 42.5 100.5t102.5 40.5q62 0 104 -40.5t42 -100.5q0 -61 -42 -102t-104 -41q-61 0 -103 41t-42 102zM659 1704q0 60 43 100.5t105 40.5q60 0 102.5 -40.5t42.5 -100.5 q0 -61 -42 -102t-103 -41q-62 0 -105 41t-43 102z" />
<glyph unicode="&#x402;" horiz-adv-x="1509" d="M25 1202v213h1052l-28 -213h-367v-371q146 115 328 115q438 0 438 -489v-250q0 -96 -21.5 -173.5t-56.5 -131t-90 -97t-112.5 -71.5t-133.5 -53l-69 198q68 27 109.5 57t64 72.5t30 89t7.5 119.5v234q0 153 -53 218.5t-185 65.5q-152 0 -256 -88v-647h-272v1202h-385z " />
<glyph unicode="&#x403;" horiz-adv-x="1032" d="M172 0v1415h852l-27 -219h-553v-1196h-272zM348 1677l416 256l121 -204l-459 -187z" />
<glyph unicode="&#x404;" horiz-adv-x="1183" d="M98 711q0 174 48 314.5t131.5 231.5t195 140t240.5 49q133 0 232 -37t190 -113l-138 -157q-125 104 -270 104q-142 0 -237 -102.5t-111 -313.5h545v-202h-547q10 -223 105 -335t245 -112q93 0 162 32.5t137 90.5l127 -160q-180 -172 -442 -172q-135 0 -247.5 49t-194 141 t-126.5 233.5t-45 318.5z" />
<glyph unicode="&#x405;" horiz-adv-x="1144" d="M29 164l145 160q159 -146 365 -146q117 0 189.5 55.5t72.5 155.5q0 88 -58 138.5t-219 101.5q-229 69 -328.5 167.5t-99.5 258.5q0 177 137.5 284t348.5 107q151 0 262 -43t205 -131l-138 -156q-137 123 -311 123q-101 0 -162 -43.5t-61 -124.5q0 -78 56.5 -122 t230.5 -99q81 -26 139.5 -51.5t114 -63t90 -82t55 -107.5t20.5 -140q0 -195 -143.5 -316t-390.5 -121q-322 0 -520 195z" />
<glyph unicode="&#x406;" horiz-adv-x="616" d="M172 0v1415h272v-1415h-272z" />
<glyph unicode="&#x407;" horiz-adv-x="616" d="M-66 1704q0 60 43 100.5t103 40.5q62 0 103.5 -40.5t41.5 -100.5q0 -61 -41.5 -102t-103.5 -41q-61 0 -103.5 41t-42.5 102zM172 0v1415h272v-1415h-272zM387 1704q0 60 43 100.5t105 40.5q60 0 102.5 -40.5t42.5 -100.5q0 -61 -42 -102t-103 -41q-62 0 -105 41t-43 102z " />
<glyph unicode="&#x408;" horiz-adv-x="624" d="M-23 -119q68 27 110 57t65 72t30.5 88.5t7.5 118.5v1198h273v-1208q0 -96 -21.5 -173.5t-57 -131t-90.5 -97t-112.5 -71.5t-132.5 -53z" />
<glyph unicode="&#x409;" horiz-adv-x="1884" d="M0 152q50 37 79.5 71.5t56.5 87.5t47.5 143.5t40 212t44.5 320.5l54 428h821v-495h129q274 0 422.5 -111.5t148.5 -337.5q0 -122 -40.5 -213.5t-115 -147t-174.5 -83t-225 -27.5h-418v1204h-315l-27 -241q-19 -182 -37 -306.5t-43 -229.5t-53 -171.5t-70.5 -122.5 t-92 -93t-121.5 -73zM1143 205h139q135 0 206 60.5t71 203.5q0 250 -283 250h-133v-514z" />
<glyph unicode="&#x40a;" horiz-adv-x="1921" d="M172 0v1415h272v-524h465v524h273v-524h129q569 0 569 -434q0 -119 -40.5 -208t-115.5 -143t-174.5 -80t-224.5 -26h-416v692h-465v-692h-272zM1182 205h139q134 0 204 56t70 194q0 128 -71.5 182.5t-210.5 54.5h-131v-487z" />
<glyph unicode="&#x40b;" horiz-adv-x="1509" d="M25 1202v213h1052l-28 -213h-367v-371q146 115 328 115q438 0 438 -489v-457h-272v451q0 153 -53 218.5t-185 65.5q-152 0 -256 -88v-647h-272v1202h-385z" />
<glyph unicode="&#x40c;" horiz-adv-x="1251" d="M172 0v1415h272v-571h129l375 571h275l-424 -651l463 -764h-308l-379 637h-131v-637h-272zM424 1677l416 256l121 -204l-459 -187z" />
<glyph unicode="&#x40e;" horiz-adv-x="1181" d="M6 1415h281l331 -862h9l288 862h275l-387 -1012q-84 -218 -208.5 -314t-363.5 -120l-36 195q108 13 176 41t104.5 68t69.5 108h-96zM256 1819l154 28q42 -121 184 -121q144 0 186 121l156 -28q-15 -114 -103.5 -193.5t-238.5 -79.5q-149 0 -237 79.5t-101 193.5z" />
<glyph unicode="&#x40f;" horiz-adv-x="1370" d="M172 0v1415h272v-1200h482v1200h272v-1415h-403v-326h-199l-33 326h-391z" />
<glyph unicode="&#x410;" horiz-adv-x="1206" d="M-10 0l448 1415h334l445 -1415h-291l-90 328h-474l-90 -328h-282zM414 532h370l-180 658h-8z" />
<glyph unicode="&#x411;" horiz-adv-x="1210" d="M172 0v1415h852l-25 -211h-555v-315h160q269 0 414 -107.5t145 -326.5q0 -103 -30.5 -182t-84 -130.5t-132.5 -83.5t-168.5 -45.5t-200.5 -13.5h-375zM444 203h160q275 0 275 250q0 121 -73 180t-206 59h-156v-489z" />
<glyph unicode="&#x412;" horiz-adv-x="1280" d="M172 0v1415h432q86 0 160 -10.5t143 -36t117 -66t77 -103.5t29 -144q0 -121 -73 -198.5t-172 -100.5v-8q45 -9 85.5 -23.5t82 -41.5t71 -62.5t48 -90t18.5 -120.5q0 -93 -31 -165t-83 -117.5t-125.5 -75t-152 -41t-169.5 -11.5h-457zM444 203h189q274 0 274 213 q0 124 -69 176.5t-193 52.5h-201v-442zM444 834h181q117 0 173 47.5t56 150.5q0 96 -61 140.5t-181 44.5h-168v-383z" />
<glyph unicode="&#x413;" horiz-adv-x="1032" d="M172 0v1415h852l-27 -219h-553v-1196h-272z" />
<glyph unicode="&#x414;" horiz-adv-x="1310" d="M-16 213h100q68 74 101.5 217t86.5 557l54 428h798v-1202h121v-539h-196l-35 326h-801l-33 -326h-196v539zM315 213h543v995h-301l-20 -211q-37 -379 -82.5 -540.5t-139.5 -243.5z" />
<glyph unicode="&#x415;" horiz-adv-x="1091" d="M172 0v1415h821l-28 -201h-521v-395h453v-201h-453v-415h557v-203h-829z" />
<glyph unicode="&#x416;" horiz-adv-x="1775" d="M-4 0l401 764l-362 651h276l307 -573h144v573h252v-573h143l311 573h273l-363 -651l402 -764h-301l-320 639h-145v-639h-252v639h-148l-323 -639h-295z" />
<glyph unicode="&#x417;" horiz-adv-x="1105" d="M12 166l156 145q122 -131 305 -131q123 0 193.5 63t70.5 173q0 120 -70.5 177.5t-195.5 57.5h-162l31 205h127q103 0 168 50t65 147q0 90 -62 139t-165 49q-157 0 -289 -117l-137 150q187 172 453 172q214 0 345.5 -102.5t131.5 -258.5q0 -127 -76 -209.5t-207 -109.5v-8 q142 -11 235 -104t93 -246q0 -193 -146.5 -316t-390.5 -123q-300 0 -473 197z" />
<glyph unicode="&#x418;" horiz-adv-x="1376" d="M172 0v1415h268v-493q0 -366 -39 -637h9l462 1130h332v-1415h-268v489q0 349 39 637h-8l-457 -1126h-338z" />
<glyph unicode="&#x419;" horiz-adv-x="1376" d="M172 0v1415h268v-493q0 -366 -39 -637h9l462 1130h332v-1415h-268v489q0 349 39 637h-8l-457 -1126h-338zM348 1819l154 28q42 -121 184 -121q144 0 186 121l156 -28q-15 -114 -103.5 -193.5t-238.5 -79.5q-149 0 -237 79.5t-101 193.5z" />
<glyph unicode="&#x41a;" horiz-adv-x="1251" d="M172 0v1415h272v-571h129l375 571h275l-424 -651l463 -764h-308l-379 637h-131v-637h-272z" />
<glyph unicode="&#x41b;" horiz-adv-x="1333" d="M0 152q42 31 68 57t52 70.5t42 95.5t35 141t34.5 197t36.5 274l54 428h839v-1415h-272v1202h-334l-27 -239q-20 -182 -38 -306.5t-43 -229.5t-53 -171.5t-70.5 -122.5t-91.5 -93t-121 -73z" />
<glyph unicode="&#x41c;" horiz-adv-x="1626" d="M94 0l113 1415h348l258 -989h8l248 989h352l111 -1415h-264l-45 711q-18 309 -11 438h-8l-262 -1002h-260l-274 1002h-9q6 -59 5.5 -198t-7.5 -265l-41 -686h-262z" />
<glyph unicode="&#x41d;" horiz-adv-x="1376" d="M172 0v1415h272v-567h488v567h272v-1415h-272v633h-488v-633h-272z" />
<glyph unicode="&#x41e;" horiz-adv-x="1421" d="M98 707q0 349 164.5 544t448.5 195q285 0 448.5 -192t163.5 -545q0 -349 -164 -544.5t-448 -195.5q-285 0 -449 192.5t-164 545.5zM383 707q0 -531 328 -531q161 0 244 126.5t83 406.5q0 279 -83.5 404.5t-243.5 125.5t-244 -126.5t-84 -405.5z" />
<glyph unicode="&#x41f;" horiz-adv-x="1376" d="M172 0v1415h1032v-1415h-272v1200h-488v-1200h-272z" />
<glyph unicode="&#x420;" horiz-adv-x="1216" d="M172 0v1415h412q279 0 429 -112.5t150 -337.5q0 -239 -148.5 -355t-406.5 -116h-164v-494h-272zM444 696h158q135 0 207 62t72 207q0 252 -287 252h-150v-521z" />
<glyph unicode="&#x421;" horiz-adv-x="1175" d="M98 711q0 174 48 314.5t131.5 231.5t195 140t240.5 49q134 0 232.5 -37t189.5 -113l-140 -161q-120 102 -266 102q-75 0 -136 -29.5t-109 -90t-74.5 -164t-26.5 -242.5q0 -267 92.5 -396t247.5 -129q94 0 163.5 31.5t137.5 87.5l129 -164q-180 -172 -442 -172 q-135 0 -247.5 49t-194 141t-126.5 233.5t-45 318.5z" />
<glyph unicode="&#x422;" horiz-adv-x="1085" d="M25 1200v215h1052l-28 -215h-367v-1200h-272v1200h-385z" />
<glyph unicode="&#x423;" horiz-adv-x="1173" d="M0 1415h281l331 -862h9l288 862h275l-387 -1012q-84 -218 -208.5 -314t-363.5 -120l-37 195q109 13 176.5 41t104.5 68t70 108h-97z" />
<glyph unicode="&#x424;" horiz-adv-x="1716" d="M61 713q0 133 34.5 238.5t93.5 176t144.5 119t182 72t211.5 29.5v137h264v-137q114 -6 210.5 -29.5t182 -72t145 -119t94 -176t34.5 -238.5q0 -134 -35.5 -241.5t-96.5 -179t-147 -120.5t-181.5 -72.5t-205.5 -27.5v-144h-264v144q-111 4 -206.5 27.5t-181.5 72.5 t-146.5 121t-96 179t-35.5 241zM338 713q0 -100 21 -178t56.5 -128.5t88 -84.5t108.5 -50t125 -22v919q-67 -3 -122 -16.5t-108 -45.5t-89 -81.5t-58 -129t-22 -183.5zM981 250q68 6 123.5 22t108 50t87.5 84.5t56.5 128.5t21.5 178q0 104 -22 183.5t-58 129t-89 81.5 t-107.5 45.5t-120.5 16.5v-919z" />
<glyph unicode="&#x425;" horiz-adv-x="1171" d="M0 0l416 752l-383 663h301l244 -481h8l256 481h288l-391 -649l432 -766h-299l-290 569h-9l-284 -569h-289z" />
<glyph unicode="&#x426;" horiz-adv-x="1390" d="M172 0v1415h272v-1200h478v1200h272v-1200h164v-541h-197l-35 326h-954z" />
<glyph unicode="&#x427;" horiz-adv-x="1273" d="M61 946v469h273v-465q0 -152 54.5 -217t184.5 -65q152 0 256 88v659h273v-1415h-273v561q-132 -104 -313 -104q-225 0 -340 125.5t-115 363.5z" />
<glyph unicode="&#x428;" horiz-adv-x="1916" d="M172 0v1415h266v-1200h393v1200h254v-1200h394v1200h266v-1415h-1573z" />
<glyph unicode="&#x429;" horiz-adv-x="1941" d="M172 0v1415h266v-1200h393v1200h254v-1200h394v1200h266v-1200h164v-541h-197l-33 326h-1507z" />
<glyph unicode="&#x42a;" horiz-adv-x="1380" d="M4 1202v213h617v-495h145q275 0 424 -111t149 -338q0 -122 -40.5 -213.5t-116 -147t-175.5 -83t-225 -27.5h-434v1202h-344zM621 205h155q135 0 207 60.5t72 203.5q0 250 -285 250h-149v-514z" />
<glyph unicode="&#x42b;" horiz-adv-x="1726" d="M172 0v1415h272v-495h129q273 0 421.5 -111.5t148.5 -337.5q0 -107 -30.5 -189t-83.5 -135t-132.5 -86.5t-169.5 -47t-201 -13.5h-354zM444 205h140q133 0 203.5 60.5t70.5 203.5q0 250 -283 250h-131v-514zM1282 0v1415h272v-1415h-272z" />
<glyph unicode="&#x42c;" horiz-adv-x="1204" d="M172 0v1415h272v-495h146q275 0 424 -111t149 -338q0 -107 -30.5 -189t-84 -135t-133 -86.5t-170 -47t-202.5 -13.5h-371zM444 205h156q135 0 207 60.5t72 203.5q0 250 -285 250h-150v-514z" />
<glyph unicode="&#x42d;" horiz-adv-x="1146" d="M31 145l139 152q69 -59 136 -88t149 -29q153 0 228.5 107t86.5 338h-530v202h528q-9 218 -81.5 316t-217.5 98q-88 0 -155.5 -31.5t-135.5 -87.5l-133 154q189 170 444 170q269 0 414.5 -185.5t145.5 -539.5q0 -368 -149.5 -560t-428.5 -192q-275 0 -440 176z" />
<glyph unicode="&#x42e;" horiz-adv-x="1880" d="M172 0v1415h272v-569h191q28 283 175 441.5t390 158.5q274 0 428 -191.5t154 -545.5q0 -351 -153 -545.5t-429 -194.5q-246 0 -399 177.5t-172 486.5h-185v-633h-272zM907 709q0 -285 75.5 -409t217.5 -124q299 0 299 533q0 530 -299 530q-69 0 -121 -27t-91.5 -87.5 t-60 -164.5t-20.5 -251z" />
<glyph unicode="&#x42f;" horiz-adv-x="1288" d="M37 0l321 590q-243 108 -243 389q0 214 142.5 325t418.5 111h440v-1415h-272v535h-238l-268 -535h-301zM399 975q0 -140 74 -193t227 -53h144v490h-172q-273 0 -273 -244z" />
<glyph unicode="&#x430;" horiz-adv-x="1120" d="M63 309q0 172 133.5 265.5t381.5 93.5h133v61q0 101 -49.5 142.5t-165.5 41.5q-126 0 -283 -55l-63 180q204 76 385 76q224 0 327 -93t103 -276v-464q0 -60 17 -89.5t58 -44.5l-57 -174q-176 15 -233 146q-57 -75 -143 -112.5t-187 -37.5q-164 0 -260.5 93t-96.5 247z M344 324q0 -164 158 -164q128 0 209 133v217h-93q-147 0 -210.5 -46.5t-63.5 -139.5z" />
<glyph unicode="&#x431;" horiz-adv-x="1148" d="M96 596q0 170 17 290.5t60 221t120 166t194 104.5q126 42 201.5 75t181.5 93l101 -176q-91 -59 -163 -90.5t-202 -73.5q-121 -40 -176 -116.5t-72 -233.5h9q92 174 297 174q185 0 300 -142t115 -376q0 -262 -136.5 -402.5t-356.5 -140.5q-238 0 -364 156.5t-126 470.5z M358 518q0 -169 57 -260.5t173 -91.5q50 0 88.5 15t70.5 51.5t49 106.5t17 171q0 171 -53 248.5t-160 77.5q-116 0 -179 -78.5t-63 -239.5z" />
<glyph unicode="&#x432;" horiz-adv-x="1153" d="M162 0v1071q205 43 393 43q98 0 178 -15t144.5 -48t100.5 -91t36 -137q0 -88 -51 -144t-142 -79v-8q111 -18 177.5 -87t66.5 -183q0 -87 -37 -151t-104 -100.5t-148.5 -53.5t-181.5 -17h-432zM424 182h168q108 0 156.5 38t48.5 122q0 79 -48.5 117.5t-150.5 38.5h-174 v-316zM424 655h160q172 0 172 144q0 78 -51 107.5t-152 29.5q-59 0 -129 -8v-273z" />
<glyph unicode="&#x433;" horiz-adv-x="886" d="M162 0v1083h729l-31 -204h-436v-879h-262z" />
<glyph unicode="&#x434;" horiz-adv-x="1173" d="M0 193h78q63 60 95 173t52 369l27 348h747v-890h91v-490h-183l-33 297h-659l-33 -297h-182v490zM297 193h453v700h-265l-10 -145q-15 -185 -35 -287.5t-52.5 -163t-90.5 -104.5z" />
<glyph unicode="&#x435;" horiz-adv-x="1126" d="M88 541q0 164 55.5 292.5t167.5 204.5t264 76q222 0 347 -145t125 -402q0 -5 -7 -106h-680q15 -149 84.5 -221t182.5 -72q138 0 262 100l112 -157q-172 -142 -391 -142q-170 0 -289 73.5t-176 200.5t-57 298zM358 631h428q-2 146 -50.5 221.5t-157.5 75.5 q-96 0 -153 -73.5t-67 -223.5z" />
<glyph unicode="&#x436;" horiz-adv-x="1480" d="M0 0l297 584l-266 499h256l215 -428h121v428h235v-428h123l213 428h256l-266 -499l299 -584h-275l-231 481h-119v-481h-235v481h-117l-234 -481h-272z" />
<glyph unicode="&#x437;" horiz-adv-x="1013" d="M16 106l131 160q71 -54 140.5 -78t161.5 -24q104 0 156 43t52 119q0 145 -202 145h-152l16 180h117q84 0 128 37t44 100q0 138 -176 138q-142 0 -256 -82l-123 147q80 62 185.5 92.5t214.5 30.5q190 0 307 -74t117 -223q0 -87 -55 -148t-148 -85v-9q117 -19 187.5 -83.5 t70.5 -180.5q0 -162 -133 -252t-346 -90q-255 0 -437 137z" />
<glyph unicode="&#x438;" horiz-adv-x="1241" d="M162 0v1083h256v-356q0 -128 -11 -265.5t-24 -185.5h8l397 807h291v-1083h-256v354q0 145 11.5 278t23.5 177h-8l-399 -809h-289z" />
<glyph unicode="&#x439;" horiz-adv-x="1241" d="M162 0v1083h256v-356q0 -128 -11 -265.5t-24 -185.5h8l397 807h291v-1083h-256v354q0 145 11.5 278t23.5 177h-8l-399 -809h-289zM291 1544l153 29q47 -127 185 -127q141 0 188 127l154 -29q-13 -116 -102.5 -196t-239.5 -80q-148 0 -236.5 80t-101.5 196z" />
<glyph unicode="&#x43a;" horiz-adv-x="1089" d="M162 0v1083h262v-428h108l271 428h262l-326 -501l359 -582h-289l-283 481h-102v-481h-262z" />
<glyph unicode="&#x43b;" horiz-adv-x="1196" d="M16 139q50 34 78.5 66.5t55 95.5t42.5 161.5t29 256.5l29 364h784v-1083h-262v885h-289l-12 -154q-11 -134 -22.5 -224t-30 -170.5t-41 -131t-58.5 -96.5t-80.5 -78t-109.5 -64z" />
<glyph unicode="&#x43c;" horiz-adv-x="1406" d="M84 0l94 1083h322l205 -698h8l188 698h326l96 -1083h-254l-35 485q-10 131 -2 340h-8l-205 -710h-227l-219 710h-8q8 -210 0 -336l-29 -489h-252z" />
<glyph unicode="&#x43d;" horiz-adv-x="1226" d="M162 0v1083h262v-432h379v432h262v-1083h-262v453h-379v-453h-262z" />
<glyph unicode="&#x43e;" horiz-adv-x="1198" d="M88 543q0 258 137 414.5t375 156.5q239 0 373.5 -154.5t134.5 -416.5q0 -264 -135.5 -419t-374.5 -155q-240 0 -375 153t-135 421zM362 543q0 -375 236 -375q118 0 177 91t59 284q0 372 -234 372q-238 0 -238 -372z" />
<glyph unicode="&#x43f;" horiz-adv-x="1222" d="M162 0v1083h899v-1083h-262v883h-375v-883h-262z" />
<glyph unicode="&#x440;" horiz-adv-x="1216" d="M162 -446v1529h229l15 -133q63 82 144 123t169 41q106 0 184 -40t126.5 -115.5t71.5 -178.5t23 -235q0 -167 -49 -296.5t-147 -204.5t-232 -75q-171 0 -272 119v-506zM424 283q73 -113 199 -113q227 0 227 373q0 200 -52 287.5t-157 87.5q-64 0 -119.5 -40.5 t-97.5 -105.5v-489z" />
<glyph unicode="&#x441;" horiz-adv-x="983" d="M88 537q0 256 136.5 416.5t377.5 160.5q203 0 350 -127l-118 -160q-105 80 -220 80q-247 0 -247 -370q0 -189 62.5 -272t182.5 -83q106 0 219 84l121 -172q-155 -125 -346 -125q-249 0 -383.5 153.5t-134.5 414.5z" />
<glyph unicode="&#x442;" horiz-adv-x="950" d="M6 883v200h948l-32 -200h-318v-883h-262v883h-336z" />
<glyph unicode="&#x443;" d="M8 1083h279l229 -893h8l240 893h270l-350 -1087q-65 -200 -198 -312.5t-361 -129.5l-33 190q158 24 231.5 81t114.5 175h-88z" />
<glyph unicode="&#x444;" horiz-adv-x="1742" d="M96 543q0 273 95.5 422t295.5 149q165 0 261 -113v545l247 -28v-521q100 117 275 117q102 0 175 -39.5t117 -115.5t64.5 -178.5t20.5 -237.5q0 -265 -103.5 -419.5t-290.5 -154.5q-76 0 -143.5 32t-114.5 93v-512l-247 -28v540q-46 -60 -116 -92.5t-145 -32.5 q-187 0 -289 154t-102 420zM367 543q0 -379 186 -379q116 0 195 112v537q-79 107 -193 107q-188 0 -188 -377zM995 276q79 -112 191 -112q190 0 190 379q0 198 -43 287.5t-135 89.5q-121 0 -203 -109v-535z" />
<glyph unicode="&#x445;" horiz-adv-x="1015" d="M-10 0l360 571l-323 512h299l180 -360h8l178 360h285l-311 -503l360 -580h-303l-219 420h-8l-217 -420h-289z" />
<glyph unicode="&#x446;" horiz-adv-x="1239" d="M162 0v1083h262v-884h367v884h262v-884h127v-504h-183l-34 305h-801z" />
<glyph unicode="&#x447;" horiz-adv-x="1144" d="M94 645v438h262v-405q0 -88 34.5 -126t105.5 -38q58 0 121.5 25.5t101.5 66.5v477h262v-1083h-262v424q-123 -107 -316 -107q-154 0 -231.5 86t-77.5 242z" />
<glyph unicode="&#x448;" horiz-adv-x="1671" d="M162 0v1083h252v-884h305v884h233v-884h305v884h252v-1083h-1347z" />
<glyph unicode="&#x449;" horiz-adv-x="1695" d="M162 0v1083h252v-884h305v884h233v-884h305v884h252v-884h123v-504h-182l-33 305h-1255z" />
<glyph unicode="&#x44a;" horiz-adv-x="1185" d="M0 893v190h545v-342h80q253 0 381.5 -89t128.5 -277q0 -86 -26.5 -151.5t-73 -107.5t-116.5 -68.5t-149.5 -37t-179.5 -10.5h-307v893h-283zM545 182h96q108 0 165.5 44.5t57.5 150.5q0 98 -57 142t-172 44h-90v-381z" />
<glyph unicode="&#x44b;" horiz-adv-x="1546" d="M162 0v1083h262v-342h80q493 0 493 -366q0 -97 -35 -170t-99 -117.5t-148.5 -66t-188.5 -21.5h-364zM424 182h96q99 0 153 44.5t54 150.5q0 186 -213 186h-90v-381zM1122 0v1083h262v-1083h-262z" />
<glyph unicode="&#x44c;" horiz-adv-x="1064" d="M162 0v1083h262v-342h80q253 0 381.5 -89t128.5 -277q0 -98 -35 -170.5t-101 -117t-153.5 -66t-198.5 -21.5h-364zM424 182h96q108 0 165.5 44.5t57.5 150.5q0 98 -57 142t-172 44h-90v-381z" />
<glyph unicode="&#x44d;" horiz-adv-x="995" d="M43 90l119 158q111 -80 233 -80q109 0 170.5 72.5t71.5 230.5h-412v166h412q-12 145 -67.5 213t-159.5 68q-129 0 -240 -78l-115 151q149 123 367 123q237 0 361 -154t124 -417t-129.5 -418.5t-376.5 -155.5q-205 0 -358 121z" />
<glyph unicode="&#x44e;" horiz-adv-x="1619" d="M162 0v1083h262v-438h137q27 210 153.5 339.5t325.5 129.5q228 0 360 -155t132 -416q0 -169 -57 -298t-170 -202.5t-267 -73.5q-206 0 -331.5 132t-147.5 356h-135v-457h-262zM817 543q0 -185 56 -280t165 -95q118 0 172 93.5t54 281.5q0 182 -57.5 277t-166.5 95 q-223 0 -223 -372z" />
<glyph unicode="&#x44f;" horiz-adv-x="1148" d="M37 0l264 451q-89 44 -137.5 122t-48.5 175q0 170 122.5 268t364.5 98q183 0 385 -43v-1071h-262v395h-188l-215 -395h-285zM385 745q0 -101 54 -140.5t182 -39.5h104v361q-58 8 -100 8q-131 0 -185.5 -45t-54.5 -144z" />
<glyph unicode="&#x451;" horiz-adv-x="1126" d="M88 541q0 164 55.5 292.5t167.5 204.5t264 76q222 0 347 -145t125 -402q0 -5 -7 -106h-680q15 -149 84.5 -221t182.5 -72q138 0 262 100l112 -157q-172 -142 -391 -142q-170 0 -289 73.5t-176 200.5t-57 298zM190 1456q0 60 42 100.5t104 40.5t103.5 -40.5t41.5 -100.5 t-41.5 -100.5t-103.5 -40.5t-104 40.5t-42 100.5zM358 631h428q-2 146 -50.5 221.5t-157.5 75.5q-96 0 -153 -73.5t-67 -223.5zM645 1456q0 60 41.5 100.5t101.5 40.5q63 0 104.5 -40.5t41.5 -100.5t-41.5 -100.5t-104.5 -40.5q-60 0 -101.5 40.5t-41.5 100.5z" />
<glyph unicode="&#x452;" horiz-adv-x="1208" d="M33 1219v167h143v130l262 26v-156h312v-167h-312v-258q137 153 324 153q148 0 221.5 -83t73.5 -238v-617q0 -122 -15.5 -211t-42 -150.5t-77 -109.5t-106.5 -80t-144 -69l-92 190q66 30 101.5 54.5t64 68t39 106.5t10.5 164v627q0 81 -31.5 116.5t-101.5 35.5 q-115 0 -224 -152v-766h-262v1219h-143z" />
<glyph unicode="&#x453;" horiz-adv-x="886" d="M162 0v1083h729l-31 -204h-436v-879h-262zM264 1395l416 270l121 -203l-455 -202z" />
<glyph unicode="&#x454;" horiz-adv-x="995" d="M88 537q0 256 136.5 416.5t377.5 160.5q203 0 350 -127l-116 -149q-108 80 -224 80q-111 0 -176.5 -70.5t-77.5 -210.5h416v-166h-416q7 -156 73.5 -229.5t180.5 -73.5q111 0 224 84l116 -158q-155 -125 -346 -125q-249 0 -383.5 153.5t-134.5 414.5z" />
<glyph unicode="&#x455;" horiz-adv-x="989" d="M31 123l135 149q137 -108 293 -108q89 0 140.5 35.5t51.5 95.5q0 47 -20 74.5t-72.5 50.5t-161.5 51q-315 79 -315 324q0 139 118.5 229t315.5 90q218 0 379 -115l-111 -163q-124 84 -264 84q-79 0 -125.5 -29.5t-46.5 -79.5q0 -55 48 -85.5t194 -72.5q81 -22 138 -47.5 t104.5 -64.5t71.5 -95t24 -131q0 -110 -65 -190.5t-167.5 -118t-228.5 -37.5q-261 0 -436 154z" />
<glyph unicode="&#x456;" horiz-adv-x="573" d="M121 1470q0 67 46.5 112.5t119.5 45.5q71 0 118.5 -45.5t47.5 -112.5q0 -68 -47 -113.5t-119 -45.5q-73 0 -119.5 45.5t-46.5 113.5zM156 0v1083h262v-1083h-262z" />
<glyph unicode="&#x457;" horiz-adv-x="573" d="M-86 1456q0 60 41.5 100.5t103.5 40.5t104 -40.5t42 -100.5t-42 -100.5t-104 -40.5t-103.5 40.5t-41.5 100.5zM156 0v1083h262v-1083h-262zM369 1456q0 60 41.5 100.5t101.5 40.5q63 0 104 -40.5t41 -100.5t-41 -100.5t-104 -40.5q-60 0 -101.5 40.5t-41.5 100.5z" />
<glyph unicode="&#x458;" horiz-adv-x="573" d="M-61 -254q59 26 94.5 49.5t66 60.5t43.5 91.5t13 132.5v1003h262v-987q0 -99 -18 -176t-47.5 -130.5t-81 -97.5t-105.5 -73.5t-133 -62.5zM121 1470q0 67 46.5 112.5t119.5 45.5q71 0 118.5 -45.5t47.5 -112.5q0 -68 -47 -113.5t-119 -45.5q-73 0 -119.5 45.5 t-46.5 113.5z" />
<glyph unicode="&#x459;" horiz-adv-x="1642" d="M16 139q50 34 78.5 66.5t55 95.5t42.5 161.5t29 256.5l29 364h768v-342h80q493 0 493 -366q0 -97 -35 -170t-99 -117.5t-148.5 -66t-188.5 -21.5h-364v885h-273l-12 -154q-11 -134 -22.5 -224t-30 -170.5t-41 -131t-58.5 -96.5t-80.5 -78t-109.5 -64zM1018 182h96 q99 0 153 44.5t54 150.5q0 186 -213 186h-90v-381z" />
<glyph unicode="&#x45a;" horiz-adv-x="1675" d="M162 0v1083h262v-399h364v399h263v-399h79q244 0 369 -80t125 -258q0 -93 -34.5 -161.5t-99.5 -108t-148 -58t-189 -18.5h-365v508h-364v-508h-262zM1051 182h96q102 0 155.5 34.5t53.5 131.5q0 88 -53 124t-160 36h-92v-326z" />
<glyph unicode="&#x45b;" horiz-adv-x="1208" d="M33 1219v167h143v130l262 26v-156h312v-167h-312v-258q137 153 324 153q148 0 221.5 -83t73.5 -238v-793h-262v766q0 81 -31.5 116.5t-101.5 35.5q-115 0 -224 -152v-766h-262v1219h-143z" />
<glyph unicode="&#x45c;" horiz-adv-x="1089" d="M162 0v1083h262v-428h108l271 428h262l-326 -501l359 -582h-289l-283 481h-102v-481h-262zM342 1395l416 270l121 -203l-455 -202z" />
<glyph unicode="&#x45e;" d="M8 1083h279l229 -893h8l240 893h270l-350 -1087q-65 -200 -198 -312.5t-361 -129.5l-33 190q158 24 231.5 81t114.5 175h-88zM182 1544l154 29q47 -127 184 -127q142 0 189 127l153 -29q-13 -116 -102.5 -196t-239.5 -80q-148 0 -236.5 80t-101.5 196z" />
<glyph unicode="&#x45f;" horiz-adv-x="1218" d="M162 0v1083h262v-884h371v884h262v-1083h-336v-305h-182l-33 305h-344z" />
<glyph unicode="&#x462;" horiz-adv-x="1449" d="M25 1202v213h1052l-28 -213h-367v-313h160q269 0 414 -107.5t145 -326.5q0 -117 -40.5 -205.5t-115 -142.5t-173.5 -80.5t-222 -26.5h-440v1202h-385zM682 203h160q132 0 203 58.5t71 191.5q0 121 -72.5 180t-205.5 59h-156v-489z" />
<glyph unicode="&#x463;" horiz-adv-x="1079" d="M25 934v168h151v233l262 29v-262h271l-25 -168h-246v-193h80q253 0 381.5 -89t128.5 -277q0 -98 -35.5 -170.5t-101 -117t-153.5 -66t-199 -21.5h-363v934h-151zM438 182h94q108 0 167 44.5t59 150.5q0 97 -58 141.5t-172 44.5h-90v-381z" />
<glyph unicode="&#x472;" horiz-adv-x="1421" d="M98 707q0 349 164.5 544t448.5 195q285 0 448.5 -192t163.5 -545q0 -349 -164 -544.5t-448 -195.5q-285 0 -449 192.5t-164 545.5zM381 643q17 -467 330 -467q152 0 236 111t93 356h-659zM383 811h655q-28 428 -327 428q-300 0 -328 -428z" />
<glyph unicode="&#x473;" horiz-adv-x="1198" d="M88 543q0 258 137 414.5t375 156.5q239 0 373.5 -154.5t134.5 -416.5q0 -264 -135.5 -419t-374.5 -155q-240 0 -375 153t-135 421zM360 459q23 -293 238 -293q213 0 236 293h-474zM360 623h476q-23 295 -236 295q-217 0 -240 -295z" />
<glyph unicode="&#x474;" horiz-adv-x="1214" d="M12 1415h291l305 -1165h8l232 903q28 110 51 168.5t57 116.5l267 -47q-40 -59 -67 -122t-60 -175l-324 -1094h-326z" />
<glyph unicode="&#x475;" horiz-adv-x="1036" d="M4 1083h283l231 -862h8l170 639q45 177 105 248l254 -33q-39 -60 -67.5 -122.5t-61.5 -164.5l-254 -788h-307z" />
<glyph unicode="&#x490;" horiz-adv-x="1032" d="M172 0v1415h598v309h254v-309l-27 -219h-553v-1196h-272z" />
<glyph unicode="&#x491;" horiz-adv-x="886" d="M162 0v1083h483v297h246v-297l-31 -204h-436v-879h-262z" />
<glyph unicode="&#x492;" horiz-adv-x="1052" d="M14 711v176h179v528h851l-26 -219h-553v-309h303v-176h-303v-711h-272v711h-179z" />
<glyph unicode="&#x493;" horiz-adv-x="901" d="M41 477v166h135v440h729l-31 -204h-436v-236h240v-166h-240v-477h-262v477h-135z" />
<glyph unicode="&#x496;" horiz-adv-x="1796" d="M-4 0l401 764l-362 651h276l307 -573h144v573h252v-573h143l311 573h273l-363 -651l289 -549h139v-541h-196l-35 326h-96l-320 639h-145v-639h-252v639h-148l-323 -639h-295z" />
<glyph unicode="&#x497;" horiz-adv-x="1495" d="M0 0l297 584l-266 499h256l215 -428h121v428h235v-428h123l213 428h256l-266 -499l198 -385h134v-504h-183l-33 305h-92l-231 481h-119v-481h-235v481h-117l-234 -481h-272z" />
<glyph unicode="&#x498;" horiz-adv-x="1105" d="M12 166l156 145q122 -131 305 -131q123 0 193.5 63t70.5 173q0 120 -70.5 177.5t-195.5 57.5h-162l31 205h127q103 0 168 50t65 147q0 90 -62 139t-165 49q-157 0 -289 -117l-137 150q187 172 453 172q214 0 345.5 -102.5t131.5 -258.5q0 -128 -76.5 -211.5 t-206.5 -107.5v-8q142 -11 235 -104t93 -246q0 -171 -116 -289t-316 -144v-81q102 -10 153.5 -61t51.5 -128q0 -101 -79 -162t-204 -61q-130 0 -231 57l67 129q68 -33 133 -33q115 0 115 72q0 44 -44.5 60t-139.5 16l18 188q-267 19 -418 195z" />
<glyph unicode="&#x499;" horiz-adv-x="1013" d="M16 106l131 160q71 -54 140.5 -78t161.5 -24q104 0 156 43t52 119q0 145 -202 145h-152l16 180h117q84 0 128 37t44 100q0 138 -176 138q-142 0 -256 -82l-123 147q80 62 185.5 92.5t214.5 30.5q190 0 307 -74t117 -223q0 -87 -55 -148t-148 -85v-9q117 -19 187.5 -83.5 t70.5 -180.5q0 -143 -105 -230t-280 -106v-81q102 -10 153.5 -61t51.5 -128q0 -101 -79 -162t-204 -61q-130 0 -231 57l67 129q68 -33 135 -33q113 0 113 72q0 44 -44.5 60t-139.5 16l18 190q-216 11 -371 133z" />
<glyph unicode="&#x49a;" horiz-adv-x="1271" d="M172 0v1415h272v-571h129l375 571h275l-424 -651l338 -549h151v-541h-196l-33 326h-105l-379 637h-131v-637h-272z" />
<glyph unicode="&#x49b;" horiz-adv-x="1103" d="M162 0v1083h262v-428h108l271 428h262l-326 -501l236 -383h155v-504h-182l-33 305h-106l-283 481h-102v-481h-262z" />
<glyph unicode="&#x49c;" horiz-adv-x="1259" d="M172 0v1415h262v-579h78v335h119v-335h37l290 579h271l-350 -651l387 -764h-295l-301 643h-39v-340h-119v340h-78v-643h-262z" />
<glyph unicode="&#x49d;" horiz-adv-x="1103" d="M162 0v1083h254v-436h61v238h98v-238h35l195 436h260l-246 -501l279 -582h-281l-209 487h-33v-245h-98v245h-61v-487h-254z" />
<glyph unicode="&#x4a0;" horiz-adv-x="1427" d="M4 1202v213h617v-571h129l376 571h275l-426 -651l463 -764h-308l-378 637h-131v-637h-273v1202h-344z" />
<glyph unicode="&#x4a1;" horiz-adv-x="1212" d="M0 893v190h547v-428h108l269 428h264l-326 -501l357 -582h-287l-283 481h-102v-481h-262v893h-285z" />
<glyph unicode="&#x4a2;" horiz-adv-x="1400" d="M172 0v1415h272v-567h490v567h270v-1200h164v-541h-197l-34 326h-203v633h-490v-633h-272z" />
<glyph unicode="&#x4a3;" horiz-adv-x="1257" d="M162 0v1083h262v-432h379v432h262v-884h123v-504h-182l-33 305h-170v453h-379v-453h-262z" />
<glyph unicode="&#x4aa;" horiz-adv-x="1175" d="M98 711q0 174 48 314.5t131.5 231.5t195 140t240.5 49q134 0 232.5 -37t189.5 -113l-140 -161q-120 102 -266 102q-75 0 -136 -29.5t-109 -90t-74.5 -164t-26.5 -242.5q0 -267 92.5 -396t247.5 -129q94 0 163.5 31.5t137.5 87.5l129 -164q-101 -98 -244 -141 q-184 -107 -184 -252q0 -47 30 -75.5t89 -28.5q73 0 131 30l59 -135q-99 -51 -217 -51q-132 0 -208.5 65t-76.5 175q0 68 43 130.5t119 110.5q-271 6 -433.5 200t-162.5 542z" />
<glyph unicode="&#x4ab;" horiz-adv-x="983" d="M88 537q0 256 136.5 416.5t377.5 160.5q203 0 350 -127l-118 -160q-105 80 -220 80q-247 0 -247 -370q0 -189 62.5 -272t182.5 -83q106 0 219 84l121 -172q-67 -53 -147 -86q-106 -43 -156.5 -117.5t-50.5 -142.5q0 -47 29.5 -75.5t87.5 -28.5q73 0 131 30l59 -135 q-96 -51 -217 -51q-131 0 -206.5 64.5t-75.5 175.5q0 137 167 243q-232 9 -358.5 161.5t-126.5 404.5z" />
<glyph unicode="&#x4ae;" horiz-adv-x="1175" d="M-4 1415h299l295 -649h8l295 649h287l-457 -878v-537h-272v535z" />
<glyph unicode="&#x4af;" horiz-adv-x="1034" d="M4 1083h285l229 -819h8l234 819h270l-385 -1063v-438l-256 -28v462z" />
<glyph unicode="&#x4b0;" horiz-adv-x="1175" d="M-4 1415h299l295 -649h8l295 649h287l-398 -766h189v-168h-248v-481h-272v481h-248v168h188z" />
<glyph unicode="&#x4b1;" horiz-adv-x="1034" d="M4 1083h285l229 -819h8l234 819h270l-332 -905h150v-164h-203v-432l-256 -28v460h-205v164h148z" />
<glyph unicode="&#x4b2;" horiz-adv-x="1191" d="M0 0l416 752l-383 663h301l244 -481h8l256 481h288l-391 -649l314 -551h174v-541h-197l-35 326h-123l-290 569h-9l-284 -569h-289z" />
<glyph unicode="&#x4b3;" horiz-adv-x="1028" d="M-10 0l360 571l-323 512h299l180 -360h8l178 360h285l-311 -503l239 -381h148v-504h-183l-32 305h-115l-219 420h-8l-217 -420h-289z" />
<glyph unicode="&#x4b8;" horiz-adv-x="1273" d="M61 946v469h273v-422q0 -162 40.5 -235t147.5 -86v485h127v-485q101 17 180 84v659h273v-1415h-273v561q-79 -66 -180 -88v-184h-127v168q-229 0 -345 125.5t-116 363.5z" />
<glyph unicode="&#x4b9;" horiz-adv-x="1144" d="M94 645v438h262v-405q0 -80 27.5 -119t85.5 -45v293h106v-283q95 28 144 82v477h262v-1083h-262v424q-67 -51 -144 -76v-182h-106v158q-35 -7 -66 -7q-154 0 -231.5 86t-77.5 242z" />
<glyph unicode="&#x4ba;" horiz-adv-x="1273" d="M172 0v1415h272v-579q137 110 328 110q440 0 440 -489v-457h-272v451q0 153 -53.5 218.5t-184.5 65.5q-156 0 -258 -90v-645h-272z" />
<glyph unicode="&#x4bb;" horiz-adv-x="1183" d="M162 0v1516l262 26v-731q138 154 324 154q148 0 221 -83t73 -239v-643h-262v614q0 82 -30.5 117t-100.5 35q-120 0 -225 -150v-616h-262z" />
<glyph unicode="&#x4c0;" horiz-adv-x="616" d="M172 0v1415h272v-1415h-272z" />
<glyph unicode="&#x4cb;" horiz-adv-x="1298" d="M61 946v469h273v-465q0 -152 54.5 -217t184.5 -65q152 0 256 88v659h273v-1200h164v-541h-197l-35 326h-205v561q-132 -104 -313 -104q-225 0 -340 125.5t-115 363.5z" />
<glyph unicode="&#x4cc;" horiz-adv-x="1167" d="M94 645v438h262v-405q0 -88 34.5 -126t105.5 -38q58 0 121.5 25.5t101.5 66.5v477h262v-884h123v-504h-182l-33 305h-170v424q-123 -107 -316 -107q-154 0 -231.5 86t-77.5 242z" />
<glyph unicode="&#x4cf;" horiz-adv-x="600" d="M145 260v1258l263 28v-1282q0 -84 59 -84q34 0 61 10l58 -184q-94 -37 -183 -37q-121 0 -189.5 72.5t-68.5 218.5z" />
<glyph unicode="&#x4d8;" horiz-adv-x="1347" d="M84 686q0 43 8 121h881q-7 227 -92.5 330.5t-245.5 103.5q-188 0 -338 -131l-135 158q204 178 493 178q291 0 443.5 -183.5t152.5 -541.5q0 -356 -156.5 -554t-430.5 -198q-281 0 -430.5 186.5t-149.5 530.5zM348 610q7 -231 85.5 -333.5t232.5 -102.5q142 0 219.5 105 t87.5 331h-625z" />
<glyph unicode="&#x4d9;" horiz-adv-x="1126" d="M82 516q0 47 4 109h688q-7 152 -67.5 223.5t-174.5 71.5q-150 0 -274 -97l-113 156q167 135 396 135q249 0 373 -153.5t124 -417.5q0 -164 -55 -292.5t-166 -205t-262 -76.5q-223 0 -348 145t-125 402zM334 455q2 -145 54.5 -219t166.5 -74q108 0 161.5 70.5t57.5 222.5 h-440z" />
<glyph unicode="&#x4e2;" horiz-adv-x="1376" d="M172 0v1415h268v-493q0 -366 -39 -637h9l462 1130h332v-1415h-268v489q0 349 39 637h-8l-457 -1126h-338zM389 1616v188h596v-188h-596z" />
<glyph unicode="&#x4e3;" horiz-adv-x="1241" d="M162 0v1083h256v-356q0 -128 -11 -265.5t-24 -185.5h8l397 807h291v-1083h-256v354q0 145 11.5 278t23.5 177h-8l-399 -809h-289zM332 1362v186h594v-186h-594z" />
<glyph unicode="&#x4e8;" horiz-adv-x="1421" d="M98 707q0 349 164.5 544t448.5 195q285 0 448.5 -192t163.5 -545q0 -349 -164 -544.5t-448 -195.5q-285 0 -449 192.5t-164 545.5zM381 643q17 -467 330 -467q152 0 236 111t93 356h-659zM383 811h655q-28 428 -327 428q-300 0 -328 -428z" />
<glyph unicode="&#x4e9;" horiz-adv-x="1198" d="M88 543q0 258 137 414.5t375 156.5q239 0 373.5 -154.5t134.5 -416.5q0 -264 -135.5 -419t-374.5 -155q-240 0 -375 153t-135 421zM360 459q23 -293 238 -293q213 0 236 293h-474zM360 623h476q-23 295 -236 295q-217 0 -240 -295z" />
<glyph unicode="&#x4ee;" horiz-adv-x="1181" d="M6 1415h281l331 -862h9l288 862h275l-387 -1012q-84 -218 -208.5 -314t-363.5 -120l-36 195q108 13 176 41t104.5 68t69.5 108h-96zM299 1616v188h596v-188h-596z" />
<glyph unicode="&#x4ef;" d="M8 1083h279l229 -893h8l240 893h270l-350 -1087q-65 -200 -198 -312.5t-361 -129.5l-33 190q158 24 231.5 81t114.5 175h-88zM225 1362v186h594v-186h-594z" />
<glyph unicode="&#x2000;" horiz-adv-x="1001" />
<glyph unicode="&#x2001;" horiz-adv-x="2003" />
<glyph unicode="&#x2002;" horiz-adv-x="1001" />
<glyph unicode="&#x2003;" horiz-adv-x="2003" />
<glyph unicode="&#x2004;" horiz-adv-x="667" />
<glyph unicode="&#x2005;" horiz-adv-x="500" />
<glyph unicode="&#x2006;" horiz-adv-x="333" />
<glyph unicode="&#x2007;" horiz-adv-x="333" />
<glyph unicode="&#x2008;" horiz-adv-x="250" />
<glyph unicode="&#x2009;" horiz-adv-x="400" />
<glyph unicode="&#x200a;" horiz-adv-x="111" />
<glyph unicode="&#x2010;" horiz-adv-x="833" d="M106 537v208h621v-208h-621z" />
<glyph unicode="&#x2011;" horiz-adv-x="833" d="M106 537v208h621v-208h-621z" />
<glyph unicode="&#x2012;" horiz-adv-x="833" d="M106 537v208h621v-208h-621z" />
<glyph unicode="&#x2013;" horiz-adv-x="1064" d="M53 537v208h959v-208h-959z" />
<glyph unicode="&#x2014;" horiz-adv-x="1626" d="M53 537v208h1518v-208h-1518z" />
<glyph unicode="&#x2018;" horiz-adv-x="501" d="M86 1133q0 62 47 159l133 279h142l-74 -320q59 -40 59 -118q0 -63 -44 -105.5t-109 -42.5q-66 0 -110 42.5t-44 105.5z" />
<glyph unicode="&#x2019;" horiz-adv-x="501" d="M90 993l74 320q-60 41 -60 119q0 62 45.5 104.5t110.5 42.5t109.5 -42t44.5 -105q0 -59 -49 -160l-134 -279h-141z" />
<glyph unicode="&#x201a;" horiz-adv-x="501" d="M90 -328l74 320q-60 41 -60 119q0 62 45.5 104.5t110.5 42.5t109.5 -42t44.5 -105q0 -59 -49 -160l-134 -279h-141z" />
<glyph unicode="&#x201c;" horiz-adv-x="903" d="M86 1133q0 62 47 159l133 279h142l-74 -320q59 -40 59 -118q0 -63 -44 -105.5t-109 -42.5q-66 0 -110 42.5t-44 105.5zM487 1133q0 61 45 159l134 279h143l-76 -320q62 -42 62 -118q0 -63 -45.5 -105.5t-110.5 -42.5t-108.5 42.5t-43.5 105.5z" />
<glyph unicode="&#x201d;" horiz-adv-x="903" d="M90 993l74 320q-60 41 -60 119q0 62 45.5 104.5t110.5 42.5t109.5 -42t44.5 -105q0 -59 -49 -160l-134 -279h-141zM489 993l76 320q-61 41 -61 119q0 63 45 105t110 42q66 0 110 -42t44 -105q0 -58 -47 -160l-133 -279h-144z" />
<glyph unicode="&#x201e;" horiz-adv-x="899" d="M90 -328l74 320q-60 41 -60 119q0 62 45.5 104.5t110.5 42.5t109.5 -42t44.5 -105q0 -59 -49 -160l-134 -279h-141zM489 -328l74 320q-59 40 -59 119q0 62 44.5 104.5t108.5 42.5q66 0 110 -42t44 -105q0 -66 -47 -160l-133 -279h-142z" />
<glyph unicode="&#x2020;" horiz-adv-x="1052" d="M61 870v213h340v306h248v-306h342v-213h-342v-870h-248v870h-340z" />
<glyph unicode="&#x2021;" horiz-adv-x="1052" d="M61 309v215h340v346h-340v213h340v306h248v-306h342v-213h-342v-346h342v-215h-342v-309h-248v309h-340z" />
<glyph unicode="&#x2022;" horiz-adv-x="790" d="M121 700q0 118 77.5 195.5t196.5 77.5t197 -78.5t78 -196.5t-78 -195t-197 -77q-118 0 -196 78.5t-78 195.5z" />
<glyph unicode="&#x2026;" horiz-adv-x="1574" d="M96 135q0 69 48.5 117.5t117.5 48.5q70 0 118 -48.5t48 -117.5q0 -68 -48 -117t-118 -49q-69 0 -117.5 49t-48.5 117zM621 135q0 69 48 117.5t117 48.5q70 0 118 -48.5t48 -117.5q0 -68 -48 -117t-118 -49q-69 0 -117 49t-48 117zM1145 135q0 69 48.5 117.5t117.5 48.5 q70 0 118 -48.5t48 -117.5q0 -68 -48 -117t-118 -49q-69 0 -117.5 49t-48.5 117z" />
<glyph unicode="&#x202f;" horiz-adv-x="400" />
<glyph unicode="&#x2030;" horiz-adv-x="2480" d="M115 1044q0 162 99 260.5t251 98.5t251 -98.5t99 -260.5t-99 -260t-251 -98t-251 98t-99 260zM317 1044q0 -84 34 -139t114 -55q147 0 147 194q0 195 -147 195q-42 0 -72 -16t-46 -45t-23 -61.5t-7 -72.5zM324 35l948 1427l170 -104l-950 -1428zM946 328q0 162 99 260 t251 98q153 0 252 -98t99 -260t-99 -260.5t-252 -98.5q-152 0 -251 98.5t-99 260.5zM1149 328q0 -84 33.5 -139.5t113.5 -55.5q148 0 148 195q0 192 -148 192q-147 0 -147 -192zM1712 328q0 162 99 260t251 98q153 0 252 -98t99 -260t-99 -260.5t-252 -98.5 q-152 0 -251 98.5t-99 260.5zM1913 328q0 -53 11.5 -94t46.5 -71t91 -30q146 0 146 195q0 192 -146 192q-149 0 -149 -192z" />
<glyph unicode="&#x2039;" horiz-adv-x="718" d="M92 506v172l375 442l160 -104l-269 -422l269 -424l-160 -102z" />
<glyph unicode="&#x203a;" horiz-adv-x="722" d="M92 170l266 424l-266 422l160 104l375 -442v-172l-375 -438z" />
<glyph unicode="&#x2044;" horiz-adv-x="294" d="M-350 -90l831 1640l164 -82l-829 -1640z" />
<glyph unicode="&#x205f;" horiz-adv-x="500" />
<glyph unicode="&#x20ac;" horiz-adv-x="1181" d="M37 461l39 147h133v164h-170l37 150h157q51 231 194.5 356t352.5 125q202 0 357 -103l-107 -167q-107 71 -237 71q-117 0 -191.5 -66t-105.5 -216h483l-37 -150h-465v-164h430l-37 -147h-376q26 -153 98.5 -222t200.5 -69q155 0 292 98v-223q-149 -76 -309 -76 q-226 0 -366 126.5t-183 365.5h-190z" />
<glyph unicode="&#x2122;" horiz-adv-x="1839" d="M63 1253v162h711l-29 -162h-233v-645h-203v645h-246zM815 608l33 807h262l156 -512h8l137 512h275l28 -807h-192l-15 400q-2 95 9 223h-9l-155 -539h-164l-172 539h-8q10 -126 8 -221l-15 -402h-186z" />
<glyph unicode="&#x2202;" horiz-adv-x="1132" d="M84 434q0 202 112.5 328.5t278.5 126.5q92 0 165 -38.5t118 -102.5l6 2q-32 189 -169 303.5t-392 179.5l57 184q281 -65 448 -172.5t246.5 -281t79.5 -435.5q0 -159 -55 -284.5t-165.5 -200t-260.5 -74.5q-202 0 -335.5 126t-133.5 339zM348 434q0 -125 55.5 -197.5 t149.5 -72.5q210 0 213 362q-21 76 -86 121t-139 45q-84 0 -138.5 -63.5t-54.5 -194.5z" />
<glyph unicode="&#x2206;" horiz-adv-x="1206" d="M-10 0l448 1415h334l445 -1415h-1227zM324 207h550l-270 983h-8z" />
<glyph unicode="&#x220f;" horiz-adv-x="1331" d="M88 1174v204h1186v-204h-162v-1592l-250 -28v1620h-362v-1592l-250 -28v1620h-162z" />
<glyph unicode="&#x2211;" horiz-adv-x="1079" d="M78 0v201l432 487l-432 490v200h887v-207h-594l370 -413v-133l-370 -420h594v-205h-887z" />
<glyph unicode="&#x221a;" horiz-adv-x="1093" d="M-88 940l238 76l241 -758h8l404 1526h573v-207h-383l-440 -1577h-299z" />
<glyph unicode="&#x221e;" horiz-adv-x="1843" d="M86 647q0 90 26 168.5t77.5 142t137.5 100t197 36.5q127 0 231 -67.5t171 -182.5q150 250 399 250q88 0 160.5 -24.5t122 -67t84 -100t50 -122t15.5 -135.5q0 -90 -26 -168.5t-77.5 -141.5t-137.5 -99.5t-197 -36.5q-128 0 -231.5 66.5t-172.5 180.5q-149 -247 -397 -247 q-88 0 -160.5 24.5t-122 66.5t-84 99.5t-50 122t-15.5 135.5zM346 647q0 -114 52 -177.5t143 -63.5q97 0 167.5 76t114.5 192q-114 215 -280 215q-92 0 -144.5 -63.5t-52.5 -178.5zM1018 618q25 -42 49 -74.5t59.5 -67.5t80.5 -54t96 -19q91 0 142.5 63.5t51.5 178.5 q0 116 -51 180t-143 64q-50 0 -95 -22.5t-80 -63t-61.5 -85.5t-48.5 -100z" />
<glyph unicode="&#x222b;" horiz-adv-x="782" d="M-113 -383l74 178q93 -41 176 -41q75 0 104 32.5t29 107.5v1525q0 158 87 247t261 89q83 0 145 -14.5t132 -46.5l-76 -178q-90 40 -174 40q-68 0 -94.5 -32.5t-26.5 -104.5v-1525q0 -166 -100.5 -253t-265.5 -87q-81 0 -141 15.5t-130 47.5z" />
<glyph unicode="&#x2248;" d="M59 379q113 225 303 225q59 0 112 -18.5t85 -41t69.5 -41t67.5 -18.5q48 0 76.5 26.5t58.5 80.5l154 -82q-111 -223 -303 -223q-59 0 -112 18t-85 40t-69.5 40t-67.5 18q-48 0 -76.5 -26.5t-58.5 -79.5zM59 786q110 226 303 226q59 0 112 -18.5t85 -41t69.5 -41 t67.5 -18.5q47 0 76 27t59 81l154 -81q-112 -224 -303 -224q-59 0 -112 18.5t-85 40t-69.5 40t-67.5 18.5q-48 0 -76.5 -26.5t-58.5 -79.5z" />
<glyph unicode="&#x2260;" d="M104 332v209h265l123 209h-388v206h512l175 291l135 -76l-129 -215h143v-206h-266l-125 -209h391v-209h-512l-174 -291l-137 78l129 213h-142z" />
<glyph unicode="&#x2264;" d="M100 659v246l777 338l90 -190l-648 -271l648 -250l-90 -198zM104 0v205h836v-205h-836z" />
<glyph unicode="&#x2265;" d="M78 528l647 254l-647 267l90 194l776 -338v-246l-776 -325zM104 0v205h836v-205h-836z" />
<glyph unicode="&#x25ca;" horiz-adv-x="1138" d="M51 688l371 690h295l370 -686l-370 -692h-295zM315 690l250 -497h8l248 497l-248 494h-8z" />
<glyph unicode="&#x25fc;" horiz-adv-x="1085" d="M0 0v1085h1085v-1085h-1085z" />
<glyph unicode="&#xfb01;" horiz-adv-x="1212" d="M23 895v188h170v115q0 159 102 253.5t313 94.5q174 0 334 -78l-80 -174q-114 52 -223 52q-106 0 -145 -35t-39 -117v-111h602v-1083h-260v895h-342v-895h-262v895h-170z" />
<glyph unicode="&#xfb02;" horiz-adv-x="1261" d="M23 895v188h170v115q0 157 103 252.5t306 95.5q109 0 248 -39l223 35v-1278q0 -45 15 -64.5t47 -19.5q22 0 61 13l55 -187q-91 -37 -182 -37q-118 0 -188 70t-70 207v1075q-80 27 -182 27q-100 0 -137 -36.5t-37 -117.5v-111h225l-29 -188h-196v-895h-262v895h-170z" />
</font>
</defs>
</svg>
