<?xml version="1.0" standalone="no"?>
<!DOCTYPE svg PUBLIC "-//W3C//DTD SVG 1.1//EN" "http://www.w3.org/Graphics/SVG/1.1/DTD/svg11.dtd" >
<svg xmlns="http://www.w3.org/2000/svg" xmlns:xlink="http://www.w3.org/1999/xlink" version="1.1">
<metadata></metadata>
<defs>
<font id="fira_sans_otlight_italic" horiz-adv-x="1024" >
<font-face units-per-em="2048" ascent="1638" descent="-410" />
<missing-glyph horiz-adv-x="573" />
<glyph horiz-adv-x="0" />
<glyph horiz-adv-x="0" />
<glyph horiz-adv-x="682" />
<glyph unicode="&#xd;" horiz-adv-x="573" />
<glyph unicode=" "  horiz-adv-x="573" />
<glyph unicode="&#x09;" horiz-adv-x="573" />
<glyph unicode="&#xa0;" horiz-adv-x="573" />
<glyph unicode="!" horiz-adv-x="573" d="M125 74q0 42 27 69t71 27q45 0 72 -27t27 -69t-27 -69.5t-72 -27.5q-44 0 -71 27.5t-27 69.5zM195 399l124 1004h117l-123 -983z" />
<glyph unicode="&#x22;" horiz-adv-x="829" d="M285 889l20 514h123l-63 -514h-80zM582 889l20 514h123l-63 -514h-80z" />
<glyph unicode="#" d="M-2 373l10 94h178l115 448h-170l12 95h183l90 352h108l-90 -352h344l90 352h109l-90 -352h164l-13 -95h-176l-114 -448h167l-10 -94h-180l-94 -373h-109l94 373h-344l-94 -373h-108l94 373h-166zM295 467h344l115 448h-344z" />
<glyph unicode="$" d="M23 156l81 84q73 -70 178 -114t207 -44q154 0 243 83.5t89 217.5q0 98 -66.5 167t-224.5 130q-201 78 -282.5 163t-81.5 208q0 142 108 232t297 99l39 310h99l-39 -312q96 -9 188 -46t156 -93l-72 -84q-139 127 -334 127q-148 0 -231.5 -62.5t-83.5 -170.5 q0 -87 61.5 -144t241.5 -127q187 -74 269.5 -168t82.5 -223q0 -179 -128 -294.5t-324 -117.5l-35 -284h-101l37 291q-110 13 -209 58.5t-165 113.5z" />
<glyph unicode="%" horiz-adv-x="1740" d="M236 1010q0 171 96.5 272.5t249.5 101.5q124 0 199 -74t75 -210q0 -174 -96.5 -277.5t-245.5 -103.5q-129 0 -203.5 79t-74.5 212zM283 10l1122 1430l88 -58l-1122 -1429zM352 1010q0 -97 44 -149t120 -52q99 0 161 75t62 210q0 100 -44 150t-120 50q-99 0 -161 -74 t-62 -210zM907 268q0 171 96.5 273t249.5 102q124 0 199.5 -74.5t75.5 -210.5q0 -174 -96.5 -277.5t-245.5 -103.5q-130 0 -204.5 79t-74.5 212zM1024 268q0 -97 44 -148.5t120 -51.5q99 0 161 74.5t62 209.5q0 100 -44 150.5t-120 50.5q-99 0 -161 -74t-62 -211z" />
<glyph unicode="&#x26;" horiz-adv-x="1738" d="M141 504q0 167 47 311t125 241t181 152.5t215 55.5q140 0 222.5 -71.5t82.5 -197.5q0 -88 -44 -166.5t-132 -145t-236 -109t-340 -50.5q0 -234 104 -340t316 -106q88 0 171.5 23t169.5 78t161 138.5t144 213t120 294.5h-240l13 103h559l-13 -103h-204 q-65 -218 -163.5 -384t-216 -265.5t-245 -149t-262.5 -49.5q-265 0 -400 134.5t-135 392.5zM266 606q127 5 232.5 29.5t176.5 62.5t120 87t71.5 102t22.5 108q0 168 -189 168q-158 0 -284.5 -157.5t-149.5 -399.5z" />
<glyph unicode="'" horiz-adv-x="532" d="M285 889l20 514h123l-63 -514h-80z" />
<glyph unicode="(" horiz-adv-x="665" d="M113 514q0 336 119 623.5t362 550.5l68 -50q-429 -499 -429 -1124q0 -204 52 -378t149 -341l-80 -49q-117 184 -179 362.5t-62 405.5z" />
<glyph unicode=")" horiz-adv-x="665" d="M33 -205q428 498 428 1125q0 204 -52 377.5t-149 340.5l80 50q117 -184 179.5 -362.5t62.5 -405.5q0 -335 -119 -623t-363 -551z" />
<glyph unicode="*" horiz-adv-x="901" d="M160 1192l35 108l299 -114l-17 321h115l-17 -321l299 114l35 -108l-309 -84l203 -250l-92 -65l-176 266l-177 -266l-92 65l201 250z" />
<glyph unicode="+" d="M143 586l13 104h311l39 316h115l-39 -316h311l-12 -104h-312l-39 -316h-114l39 316h-312z" />
<glyph unicode="," horiz-adv-x="573" d="M14 -309l140 299q-43 24 -43 82q0 42 29 70t73 28q43 0 69.5 -25t26.5 -63q0 -46 -45 -119l-166 -272h-84z" />
<glyph unicode="-" horiz-adv-x="798" d="M135 586l15 106h528l-14 -106h-529z" />
<glyph unicode="." horiz-adv-x="573" d="M117 74q0 42 27 69t71 27q45 0 71.5 -27t26.5 -69t-26.5 -69.5t-71.5 -27.5q-44 0 -71 27.5t-27 69.5z" />
<glyph unicode="/" horiz-adv-x="1064" d="M90 -145l791 1792l94 -33l-795 -1794z" />
<glyph unicode="0" horiz-adv-x="1118" d="M121 479q0 92 12 203q43 346 174 524t344 178q180 0 274.5 -128t94.5 -375q0 -75 -14 -201q-41 -345 -174.5 -524t-348.5 -179q-180 0 -271 127t-91 375zM240 459q0 -195 63 -287t193 -92q162 0 255.5 143.5t131.5 456.5q16 134 16 223q0 195 -63 287t-193 92 q-162 0 -254.5 -143t-132.5 -457q-16 -134 -16 -223z" />
<glyph unicode="1" horiz-adv-x="733" d="M92 1116l422 246h98l-166 -1362h-114l149 1231l-338 -207z" />
<glyph unicode="2" horiz-adv-x="952" d="M-8 0l12 102q160 145 263 242.5t196.5 193.5t146 162.5t92 134.5t54 126t14.5 122q0 98 -55.5 148.5t-157.5 50.5q-90 0 -176 -40.5t-186 -131.5l-78 70q223 204 450 204q152 0 241 -77.5t89 -214.5q0 -70 -17 -136t-58 -139t-95.5 -144t-143.5 -163.5t-186 -184.5 t-239 -219h643l-29 -106h-780z" />
<glyph unicode="3" horiz-adv-x="985" d="M4 162l90 69q127 -151 324 -151q147 0 232 86.5t85 236.5q0 131 -75 198t-222 67h-63l24 96h50q151 0 240 88t89 225q0 98 -57.5 152.5t-161.5 54.5q-161 0 -336 -127l-57 78q196 149 401 149q154 0 244 -81.5t90 -210.5q0 -136 -79 -229.5t-199 -135.5l-2 -6 q112 -30 176.5 -116t64.5 -197q0 -193 -121.5 -312t-326.5 -119q-119 0 -228.5 49.5t-181.5 135.5z" />
<glyph unicode="4" horiz-adv-x="1028" d="M63 354l11 95l524 935l96 -43l-489 -882h457l63 397h102l-49 -397h183l-13 -105h-182l-43 -354h-117l43 354h-586z" />
<glyph unicode="5" horiz-adv-x="1030" d="M35 145l88 72q68 -69 153.5 -104t172.5 -35q147 0 239 113t92 315q0 128 -68.5 196t-185.5 68q-106 0 -235 -61h-92l80 653h684l-29 -102h-555l-55 -455q128 59 241 59q144 0 241 -94t97 -260q0 -246 -125.5 -389.5t-335.5 -143.5q-117 0 -223.5 42t-183.5 126z" />
<glyph unicode="6" horiz-adv-x="1062" d="M113 451q0 221 46 400.5t126 294.5t185.5 176.5t227.5 61.5q152 0 269 -84l-62 -86q-98 70 -215 70q-74 0 -143.5 -38.5t-130 -112.5t-105.5 -194t-65 -271q81 105 183 162t198 57q137 0 225 -89.5t88 -258.5q0 -254 -130 -408t-325 -154q-173 0 -272.5 119t-99.5 355z M231 432q0 -181 70 -267.5t186 -86.5q66 0 124 29t104 83.5t73 141.5t27 196q0 132 -58.5 196t-162.5 64q-89 0 -184 -61.5t-174 -167.5q-5 -51 -5 -127z" />
<glyph unicode="7" horiz-adv-x="833" d="M80 12l653 1245h-631l13 105h762l-13 -96l-671 -1289z" />
<glyph unicode="8" horiz-adv-x="1128" d="M80 313q0 142 90.5 251.5t259.5 172.5q-203 101 -203 291q0 157 115.5 256.5t302.5 99.5q158 0 262.5 -80t104.5 -208q0 -238 -285 -381q262 -119 262 -326q0 -183 -135.5 -297.5t-349.5 -114.5q-198 0 -311 95t-113 241zM207 317q0 -111 79.5 -174t223.5 -63 q153 0 253.5 85t100.5 220q0 63 -26.5 108.5t-104 96t-219.5 104.5q-150 -57 -228.5 -153.5t-78.5 -223.5zM346 1028q0 -91 64.5 -153.5t230.5 -122.5q252 127 252 335q0 89 -68 145t-182 56q-140 0 -218.5 -70.5t-78.5 -189.5z" />
<glyph unicode="9" horiz-adv-x="1062" d="M145 61q308 89 479 241t214 409l-4 2q-70 -98 -165 -148.5t-198 -50.5q-139 0 -230 102t-91 269q0 117 35.5 212t97.5 157.5t144.5 96t176.5 33.5q168 0 271.5 -109.5t103.5 -313.5q0 -212 -52 -374.5t-158 -281t-253 -199.5t-352 -139zM270 883q0 -130 63 -199.5 t173 -69.5q188 0 342 211q8 65 8 136q0 168 -69 244.5t-187 76.5q-145 0 -237.5 -103.5t-92.5 -295.5z" />
<glyph unicode=":" horiz-adv-x="573" d="M117 74q0 42 27 69t71 27q45 0 71.5 -27t26.5 -69t-26.5 -69.5t-71.5 -27.5q-44 0 -71 27.5t-27 69.5zM227 872q0 42 27.5 69.5t71.5 27.5q45 0 71.5 -27.5t26.5 -69.5t-26.5 -69t-71.5 -27q-44 0 -71.5 27t-27.5 69z" />
<glyph unicode=";" horiz-adv-x="573" d="M14 -309l140 299q-43 24 -43 82q0 42 29 70t73 28q43 0 69.5 -25t26.5 -63q0 -46 -45 -119l-166 -272h-84zM227 872q0 42 27.5 69.5t71.5 27.5q45 0 71.5 -27.5t26.5 -69.5t-26.5 -69t-71.5 -27q-44 0 -71.5 27t-27.5 69z" />
<glyph unicode="&#x3c;" d="M147 631l13 102l753 338l35 -98l-674 -297l600 -291l-57 -92z" />
<glyph unicode="=" d="M121 406l12 106h737l-12 -106h-737zM164 762l14 106h737l-14 -106h-737z" />
<glyph unicode="&#x3e;" d="M96 391l674 297l-600 291l57 92l670 -338l-12 -102l-754 -338z" />
<glyph unicode="?" horiz-adv-x="1085" d="M213 1239q87 93 196.5 139.5t217.5 46.5q140 0 231.5 -73.5t91.5 -182.5q0 -74 -26.5 -132t-68.5 -95t-92.5 -68t-101.5 -60t-93 -61.5t-68.5 -81.5t-26.5 -112q0 -37 10 -82l-100 -18q-16 52 -16 114q0 75 25.5 132.5t65.5 93t89 64t98 55t89 57t65.5 78t25.5 110.5 q0 77 -55 119.5t-154 42.5q-180 0 -331 -151zM289 74q0 42 26.5 69t71.5 27q44 0 71 -27t27 -69t-27 -69.5t-71 -27.5q-45 0 -71.5 27.5t-26.5 69.5z" />
<glyph unicode="@" horiz-adv-x="2088" d="M152 348q0 247 73 449.5t204.5 340t316.5 212.5t407 75q176 0 321.5 -51.5t244 -143t152.5 -218.5t54 -277q0 -164 -35 -298.5t-94.5 -221.5t-137.5 -134.5t-165 -47.5q-97 0 -165.5 52.5t-74.5 137.5l-8 2q-45 -83 -127.5 -132.5t-183.5 -49.5q-133 0 -218 95t-85 261 q0 275 132.5 426.5t342.5 151.5q156 0 307 -82l-70 -545q-14 -110 27.5 -166.5t118.5 -56.5q62 0 118 39t100 112t70.5 188t26.5 255q0 277 -177 437.5t-476 160.5q-263 0 -462.5 -119.5t-307 -336t-107.5 -498.5q0 -316 190 -499t511 -183q199 0 399 69l21 -96 q-118 -40 -211.5 -58t-222.5 -18q-244 0 -426 90t-282.5 264.5t-100.5 413.5zM748 399q0 -129 59 -194.5t158 -65.5q41 0 80 13t67.5 32.5t53.5 44.5t39.5 46.5t25.5 41.5l63 517q-96 49 -198 49q-148 0 -248 -126.5t-100 -357.5z" />
<glyph unicode="A" horiz-adv-x="1107" d="M-55 0l633 1403h153l289 -1403h-121l-74 379h-585l-166 -379h-129zM285 481h520l-158 813h-4z" />
<glyph unicode="B" horiz-adv-x="1224" d="M145 0l172 1403h322q234 0 345.5 -80t111.5 -238q0 -123 -74 -213t-213 -124l-2 -7q129 -26 199.5 -105.5t70.5 -199.5q0 -208 -141.5 -322t-423.5 -114h-367zM279 102h274q194 0 295.5 87t101.5 247q0 122 -76 188t-217 66h-307zM362 791h275q162 0 248 78.5t86 215.5 q0 109 -80 162t-252 53h-215z" />
<glyph unicode="C" horiz-adv-x="1128" d="M141 575q0 163 34.5 302.5t94.5 239t140.5 170t173.5 104.5t192 34q216 0 357 -131l-80 -77q-126 104 -273 104q-100 0 -191 -48t-163 -138.5t-115 -236.5t-43 -327q0 -126 29 -221.5t80.5 -152.5t116.5 -85t143 -28q181 0 326 117l57 -84q-169 -140 -389 -140 q-107 0 -195 36t-154.5 107.5t-103.5 187.5t-37 267z" />
<glyph unicode="D" horiz-adv-x="1290" d="M145 0l172 1403h265q290 0 443 -138t153 -415q0 -404 -193 -627t-553 -223h-287zM279 102h163q290 0 449.5 193.5t159.5 552.5q0 233 -121.5 342.5t-366.5 109.5h-139z" />
<glyph unicode="E" horiz-adv-x="1040" d="M145 0l172 1403h709l-29 -103h-573l-64 -522h498l-12 -102h-498l-69 -574h604l-13 -102h-725z" />
<glyph unicode="F" horiz-adv-x="993" d="M145 0l172 1403h699l-29 -103h-563l-66 -546h488l-12 -103h-488l-80 -651h-121z" />
<glyph unicode="G" horiz-adv-x="1267" d="M141 555q0 167 35.5 309t98.5 244.5t147.5 174.5t183 107t205.5 35q224 0 375 -139l-78 -76q-125 111 -303 111q-104 0 -199 -49.5t-171 -142.5t-121.5 -241t-45.5 -331q0 -231 106.5 -353t276.5 -122q175 0 307 76l62 499h-287l-2 103h420l-82 -666q-207 -117 -426 -117 q-110 0 -201 36.5t-158.5 107t-105 181.5t-37.5 253z" />
<glyph unicode="H" horiz-adv-x="1335" d="M145 0l172 1403h121l-76 -612h660l76 612h121l-172 -1403h-121l84 688h-660l-84 -688h-121z" />
<glyph unicode="I" horiz-adv-x="555" d="M145 0l172 1403h121l-172 -1403h-121z" />
<glyph unicode="J" horiz-adv-x="577" d="M-86 -182q136 52 196.5 130t77.5 220l152 1235h121l-152 -1231q-12 -101 -38.5 -172t-74.5 -123t-109 -87t-155 -69z" />
<glyph unicode="K" horiz-adv-x="1103" d="M145 0l172 1403h121l-172 -1403h-121zM367 760l661 643h146l-664 -651l526 -752h-143z" />
<glyph unicode="L" horiz-adv-x="960" d="M145 0l172 1403h121l-159 -1292h585l-28 -111h-691z" />
<glyph unicode="M" horiz-adv-x="1583" d="M66 0l305 1403h161l216 -1088h8l481 1088h172l-35 -1403h-110l10 535q7 417 20 737h-4l-493 -1106h-119l-227 1106h-5q-68 -359 -163 -811l-97 -461h-120z" />
<glyph unicode="N" horiz-adv-x="1359" d="M145 0l172 1403h150l516 -1276h4q16 247 80 772l61 504h115l-172 -1403h-151l-517 1274h-4q-9 -197 -65 -660l-74 -614h-115z" />
<glyph unicode="O" horiz-adv-x="1388" d="M141 547q0 206 50.5 374t138 277t204 168t250.5 59q221 0 355.5 -148t134.5 -423q0 -252 -78 -451t-224.5 -312.5t-338.5 -113.5q-231 0 -361.5 147t-130.5 423zM268 541q0 -229 97.5 -344t269.5 -115q105 0 196 48.5t162.5 142t112.5 245t41 342.5q0 235 -99 348 t-266 113q-105 0 -197 -49t-163.5 -143t-112.5 -245.5t-41 -342.5z" />
<glyph unicode="P" horiz-adv-x="1153" d="M145 0l172 1403h320q491 0 491 -356q0 -234 -147.5 -367t-425.5 -133h-223l-66 -547h-121zM344 649h234q213 0 318 101t105 292q0 130 -88.5 194t-277.5 64h-211z" />
<glyph unicode="Q" horiz-adv-x="1388" d="M141 547q0 206 50.5 374t138 277t204 168t250.5 59q221 0 355.5 -148t134.5 -423q0 -301 -110.5 -510t-307.5 -295l2 -6q120 0 228.5 -33t173.5 -96l-93 -104q-96 95 -217 132.5t-305 39.5h-24q-222 0 -351 144t-129 421zM268 541q0 -229 97.5 -344t269.5 -115 q105 0 196 48.5t162.5 142t112.5 245t41 342.5q0 235 -99 348t-266 113q-105 0 -197 -49t-163.5 -143t-112.5 -245.5t-41 -342.5z" />
<glyph unicode="R" horiz-adv-x="1185" d="M145 0l172 1403h349q227 0 344.5 -86.5t117.5 -247.5q0 -170 -103.5 -281.5t-301.5 -140.5l344 -647h-137l-324 631h-264l-76 -631h-121zM354 731h242q201 0 303 85t102 249q0 118 -83.5 176.5t-260.5 58.5h-233z" />
<glyph unicode="S" horiz-adv-x="1103" d="M45 160l82 84q73 -73 172.5 -117.5t210.5 -44.5q165 0 261.5 89t96.5 232q0 51 -12.5 87.5t-47.5 72.5t-96.5 68t-160.5 69q-202 75 -283.5 161t-81.5 216q0 153 121 250.5t324 97.5q120 0 228.5 -38.5t180.5 -106.5l-71 -84q-128 125 -340 125q-147 0 -231.5 -67.5 t-84.5 -176.5q0 -93 60 -149t243 -127q212 -83 295.5 -172.5t83.5 -218.5q0 -194 -130 -313.5t-351 -119.5q-140 0 -265.5 50t-203.5 133z" />
<glyph unicode="T" horiz-adv-x="1013" d="M123 1296l14 107h950l-28 -107h-402l-157 -1296h-121l158 1296h-414z" />
<glyph unicode="U" horiz-adv-x="1323" d="M174 365q0 37 6 81l119 957h121l-117 -950q-4 -27 -4 -78q0 -147 77 -220t222 -73q166 0 266 92t123 279l117 950h121l-119 -957q-28 -230 -156 -349.5t-354 -119.5q-199 0 -310.5 100.5t-111.5 287.5z" />
<glyph unicode="V" horiz-adv-x="1105" d="M127 1403h129l238 -1270h4l553 1270h129l-629 -1403h-135z" />
<glyph unicode="W" horiz-adv-x="1622" d="M147 1403h119l103 -1272h4l465 1272h133l162 -1272h4l422 1272h116l-477 -1403h-149l-158 1249h-4l-457 -1249h-149z" />
<glyph unicode="X" horiz-adv-x="1054" d="M-66 0l537 754l-309 649h137l248 -565h4l399 565h142l-476 -643l361 -760h-137l-299 672h-4l-459 -672h-144z" />
<glyph unicode="Y" horiz-adv-x="1050" d="M106 1403h132l292 -725h5l475 725h135l-559 -836l-70 -567h-121l68 565z" />
<glyph unicode="Z" horiz-adv-x="1036" d="M-4 0l12 100l891 1198h-670l15 105h805l-13 -100l-891 -1197h729l-26 -106h-852z" />
<glyph unicode="[" horiz-adv-x="665" d="M92 -166l215 1763h338l-10 -90h-232l-194 -1583h231l-10 -90h-338z" />
<glyph unicode="\" horiz-adv-x="1064" d="M131 1618l92 29l688 -1790l-90 -31z" />
<glyph unicode="]" horiz-adv-x="665" d="M51 -166l10 90h232l194 1583h-231l10 90h338l-215 -1763h-338z" />
<glyph unicode="^" horiz-adv-x="1064" d="M162 1079l475 625h98l307 -625h-127l-237 510l-381 -510h-135z" />
<glyph unicode="_" horiz-adv-x="1064" d="M-35 -240l15 107h901l-15 -107h-901z" />
<glyph unicode="`" horiz-adv-x="575" d="M61 1442l50 106l403 -215l-31 -69z" />
<glyph unicode="a" horiz-adv-x="1169" d="M111 395q0 159 45 292.5t121.5 221.5t178 136.5t214.5 48.5q79 0 168.5 -24t165.5 -66l-107 -771q-4 -23 -4 -61q0 -51 18.5 -76t59.5 -37l-33 -82q-81 13 -119.5 55.5t-38.5 117.5q0 30 6 71q-162 -244 -362 -244q-139 0 -226 109t-87 309zM236 395q0 -158 62.5 -236.5 t158.5 -78.5q85 0 178 76.5t166 224.5l78 561q-96 51 -215 51q-84 0 -160.5 -41t-136.5 -115.5t-95.5 -189t-35.5 -252.5z" />
<glyph unicode="b" horiz-adv-x="1179" d="M141 47l205 1460l119 15l-103 -736q95 150 195.5 229t220.5 79q125 0 200 -89.5t75 -273.5q0 -174 -42.5 -317t-117.5 -238t-177 -147t-220 -52q-164 0 -355 70zM272 127q129 -47 234 -47q83 0 158.5 42.5t134.5 122.5t94 206.5t35 281.5q0 132 -49 197t-123 65 q-101 0 -202 -93t-214 -288z" />
<glyph unicode="c" horiz-adv-x="970" d="M111 432q0 150 43 276.5t116 210t169.5 129.5t203.5 46q164 0 303 -105l-61 -84q-107 88 -244 88q-80 0 -152.5 -37.5t-129 -106.5t-90 -177t-33.5 -240q0 -172 77 -263t201 -91q142 0 272 94l50 -84q-156 -111 -328 -111q-181 0 -289 120t-108 335z" />
<glyph unicode="d" horiz-adv-x="1181" d="M111 395q0 164 41.5 299.5t110.5 221t156 132t181 46.5q178 0 297 -146l82 574l115 -15l-211 -1507h-103l17 219q-161 -242 -371 -242q-141 0 -228 104.5t-87 313.5zM236 395q0 -160 61 -237.5t162 -77.5q88 0 186.5 81t173.5 236l62 430q-46 81 -115 123.5t-148 42.5 q-73 0 -140 -37t-122 -108t-87.5 -188.5t-32.5 -264.5z" />
<glyph unicode="e" horiz-adv-x="1085" d="M111 420q0 148 45.5 275.5t122 214t179 135.5t214.5 49q138 0 224.5 -69.5t86.5 -178.5q0 -81 -41 -148.5t-127.5 -123t-235 -91t-348.5 -43.5q1 -186 79.5 -274t209.5 -88q158 0 297 106l49 -80q-160 -127 -344 -127q-188 0 -299.5 117t-111.5 326zM236 522 q163 6 285.5 33.5t194.5 72t107 99t35 119.5q0 70 -50 108.5t-144 38.5q-158 0 -281 -130t-147 -341z" />
<glyph unicode="f" horiz-adv-x="661" d="M-106 -324q146 68 201 145t77 236l127 918h-199l15 96h198l25 172q21 140 96 209.5t213 69.5q119 0 250 -72l-47 -86q-108 57 -213 57q-81 0 -126 -43.5t-58 -140.5l-23 -166h283l-29 -96h-268l-127 -916q-20 -143 -59 -227t-106 -137.5t-196 -112.5z" />
<glyph unicode="g" horiz-adv-x="1183" d="M80 -319l45 90q167 -90 317 -90q280 0 330 352l29 213q-161 -248 -367 -248q-138 0 -229.5 107.5t-91.5 302.5q0 156 47 287t125.5 217t181 134t215.5 48q178 0 342 -95l-135 -966q-30 -221 -145 -337t-293 -116q-179 0 -371 101zM238 408q0 -153 63.5 -230.5 t165.5 -77.5q85 0 183.5 83.5t176.5 242.5l72 512q-98 55 -221 55q-84 0 -162.5 -40.5t-140.5 -113.5t-99.5 -185.5t-37.5 -245.5z" />
<glyph unicode="h" horiz-adv-x="1171" d="M135 0l211 1507l119 15l-105 -740q102 165 205 238.5t213 73.5q105 0 162 -59.5t57 -182.5q0 -38 -6 -84l-106 -768h-117l104 748q7 58 7 88q0 87 -32.5 123t-94.5 36q-196 0 -416 -385l-84 -610h-117z" />
<glyph unicode="i" horiz-adv-x="534" d="M127 0l149 1071h117l-149 -1071h-117zM291 1399q0 37 24.5 61.5t63.5 24.5t63.5 -24.5t24.5 -61.5t-24.5 -61.5t-63.5 -24.5t-63.5 24.5t-24.5 61.5z" />
<glyph unicode="j" horiz-adv-x="536" d="M-143 -324q146 68 200.5 141t75.5 220l146 1034h116l-143 -1012q-20 -143 -59 -227t-106 -137.5t-196 -112.5zM293 1399q0 37 24.5 61.5t63.5 24.5t63.5 -24.5t24.5 -61.5t-24.5 -61.5t-63.5 -24.5t-63.5 24.5t-24.5 61.5z" />
<glyph unicode="k" horiz-adv-x="1048" d="M135 0l211 1507l119 15l-107 -750q88 163 199.5 242.5t235.5 79.5q102 0 166.5 -59.5t64.5 -160.5q0 -133 -93.5 -237t-262.5 -160l231 -477h-135l-244 506q379 103 379 352q0 137 -139 137q-119 0 -248 -131.5t-184 -312.5l-76 -551h-117z" />
<glyph unicode="l" horiz-adv-x="544" d="M143 188l185 1319l118 15l-188 -1342q-2 -17 -2 -31q0 -33 12 -49q16 -22 60 -22q29 0 73 14l25 -84q-60 -31 -133 -31q-89 -1 -127 51q-27 37 -27 103q0 26 4 57z" />
<glyph unicode="m" horiz-adv-x="1744" d="M135 0l150 1071h100l-33 -299q190 322 420 322q195 0 195 -232q0 -49 -4 -78q191 310 411 310q197 0 197 -230q0 -26 -8 -96l-107 -768h-117l105 748q8 60 8 110q0 78 -25.5 107.5t-76.5 29.5q-87 0 -192 -90.5t-220 -294.5l-84 -610h-117l105 748q8 60 8 110 q0 78 -25.5 107.5t-76.5 29.5q-87 0 -193 -92.5t-221 -298.5l-82 -604h-117z" />
<glyph unicode="n" horiz-adv-x="1173" d="M135 0l150 1071h100l-33 -299q103 173 207 247.5t219 74.5q104 0 161.5 -59t57.5 -181q0 -40 -6 -86l-106 -768h-117l104 748q7 58 7 88q0 87 -32.5 123t-94.5 36q-199 0 -418 -391l-82 -604h-117z" />
<glyph unicode="o" horiz-adv-x="1157" d="M111 414q0 100 18.5 195.5t60.5 184t102 154.5t150 106t199 40q184 0 286.5 -114t102.5 -318q0 -307 -146 -496t-382 -189q-184 0 -287.5 116t-103.5 321zM233 410q0 -163 71 -248.5t200 -85.5q174 0 288.5 155t114.5 437q0 161 -70 244t-198 83q-84 0 -157 -37.5 t-129 -108.5t-88 -184t-32 -255z" />
<glyph unicode="p" horiz-adv-x="1179" d="M76 -420l209 1491h100l-31 -299q97 157 199 239.5t225 82.5q124 0 199.5 -88t75.5 -273q0 -176 -40.5 -322t-108 -239t-152.5 -144t-177 -51q-181 0 -305 156l-75 -536zM287 250q44 -80 113.5 -126t152.5 -46q58 0 112 26t102 79.5t83.5 129.5t56.5 184t21 234 q0 134 -49 198t-123 64q-101 0 -203.5 -93.5t-216.5 -289.5z" />
<glyph unicode="q" horiz-adv-x="1181" d="M111 395q0 155 45.5 287.5t123 222t181.5 139.5t219 50q178 0 342 -95l-197 -1402l-118 -17l90 641q-160 -244 -367 -244q-144 0 -231.5 107t-87.5 311zM236 395q0 -158 63 -236.5t164 -78.5q87 0 183.5 81t174.5 238l76 539q-98 55 -221 55q-84 0 -163 -41.5 t-140.5 -116t-99 -189.5t-37.5 -251z" />
<glyph unicode="r" horiz-adv-x="743" d="M135 0l150 1071h100l-37 -338q90 193 182 277t195 84q44 0 90 -11l-37 -114q-36 8 -65 8q-93 0 -184.5 -92.5t-198.5 -321.5l-78 -563h-117z" />
<glyph unicode="s" horiz-adv-x="929" d="M20 129l76 80q62 -55 151 -94t175 -39q123 0 189.5 57.5t66.5 151.5q0 75 -54 128t-202 107q-150 55 -216.5 126.5t-66.5 172.5q0 124 93 199.5t257 75.5q181 0 340 -109l-65 -86q-130 96 -279 96q-102 0 -161.5 -47t-59.5 -121t46.5 -121t187.5 -100q167 -64 236 -138.5 t69 -178.5q0 -143 -99.5 -227.5t-285.5 -84.5q-111 0 -223 45.5t-175 106.5z" />
<glyph unicode="t" horiz-adv-x="739" d="M102 981l13 90h198l66 260l90 10l-39 -270h281l-25 -90h-268l-101 -709q-4 -23 -4 -59q0 -71 33 -103t98 -32q75 0 170 53l43 -86q-111 -68 -225 -68q-235 0 -235 238q0 37 6 80l98 686h-199z" />
<glyph unicode="u" horiz-adv-x="1157" d="M158 236q0 36 6 79l106 756h117l-104 -741q-7 -58 -7 -86q0 -90 35 -129t101 -39q96 0 196 77t189 248l94 670h117l-150 -1071h-100l24 248q-84 -137 -187 -204t-198 -67q-114 0 -176.5 66t-62.5 193z" />
<glyph unicode="v" horiz-adv-x="950" d="M94 1071h123l191 -962h4l452 962h127l-526 -1071h-137z" />
<glyph unicode="w" horiz-adv-x="1425" d="M115 1071h118l89 -971h2l393 971h133l113 -969h6l360 969h117l-412 -1071h-162l-104 948h-4l-375 -948h-156z" />
<glyph unicode="x" horiz-adv-x="927" d="M-66 0l457 573l-258 498h135l199 -422h4l317 422h144l-400 -496l297 -575h-135l-237 494h-6l-367 -494h-150z" />
<glyph unicode="y" horiz-adv-x="946" d="M-31 -324q146 27 239.5 105.5t160.5 218.5h-43l-232 1071h125l193 -977h4l442 977h129l-510 -1075q-44 -92 -87.5 -157t-102.5 -120.5t-136.5 -89.5t-177.5 -49z" />
<glyph unicode="z" horiz-adv-x="862" d="M-25 0l13 90l721 881h-549l14 100h688l-12 -90l-721 -881h592l-27 -100h-719z" />
<glyph unicode="{" horiz-adv-x="665" d="M100 664l15 104q81 0 123.5 39.5t52.5 128.5l53 432q17 131 88.5 180t222.5 49l-10 -90q-98 0 -142 -29t-54 -112l-54 -434q-10 -86 -45.5 -138t-122.5 -75l-2 -6q121 -30 121 -164q0 -29 -2 -45l-55 -438q-2 -12 -2 -35q0 -62 38 -84.5t126 -22.5l-11 -90 q-129 0 -194.5 41t-65.5 143q0 29 2 45l56 439q2 12 2 33q0 64 -37 96.5t-103 32.5z" />
<glyph unicode="|" horiz-adv-x="778" d="M244 -176l221 1796h102l-221 -1796h-102z" />
<glyph unicode="}" horiz-adv-x="665" d="M41 -166l10 90q98 0 141.5 29.5t53.5 112.5l55 438q12 91 53.5 141t114.5 68l2 6q-68 19 -95.5 59t-27.5 101q0 17 4 53l54 434q2 12 2 35q0 62 -37 84t-125 22l10 90q129 0 194.5 -41t65.5 -143q0 -29 -2 -45l-53 -432q-2 -14 -2 -41q0 -67 33 -97t104 -30l-14 -104 q-154 0 -174 -162l-56 -439q-17 -130 -90.5 -179.5t-220.5 -49.5z" />
<glyph unicode="~" d="M125 602q45 70 113 109t139 39q51 0 109.5 -23t110 -46.5t83.5 -23.5q93 0 162 91l71 -54q-97 -141 -249 -141q-62 0 -167 46t-141 46q-93 0 -161 -90z" />
<glyph unicode="&#xa1;" horiz-adv-x="573" d="M104 -403l117 927l119 21l-119 -948h-117zM213 870q0 42 26.5 69.5t71.5 27.5q44 0 71.5 -27.5t27.5 -69.5t-27.5 -69t-71.5 -27q-45 0 -71.5 27t-26.5 69z" />
<glyph unicode="&#xa2;" d="M111 432q0 142 38.5 263t105 203.5t154.5 133t187 60.5l37 301h98l-37 -301q130 -14 252 -103l-61 -84q-107 88 -244 88q-80 0 -152.5 -37.5t-129 -106.5t-90 -177t-33.5 -240q0 -172 77 -263t201 -91q142 0 272 94l50 -84q-132 -92 -281 -108l-33 -287h-100l35 289 q-160 15 -253 133t-93 317z" />
<glyph unicode="&#xa3;" d="M29 0l12 102q83 45 123 106t51 152l39 320h-133l12 96h133l33 271q21 173 113 255t237 82q95 0 190 -43t154 -116l-88 -64q-48 57 -116 90t-140 33q-106 0 -162 -55t-71 -182l-33 -271h389l-12 -96h-389l-35 -289q-13 -109 -49.5 -173.5t-100.5 -104.5l-2 -7h627 l-27 -106h-755z" />
<glyph unicode="&#xa5;" d="M117 1362h131l272 -643h6l432 643h138l-471 -653h229l-12 -97h-269l-22 -180h268l-10 -96h-268l-41 -336h-119l41 336h-268l10 96h268l23 180h-269l13 97h227z" />
<glyph unicode="&#xa7;" d="M80 -27l65 86q136 -100 293 -100q106 0 163.5 46.5t57.5 117.5t-45 115t-182 98q-162 63 -229.5 134.5t-67.5 172.5q0 81 53 148.5t144 113.5q-84 78 -84 191q0 120 87 193t247 73q189 0 348 -109l-66 -86q-132 97 -286 97q-98 0 -152.5 -45t-54.5 -115 q0 -72 45.5 -117.5t181.5 -99.5q161 -63 229 -137t68 -175q0 -80 -53 -145.5t-144 -112.5q84 -75 84 -186q0 -119 -94 -194.5t-254 -75.5q-93 0 -188 30.5t-166 81.5zM258 647q0 -69 54.5 -121t195.5 -104q62 -23 127 -60q68 41 102.5 90t34.5 119t-55 124t-195 106 q-67 24 -127 59q-68 -42 -102.5 -92.5t-34.5 -120.5z" />
<glyph unicode="&#xa8;" horiz-adv-x="671" d="M61 1368q0 35 22.5 57.5t59.5 22.5t59.5 -22.5t22.5 -57.5t-22.5 -57.5t-59.5 -22.5t-59.5 22.5t-22.5 57.5zM446 1368q0 35 22.5 57.5t59.5 22.5t59.5 -22.5t22.5 -57.5t-22.5 -57.5t-59.5 -22.5t-59.5 22.5t-22.5 57.5z" />
<glyph unicode="&#xa9;" horiz-adv-x="1638" d="M225 895q0 122 47 232t126 189t189 126t232 47t232.5 -46.5t189.5 -126t125.5 -189.5t46.5 -232t-46.5 -232.5t-125.5 -189.5t-189.5 -125.5t-232.5 -46.5t-232 46.5t-189.5 125.5t-126 189.5t-46.5 232.5zM315 895q0 -216 145.5 -364t358.5 -148q214 0 358 148t144 364 t-144 365t-358 149q-140 0 -256 -68t-182 -186t-66 -260zM532 901q0 165 83.5 256.5t207.5 91.5q117 0 203 -67l-53 -74q-64 53 -146 53q-84 0 -136 -62t-52 -198q0 -135 52 -197.5t140 -62.5q81 0 158 57l51 -71q-91 -78 -213 -78q-130 0 -212.5 92.5t-82.5 259.5z" />
<glyph unicode="&#xaa;" horiz-adv-x="1228" d="M172 0l14 106h699l-15 -106h-698zM266 868q0 136 113.5 215.5t345.5 79.5h137l10 78q14 102 -30 147.5t-156 45.5q-114 0 -250 -50l-20 82q158 56 297 56q147 0 217 -72t51 -203l-59 -411q-7 -51 -7 -68q0 -34 12 -47.5t40 -18.5l-11 -73q-73 9 -103.5 41t-33.5 98 q-116 -139 -303 -139q-109 0 -179.5 65.5t-70.5 173.5zM387 868q0 -73 44.5 -112t121.5 -39q157 0 268 153l29 211h-131q-175 0 -253.5 -54t-78.5 -159z" />
<glyph unicode="&#xab;" horiz-adv-x="1064" d="M139 557l11 84l399 424l63 -51l-338 -422l222 -408l-78 -49zM508 557l10 84l400 424l63 -51l-338 -422l221 -408l-78 -49z" />
<glyph unicode="&#xac;" d="M143 586l13 106h737l-43 -354h-113l31 248h-625z" />
<glyph unicode="&#xad;" horiz-adv-x="798" d="M135 586l15 106h528l-14 -106h-529z" />
<glyph unicode="&#xae;" horiz-adv-x="1312" d="M164 1006q0 205 142.5 349t350.5 144q103 0 194.5 -39t156.5 -105t103 -157t38 -192q0 -207 -141.5 -347.5t-350.5 -140.5t-351 140.5t-142 347.5zM246 1006q0 -175 119 -294.5t292 -119.5q174 0 289 119t115 295t-115.5 297.5t-288.5 121.5t-292 -122t-119 -297z M467 733v553h156q119 0 176 -39.5t57 -122.5q0 -122 -139 -153l188 -238h-114l-173 228h-63v-228h-88zM555 1032h76q135 0 135 92q0 47 -36 67.5t-112 20.5h-63v-180z" />
<glyph unicode="&#xaf;" horiz-adv-x="616" d="M61 1366l15 96h479l-14 -96h-480z" />
<glyph unicode="&#xb0;" d="M209 1100q0 140 91 232.5t237 92.5q113 0 190.5 -71t77.5 -187q0 -142 -91 -233.5t-231 -91.5q-122 0 -198 71t-76 187zM322 1102q0 -80 45.5 -125t117.5 -45q92 0 149.5 64t57.5 171q0 81 -43.5 124.5t-113.5 43.5q-91 0 -152 -62t-61 -171z" />
<glyph unicode="&#xb1;" d="M72 0l12 109h737l-12 -109h-737zM143 586l13 104h311l39 316h115l-39 -316h311l-12 -104h-312l-34 -275h-115l35 275h-312z" />
<glyph unicode="&#xb4;" horiz-adv-x="575" d="M61 1333l404 215l49 -106l-422 -178z" />
<glyph unicode="&#xb5;" horiz-adv-x="1173" d="M76 -416l209 1487h116l-104 -741q-6 -43 -6 -80q0 -91 37 -132.5t112 -41.5q97 0 192 87t179 234l94 674h117l-90 -643q-21 -156 -21 -250q0 -81 19 -178l-103 -18q-22 83 -22 198q0 55 2 88q-70 -128 -176 -209.5t-207 -81.5q-74 0 -118 26.5t-73 92.5l-6 -2 q4 -36 4 -71q0 -109 -26 -295l-19 -131z" />
<glyph unicode="&#xb6;" horiz-adv-x="1392" d="M233 1012q0 182 140 286.5t401 104.5h432l-223 -1809l-111 -14l213 1733h-235l-162 -1315q-26 -218 -111.5 -333t-234.5 -171l-35 94q117 51 185 144t86 241l84 680q-214 3 -321.5 101.5t-107.5 257.5z" />
<glyph unicode="&#xb7;" horiz-adv-x="573" d="M197 647q0 42 27 69t71 27q45 0 71.5 -27t26.5 -69t-26.5 -69t-71.5 -27q-44 0 -71 27t-27 69z" />
<glyph unicode="&#xb8;" horiz-adv-x="528" d="M61 -416l54 78q61 -35 129 -35q49 0 76.5 25t27.5 69q0 39 -35.5 58t-115.5 20l57 234h86l-29 -170q156 -18 156 -139q0 -83 -61.5 -135t-161.5 -52q-107 0 -183 47z" />
<glyph unicode="&#xba;" horiz-adv-x="1228" d="M182 0l15 106h698l-14 -106h-699zM291 985q0 240 120.5 388.5t321.5 148.5q153 0 247.5 -93.5t94.5 -259.5q0 -242 -124.5 -391t-317.5 -149q-160 0 -251 95t-91 261zM403 977q0 -128 60.5 -194t171.5 -66q142 0 235 117.5t93 334.5q0 130 -61.5 197.5t-170.5 67.5 q-149 0 -238.5 -122t-89.5 -335z" />
<glyph unicode="&#xbb;" horiz-adv-x="1064" d="M86 184l338 422l-221 408l78 49l278 -422l-10 -84l-399 -424zM455 184l338 422l-222 408l78 49l279 -422l-10 -84l-400 -424z" />
<glyph unicode="&#xbf;" horiz-adv-x="1085" d="M115 -164q0 74 26.5 132t68.5 95t93 68t101.5 60t92.5 61.5t68.5 81.5t26.5 112q0 37 -10 82l100 19q16 -52 16 -115q0 -75 -25.5 -132.5t-65.5 -93t-89 -64t-98 -55t-89 -57t-65.5 -78t-25.5 -110.5q0 -77 54.5 -119t154.5 -42q180 0 331 151l72 -65 q-87 -93 -196.5 -140t-217.5 -47q-140 0 -231.5 73.5t-91.5 182.5zM569 872q0 42 27.5 69.5t71.5 27.5q45 0 71.5 -27.5t26.5 -69.5t-26.5 -69t-71.5 -27q-44 0 -71.5 27t-27.5 69z" />
<glyph unicode="&#xc0;" horiz-adv-x="1107" d="M-55 0l633 1403h153l289 -1403h-121l-74 379h-585l-166 -379h-129zM285 481h520l-158 813h-4zM453 1704l53 106l385 -190l-31 -70z" />
<glyph unicode="&#xc1;" horiz-adv-x="1107" d="M-55 0l633 1403h153l289 -1403h-121l-74 379h-585l-166 -379h-129zM285 481h520l-158 813h-4zM487 1640l385 191l54 -107l-408 -153z" />
<glyph unicode="&#xc2;" horiz-adv-x="1107" d="M-55 0l633 1403h153l289 -1403h-121l-74 379h-585l-166 -379h-129zM285 481h520l-158 813h-4zM381 1618l289 199h61l244 -201l-60 -62l-221 154l-262 -154z" />
<glyph unicode="&#xc3;" horiz-adv-x="1107" d="M-55 0l633 1403h153l289 -1403h-121l-74 379h-585l-166 -379h-129zM285 481h520l-158 813h-4zM381 1624q83 150 207 150q38 0 72.5 -14.5t54.5 -32t43.5 -32t42.5 -14.5q34 0 62 21.5t61 66.5l67 -34q-82 -148 -207 -148q-42 0 -82.5 23t-73.5 46t-57 23q-35 0 -62.5 -22 t-59.5 -68z" />
<glyph unicode="&#xc4;" horiz-adv-x="1107" d="M-55 0l633 1403h153l289 -1403h-121l-74 379h-585l-166 -379h-129zM285 481h520l-158 813h-4zM406 1634q0 36 22 58t59 22t59.5 -22.5t22.5 -57.5t-22.5 -57.5t-59.5 -22.5t-59 22t-22 58zM791 1634q0 36 22.5 58t58.5 22q37 0 59.5 -22.5t22.5 -57.5t-22.5 -57.5 t-59.5 -22.5q-36 0 -58.5 22t-22.5 58z" />
<glyph unicode="&#xc5;" horiz-adv-x="1107" d="M-55 0l633 1403h153l289 -1403h-121l-74 379h-585l-166 -379h-129zM285 481h520l-158 813h-4zM489 1686q0 95 58.5 150.5t154.5 55.5q83 0 136 -46.5t53 -119.5q0 -92 -57.5 -149t-151.5 -57q-90 0 -141.5 45t-51.5 121zM578 1686q0 -43 29 -70t75 -27q55 0 87 37t32 100 q0 46 -28 71.5t-73 25.5q-55 0 -88.5 -36t-33.5 -101z" />
<glyph unicode="&#xc6;" horiz-adv-x="1583" d="M-76 0l719 1403h864l-28 -103h-670l74 -522h508l-13 -102h-481l80 -574h469l-12 -102h-555l-50 379h-587l-189 -379h-129zM293 481h522l-106 822h-4z" />
<glyph unicode="&#xc7;" horiz-adv-x="1128" d="M141 575q0 163 34.5 302.5t94.5 239t140.5 170t173.5 104.5t192 34q216 0 357 -131l-80 -77q-126 104 -273 104q-100 0 -191 -48t-163 -138.5t-115 -236.5t-43 -327q0 -126 29 -221.5t80.5 -152.5t116.5 -85t143 -28q181 0 326 117l57 -84q-156 -132 -371 -140l-18 -114 q155 -18 155 -139q0 -83 -61.5 -135t-161.5 -52q-106 0 -182 47l53 78q61 -35 129 -35q49 0 77 25t28 69q0 39 -35.5 58t-116.5 20l45 183q-192 23 -306 172t-114 421z" />
<glyph unicode="&#xc8;" horiz-adv-x="1040" d="M145 0l172 1403h709l-29 -103h-573l-64 -522h498l-12 -102h-498l-69 -574h604l-13 -102h-725zM487 1704l54 106l385 -190l-31 -70z" />
<glyph unicode="&#xc9;" horiz-adv-x="1040" d="M145 0l172 1403h709l-29 -103h-573l-64 -522h498l-12 -102h-498l-69 -574h604l-13 -102h-725zM502 1620l385 190l53 -106l-408 -154z" />
<glyph unicode="&#xca;" horiz-adv-x="1040" d="M145 0l172 1403h709l-29 -103h-573l-64 -522h498l-12 -102h-498l-69 -574h604l-13 -102h-725zM395 1618l289 199h61l244 -201l-59 -62l-221 154l-263 -154z" />
<glyph unicode="&#xcb;" horiz-adv-x="1040" d="M145 0l172 1403h709l-29 -103h-573l-64 -522h498l-12 -102h-498l-69 -574h604l-13 -102h-725zM422 1634q0 35 22.5 57.5t59.5 22.5t59.5 -22.5t22.5 -57.5t-22.5 -57.5t-59.5 -22.5t-59.5 22.5t-22.5 57.5zM807 1634q0 35 22.5 57.5t59.5 22.5t59.5 -22.5t22.5 -57.5 t-22.5 -57.5t-59.5 -22.5t-59.5 22.5t-22.5 57.5z" />
<glyph unicode="&#xcc;" horiz-adv-x="555" d="M145 0l172 1403h121l-172 -1403h-121zM197 1704l53 106l385 -190l-31 -70z" />
<glyph unicode="&#xcd;" horiz-adv-x="555" d="M145 0l172 1403h121l-172 -1403h-121zM190 1620l385 190l54 -106l-408 -154z" />
<glyph unicode="&#xce;" horiz-adv-x="555" d="M104 1618l289 199h62l243 -201l-59 -62l-221 154l-262 -154zM145 0l172 1403h121l-172 -1403h-121z" />
<glyph unicode="&#xcf;" horiz-adv-x="555" d="M129 1634q0 35 22.5 57.5t59.5 22.5t59.5 -22.5t22.5 -57.5t-22.5 -57.5t-59.5 -22.5t-59.5 22.5t-22.5 57.5zM145 0l172 1403h121l-172 -1403h-121zM514 1634q0 35 22.5 57.5t59.5 22.5t59.5 -22.5t22.5 -57.5t-22.5 -57.5t-59.5 -22.5t-59.5 22.5t-22.5 57.5z" />
<glyph unicode="&#xd0;" horiz-adv-x="1294" d="M53 674l13 98h178l78 631h264q290 0 443 -138t153 -415q0 -404 -193 -627t-553 -223h-286l81 674h-178zM283 102h163q290 0 449.5 193.5t159.5 552.5q0 233 -121.5 342.5t-366.5 109.5h-139l-63 -528h372l-12 -98h-373z" />
<glyph unicode="&#xd1;" horiz-adv-x="1359" d="M145 0l172 1403h150l516 -1276h4q16 247 80 772l61 504h115l-172 -1403h-151l-517 1274h-4q-9 -197 -65 -660l-74 -614h-115zM518 1624q83 150 207 150q38 0 72.5 -14.5t54.5 -32t43.5 -32t42.5 -14.5q34 0 62 21.5t61 66.5l67 -34q-82 -148 -206 -148q-42 0 -82.5 23 t-73.5 46t-57 23q-35 0 -63.5 -22t-59.5 -68z" />
<glyph unicode="&#xd2;" horiz-adv-x="1388" d="M141 547q0 206 50.5 374t138 277t204 168t250.5 59q221 0 355.5 -148t134.5 -423q0 -252 -78 -451t-224.5 -312.5t-338.5 -113.5q-231 0 -361.5 147t-130.5 423zM268 541q0 -229 97.5 -344t269.5 -115q105 0 196 48.5t162.5 142t112.5 245t41 342.5q0 235 -99 348 t-266 113q-105 0 -197 -49t-163.5 -143t-112.5 -245.5t-41 -342.5zM594 1704l53 106l385 -190l-31 -70z" />
<glyph unicode="&#xd3;" horiz-adv-x="1388" d="M141 547q0 206 50.5 374t138 277t204 168t250.5 59q221 0 355.5 -148t134.5 -423q0 -252 -78 -451t-224.5 -312.5t-338.5 -113.5q-231 0 -361.5 147t-130.5 423zM268 541q0 -229 97.5 -344t269.5 -115q105 0 196 48.5t162.5 142t112.5 245t41 342.5q0 235 -99 348 t-266 113q-105 0 -197 -49t-163.5 -143t-112.5 -245.5t-41 -342.5zM629 1620l385 190l53 -106l-408 -154z" />
<glyph unicode="&#xd4;" horiz-adv-x="1388" d="M141 547q0 206 50.5 374t138 277t204 168t250.5 59q221 0 355.5 -148t134.5 -423q0 -252 -78 -451t-224.5 -312.5t-338.5 -113.5q-231 0 -361.5 147t-130.5 423zM268 541q0 -229 97.5 -344t269.5 -115q105 0 196 48.5t162.5 142t112.5 245t41 342.5q0 235 -99 348 t-266 113q-105 0 -197 -49t-163.5 -143t-112.5 -245.5t-41 -342.5zM522 1618l289 199h61l244 -201l-59 -62l-221 154l-263 -154z" />
<glyph unicode="&#xd5;" horiz-adv-x="1388" d="M141 547q0 206 50.5 374t138 277t204 168t250.5 59q221 0 355.5 -148t134.5 -423q0 -252 -78 -451t-224.5 -312.5t-338.5 -113.5q-231 0 -361.5 147t-130.5 423zM268 541q0 -229 97.5 -344t269.5 -115q105 0 196 48.5t162.5 142t112.5 245t41 342.5q0 235 -99 348 t-266 113q-105 0 -197 -49t-163.5 -143t-112.5 -245.5t-41 -342.5zM522 1624q83 150 207 150q38 0 72.5 -14.5t54.5 -32t43.5 -32t42.5 -14.5q34 0 62 21.5t61 66.5l68 -34q-82 -148 -207 -148q-42 0 -82.5 23t-73.5 46t-57 23q-35 0 -63.5 -22t-59.5 -68z" />
<glyph unicode="&#xd6;" horiz-adv-x="1388" d="M141 547q0 206 50.5 374t138 277t204 168t250.5 59q221 0 355.5 -148t134.5 -423q0 -252 -78 -451t-224.5 -312.5t-338.5 -113.5q-231 0 -361.5 147t-130.5 423zM268 541q0 -229 97.5 -344t269.5 -115q105 0 196 48.5t162.5 142t112.5 245t41 342.5q0 235 -99 348 t-266 113q-105 0 -197 -49t-163.5 -143t-112.5 -245.5t-41 -342.5zM547 1634q0 35 22.5 57.5t59.5 22.5t59.5 -22.5t22.5 -57.5t-22.5 -57.5t-59.5 -22.5t-59.5 22.5t-22.5 57.5zM932 1634q0 35 22.5 57.5t59.5 22.5t59.5 -22.5t22.5 -57.5t-22.5 -57.5t-59.5 -22.5 t-59.5 22.5t-22.5 57.5z" />
<glyph unicode="&#xd8;" horiz-adv-x="1388" d="M141 547q0 206 50.5 374t138 277t204 168t250.5 59q79 0 156 -22l107 256l104 -29l-117 -268q113 -65 176.5 -194t63.5 -314q0 -252 -78 -451t-224.5 -312.5t-338.5 -113.5q-82 0 -166 23l-100 -248l-107 29l115 258q-114 64 -174 192.5t-60 315.5zM268 541 q0 -289 156 -400l479 1162q-55 18 -121 18q-105 0 -197 -49t-163.5 -143t-112.5 -245.5t-41 -342.5zM510 98q49 -16 125 -16q105 0 196 48.5t162.5 142t112.5 245t41 342.5q0 291 -160 402z" />
<glyph unicode="&#xd9;" horiz-adv-x="1323" d="M174 365q0 37 6 81l119 957h121l-117 -950q-4 -27 -4 -78q0 -147 77 -220t222 -73q166 0 266 92t123 279l117 950h121l-119 -957q-28 -230 -156 -349.5t-354 -119.5q-199 0 -310.5 100.5t-111.5 287.5zM559 1704l53 106l385 -190l-30 -70z" />
<glyph unicode="&#xda;" horiz-adv-x="1323" d="M174 365q0 37 6 81l119 957h121l-117 -950q-4 -27 -4 -78q0 -147 77 -220t222 -73q166 0 266 92t123 279l117 950h121l-119 -957q-28 -230 -156 -349.5t-354 -119.5q-199 0 -310.5 100.5t-111.5 287.5zM594 1620l385 190l53 -106l-407 -154z" />
<glyph unicode="&#xdb;" horiz-adv-x="1323" d="M174 365q0 37 6 81l119 957h121l-117 -950q-4 -27 -4 -78q0 -147 77 -220t222 -73q166 0 266 92t123 279l117 950h121l-119 -957q-28 -230 -156 -349.5t-354 -119.5q-199 0 -310.5 100.5t-111.5 287.5zM487 1618l289 199h62l243 -201l-59 -62l-221 154l-262 -154z" />
<glyph unicode="&#xdc;" horiz-adv-x="1323" d="M174 365q0 37 6 81l119 957h121l-117 -950q-4 -27 -4 -78q0 -147 77 -220t222 -73q166 0 266 92t123 279l117 950h121l-119 -957q-28 -230 -156 -349.5t-354 -119.5q-199 0 -310.5 100.5t-111.5 287.5zM514 1634q0 35 22.5 57.5t59.5 22.5t59.5 -22.5t22.5 -57.5 t-22.5 -57.5t-59.5 -22.5t-59.5 22.5t-22.5 57.5zM899 1634q0 35 22.5 57.5t59.5 22.5t59.5 -22.5t22.5 -57.5t-22.5 -57.5t-59.5 -22.5t-59.5 22.5t-22.5 57.5z" />
<glyph unicode="&#xdd;" horiz-adv-x="1050" d="M106 1403h132l292 -725h5l475 725h135l-559 -836l-70 -567h-121l68 565zM459 1620l385 190l53 -106l-408 -154z" />
<glyph unicode="&#xde;" horiz-adv-x="1120" d="M145 0l172 1403h121l-30 -246h196q492 0 492 -356q0 -234 -148 -367t-426 -133h-221l-35 -301h-121zM313 403h232q213 0 318.5 101.5t105.5 292.5q0 130 -89 194t-278 64h-207z" />
<glyph unicode="&#xdf;" horiz-adv-x="1200" d="M-137 -324q146 68 200.5 141t75.5 220l152 1075q57 410 420 410q144 0 231.5 -68t87.5 -176q0 -57 -22 -104.5t-54.5 -77.5t-71 -60t-71 -53t-54.5 -55.5t-22 -69.5q0 -45 36.5 -91t88 -89.5t103 -92t88 -116t36.5 -143.5q0 -155 -92 -252t-245 -97q-78 0 -158 26 t-141 69l59 84q122 -78 235 -78q101 0 159.5 62t58.5 173q0 47 -19 90.5t-49.5 77.5t-67.5 66.5t-73.5 65t-67 66t-49.5 75t-19 86.5q0 70 30.5 121.5t74 82.5t86.5 60t73.5 71t30.5 99q0 66 -54 108.5t-150 42.5q-261 0 -303 -307l-148 -1059q-15 -108 -37.5 -178 t-66.5 -125t-101.5 -92.5t-154.5 -81.5z" />
<glyph unicode="&#xe0;" horiz-adv-x="1169" d="M111 395q0 159 45 292.5t121.5 221.5t178 136.5t214.5 48.5q79 0 168.5 -24t165.5 -66l-107 -771q-4 -23 -4 -61q0 -51 18.5 -76t59.5 -37l-33 -82q-81 13 -119.5 55.5t-38.5 117.5q0 30 6 71q-162 -244 -362 -244q-139 0 -226 109t-87 309zM236 395q0 -158 62.5 -236.5 t158.5 -78.5q85 0 178 76.5t166 224.5l78 561q-96 51 -215 51q-84 0 -160.5 -41t-136.5 -115.5t-95.5 -189t-35.5 -252.5zM459 1442l49 106l403 -215l-30 -69z" />
<glyph unicode="&#xe1;" horiz-adv-x="1169" d="M111 395q0 159 45 292.5t121.5 221.5t178 136.5t214.5 48.5q79 0 168.5 -24t165.5 -66l-107 -771q-4 -23 -4 -61q0 -51 18.5 -76t59.5 -37l-33 -82q-81 13 -119.5 55.5t-38.5 117.5q0 30 6 71q-162 -244 -362 -244q-139 0 -226 109t-87 309zM236 395q0 -158 62.5 -236.5 t158.5 -78.5q85 0 178 76.5t166 224.5l78 561q-96 51 -215 51q-84 0 -160.5 -41t-136.5 -115.5t-95.5 -189t-35.5 -252.5zM463 1333l403 215l49 -106l-421 -178z" />
<glyph unicode="&#xe2;" horiz-adv-x="1169" d="M111 395q0 159 45 292.5t121.5 221.5t178 136.5t214.5 48.5q79 0 168.5 -24t165.5 -66l-107 -771q-4 -23 -4 -61q0 -51 18.5 -76t59.5 -37l-33 -82q-81 13 -119.5 55.5t-38.5 117.5q0 30 6 71q-162 -244 -362 -244q-139 0 -226 109t-87 309zM236 395q0 -158 62.5 -236.5 t158.5 -78.5q85 0 178 76.5t166 224.5l78 561q-96 51 -215 51q-84 0 -160.5 -41t-136.5 -115.5t-95.5 -189t-35.5 -252.5zM385 1331l291 219h61l240 -221l-64 -61l-215 174l-268 -174z" />
<glyph unicode="&#xe3;" horiz-adv-x="1169" d="M111 395q0 159 45 292.5t121.5 221.5t178 136.5t214.5 48.5q79 0 168.5 -24t165.5 -66l-107 -771q-4 -23 -4 -61q0 -51 18.5 -76t59.5 -37l-33 -82q-81 13 -119.5 55.5t-38.5 117.5q0 30 6 71q-162 -244 -362 -244q-139 0 -226 109t-87 309zM236 395q0 -158 62.5 -236.5 t158.5 -78.5q85 0 178 76.5t166 224.5l78 561q-96 51 -215 51q-84 0 -160.5 -41t-136.5 -115.5t-95.5 -189t-35.5 -252.5zM387 1358q82 149 209 149q38 0 72.5 -14.5t55.5 -31.5t44.5 -31.5t42.5 -14.5q33 0 60.5 21t60.5 67l67 -35q-84 -147 -211 -147q-42 0 -82.5 23 t-73.5 46t-57 23q-34 0 -61 -21.5t-61 -68.5z" />
<glyph unicode="&#xe4;" horiz-adv-x="1169" d="M111 395q0 159 45 292.5t121.5 221.5t178 136.5t214.5 48.5q79 0 168.5 -24t165.5 -66l-107 -771q-4 -23 -4 -61q0 -51 18.5 -76t59.5 -37l-33 -82q-81 13 -119.5 55.5t-38.5 117.5q0 30 6 71q-162 -244 -362 -244q-139 0 -226 109t-87 309zM236 395q0 -158 62.5 -236.5 t158.5 -78.5q85 0 178 76.5t166 224.5l78 561q-96 51 -215 51q-84 0 -160.5 -41t-136.5 -115.5t-95.5 -189t-35.5 -252.5zM412 1368q0 35 22.5 57.5t59.5 22.5q36 0 58.5 -22t22.5 -58t-22.5 -58t-58.5 -22q-37 0 -59.5 22.5t-22.5 57.5zM797 1368q0 35 22.5 57.5t59.5 22.5 t59.5 -22.5t22.5 -57.5t-22.5 -57.5t-59.5 -22.5t-59.5 22.5t-22.5 57.5z" />
<glyph unicode="&#xe5;" horiz-adv-x="1169" d="M111 395q0 159 45 292.5t121.5 221.5t178 136.5t214.5 48.5q79 0 168.5 -24t165.5 -66l-107 -771q-4 -23 -4 -61q0 -51 18.5 -76t59.5 -37l-33 -82q-81 13 -119.5 55.5t-38.5 117.5q0 30 6 71q-162 -244 -362 -244q-139 0 -226 109t-87 309zM236 395q0 -158 62.5 -236.5 t158.5 -78.5q85 0 178 76.5t166 224.5l78 561q-96 51 -215 51q-84 0 -160.5 -41t-136.5 -115.5t-95.5 -189t-35.5 -252.5zM498 1419q0 95 58.5 151t154.5 56q83 0 135.5 -46t52.5 -120q0 -92 -57.5 -149.5t-151.5 -57.5q-90 0 -141 45t-51 121zM586 1419q0 -43 29 -69.5 t75 -26.5q55 0 87 37t32 100q0 46 -27.5 71t-72.5 25q-55 0 -89 -36t-34 -101z" />
<glyph unicode="&#xe6;" horiz-adv-x="1695" d="M43 264q0 172 135 273.5t385 101.5h185l16 106q20 124 -38 186t-183 62q-136 0 -297 -59l-21 92q183 68 348 68q130 0 207 -59t88 -156q157 215 414 215q138 0 224.5 -69.5t86.5 -178.5q0 -81 -41 -148.5t-127 -123t-234.5 -91t-348.5 -43.5q0 -182 79 -272t209 -90 q158 0 297 106l50 -80q-160 -127 -344 -127q-131 0 -226 60.5t-133 171.5q-101 -126 -194.5 -179t-223.5 -53q-148 0 -230.5 77.5t-82.5 209.5zM170 270q0 -90 53.5 -141t151.5 -51q99 0 190.5 55.5t165.5 163.5q-10 62 -10 119q0 63 10 131h-174q-387 0 -387 -277zM846 522 q163 6 285.5 33.5t194.5 72t107 99t35 119.5q0 70 -50 108.5t-144 38.5q-158 0 -281 -130t-147 -341z" />
<glyph unicode="&#xe7;" horiz-adv-x="970" d="M111 432q0 150 43 276.5t116 210t169.5 129.5t203.5 46q164 0 303 -105l-61 -84q-107 88 -244 88q-80 0 -152.5 -37.5t-129 -106.5t-90 -177t-33.5 -240q0 -172 77 -263t201 -91q142 0 272 94l50 -84q-150 -105 -312 -111l-18 -114q156 -18 156 -139q0 -82 -62 -134.5 t-162 -52.5q-106 0 -182 47l53 78q61 -35 129 -35q49 0 77 25t28 69q0 39 -35.5 58t-116.5 20l45 185q-151 22 -238 139t-87 309z" />
<glyph unicode="&#xe8;" horiz-adv-x="1085" d="M111 420q0 148 45.5 275.5t122 214t179 135.5t214.5 49q138 0 224.5 -69.5t86.5 -178.5q0 -81 -41 -148.5t-127.5 -123t-235 -91t-348.5 -43.5q1 -186 79.5 -274t209.5 -88q158 0 297 106l49 -80q-160 -127 -344 -127q-188 0 -299.5 117t-111.5 326zM236 522 q163 6 285.5 33.5t194.5 72t107 99t35 119.5q0 70 -50 108.5t-144 38.5q-158 0 -281 -130t-147 -341zM446 1442l50 106l403 -215l-31 -69z" />
<glyph unicode="&#xe9;" horiz-adv-x="1085" d="M111 420q0 148 45.5 275.5t122 214t179 135.5t214.5 49q138 0 224.5 -69.5t86.5 -178.5q0 -81 -41 -148.5t-127.5 -123t-235 -91t-348.5 -43.5q1 -186 79.5 -274t209.5 -88q158 0 297 106l49 -80q-160 -127 -344 -127q-188 0 -299.5 117t-111.5 326zM236 522 q163 6 285.5 33.5t194.5 72t107 99t35 119.5q0 70 -50 108.5t-144 38.5q-158 0 -281 -130t-147 -341zM451 1333l403 215l49 -106l-422 -178z" />
<glyph unicode="&#xea;" horiz-adv-x="1085" d="M111 420q0 148 45.5 275.5t122 214t179 135.5t214.5 49q138 0 224.5 -69.5t86.5 -178.5q0 -81 -41 -148.5t-127.5 -123t-235 -91t-348.5 -43.5q1 -186 79.5 -274t209.5 -88q158 0 297 106l49 -80q-160 -127 -344 -127q-188 0 -299.5 117t-111.5 326zM236 522 q163 6 285.5 33.5t194.5 72t107 99t35 119.5q0 70 -50 108.5t-144 38.5q-158 0 -281 -130t-147 -341zM373 1331l291 219h61l240 -221l-64 -61l-215 174l-268 -174z" />
<glyph unicode="&#xeb;" horiz-adv-x="1085" d="M111 420q0 148 45.5 275.5t122 214t179 135.5t214.5 49q138 0 224.5 -69.5t86.5 -178.5q0 -81 -41 -148.5t-127.5 -123t-235 -91t-348.5 -43.5q1 -186 79.5 -274t209.5 -88q158 0 297 106l49 -80q-160 -127 -344 -127q-188 0 -299.5 117t-111.5 326zM236 522 q163 6 285.5 33.5t194.5 72t107 99t35 119.5q0 70 -50 108.5t-144 38.5q-158 0 -281 -130t-147 -341zM399 1368q0 35 22.5 57.5t59.5 22.5t59.5 -22.5t22.5 -57.5t-22.5 -57.5t-59.5 -22.5t-59.5 22.5t-22.5 57.5zM784 1368q0 35 22.5 57.5t59.5 22.5t59.5 -22.5t22.5 -57.5 t-22.5 -57.5t-59.5 -22.5t-59.5 22.5t-22.5 57.5z" />
<glyph unicode="&#xec;" horiz-adv-x="534" d="M125 1442l49 106l404 -215l-31 -69zM127 0l149 1071h117l-149 -1071h-117z" />
<glyph unicode="&#xed;" horiz-adv-x="534" d="M127 0l149 1071h117l-149 -1071h-117zM170 1333l403 215l50 -106l-422 -178z" />
<glyph unicode="&#xee;" horiz-adv-x="534" d="M74 1331l291 219h61l240 -221l-64 -61l-215 174l-268 -174zM127 0l149 1071h117l-149 -1071h-117z" />
<glyph unicode="&#xef;" horiz-adv-x="534" d="M100 1368q0 35 22.5 57.5t59.5 22.5t59.5 -22.5t22.5 -57.5t-22.5 -57.5t-59.5 -22.5t-59.5 22.5t-22.5 57.5zM127 0l149 1071h117l-149 -1071h-117zM485 1368q0 35 22.5 57.5t59.5 22.5t59.5 -22.5t22.5 -57.5t-22.5 -57.5t-59.5 -22.5t-59.5 22.5t-22.5 57.5z" />
<glyph unicode="&#xf0;" horiz-adv-x="1130" d="M104 399q0 127 38 231.5t100.5 170t139.5 101.5t159 36q101 0 193 -46.5t145 -127.5l6 2q4 46 4 59q0 154 -48 263t-149 182l-170 -152l-80 39l174 160q-100 50 -233 84l41 96q164 -41 276 -104l177 161l65 -61l-168 -150q234 -173 234 -522q0 -210 -37.5 -372 t-107 -264.5t-164 -155t-210.5 -52.5q-171 0 -278 112.5t-107 309.5zM225 397q0 -150 77.5 -235.5t195.5 -85.5q69 0 128.5 32t110 97.5t85.5 174.5t48 253q-51 99 -133 153t-178 54q-65 0 -123.5 -27t-106 -79.5t-76 -139.5t-28.5 -197z" />
<glyph unicode="&#xf1;" horiz-adv-x="1173" d="M135 0l150 1071h100l-33 -299q103 173 207 247.5t219 74.5q104 0 161.5 -59t57.5 -181q0 -40 -6 -86l-106 -768h-117l104 748q7 58 7 88q0 87 -32.5 123t-94.5 36q-199 0 -418 -391l-82 -604h-117zM393 1358q82 149 209 149q38 0 72.5 -14.5t55.5 -31.5t44.5 -31.5 t42.5 -14.5q33 0 60.5 21t60.5 67l68 -35q-84 -147 -211 -147q-42 0 -82.5 23t-73.5 46t-57 23q-35 0 -62 -21.5t-61 -68.5z" />
<glyph unicode="&#xf2;" horiz-adv-x="1157" d="M111 414q0 100 18.5 195.5t60.5 184t102 154.5t150 106t199 40q184 0 286.5 -114t102.5 -318q0 -307 -146 -496t-382 -189q-184 0 -287.5 116t-103.5 321zM233 410q0 -163 71 -248.5t200 -85.5q174 0 288.5 155t114.5 437q0 161 -70 244t-198 83q-84 0 -157 -37.5 t-129 -108.5t-88 -184t-32 -255zM436 1442l49 106l404 -215l-31 -69z" />
<glyph unicode="&#xf3;" horiz-adv-x="1157" d="M111 414q0 100 18.5 195.5t60.5 184t102 154.5t150 106t199 40q184 0 286.5 -114t102.5 -318q0 -307 -146 -496t-382 -189q-184 0 -287.5 116t-103.5 321zM233 410q0 -163 71 -248.5t200 -85.5q174 0 288.5 155t114.5 437q0 161 -70 244t-198 83q-84 0 -157 -37.5 t-129 -108.5t-88 -184t-32 -255zM481 1333l404 215l49 -106l-422 -178z" />
<glyph unicode="&#xf4;" horiz-adv-x="1157" d="M111 414q0 100 18.5 195.5t60.5 184t102 154.5t150 106t199 40q184 0 286.5 -114t102.5 -318q0 -307 -146 -496t-382 -189q-184 0 -287.5 116t-103.5 321zM233 410q0 -163 71 -248.5t200 -85.5q174 0 288.5 155t114.5 437q0 161 -70 244t-198 83q-84 0 -157 -37.5 t-129 -108.5t-88 -184t-32 -255zM383 1331l291 219h61l240 -221l-64 -61l-215 174l-268 -174z" />
<glyph unicode="&#xf5;" horiz-adv-x="1157" d="M111 414q0 100 18.5 195.5t60.5 184t102 154.5t150 106t199 40q184 0 286.5 -114t102.5 -318q0 -307 -146 -496t-382 -189q-184 0 -287.5 116t-103.5 321zM233 410q0 -163 71 -248.5t200 -85.5q174 0 288.5 155t114.5 437q0 161 -70 244t-198 83q-84 0 -157 -37.5 t-129 -108.5t-88 -184t-32 -255zM385 1358q82 149 209 149q38 0 72.5 -14.5t55.5 -31.5t44.5 -31.5t42.5 -14.5q33 0 60.5 21t60.5 67l67 -35q-84 -147 -211 -147q-42 0 -82.5 23t-73.5 46t-57 23q-34 0 -61 -21.5t-61 -68.5z" />
<glyph unicode="&#xf6;" horiz-adv-x="1157" d="M111 414q0 100 18.5 195.5t60.5 184t102 154.5t150 106t199 40q184 0 286.5 -114t102.5 -318q0 -307 -146 -496t-382 -189q-184 0 -287.5 116t-103.5 321zM233 410q0 -163 71 -248.5t200 -85.5q174 0 288.5 155t114.5 437q0 161 -70 244t-198 83q-84 0 -157 -37.5 t-129 -108.5t-88 -184t-32 -255zM410 1368q0 35 22.5 57.5t59.5 22.5q36 0 58.5 -22t22.5 -58t-22.5 -58t-58.5 -22q-37 0 -59.5 22.5t-22.5 57.5zM795 1368q0 35 22.5 57.5t59.5 22.5t59 -22t22 -58t-22 -58t-59 -22t-59.5 22.5t-22.5 57.5z" />
<glyph unicode="&#xf7;" d="M143 586l13 106h737l-12 -106h-738zM414 240q0 42 27 69t71 27q45 0 71.5 -27t26.5 -69t-26.5 -69.5t-71.5 -27.5q-44 0 -71 27.5t-27 69.5zM469 1038q0 42 27 69.5t71 27.5q45 0 72 -27.5t27 -69.5t-27 -69t-72 -27q-44 0 -71 27t-27 69z" />
<glyph unicode="&#xf8;" horiz-adv-x="1157" d="M111 414q0 100 18.5 195.5t60.5 184t102 154.5t150 106t199 40q61 0 127 -17l104 232l97 -31l-113 -240q174 -105 174 -376q0 -307 -146 -496t-382 -189q-50 0 -119 15l-109 -240l-94 31l113 246q-88 53 -135 151t-47 234zM233 410q0 -202 109 -285l389 856 q-41 14 -92 14q-84 0 -157 -37.5t-129 -108.5t-88 -184t-32 -255zM418 86q45 -10 86 -10q174 0 288.5 155t114.5 437q0 190 -98 272z" />
<glyph unicode="&#xf9;" horiz-adv-x="1157" d="M158 236q0 36 6 79l106 756h117l-104 -741q-7 -58 -7 -86q0 -90 35 -129t101 -39q96 0 196 77t189 248l94 670h117l-150 -1071h-100l24 248q-84 -137 -187 -204t-198 -67q-114 0 -176.5 66t-62.5 193zM455 1442l49 106l403 -215l-30 -69z" />
<glyph unicode="&#xfa;" horiz-adv-x="1157" d="M158 236q0 36 6 79l106 756h117l-104 -741q-7 -58 -7 -86q0 -90 35 -129t101 -39q96 0 196 77t189 248l94 670h117l-150 -1071h-100l24 248q-84 -137 -187 -204t-198 -67q-114 0 -176.5 66t-62.5 193zM479 1333l404 215l49 -106l-422 -178z" />
<glyph unicode="&#xfb;" horiz-adv-x="1157" d="M158 236q0 36 6 79l106 756h117l-104 -741q-7 -58 -7 -86q0 -90 35 -129t101 -39q96 0 196 77t189 248l94 670h117l-150 -1071h-100l24 248q-84 -137 -187 -204t-198 -67q-114 0 -176.5 66t-62.5 193zM383 1331l291 219h61l240 -221l-64 -61l-215 174l-268 -174z" />
<glyph unicode="&#xfc;" horiz-adv-x="1157" d="M158 236q0 36 6 79l106 756h117l-104 -741q-7 -58 -7 -86q0 -90 35 -129t101 -39q96 0 196 77t189 248l94 670h117l-150 -1071h-100l24 248q-84 -137 -187 -204t-198 -67q-114 0 -176.5 66t-62.5 193zM408 1368q0 36 22 58t59 22t59.5 -22.5t22.5 -57.5t-22.5 -57.5 t-59.5 -22.5t-59 22t-22 58zM793 1368q0 36 22.5 58t58.5 22q37 0 59.5 -22.5t22.5 -57.5t-22.5 -57.5t-59.5 -22.5q-36 0 -58.5 22t-22.5 58z" />
<glyph unicode="&#xfd;" horiz-adv-x="946" d="M-31 -324q146 27 239.5 105.5t160.5 218.5h-43l-232 1071h125l193 -977h4l442 977h129l-510 -1075q-44 -92 -87.5 -157t-102.5 -120.5t-136.5 -89.5t-177.5 -49zM377 1333l403 215l49 -106l-421 -178z" />
<glyph unicode="&#xfe;" horiz-adv-x="1179" d="M76 -420l270 1927l119 15l-105 -740q95 152 196.5 232t221.5 80q124 0 199.5 -88t75.5 -273q0 -176 -40.5 -322t-108 -239t-152.5 -144t-177 -51q-181 0 -305 156l-75 -536zM287 250q44 -80 113.5 -126t152.5 -46q58 0 112 26t102 79.5t83.5 129.5t56.5 184t21 234 q0 134 -49 198t-123 64q-101 0 -203.5 -93.5t-216.5 -289.5z" />
<glyph unicode="&#xff;" horiz-adv-x="946" d="M-31 -324q146 27 239.5 105.5t160.5 218.5h-43l-232 1071h125l193 -977h4l442 977h129l-510 -1075q-44 -92 -87.5 -157t-102.5 -120.5t-136.5 -89.5t-177.5 -49zM322 1368q0 36 22 58t59 22t59.5 -22.5t22.5 -57.5t-22.5 -57.5t-59.5 -22.5t-59 22t-22 58zM707 1368 q0 36 22.5 58t58.5 22q37 0 59.5 -22.5t22.5 -57.5t-22.5 -57.5t-59.5 -22.5q-36 0 -58.5 22t-22.5 58z" />
<glyph unicode="&#x131;" horiz-adv-x="534" d="M127 0l149 1071h117l-149 -1071h-117z" />
<glyph unicode="&#x152;" horiz-adv-x="1794" d="M139 547q0 206 49.5 374t135.5 277t200 168t244 59q74 0 145 -22h867l-29 -103h-682q74 -74 113 -193t39 -259q0 -47 -2 -70h391l-13 -102h-387q-22 -183 -88.5 -332t-173.5 -242h688l-12 -102h-856q-77 -23 -150 -23q-225 0 -352 147t-127 423zM266 541 q0 -228 95 -343.5t260 -115.5q99 0 185.5 48t153.5 141t105.5 243t38.5 340q0 235 -92.5 351t-245.5 116q-102 0 -191.5 -49t-159 -143t-109.5 -245.5t-40 -342.5z" />
<glyph unicode="&#x153;" horiz-adv-x="1871" d="M111 414q0 100 18.5 195.5t60.5 184t102 154.5t150 106t199 40q140 0 233 -71.5t130 -205.5q67 128 189.5 202.5t260.5 74.5t226.5 -69.5t88.5 -178.5q0 -80 -41.5 -148t-128.5 -123.5t-236 -91t-349 -43.5q0 -184 79 -273t210 -89q157 0 296 106l50 -80 q-160 -127 -344 -127q-139 0 -238.5 70.5t-142.5 200.5q-70 -130 -178.5 -200.5t-243.5 -70.5q-184 0 -287.5 116t-103.5 321zM233 410q0 -163 71 -248.5t200 -85.5q174 0 288.5 155t114.5 437q0 161 -70 244t-198 83q-84 0 -157 -37.5t-129 -108.5t-88 -184t-32 -255z M1018 522q163 6 285.5 33.5t194.5 72t107 99t35 119.5q0 70 -50 108.5t-144 38.5q-158 0 -281 -130t-147 -341z" />
<glyph unicode="&#x178;" horiz-adv-x="1050" d="M106 1403h132l292 -725h5l475 725h135l-559 -836l-70 -567h-121l68 565zM379 1634q0 35 22.5 57.5t59.5 22.5t59.5 -22.5t22.5 -57.5t-22.5 -57.5t-59.5 -22.5t-59.5 22.5t-22.5 57.5zM764 1634q0 35 22.5 57.5t59.5 22.5t59.5 -22.5t22.5 -57.5t-22.5 -57.5t-59.5 -22.5 t-59.5 22.5t-22.5 57.5z" />
<glyph unicode="&#x192;" horiz-adv-x="671" d="M-86 -324q143 68 196 145t74 236l111 918h-199l13 96h198l23 172q17 140 91 209.5t212 69.5q118 0 252 -72l-45 -86q-111 57 -215 57q-81 0 -125 -43.5t-56 -140.5l-20 -166h283l-27 -96h-268l-111 -916q-13 -108 -34.5 -178t-64.5 -125t-99.5 -92.5t-151.5 -81.5z" />
<glyph unicode="&#x2c6;" horiz-adv-x="714" d="M61 1331l291 219h62l239 -221l-63 -61l-215 174l-269 -174z" />
<glyph unicode="&#x2c7;" horiz-adv-x="714" d="M61 1489l64 61l215 -174l268 174l45 -63l-291 -219h-61z" />
<glyph unicode="&#x2d8;" horiz-adv-x="630" d="M61 1501l80 21q25 -146 156 -146q127 0 197 146l75 -21q-27 -95 -99.5 -158t-180.5 -63q-106 0 -167 64.5t-61 156.5z" />
<glyph unicode="&#x2d9;" horiz-adv-x="299" d="M61 1399q0 37 25 61.5t64 24.5t63.5 -24.5t24.5 -61.5t-24.5 -61.5t-63.5 -24.5t-64 24.5t-25 61.5z" />
<glyph unicode="&#x2da;" horiz-adv-x="524" d="M61 1419q0 95 58.5 151t154.5 56q83 0 136 -46.5t53 -119.5q0 -92 -57.5 -149.5t-151.5 -57.5q-90 0 -141.5 45t-51.5 121zM150 1419q0 -43 29 -69.5t75 -26.5q55 0 87 37t32 100q0 46 -27.5 71t-73.5 25q-55 0 -88.5 -36t-33.5 -101z" />
<glyph unicode="&#x2db;" horiz-adv-x="491" d="M61 -297q0 108 90.5 206t223.5 142l20 -47q-217 -121 -217 -274q0 -46 29 -74.5t84 -28.5q61 0 115 21l24 -78q-88 -33 -164 -33q-101 0 -153 45.5t-52 120.5z" />
<glyph unicode="&#x2dc;" horiz-adv-x="735" d="M61 1358q82 149 209 149q38 0 72.5 -14.5t55.5 -31.5t44.5 -31.5t42.5 -14.5q33 0 60.5 21t60.5 67l68 -35q-84 -147 -211 -147q-42 0 -82.5 23t-73.5 46t-57 23q-35 0 -62 -21.5t-61 -68.5z" />
<glyph unicode="&#x2dd;" horiz-adv-x="708" d="M61 1323l199 322l107 -56l-232 -305zM330 1323l217 322l100 -62l-250 -303z" />
<glyph unicode="&#x3a9;" horiz-adv-x="1429" d="M117 0l12 109h270l2 6q-109 75 -173 199.5t-64 273.5q0 189 50.5 347.5t137.5 265t204.5 165.5t250.5 59q221 0 355 -147.5t134 -423.5q0 -144 -29.5 -265.5t-83 -211t-118.5 -153.5t-145 -109l-2 -6h264l-13 -109h-411l12 102q64 35 117 75.5t107 105.5t91 143t60.5 190 t23.5 244q0 235 -99 348t-265 113q-103 0 -195.5 -49.5t-163.5 -140t-113 -231t-42 -310.5q0 -330 250 -488l-13 -102h-411z" />
<glyph unicode="&#x3c0;" horiz-adv-x="1222" d="M160 971l14 100h778q150 0 242 25l18 -99q-84 -21 -194 -26l-98 -697q-9 -74 -9 -79q0 -44 17.5 -66.5t60.5 -40.5l-26 -104q-91 29 -128.5 74t-37.5 124q0 37 6 80l98 709h-444l-135 -971h-117l135 971h-180z" />
<glyph unicode="&#x401;" horiz-adv-x="1040" d="M145 0l172 1403h709l-29 -103h-573l-64 -522h498l-12 -102h-498l-69 -574h604l-13 -102h-725zM424 1634q0 35 22.5 57.5t59.5 22.5t59.5 -22.5t22.5 -57.5t-22.5 -57.5t-59.5 -22.5t-59.5 22.5t-22.5 57.5zM809 1634q0 35 22.5 57.5t59.5 22.5t59.5 -22.5t22.5 -57.5 t-22.5 -57.5t-59.5 -22.5t-59.5 22.5t-22.5 57.5z" />
<glyph unicode="&#x402;" horiz-adv-x="1441" d="M123 1296l14 107h950l-28 -107h-402l-73 -608q200 184 426 184q311 0 311 -329q0 -47 -6 -103l-31 -268q-15 -131 -60.5 -216.5t-119 -137.5t-197.5 -97l-18 97q136 52 196.5 130t77.5 220l31 266q6 49 6 92q0 132 -57 187t-172 55q-111 0 -218.5 -56.5t-183.5 -138.5 l-69 -573h-121l158 1296h-414z" />
<glyph unicode="&#x403;" horiz-adv-x="964" d="M145 0l172 1403h721l-28 -109h-586l-158 -1294h-121zM504 1620l385 190l53 -106l-407 -154z" />
<glyph unicode="&#x404;" horiz-adv-x="1142" d="M141 575q0 204 50.5 368t137.5 268t199 159t240 55q108 0 203 -34.5t162 -96.5l-80 -77q-126 104 -281 104q-88 0 -167 -35t-144 -102t-112 -172.5t-66 -239.5h561l-13 -102h-561q-2 -33 -2 -99q0 -249 99.5 -368t269.5 -119q181 0 326 117l57 -84q-169 -140 -389 -140 q-227 0 -358.5 149.5t-131.5 448.5z" />
<glyph unicode="&#x405;" horiz-adv-x="1103" d="M45 160l82 84q73 -73 172.5 -117.5t210.5 -44.5q165 0 261.5 89t96.5 232q0 51 -12.5 87.5t-47.5 72.5t-96.5 68t-160.5 69q-202 75 -283.5 161t-81.5 216q0 153 121 250.5t324 97.5q120 0 228.5 -38.5t180.5 -106.5l-71 -84q-128 125 -340 125q-147 0 -231.5 -67.5 t-84.5 -176.5q0 -93 60 -149t243 -127q212 -83 295.5 -172.5t83.5 -218.5q0 -194 -130 -313.5t-351 -119.5q-140 0 -265.5 50t-203.5 133z" />
<glyph unicode="&#x406;" horiz-adv-x="555" d="M145 0l172 1403h121l-172 -1403h-121z" />
<glyph unicode="&#x407;" horiz-adv-x="555" d="M129 1634q0 35 22.5 57.5t59.5 22.5t59.5 -22.5t22.5 -57.5t-22.5 -57.5t-59.5 -22.5t-59.5 22.5t-22.5 57.5zM145 0l172 1403h121l-172 -1403h-121zM514 1634q0 35 22.5 57.5t59.5 22.5t59.5 -22.5t22.5 -57.5t-22.5 -57.5t-59.5 -22.5t-59.5 22.5t-22.5 57.5z" />
<glyph unicode="&#x408;" horiz-adv-x="577" d="M-86 -182q136 52 196.5 130t77.5 220l152 1235h121l-152 -1231q-12 -101 -38.5 -172t-74.5 -123t-109 -87t-155 -69z" />
<glyph unicode="&#x409;" horiz-adv-x="1818" d="M-51 78q87 56 135 120.5t102.5 218.5t130.5 462l132 524h686l-68 -547h170q245 0 372.5 -94t127.5 -275q0 -230 -144 -358.5t-430 -128.5h-321l157 1296h-456l-103 -419q-44 -179 -75.5 -296t-66 -213.5t-61.5 -152t-66.5 -103t-78 -75t-98.5 -60.5zM975 102h207 q209 0 318.5 98.5t109.5 282.5q0 137 -92 204t-289 67h-174z" />
<glyph unicode="&#x40a;" horiz-adv-x="1880" d="M145 0l172 1403h121l-71 -580h639l71 580h121l-70 -580h170q245 0 372.5 -89t127.5 -257q0 -224 -143.5 -350.5t-427.5 -126.5h-322l88 721h-639l-88 -721h-121zM1038 102h207q207 0 316.5 98t109.5 271q0 128 -91.5 189t-289.5 61h-174z" />
<glyph unicode="&#x40b;" horiz-adv-x="1441" d="M123 1296l14 107h950l-28 -107h-402l-73 -608q200 184 426 184q311 0 311 -329q0 -47 -6 -103l-51 -440h-121l51 434q6 52 6 94q0 130 -57 185t-172 55q-111 0 -218.5 -56.5t-183.5 -138.5l-69 -573h-121l158 1296h-414z" />
<glyph unicode="&#x40c;" horiz-adv-x="1114" d="M145 0l172 1403h121l-76 -612h136l344 401q107 125 162.5 168t134.5 65l37 -90q-58 -17 -100.5 -51.5t-127.5 -132.5l-340 -391l428 -760h-131l-391 688h-164l-84 -688h-121zM545 1620l385 190l53 -106l-408 -154z" />
<glyph unicode="&#x40e;" horiz-adv-x="1054" d="M92 76q113 24 180 58t117 91.5t111 167.5h-47l-340 1010h125l297 -922h6l479 922h129l-537 -1014q-118 -222 -213.5 -298t-302.5 -114zM424 1767l82 21q34 -125 160 -125q123 0 192 125l74 -21q-23 -81 -94 -140.5t-176 -59.5q-108 0 -170.5 60t-67.5 140z" />
<glyph unicode="&#x40f;" horiz-adv-x="1327" d="M145 0l172 1403h121l-159 -1299h651l160 1299h120l-172 -1403h-383l-32 -266h-93l7 266h-392z" />
<glyph unicode="&#x410;" horiz-adv-x="1107" d="M-55 0l633 1403h153l289 -1403h-121l-74 379h-585l-166 -379h-129zM285 481h520l-158 813h-4z" />
<glyph unicode="&#x411;" horiz-adv-x="1161" d="M145 0l172 1403h721l-28 -107h-586l-55 -460h190q246 0 373 -91t127 -266q0 -225 -144 -352t-428 -127h-342zM279 102h227q208 0 317 97t109 274q0 132 -92 196t-289 64h-195z" />
<glyph unicode="&#x412;" horiz-adv-x="1224" d="M145 0l172 1403h322q234 0 345.5 -80t111.5 -238q0 -123 -74 -213t-213 -124l-2 -7q129 -26 199.5 -105.5t70.5 -199.5q0 -208 -141.5 -322t-423.5 -114h-367zM279 102h274q194 0 295.5 87t101.5 247q0 122 -76 188t-217 66h-307zM362 791h275q162 0 248 78.5t86 215.5 q0 109 -80 162t-252 53h-215z" />
<glyph unicode="&#x413;" horiz-adv-x="964" d="M145 0l172 1403h721l-28 -109h-586l-158 -1294h-121z" />
<glyph unicode="&#x414;" horiz-adv-x="1290" d="M145 0l172 1403h265q290 0 443 -138t153 -415q0 -404 -193 -627t-553 -223h-287zM279 102h163q290 0 449.5 193.5t159.5 552.5q0 233 -121.5 342.5t-366.5 109.5h-139z" />
<glyph unicode="&#x415;" horiz-adv-x="1040" d="M145 0l172 1403h709l-29 -103h-573l-64 -522h498l-12 -102h-498l-69 -574h604l-13 -102h-725z" />
<glyph unicode="&#x416;" horiz-adv-x="1521" d="M-55 0l520 760l-176 364q-47 99 -88.5 139t-106.5 60l37 102q84 -24 135.5 -73t95.5 -140l205 -421h162l76 612h113l-76 -612h151l254 352q108 151 164.5 205t130.5 77l33 -92q-53 -17 -96 -61.5t-150 -192.5l-231 -319l336 -760h-125l-301 688h-179l-84 -688h-112 l84 688h-170l-465 -688h-137z" />
<glyph unicode="&#x417;" horiz-adv-x="1073" d="M18 178l86 72q70 -75 174 -121.5t201 -46.5q155 0 241.5 90.5t86.5 251.5q0 134 -86.5 209.5t-245.5 75.5h-104l26 100h92q167 0 263 84t96 213q0 100 -70 157.5t-194 57.5q-173 0 -351 -135l-63 84q210 155 432 155q169 0 272 -82.5t103 -218.5q0 -133 -75 -227 t-232 -137l-2 -6q120 -29 194 -119.5t74 -210.5q0 -204 -122 -325.5t-337 -121.5q-127 0 -251.5 54.5t-207.5 146.5z" />
<glyph unicode="&#x418;" horiz-adv-x="1349" d="M145 0l172 1403h121l-84 -666q-58 -451 -90 -610h4l807 1276h158l-172 -1403h-121l82 664q60 469 90 608h-4l-801 -1272h-162z" />
<glyph unicode="&#x419;" horiz-adv-x="1349" d="M145 0l172 1403h121l-84 -666q-58 -451 -90 -610h4l807 1276h158l-172 -1403h-121l82 664q60 469 90 608h-4l-801 -1272h-162zM561 1737l80 20q46 -94 164 -94q120 0 188 94l76 -20q-28 -72 -96.5 -121t-175.5 -49q-105 0 -165.5 50t-70.5 120z" />
<glyph unicode="&#x41a;" horiz-adv-x="1114" d="M145 0l172 1403h121l-76 -612h136l344 401q107 125 162.5 168t134.5 65l37 -90q-58 -17 -100.5 -51.5t-127.5 -132.5l-340 -391l428 -760h-131l-391 688h-164l-84 -688h-121z" />
<glyph unicode="&#x41b;" horiz-adv-x="1271" d="M-51 78q87 56 135 120.5t102.5 218.5t130.5 462l132 524h706l-172 -1403h-121l158 1296h-477l-103 -419q-44 -179 -75.5 -296t-66 -213.5t-61.5 -152t-66.5 -103t-78 -75t-98.5 -60.5z" />
<glyph unicode="&#x41c;" horiz-adv-x="1583" d="M66 0l305 1403h161l216 -1088h8l481 1088h172l-35 -1403h-110l10 535q7 417 20 737h-4l-493 -1106h-119l-227 1106h-5q-68 -359 -163 -811l-97 -461h-120z" />
<glyph unicode="&#x41d;" horiz-adv-x="1335" d="M145 0l172 1403h121l-76 -612h660l76 612h121l-172 -1403h-121l84 688h-660l-84 -688h-121z" />
<glyph unicode="&#x41e;" horiz-adv-x="1388" d="M141 547q0 206 50.5 374t138 277t204 168t250.5 59q221 0 355.5 -148t134.5 -423q0 -252 -78 -451t-224.5 -312.5t-338.5 -113.5q-231 0 -361.5 147t-130.5 423zM268 541q0 -229 97.5 -344t269.5 -115q105 0 196 48.5t162.5 142t112.5 245t41 342.5q0 235 -99 348 t-266 113q-105 0 -197 -49t-163.5 -143t-112.5 -245.5t-41 -342.5z" />
<glyph unicode="&#x41f;" horiz-adv-x="1335" d="M145 0l172 1403h902l-172 -1403h-121l157 1296h-659l-158 -1296h-121z" />
<glyph unicode="&#x420;" horiz-adv-x="1153" d="M145 0l172 1403h320q491 0 491 -356q0 -234 -147.5 -367t-425.5 -133h-223l-66 -547h-121zM344 649h234q213 0 318 101t105 292q0 130 -88.5 194t-277.5 64h-211z" />
<glyph unicode="&#x421;" horiz-adv-x="1128" d="M141 575q0 163 34.5 302.5t94.5 239t140.5 170t173.5 104.5t192 34q216 0 357 -131l-80 -77q-126 104 -273 104q-100 0 -191 -48t-163 -138.5t-115 -236.5t-43 -327q0 -126 29 -221.5t80.5 -152.5t116.5 -85t143 -28q181 0 326 117l57 -84q-169 -140 -389 -140 q-107 0 -195 36t-154.5 107.5t-103.5 187.5t-37 267z" />
<glyph unicode="&#x422;" horiz-adv-x="1013" d="M123 1296l14 107h950l-28 -107h-402l-157 -1296h-121l158 1296h-414z" />
<glyph unicode="&#x423;" horiz-adv-x="1054" d="M92 76q113 24 180 58t117 91.5t111 167.5h-47l-340 1010h125l297 -922h6l479 922h129l-537 -1014q-118 -222 -213.5 -298t-302.5 -114z" />
<glyph unicode="&#x424;" horiz-adv-x="1630" d="M113 616q0 146 39 265t106 199.5t161.5 136t200 82.5t226.5 32l16 127h119l-16 -127q175 -6 303 -65t202 -178.5t74 -290.5q0 -146 -39 -265t-106 -199.5t-161.5 -136.5t-200 -83t-226.5 -33l-14 -125h-119l14 125q-267 9 -423 145t-156 391zM240 616q0 -215 124 -325 t341 -115l129 1057q-130 -5 -235.5 -42.5t-187 -110t-126.5 -190.5t-45 -274zM823 178q130 5 235.5 43t187 110.5t126.5 191t45 274.5q0 213 -124 323.5t-339 116.5z" />
<glyph unicode="&#x425;" horiz-adv-x="1054" d="M-66 0l537 754l-309 649h137l248 -565h4l399 565h142l-476 -643l361 -760h-137l-299 672h-4l-459 -672h-144z" />
<glyph unicode="&#x426;" horiz-adv-x="1329" d="M145 0l172 1403h121l-159 -1299h651l160 1299h120l-159 -1299h108l-45 -370h-92l6 266h-883z" />
<glyph unicode="&#x427;" horiz-adv-x="1179" d="M115 852q0 42 6 88l57 463h121l-57 -457q-6 -46 -6 -88q0 -130 63.5 -186t196.5 -56q101 0 205 52t165 125l76 610h121l-172 -1403h-121l82 674q-85 -75 -183.5 -118.5t-195.5 -43.5q-174 0 -266 85t-92 255z" />
<glyph unicode="&#x428;" horiz-adv-x="1857" d="M145 0l172 1403h121l-159 -1299h534l160 1299h114l-159 -1299h532l160 1299h121l-172 -1403h-1424z" />
<glyph unicode="&#x429;" horiz-adv-x="1859" d="M145 0l172 1403h121l-159 -1299h534l160 1299h114l-159 -1299h532l160 1299h121l-160 -1299h109l-45 -370h-93l7 266h-1414z" />
<glyph unicode="&#x42a;" horiz-adv-x="1261" d="M92 1296l14 107h451l-68 -547h191q245 0 372.5 -94t127.5 -275q0 -230 -144 -358.5t-430 -128.5h-342l158 1296h-330zM397 102h228q209 0 318.5 98.5t109.5 282.5q0 137 -92 204t-289 67h-195z" />
<glyph unicode="&#x42b;" horiz-adv-x="1599" d="M145 0l172 1403h121l-67 -547h170q245 0 372 -94t127 -275q0 -231 -143.5 -359t-429.5 -128h-322zM279 102h206q209 0 318.5 98.5t109.5 282.5q0 137 -92 204t-289 67h-174zM1190 0l172 1403h121l-172 -1403h-121z" />
<glyph unicode="&#x42c;" horiz-adv-x="1142" d="M145 0l172 1403h121l-67 -547h190q245 0 372.5 -94t127.5 -275q0 -230 -144 -358.5t-430 -128.5h-342zM279 102h227q209 0 318.5 98.5t109.5 282.5q0 137 -92 204t-289 67h-195z" />
<glyph unicode="&#x42d;" horiz-adv-x="1126" d="M31 139l78 74q58 -58 138.5 -94.5t174.5 -36.5q172 0 293.5 147.5t156.5 440.5h-559l13 102h557q4 82 4 133q0 216 -83.5 317t-221.5 101q-83 0 -162 -27t-180 -90l-60 80q197 139 406 139q197 0 311.5 -129.5t114.5 -390.5q0 -222 -44 -398.5t-122.5 -292t-187 -176.5 t-238.5 -61q-111 0 -212 41.5t-177 120.5z" />
<glyph unicode="&#x42e;" horiz-adv-x="1783" d="M145 0l172 1403h121l-76 -612h236q51 300 215 467t387 167q213 0 341 -148t128 -423q0 -252 -75.5 -451t-217.5 -312.5t-327 -113.5q-102 0 -182.5 31t-133.5 84.5t-87.5 128.5t-49 157.5t-14.5 178.5q0 67 6 131h-238l-84 -688h-121zM705 541q0 -225 91.5 -342 t254.5 -117q100 0 187.5 48.5t156 142t108 245t39.5 342.5q0 235 -93 348t-251 113q-101 0 -189.5 -49t-156.5 -143t-107.5 -245.5t-39.5 -342.5z" />
<glyph unicode="&#x42f;" horiz-adv-x="1226" d="M-4 0l426 616q-116 45 -179 132t-63 208q0 222 143 334.5t443 112.5h344l-172 -1403h-121l72 590h-354l-396 -590h-143zM307 961q0 -129 77 -200t208 -71h309l74 610h-230q-234 0 -336 -83t-102 -256z" />
<glyph unicode="&#x430;" horiz-adv-x="1169" d="M111 395q0 159 45 292.5t121.5 221.5t178 136.5t214.5 48.5q79 0 168.5 -24t165.5 -66l-107 -771q-4 -23 -4 -61q0 -51 18.5 -76t59.5 -37l-33 -82q-81 13 -119.5 55.5t-38.5 117.5q0 30 6 71q-162 -244 -362 -244q-139 0 -226 109t-87 309zM236 395q0 -158 62.5 -236.5 t158.5 -78.5q85 0 178 76.5t166 224.5l78 561q-96 51 -215 51q-84 0 -160.5 -41t-136.5 -115.5t-95.5 -189t-35.5 -252.5z" />
<glyph unicode="&#x431;" horiz-adv-x="1193" d="M139 428q0 172 28.5 323t85.5 276t149 211.5t212 119.5q114 31 179 64t151 100l60 -90q-99 -65 -166 -98t-156 -56q-164 -43 -253 -161t-140 -361l6 -2q76 118 197 196t243 78q146 0 239 -99.5t93 -289.5q0 -153 -41 -279t-112 -209t-166.5 -128.5t-204.5 -45.5 q-182 0 -293 118t-111 333zM262 422q0 -165 77.5 -255.5t205.5 -90.5q168 0 282.5 148.5t114.5 404.5q0 151 -62.5 227t-160.5 76q-105 0 -218 -79t-220 -247q-19 -111 -19 -184z" />
<glyph unicode="&#x432;" horiz-adv-x="1114" d="M111 420q0 148 45 275.5t121.5 214t178.5 135.5t214 49q144 0 226.5 -63.5t82.5 -172.5q0 -81 -55 -150.5t-166 -113.5l-2 -6q102 -34 154.5 -98t52.5 -144q0 -157 -112.5 -263t-301.5 -106q-195 0 -316.5 121.5t-121.5 321.5zM233 434q0 -173 90.5 -264.5t227.5 -91.5 q135 0 211 71t76 197q0 131 -154 205q-149 -43 -448 -55q-3 -30 -3 -62zM248 588q138 2 245 18.5t174 41.5t110 60t60 70.5t17 75.5q0 139 -192 139q-144 0 -260 -110.5t-154 -294.5z" />
<glyph unicode="&#x433;" horiz-adv-x="890" d="M41 264q0 125 87.5 206.5t291.5 131.5q175 42 242 101t67 149q0 143 -213 143q-142 0 -285 -73l-45 84q73 39 165 63.5t177 24.5q146 0 234 -66.5t88 -167.5q0 -129 -89 -214t-306 -140q-165 -41 -227 -96.5t-62 -145.5q0 -80 70 -134t178 -54q179 0 331 110l62 -82 q-76 -58 -181.5 -92.5t-217.5 -34.5q-164 0 -265.5 79.5t-101.5 207.5z" />
<glyph unicode="&#x434;" horiz-adv-x="1155" d="M106 416q0 279 131 444.5t328 165.5q117 0 202 -57.5t148 -180.5l7 5q6 77 6 174q0 230 -126 342t-403 116l25 97q149 -8 256.5 -39.5t187 -95t119 -168.5t39.5 -254q0 -83 -6 -167.5t-22 -184t-41.5 -187.5t-68 -172t-96.5 -144t-132 -96.5t-171 -36.5 q-174 0 -278.5 115.5t-104.5 323.5zM231 418q0 -171 72.5 -254.5t198.5 -83.5q69 0 132 35.5t117.5 105.5t92 187t49.5 268q-57 133 -139 197.5t-181 64.5q-52 0 -101 -19.5t-93 -62t-76.5 -102.5t-52 -146.5t-19.5 -189.5z" />
<glyph unicode="&#x435;" horiz-adv-x="1085" d="M111 420q0 148 45.5 275.5t122 214t179 135.5t214.5 49q138 0 224.5 -69.5t86.5 -178.5q0 -81 -41 -148.5t-127.5 -123t-235 -91t-348.5 -43.5q1 -186 79.5 -274t209.5 -88q158 0 297 106l49 -80q-160 -127 -344 -127q-188 0 -299.5 117t-111.5 326zM236 522 q163 6 285.5 33.5t194.5 72t107 99t35 119.5q0 70 -50 108.5t-144 38.5q-158 0 -281 -130t-147 -341z" />
<glyph unicode="&#x436;" horiz-adv-x="1296" d="M-66 0l426 584l-114 247q-39 84 -70 118t-92 57l37 88q91 -34 133 -73.5t80 -127.5l121 -279h143l64 457h108l-63 -457h141l174 246q85 121 132.5 164.5t123.5 69.5l37 -88q-60 -24 -103 -67.5t-147 -186.5l-127 -177l260 -575h-121l-229 524h-154l-73 -524h-109l74 524 h-140l-374 -524h-138z" />
<glyph unicode="&#x437;" horiz-adv-x="964" d="M-2 139l76 76q74 -65 164.5 -102t183.5 -37q120 0 191 64.5t71 168.5q0 97 -71.5 151t-209.5 54h-104l23 94h94q131 0 208.5 64t77.5 164q0 161 -215 161q-152 0 -305 -94l-53 78q169 113 369 113q146 0 236.5 -69.5t90.5 -182.5q0 -92 -59 -164.5t-178 -106.5l-2 -6 q105 -26 164 -92t59 -156q0 -150 -105 -245t-284 -95q-120 0 -238 47.5t-184 114.5z" />
<glyph unicode="&#x438;" horiz-adv-x="1157" d="M158 236q0 36 6 79l106 756h117l-104 -741q-7 -58 -7 -86q0 -90 35 -129t101 -39q96 0 196 77t189 248l94 670h117l-150 -1071h-100l24 248q-84 -137 -187 -204t-198 -67q-114 0 -176.5 66t-62.5 193z" />
<glyph unicode="&#x439;" horiz-adv-x="1157" d="M158 236q0 36 6 79l106 756h117l-104 -741q-7 -58 -7 -86q0 -90 35 -129t101 -39q96 0 196 77t189 248l94 670h117l-150 -1071h-100l24 248q-84 -137 -187 -204t-198 -67q-114 0 -176.5 66t-62.5 193zM457 1501l80 21q25 -146 155 -146q127 0 197 146l76 -21 q-27 -95 -100 -158t-181 -63q-106 0 -166.5 64t-60.5 157z" />
<glyph unicode="&#x43a;" horiz-adv-x="976" d="M135 0l150 1071h116l-63 -455h115l284 320q70 78 115.5 110t101.5 48l35 -88q-45 -15 -80.5 -44t-107.5 -108l-250 -276l348 -578h-131l-313 522h-131l-72 -522h-117z" />
<glyph unicode="&#x43b;" horiz-adv-x="1159" d="M-41 66q54 34 89 69.5t72.5 103t71 175t70.5 272.5l86 385h662l-150 -1071h-117l136 973h-433l-65 -293q-35 -155 -69.5 -265.5t-65.5 -181.5t-71.5 -120.5t-76.5 -77.5t-92 -58z" />
<glyph unicode="&#x43c;" horiz-adv-x="1339" d="M45 0l246 1071h151l172 -807h4l400 807h162l-50 -1071h-114l24 504q2 30 9.5 191t13.5 245h-4l-397 -807h-111l-180 803h-4q-74 -356 -111 -518l-94 -418h-117z" />
<glyph unicode="&#x43d;" horiz-adv-x="1214" d="M135 0l150 1071h116l-65 -469h547l65 469h117l-150 -1071h-116l69 506h-546l-70 -506h-117z" />
<glyph unicode="&#x43e;" horiz-adv-x="1157" d="M111 414q0 100 18.5 195.5t60.5 184t102 154.5t150 106t199 40q184 0 286.5 -114t102.5 -318q0 -307 -146 -496t-382 -189q-184 0 -287.5 116t-103.5 321zM233 410q0 -163 71 -248.5t200 -85.5q174 0 288.5 155t114.5 437q0 161 -70 244t-198 83q-84 0 -157 -37.5 t-129 -108.5t-88 -184t-32 -255z" />
<glyph unicode="&#x43f;" horiz-adv-x="1173" d="M135 0l150 1071h100l-33 -299q103 173 207 247.5t219 74.5q104 0 161.5 -59t57.5 -181q0 -40 -6 -86l-106 -768h-117l104 748q7 58 7 88q0 87 -32.5 123t-94.5 36q-199 0 -418 -391l-82 -604h-117z" />
<glyph unicode="&#x440;" horiz-adv-x="1179" d="M76 -420l209 1491h100l-31 -299q97 157 199 239.5t225 82.5q124 0 199.5 -88t75.5 -273q0 -176 -40.5 -322t-108 -239t-152.5 -144t-177 -51q-181 0 -305 156l-75 -536zM287 250q44 -80 113.5 -126t152.5 -46q58 0 112 26t102 79.5t83.5 129.5t56.5 184t21 234 q0 134 -49 198t-123 64q-101 0 -203.5 -93.5t-216.5 -289.5z" />
<glyph unicode="&#x441;" horiz-adv-x="970" d="M111 432q0 150 43 276.5t116 210t169.5 129.5t203.5 46q164 0 303 -105l-61 -84q-107 88 -244 88q-80 0 -152.5 -37.5t-129 -106.5t-90 -177t-33.5 -240q0 -172 77 -263t201 -91q142 0 272 94l50 -84q-156 -111 -328 -111q-181 0 -289 120t-108 335z" />
<glyph unicode="&#x442;" horiz-adv-x="1744" d="M135 0l150 1071h100l-33 -299q190 322 420 322q195 0 195 -232q0 -49 -4 -78q191 310 411 310q197 0 197 -230q0 -26 -8 -96l-107 -768h-117l105 748q8 60 8 110q0 78 -25.5 107.5t-76.5 29.5q-87 0 -192 -90.5t-220 -294.5l-84 -610h-117l105 748q8 60 8 110 q0 78 -25.5 107.5t-76.5 29.5q-87 0 -193 -92.5t-221 -298.5l-82 -604h-117z" />
<glyph unicode="&#x443;" horiz-adv-x="946" d="M-31 -324q146 27 239.5 105.5t160.5 218.5h-43l-232 1071h125l193 -977h4l442 977h129l-510 -1075q-44 -92 -87.5 -157t-102.5 -120.5t-136.5 -89.5t-177.5 -49z" />
<glyph unicode="&#x444;" horiz-adv-x="1738" d="M111 342q0 173 38.5 317t103 238t147 145.5t171.5 51.5q91 0 160.5 -44.5t130.5 -129.5l84 602l109 -15l-92 -653q82 108 183.5 174t201.5 66q118 0 191 -91t73 -274q0 -168 -36.5 -311t-98.5 -238.5t-142.5 -149t-169.5 -53.5q-83 0 -161 46.5t-140 128.5l-78 -555 l-112 -17l88 629q-83 -122 -174.5 -177t-210.5 -55q-121 0 -193.5 90.5t-72.5 274.5zM236 344q0 -266 165 -266q95 0 188 67t195 234l62 426q-41 81 -111 134.5t-141 53.5q-68 0 -131.5 -43.5t-114.5 -123t-81.5 -205t-30.5 -277.5zM881 266q43 -79 121.5 -133.5 t152.5 -54.5q135 0 233.5 178t98.5 471q0 139 -44.5 202.5t-119.5 63.5q-85 0 -182.5 -73t-200.5 -232z" />
<glyph unicode="&#x445;" horiz-adv-x="927" d="M-66 0l457 573l-258 498h135l199 -422h4l317 422h144l-400 -496l297 -575h-135l-237 494h-6l-367 -494h-150z" />
<glyph unicode="&#x446;" horiz-adv-x="1159" d="M158 236q0 36 6 79l106 756h117l-104 -741q-7 -58 -7 -86q0 -90 35 -129t101 -39q96 0 196 77t189 248l94 670h117l-115 -823q-6 -50 -6 -78q0 -41 13.5 -55.5t49.5 -16.5h23l-47 -344h-86l8 256q-37 14 -54.5 43t-17.5 82q0 37 10 105l-6 2q-84 -134 -186.5 -199.5 t-196.5 -65.5q-114 0 -176.5 66t-62.5 193z" />
<glyph unicode="&#x447;" horiz-adv-x="1071" d="M123 592q0 36 6 80l55 399h117l-53 -385q-6 -50 -6 -86q0 -90 34.5 -129t100.5 -39q95 0 194.5 77t188.5 247l45 315h117l-150 -1071h-117l82 590q-83 -129 -182.5 -192.5t-192.5 -63.5q-114 0 -176.5 65.5t-62.5 192.5z" />
<glyph unicode="&#x448;" horiz-adv-x="1742" d="M160 229q0 39 6 86l106 756h117l-104 -741q-9 -79 -9 -94q0 -86 33 -123t99 -37q87 0 187 80.5t187 253.5l95 661h116l-104 -741q-8 -70 -8 -94q0 -86 32.5 -123t98.5 -37q87 0 184 77.5t186 247.5l95 670h116l-149 -1071h-101l25 248q-84 -136 -184 -203.5t-187 -67.5 q-119 0 -179 69t-54 204q-84 -137 -184 -205t-187 -68q-233 0 -233 252z" />
<glyph unicode="&#x449;" horiz-adv-x="1744" d="M160 229q0 39 6 86l106 756h117l-104 -741q-9 -79 -9 -94q0 -86 33 -123t99 -37q87 0 187 80.5t187 253.5l95 661h116l-104 -741q-8 -70 -8 -94q0 -86 32.5 -123t98.5 -37q87 0 184 77.5t186 247.5l95 670h116l-114 -823q-6 -46 -6 -76q0 -44 17.5 -59t61.5 -15h7 l-48 -344h-86l9 256q-39 14 -56.5 44t-17.5 85q0 36 10 101l-6 2q-81 -132 -181 -198.5t-186 -66.5q-119 0 -179 69t-54 204q-84 -137 -184 -205t-187 -68q-233 0 -233 252z" />
<glyph unicode="&#x44a;" horiz-adv-x="1062" d="M39 971l14 100h383l-53 -377h152q203 0 312 -79t109 -222q0 -186 -118.5 -294.5t-335.5 -108.5q-181 0 -326 53l129 928h-266zM303 119q101 -33 209 -33q150 0 234.5 78.5t84.5 220.5q0 213 -299 213h-163z" />
<glyph unicode="&#x44b;" horiz-adv-x="1435" d="M141 43l144 1028h116l-53 -377h121q211 0 321.5 -80.5t110.5 -222.5q0 -184 -116.5 -292.5t-323.5 -108.5q-175 0 -320 53zM268 119q101 -33 203 -33q139 0 222 79.5t83 219.5q0 213 -309 213h-133zM1020 0l149 1071h117l-149 -1071h-117z" />
<glyph unicode="&#x44c;" horiz-adv-x="1028" d="M141 43l144 1028h116l-53 -377h152q203 0 312.5 -79t109.5 -222q0 -186 -119 -294.5t-336 -108.5q-181 0 -326 53zM268 119q101 -33 209 -33q150 0 235 78.5t85 220.5q0 213 -299 213h-164z" />
<glyph unicode="&#x44d;" horiz-adv-x="985" d="M31 111l73 77q121 -112 279 -112q128 0 219.5 105t120.5 317h-500l13 92h495q4 62 4 96q0 163 -65.5 236t-177.5 73q-147 0 -304 -104l-49 84q177 119 369 119q159 0 254.5 -105.5t95.5 -306.5q0 -334 -132 -519.5t-345 -185.5q-206 0 -350 134z" />
<glyph unicode="&#x44e;" horiz-adv-x="1521" d="M135 0l150 1071h116l-65 -471h199q45 244 174 369t315 125q169 0 270 -115t101 -317q0 -308 -139.5 -496.5t-366.5 -188.5q-93 0 -165 34t-116 94.5t-66 139t-22 171.5q0 59 4 90h-202l-70 -506h-117zM639 410q0 -162 66.5 -248t185.5 -86q166 0 273.5 155t107.5 437 q0 160 -66 243.5t-184 83.5q-166 0 -274.5 -152.5t-108.5 -432.5z" />
<glyph unicode="&#x44f;" horiz-adv-x="1101" d="M25 0l329 473q-88 36 -132 103.5t-44 158.5q0 167 113.5 263t335.5 96q136 0 327 -33l-151 -1061h-117l62 442h-281l-299 -442h-143zM303 739q0 -202 256 -202h201l65 438q-100 20 -211 20q-158 0 -234.5 -70.5t-76.5 -185.5z" />
<glyph unicode="&#x451;" horiz-adv-x="1085" d="M111 420q0 148 45.5 275.5t122 214t179 135.5t214.5 49q138 0 224.5 -69.5t86.5 -178.5q0 -81 -41 -148.5t-127.5 -123t-235 -91t-348.5 -43.5q1 -186 79.5 -274t209.5 -88q158 0 297 106l49 -80q-160 -127 -344 -127q-188 0 -299.5 117t-111.5 326zM236 522 q163 6 285.5 33.5t194.5 72t107 99t35 119.5q0 70 -50 108.5t-144 38.5q-158 0 -281 -130t-147 -341zM399 1368q0 35 22.5 57.5t59.5 22.5t59.5 -22.5t22.5 -57.5t-22.5 -57.5t-59.5 -22.5t-59.5 22.5t-22.5 57.5zM784 1368q0 35 22.5 57.5t59.5 22.5t59.5 -22.5t22.5 -57.5 t-22.5 -57.5t-59.5 -22.5t-59.5 22.5t-22.5 57.5z" />
<glyph unicode="&#x452;" horiz-adv-x="1196" d="M160 0l174 1247h-158l14 99h158l23 161l118 15l-24 -176h377l-15 -99h-376l-66 -465q102 165 205 238.5t213 73.5q105 0 162 -59.5t57 -182.5q0 -38 -6 -84l-98 -709q-20 -143 -59 -227t-106 -137.5t-196 -112.5l-35 94q146 68 201.5 141t75.5 220l98 711q6 49 6 88 q0 87 -32.5 123t-94.5 36q-196 0 -416 -385l-84 -610h-116z" />
<glyph unicode="&#x453;" horiz-adv-x="890" d="M41 264q0 125 87.5 206.5t291.5 131.5q175 42 242 101t67 149q0 143 -213 143q-142 0 -285 -73l-45 84q73 39 165 63.5t177 24.5q146 0 234 -66.5t88 -167.5q0 -129 -89 -214t-306 -140q-165 -41 -227 -96.5t-62 -145.5q0 -80 70 -134t178 -54q179 0 331 110l62 -82 q-76 -58 -181.5 -92.5t-217.5 -34.5q-164 0 -265.5 79.5t-101.5 207.5zM416 1333l403 215l49 -106l-422 -178z" />
<glyph unicode="&#x454;" horiz-adv-x="970" d="M111 432q0 151 42 277t113.5 209.5t166.5 129.5t202 46q172 0 311 -105l-61 -84q-107 88 -252 88q-138 0 -244.5 -106t-140.5 -297h502l-13 -92h-499q-2 -23 -2 -66q0 -173 75.5 -263.5t198.5 -90.5q146 0 276 94l50 -84q-156 -111 -332 -111q-178 0 -285.5 120.5 t-107.5 334.5z" />
<glyph unicode="&#x455;" horiz-adv-x="929" d="M20 129l76 80q62 -55 151 -94t175 -39q123 0 189.5 57.5t66.5 151.5q0 75 -54 128t-202 107q-150 55 -216.5 126.5t-66.5 172.5q0 124 93 199.5t257 75.5q181 0 340 -109l-65 -86q-130 96 -279 96q-102 0 -161.5 -47t-59.5 -121t46.5 -121t187.5 -100q167 -64 236 -138.5 t69 -178.5q0 -143 -99.5 -227.5t-285.5 -84.5q-111 0 -223 45.5t-175 106.5z" />
<glyph unicode="&#x456;" horiz-adv-x="534" d="M127 0l149 1071h117l-149 -1071h-117zM291 1399q0 37 24.5 61.5t63.5 24.5t63.5 -24.5t24.5 -61.5t-24.5 -61.5t-63.5 -24.5t-63.5 24.5t-24.5 61.5z" />
<glyph unicode="&#x457;" horiz-adv-x="534" d="M98 1368q0 35 22.5 57.5t59.5 22.5t59.5 -22.5t22.5 -57.5t-22.5 -57.5t-59.5 -22.5t-59.5 22.5t-22.5 57.5zM127 0l149 1071h117l-149 -1071h-117zM483 1368q0 35 22.5 57.5t59.5 22.5t59.5 -22.5t22.5 -57.5t-22.5 -57.5t-59.5 -22.5t-59.5 22.5t-22.5 57.5z" />
<glyph unicode="&#x458;" horiz-adv-x="536" d="M-143 -324q146 68 200.5 141t75.5 220l146 1034h116l-143 -1012q-20 -143 -59 -227t-106 -137.5t-196 -112.5zM293 1399q0 37 24.5 61.5t63.5 24.5t63.5 -24.5t24.5 -61.5t-24.5 -61.5t-63.5 -24.5t-63.5 24.5t-24.5 61.5z" />
<glyph unicode="&#x459;" horiz-adv-x="1595" d="M-41 66q54 34 89 69.5t72.5 103t71 175t70.5 272.5l86 385h641l-53 -377h121q211 0 321.5 -80.5t110.5 -222.5q0 -184 -116.5 -292.5t-323.5 -108.5q-175 0 -320 53l129 930h-412l-65 -293q-35 -155 -69.5 -265.5t-65.5 -181.5t-71.5 -120.5t-76.5 -77.5t-92 -58z M856 119q101 -33 203 -33q139 0 222 79.5t83 219.5q0 213 -309 213h-133z" />
<glyph unicode="&#x45a;" horiz-adv-x="1644" d="M135 0l150 1071h116l-61 -440h526l62 440h116l-61 -438h158q193 0 295 -75.5t102 -205.5q0 -165 -115 -263.5t-319 -98.5q-175 0 -320 53l68 492h-526l-74 -535h-117zM911 119q101 -33 203 -33q136 0 217.5 70.5t81.5 189.5q0 96 -70 142.5t-225 46.5h-149z" />
<glyph unicode="&#x45b;" horiz-adv-x="1196" d="M160 0l174 1247h-158l14 99h158l23 161l118 15l-24 -176h377l-15 -99h-376l-64 -463q100 164 202.5 237t213.5 73q105 0 162 -59.5t57 -182.5q0 -38 -6 -84l-107 -768h-116l104 748q6 49 6 88q0 87 -32.5 123t-94.5 36q-197 0 -414 -385l-86 -610h-116z" />
<glyph unicode="&#x45c;" horiz-adv-x="976" d="M135 0l150 1071h116l-63 -455h115l284 320q70 78 115.5 110t101.5 48l35 -88q-45 -15 -80.5 -44t-107.5 -108l-250 -276l348 -578h-131l-313 522h-131l-72 -522h-117zM444 1333l404 215l49 -106l-422 -178z" />
<glyph unicode="&#x45e;" horiz-adv-x="946" d="M-31 -324q146 27 239.5 105.5t160.5 218.5h-43l-232 1071h125l193 -977h4l442 977h129l-510 -1075q-44 -92 -87.5 -157t-102.5 -120.5t-136.5 -89.5t-177.5 -49zM356 1501l80 21q25 -146 156 -146q67 0 114 36.5t82 109.5l76 -21q-27 -95 -99.5 -158t-180.5 -63 q-106 0 -167 64.5t-61 156.5z" />
<glyph unicode="&#x45f;" horiz-adv-x="1208" d="M135 0l150 1071h116l-137 -973h541l137 973h117l-150 -1071h-331l-33 -246h-86l8 246h-332z" />
<glyph unicode="&#x462;" horiz-adv-x="1394" d="M123 1296l14 107h950l-28 -107h-402l-55 -460h191q246 0 372.5 -91.5t126.5 -265.5q0 -225 -143.5 -352t-427.5 -127h-342l156 1296h-412zM512 102h227q208 0 317 97t109 274q0 132 -92 196t-289 64h-194z" />
<glyph unicode="&#x463;" horiz-adv-x="1050" d="M131 926l12 94h158l35 248l119 14l-37 -262h287l-29 -94h-273l-32 -232h151q203 0 312.5 -79t109.5 -222q0 -186 -119 -294.5t-336 -108.5q-180 0 -325 53l123 883h-156zM291 119q101 -33 209 -33q150 0 234.5 78.5t84.5 220.5q0 213 -299 213h-164z" />
<glyph unicode="&#x472;" horiz-adv-x="1388" d="M141 547q0 206 50.5 374t138 277t204 168t250.5 59q221 0 355.5 -148t134.5 -423q0 -252 -78 -451t-224.5 -312.5t-338.5 -113.5q-231 0 -361.5 147t-130.5 423zM268 541q0 -229 97.5 -344t269.5 -115q91 0 172 36.5t148 107t114 183.5t66 257h-863q-4 -82 -4 -125z M285 764h858q4 62 4 96q0 235 -99 348t-266 113q-89 0 -168.5 -35t-146 -102.5t-114 -175t-68.5 -244.5z" />
<glyph unicode="&#x473;" horiz-adv-x="1157" d="M111 414q0 100 18.5 195.5t60.5 184t102 154.5t150 106t199 40q184 0 286.5 -114t102.5 -318q0 -307 -146 -496t-382 -189q-184 0 -287.5 116t-103.5 321zM233 410q0 -163 71 -248.5t200 -85.5q144 0 249.5 108.5t139.5 311.5h-655q-5 -36 -5 -86zM248 586h655q4 54 4 82 q0 161 -70 244t-198 83q-143 0 -250 -105.5t-141 -303.5z" />
<glyph unicode="&#x474;" horiz-adv-x="1122" d="M127 1403h125l237 -1270h5l434 1000q53 121 86.5 179.5t75.5 108.5l124 -22q-45 -57 -79 -114t-91 -183l-493 -1102h-135z" />
<glyph unicode="&#x475;" horiz-adv-x="960" d="M94 1071h121l191 -962h4l301 639q64 136 105.5 209.5t82.5 121.5l121 -16q-51 -63 -93 -133.5t-114 -218.5l-346 -711h-139z" />
<glyph unicode="&#x490;" horiz-adv-x="964" d="M145 0l172 1403h611l33 258h108l-31 -258l-28 -109h-586l-158 -1294h-121z" />
<glyph unicode="&#x491;" horiz-adv-x="847" d="M135 0l150 1071h528l33 229h106l-32 -229l-29 -100h-504l-135 -971h-117z" />
<glyph unicode="&#x492;" horiz-adv-x="989" d="M61 766l13 98h202l66 539h721l-29 -109h-585l-54 -430h340l-12 -98h-340l-92 -766h-121l94 766h-203z" />
<glyph unicode="&#x493;" horiz-adv-x="931" d="M23 551l26 96l377 -53q96 23 160 50.5t99.5 60.5t50 67.5t14.5 79.5q0 143 -213 143q-142 0 -285 -73l-45 84q73 39 165 63.5t177 24.5q146 0 233.5 -66.5t87.5 -167.5q0 -211 -241 -287v-4l262 -22l-27 -96l-405 55q-154 -41 -213.5 -97.5t-59.5 -144.5q0 -80 70 -134 t178 -54q180 0 332 110l61 -82q-76 -58 -181.5 -92.5t-217.5 -34.5q-164 0 -265.5 79.5t-101.5 207.5q0 93 45.5 155.5t155.5 108.5v4z" />
<glyph unicode="&#x496;" horiz-adv-x="1533" d="M-55 0l520 760l-176 364q-47 99 -88.5 139t-106.5 60l37 102q84 -24 135.5 -73t95.5 -140l205 -421h162l76 612h113l-76 -612h151l254 352q108 151 164.5 205t130.5 77l33 -92q-53 -17 -96 -61.5t-150 -192.5l-231 -319l288 -656h93l-45 -370h-93l7 266h-41l-299 688 h-179l-84 -688h-112l84 688h-170l-465 -688h-137z" />
<glyph unicode="&#x497;" horiz-adv-x="1316" d="M-66 0l426 584l-114 247q-39 84 -70 118t-92 57l37 88q91 -34 133 -73.5t80 -127.5l121 -279h141l66 457h108l-65 -457h143l174 246q85 121 132.5 164.5t123.5 69.5l37 -88q-60 -24 -103 -67.5t-147 -186.5l-127 -177l149 -329q24 -55 39.5 -83t33.5 -43.5t32.5 -18.5 t44.5 -3h6l-47 -344h-86l8 246q-31 15 -58.5 56t-62.5 124l-149 344h-156l-71 -524h-109l72 524h-138l-374 -524h-138z" />
<glyph unicode="&#x498;" horiz-adv-x="1073" d="M18 178l86 72q70 -75 174 -121.5t201 -46.5q155 0 241.5 90.5t86.5 251.5q0 134 -86.5 209.5t-245.5 75.5h-104l26 100h92q167 0 263 84t96 213q0 100 -70 157.5t-194 57.5q-173 0 -351 -135l-63 84q210 155 432 155q169 0 272 -82.5t103 -218.5q0 -133 -75 -227 t-232 -137l-2 -6q120 -29 194 -119.5t74 -210.5q0 -205 -121 -326t-344 -121l-18 -114q155 -18 155 -139q0 -83 -61.5 -135t-161.5 -52q-106 0 -182 47l53 78q61 -35 129 -35q49 0 76.5 25t27.5 69q0 39 -35.5 58t-115.5 20l45 187q-106 17 -202 67.5t-163 124.5z" />
<glyph unicode="&#x499;" horiz-adv-x="964" d="M-2 139l76 76q74 -65 164.5 -102t183.5 -37q120 0 191 64.5t71 168.5q0 97 -71.5 151t-209.5 54h-104l23 94h94q131 0 208.5 64t77.5 164q0 161 -215 161q-152 0 -305 -94l-53 78q169 113 369 113q146 0 236.5 -69.5t90.5 -182.5q0 -92 -59 -164.5t-178 -106.5l-2 -6 q105 -26 164 -92t59 -156q0 -150 -105 -245t-284 -95q-16 0 -31 3l-18 -117q155 -18 155 -139q0 -83 -61.5 -135t-161.5 -52q-106 0 -182 47l53 78q61 -35 129 -35q49 0 77 25t28 69q0 39 -35.5 58t-116.5 20l47 191q-92 17 -174.5 58t-130.5 91z" />
<glyph unicode="&#x49a;" horiz-adv-x="1134" d="M145 0l172 1403h121l-76 -612h136l344 401q107 125 162.5 168t134.5 65l37 -90q-58 -17 -100.5 -51.5t-127.5 -132.5l-340 -391l369 -656h104l-45 -370h-92l6 266h-45l-391 688h-164l-84 -688h-121z" />
<glyph unicode="&#x49b;" horiz-adv-x="976" d="M135 0l150 1071h116l-63 -455h115l284 320q70 78 115.5 110t101.5 48l35 -88q-45 -15 -80.5 -44t-107.5 -108l-250 -276l201 -334q60 -97 89 -121.5t85 -24.5h6l-47 -344h-86l8 246q-32 16 -59.5 48.5t-83.5 127.5l-209 346h-131l-72 -522h-117z" />
<glyph unicode="&#x49c;" horiz-adv-x="1134" d="M145 0l172 1403h119l-76 -615h93l45 369h88l-45 -369h34l302 404q101 135 143 173.5t119 59.5l37 -90q-49 -14 -80 -42.5t-117 -141.5l-301 -391l358 -760h-131l-323 690h-54l-45 -373h-88l45 373h-92l-84 -690h-119z" />
<glyph unicode="&#x49d;" horiz-adv-x="997" d="M135 0l150 1071h114l-63 -457h90l33 236h78l-33 -236h45l201 285q73 101 117 140.5t98 54.5l34 -88q-43 -15 -75.5 -49t-108.5 -142l-168 -237l252 -578h-129l-221 522h-60l-38 -286h-78l39 286h-90l-72 -522h-115z" />
<glyph unicode="&#x4a0;" horiz-adv-x="1232" d="M92 1296l14 107h451l-76 -612h135l345 401q108 125 162.5 168t133.5 65l37 -90q-58 -17 -99.5 -51t-127.5 -133l-340 -391l428 -760h-131l-391 688h-164l-84 -688h-121l158 1296h-330z" />
<glyph unicode="&#x4a1;" horiz-adv-x="1011" d="M39 971l14 100h383l-63 -455h114l285 320q70 78 115.5 110t101.5 48l35 -88q-45 -15 -80.5 -44t-107.5 -108l-250 -276l348 -578h-131l-314 522h-131l-71 -522h-117l135 971h-266z" />
<glyph unicode="&#x4a2;" horiz-adv-x="1337" d="M145 0l172 1403h121l-76 -612h660l76 612h121l-160 -1299h108l-45 -370h-92l6 266h-110l84 688h-660l-84 -688h-121z" />
<glyph unicode="&#x4a3;" horiz-adv-x="1216" d="M135 0l150 1071h116l-65 -469h545l67 469h117l-115 -823q-8 -66 -8 -80q0 -38 15.5 -53t50.5 -17h22l-47 -344h-86l8 256q-82 27 -82 146q0 22 8 88l37 262h-546l-70 -506h-117z" />
<glyph unicode="&#x4aa;" horiz-adv-x="1128" d="M141 575q0 163 34.5 302.5t94.5 239t140.5 170t173.5 104.5t192 34q216 0 357 -131l-80 -77q-126 104 -273 104q-100 0 -191 -48t-163 -138.5t-115 -236.5t-43 -327q0 -126 29 -221.5t80.5 -152.5t116.5 -85t143 -28q181 0 326 117l57 -84q-94 -77 -211 -113 q-217 -121 -217 -274q0 -46 29 -74.5t84 -28.5q60 0 114 21l25 -78q-88 -33 -164 -33q-101 0 -153 45.5t-52 120.5q0 74 46 147t122 127q-233 0 -367.5 149.5t-134.5 448.5z" />
<glyph unicode="&#x4ab;" horiz-adv-x="970" d="M111 432q0 150 43 276.5t116 210t169.5 129.5t203.5 46q164 0 303 -105l-61 -84q-107 88 -244 88q-80 0 -152.5 -37.5t-129 -106.5t-90 -177t-33.5 -240q0 -172 77 -263t201 -91q142 0 272 94l50 -84q-82 -58 -170 -86q-213 -119 -213 -272q0 -46 28.5 -74.5t83.5 -28.5 q61 0 115 21l25 -78q-88 -33 -164 -33q-101 0 -153 45.5t-52 120.5t45 147.5t121 126.5q-178 2 -284.5 122t-106.5 333z" />
<glyph unicode="&#x4ae;" horiz-adv-x="1050" d="M106 1403h132l292 -725h5l475 725h135l-559 -836l-70 -567h-121l68 565z" />
<glyph unicode="&#x4af;" horiz-adv-x="950" d="M94 1071h123l191 -942h4l452 942h127l-538 -1071l-56 -403l-114 -17l59 430z" />
<glyph unicode="&#x4b0;" horiz-adv-x="1050" d="M106 1403h132l292 -725h5l475 725h135l-504 -752h233l-14 -98h-276l-68 -553h-121l66 553h-271l15 98h221z" />
<glyph unicode="&#x4b1;" horiz-adv-x="950" d="M94 1071h123l191 -942h4l452 942h127l-481 -960h184l-12 -91h-225l-60 -423l-114 -17l61 440h-219l12 91h180z" />
<glyph unicode="&#x4b2;" horiz-adv-x="1054" d="M-66 0l537 754l-309 649h137l248 -565h4l399 565h142l-476 -643l312 -656h98l-45 -370h-92l6 266h-55l-299 672h-4l-459 -672h-144z" />
<glyph unicode="&#x4b3;" horiz-adv-x="927" d="M-66 0l457 573l-258 498h135l199 -422h4l317 422h144l-400 -496l173 -331q51 -99 76.5 -122.5t80.5 -23.5h6l-47 -344h-86l8 246q-35 16 -64 53.5t-75 132.5l-147 308h-6l-367 -494h-150z" />
<glyph unicode="&#x4b8;" horiz-adv-x="1179" d="M115 852q0 42 6 88l57 463h121l-57 -457q-6 -50 -6 -88q0 -124 58.5 -180.5t178.5 -61.5l64 521h88l-64 -516q87 15 170.5 63t134.5 109l76 610h121l-172 -1403h-121l82 674q-142 -129 -303 -156l-27 -221h-88l27 215q-168 3 -257 88t-89 252z" />
<glyph unicode="&#x4b9;" horiz-adv-x="1071" d="M123 592q0 36 6 80l55 399h117l-53 -385q-6 -50 -6 -86q0 -90 34.5 -129t100.5 -39q12 0 24 2l50 344h81l-45 -321q153 68 273 299l45 315h117l-150 -1071h-117l82 590q-117 -181 -264 -236l-24 -170h-82l22 152q-12 -2 -27 -2q-114 0 -176.5 65.5t-62.5 192.5z" />
<glyph unicode="&#x4ba;" horiz-adv-x="1208" d="M145 0l172 1403h121l-88 -715q200 184 426 184q311 0 311 -329q0 -47 -6 -103l-51 -440h-121l52 434q6 53 6 94q0 130 -57.5 185t-172.5 55q-111 0 -217 -56t-184 -139l-70 -573h-121z" />
<glyph unicode="&#x4bb;" horiz-adv-x="1155" d="M135 0l211 1507l119 15l-127 -908q102 165 205 238.5t213 73.5q105 0 162 -59.5t57 -182.5q0 -38 -6 -84l-84 -600h-117l82 580q6 49 6 88q0 87 -32.5 123t-94.5 36q-199 0 -416 -387l-61 -440h-117z" />
<glyph unicode="&#x4c0;" horiz-adv-x="555" d="M145 0l172 1403h121l-172 -1403h-121z" />
<glyph unicode="&#x4cb;" horiz-adv-x="1181" d="M115 852q0 42 6 88l57 463h121l-57 -457q-6 -46 -6 -88q0 -130 63.5 -186t196.5 -56q101 0 205 52t165 125l76 610h121l-160 -1299h109l-45 -370h-93l7 266h-111l82 674q-85 -75 -183.5 -118.5t-195.5 -43.5q-174 0 -266 85t-92 255z" />
<glyph unicode="&#x4cc;" horiz-adv-x="1073" d="M123 592q0 36 6 80l55 399h117l-53 -385q-6 -50 -6 -86q0 -90 34.5 -129t100.5 -39q95 0 194.5 76t188.5 246l45 317h117l-115 -823q-6 -46 -6 -76q0 -44 17.5 -59t62.5 -15h6l-47 -344h-86l8 256q-82 27 -82 146q0 22 8 88l49 346q-83 -129 -183 -192.5t-192 -63.5 q-114 0 -176.5 65.5t-62.5 192.5z" />
<glyph unicode="&#x4cf;" horiz-adv-x="544" d="M143 188l185 1319l118 15l-188 -1342q-7 -58 9.5 -80t60.5 -22q29 0 73 14l25 -84q-60 -31 -133 -31q-90 0 -127.5 51.5t-22.5 159.5z" />
<glyph unicode="&#x4d8;" horiz-adv-x="1341" d="M117 520q0 150 24 234h955q6 64 6 137q0 227 -87 330.5t-257 103.5q-195 0 -383 -123l-60 82q217 141 453 141q219 0 339 -131t120 -401q0 -222 -48.5 -398t-134.5 -288t-201.5 -171t-252.5 -59q-226 0 -349.5 137t-123.5 406zM240 524q0 -224 94 -335t260 -111 q184 0 318 144.5t175 436.5h-839q-8 -65 -8 -135z" />
<glyph unicode="&#x4d9;" horiz-adv-x="1060" d="M61 242q0 88 36.5 154t121 118t233 82t361.5 37q1 104 -15.5 174.5t-50.5 111t-80.5 57.5t-113.5 17q-136 0 -301 -102l-45 90q88 51 187.5 82t176.5 31q363 0 363 -445q0 -149 -44 -276.5t-119.5 -213.5t-176.5 -134t-213 -48q-151 0 -235.5 72.5t-84.5 192.5zM186 242 q0 -74 53 -119t150 -45q154 0 273 128t145 343q-177 -4 -299.5 -27t-192 -64t-99.5 -93t-30 -123z" />
<glyph unicode="&#x4e2;" horiz-adv-x="1349" d="M145 0l172 1403h121l-84 -666q-58 -451 -90 -610h4l807 1276h158l-172 -1403h-121l82 664q60 469 90 608h-4l-801 -1272h-162zM569 1632l13 97h479l-12 -97h-480z" />
<glyph unicode="&#x4e3;" horiz-adv-x="1157" d="M158 236q0 36 6 79l106 756h117l-104 -741q-7 -58 -7 -86q0 -90 35 -129t101 -39q96 0 196 77t189 248l94 670h117l-150 -1071h-100l24 248q-84 -137 -187 -204t-198 -67q-114 0 -176.5 66t-62.5 193zM442 1366l15 96h479l-14 -96h-480z" />
<glyph unicode="&#x4e8;" horiz-adv-x="1388" d="M141 547q0 206 50.5 374t138 277t204 168t250.5 59q221 0 355.5 -148t134.5 -423q0 -252 -78 -451t-224.5 -312.5t-338.5 -113.5q-231 0 -361.5 147t-130.5 423zM268 541q0 -229 97.5 -344t269.5 -115q91 0 172 36.5t148 107t114 183.5t66 257h-863q-4 -82 -4 -125z M285 764h858q4 62 4 96q0 235 -99 348t-266 113q-89 0 -168.5 -35t-146 -102.5t-114 -175t-68.5 -244.5z" />
<glyph unicode="&#x4e9;" horiz-adv-x="1157" d="M111 414q0 100 18.5 195.5t60.5 184t102 154.5t150 106t199 40q184 0 286.5 -114t102.5 -318q0 -307 -146 -496t-382 -189q-184 0 -287.5 116t-103.5 321zM233 410q0 -163 71 -248.5t200 -85.5q144 0 249.5 108.5t139.5 311.5h-657q-3 -44 -3 -86zM248 586h655q4 54 4 82 q0 161 -70 244t-198 83q-143 0 -250 -105.5t-141 -303.5z" />
<glyph unicode="&#x4ee;" horiz-adv-x="1054" d="M92 76q113 24 180 58t117 91.5t111 167.5h-47l-340 1010h125l297 -922h6l479 922h129l-537 -1014q-118 -222 -213.5 -298t-302.5 -114zM422 1632l12 97h479l-12 -97h-479z" />
<glyph unicode="&#x4ef;" horiz-adv-x="946" d="M-31 -324q146 27 239.5 105.5t160.5 218.5h-43l-232 1071h125l193 -977h4l442 977h129l-510 -1075q-44 -92 -87.5 -157t-102.5 -120.5t-136.5 -89.5t-177.5 -49zM350 1366l15 96h479l-15 -96h-479z" />
<glyph unicode="&#x2000;" horiz-adv-x="946" />
<glyph unicode="&#x2001;" horiz-adv-x="1892" />
<glyph unicode="&#x2002;" horiz-adv-x="946" />
<glyph unicode="&#x2003;" horiz-adv-x="1892" />
<glyph unicode="&#x2004;" horiz-adv-x="630" />
<glyph unicode="&#x2005;" horiz-adv-x="473" />
<glyph unicode="&#x2006;" horiz-adv-x="315" />
<glyph unicode="&#x2007;" horiz-adv-x="315" />
<glyph unicode="&#x2008;" horiz-adv-x="236" />
<glyph unicode="&#x2009;" horiz-adv-x="378" />
<glyph unicode="&#x200a;" horiz-adv-x="105" />
<glyph unicode="&#x2010;" horiz-adv-x="798" d="M135 586l15 106h528l-14 -106h-529z" />
<glyph unicode="&#x2011;" horiz-adv-x="798" d="M135 586l15 106h528l-14 -106h-529z" />
<glyph unicode="&#x2012;" horiz-adv-x="798" d="M135 586l15 106h528l-14 -106h-529z" />
<glyph unicode="&#x2013;" horiz-adv-x="1064" d="M82 586l14 106h901l-14 -106h-901z" />
<glyph unicode="&#x2014;" horiz-adv-x="1556" d="M82 586l14 106h1393l-14 -106h-1393z" />
<glyph unicode="&#x2018;" horiz-adv-x="552" d="M229 1176q0 40 39 102l156 258h78l-117 -283q33 -23 33 -71q0 -39 -27 -64.5t-69 -25.5t-67.5 24t-25.5 60z" />
<glyph unicode="&#x2019;" horiz-adv-x="552" d="M238 1092l116 282q-32 22 -32 72q0 39 27 64.5t69 25.5t67 -24t25 -60q0 -40 -39 -102l-156 -258h-77z" />
<glyph unicode="&#x201a;" horiz-adv-x="552" d="M39 -293l117 283q-33 23 -33 71q0 39 27 65t69 26t67 -24t25 -60q0 -41 -39 -103l-155 -258h-78z" />
<glyph unicode="&#x201c;" horiz-adv-x="870" d="M229 1176q0 40 39 102l156 258h78l-117 -283q33 -23 33 -71q0 -39 -27 -64.5t-69 -25.5t-67.5 24t-25.5 60zM547 1176q0 40 39 102l155 258h78l-117 -283q33 -23 33 -71q0 -39 -27 -64.5t-69 -25.5t-67 24t-25 60z" />
<glyph unicode="&#x201d;" horiz-adv-x="870" d="M233 1092l117 282q-33 23 -33 72q0 39 27.5 64.5t69.5 25.5t67 -24t25 -60q0 -40 -39 -102l-156 -258h-78zM551 1092l117 282q-33 23 -33 72q0 39 27 64.5t69 25.5t67 -24t25 -60q0 -40 -39 -102l-155 -258h-78z" />
<glyph unicode="&#x201e;" horiz-adv-x="870" d="M39 -293l117 283q-33 23 -33 71q0 39 27 65t69 26t67 -24t25 -60q0 -41 -39 -103l-155 -258h-78zM356 -293l117 283q-33 23 -33 71q0 39 27.5 65t69.5 26t67 -24t25 -60q0 -41 -39 -103l-156 -258h-78z" />
<glyph unicode="&#x2020;" d="M135 928l12 104h359l41 330h115l-41 -330h360l-12 -104h-361l-112 -928h-115l113 928h-359z" />
<glyph unicode="&#x2021;" d="M66 354l12 105h358l58 469h-359l12 104h359l41 330h115l-41 -330h360l-12 -104h-361l-57 -469h360l-12 -105h-360l-43 -354h-115l43 354h-358z" />
<glyph unicode="&#x2022;" horiz-adv-x="819" d="M211 700q0 90 62 150.5t153 60.5t153 -61t62 -152q0 -90 -62 -150.5t-153 -60.5t-153 61t-62 152z" />
<glyph unicode="&#x2026;" horiz-adv-x="1720" d="M117 74q0 42 27 69t71 27q45 0 71.5 -27t26.5 -69t-26.5 -69.5t-71.5 -27.5q-44 0 -71 27.5t-27 69.5zM690 74q0 42 27 69t71 27q45 0 72 -27t27 -69t-27 -69.5t-72 -27.5q-44 0 -71 27.5t-27 69.5zM1264 74q0 42 27 69t71 27q45 0 71.5 -27t26.5 -69t-26.5 -69.5 t-71.5 -27.5q-44 0 -71 27.5t-27 69.5z" />
<glyph unicode="&#x202f;" horiz-adv-x="378" />
<glyph unicode="&#x2030;" horiz-adv-x="2355" d="M236 1010q0 171 96.5 272.5t249.5 101.5q124 0 199 -74t75 -210q0 -174 -96.5 -277.5t-245.5 -103.5q-129 0 -203.5 79t-74.5 212zM283 10l1122 1430l88 -58l-1122 -1429zM352 1010q0 -97 44 -149t120 -52q99 0 161 75t62 210q0 100 -44 150t-120 50q-99 0 -161 -74 t-62 -210zM907 268q0 171 96.5 273t249.5 102q124 0 199.5 -74.5t75.5 -210.5q0 -174 -96.5 -277.5t-245.5 -103.5q-130 0 -204.5 79t-74.5 212zM1024 268q0 -97 44 -148.5t120 -51.5q99 0 161 74.5t62 209.5q0 100 -44 150.5t-120 50.5q-99 0 -161 -74t-62 -211zM1624 268 q0 171 96.5 273t249.5 102q124 0 199.5 -74.5t75.5 -210.5q0 -174 -96.5 -277.5t-245.5 -103.5q-130 0 -204.5 79t-74.5 212zM1741 268q0 -97 44 -148.5t120 -51.5q99 0 161 74.5t62 209.5q0 100 -44 150.5t-120 50.5q-99 0 -161 -74t-62 -211z" />
<glyph unicode="&#x2039;" horiz-adv-x="696" d="M139 557l11 84l399 424l63 -51l-338 -422l222 -408l-78 -49z" />
<glyph unicode="&#x203a;" horiz-adv-x="696" d="M86 186l338 422l-221 408l78 49l278 -422l-10 -84l-399 -424z" />
<glyph unicode="&#x2044;" horiz-adv-x="102" d="M-494 -115l1029 1639l86 -47l-1027 -1639z" />
<glyph unicode="&#x205f;" horiz-adv-x="473" />
<glyph unicode="&#x20ac;" d="M20 500l37 100h127q3 86 17 193h-144l37 100h129q60 238 201 364.5t321 126.5q165 0 291 -79l-61 -91q-103 66 -238 66q-133 0 -236.5 -98.5t-154.5 -288.5h524l-36 -100h-508q-16 -96 -19 -193h465l-35 -100h-430q7 -228 82.5 -324t214.5 -96q71 0 147.5 26.5 t137.5 71.5l-17 -123q-59 -33 -134.5 -55.5t-137.5 -22.5q-396 0 -416 523h-164z" />
<glyph unicode="&#x2122;" horiz-adv-x="1843" d="M143 1317v84h623l-16 -84h-250v-694h-97v694h-260zM825 623l39 778h117l221 -580l215 580h119l39 -778h-94l-21 391q-4 86 -4 264l-211 -565h-88l-217 567q0 -166 -4 -266l-18 -391h-93z" />
<glyph unicode="&#x2202;" horiz-adv-x="1064" d="M102 362q0 211 115 337t283 126q100 0 187.5 -46t141.5 -128l7 2q4 46 4 60q0 229 -120.5 369.5t-385.5 205.5l35 96q311 -75 450 -235t139 -440q0 -366 -129 -549t-358 -183q-162 0 -265.5 105t-103.5 280zM223 360q0 -134 71.5 -209t188.5 -75q290 0 338 446 q-51 98 -130 151.5t-173 53.5q-132 0 -213.5 -94.5t-81.5 -272.5z" />
<glyph unicode="&#x2206;" horiz-adv-x="1107" d="M-55 0l633 1403h153l289 -1403h-1075zM119 104h760l-232 1192h-4z" />
<glyph unicode="&#x220f;" horiz-adv-x="1372" d="M221 -420l207 1686h-182l12 96h1045l-13 -96h-182l-205 -1672l-112 -14l206 1686h-458l-205 -1672z" />
<glyph unicode="&#x2211;" horiz-adv-x="1064" d="M78 0l10 88l526 596l-381 590l11 88h764l-13 -102h-620l352 -553l-8 -68l-483 -535h618l-12 -104h-764z" />
<glyph unicode="&#x221a;" horiz-adv-x="1064" d="M55 961l107 34l196 -862h4l650 1643h383l-13 -103h-295l-669 -1673h-131z" />
<glyph unicode="&#x221e;" horiz-adv-x="1843" d="M197 596q0 190 113 308t282 118q125 0 214 -71.5t134 -200.5q163 272 414 272q134 0 219.5 -84.5t85.5 -235.5q0 -198 -114.5 -315t-278.5 -117q-125 0 -214.5 71.5t-136.5 199.5q-78 -130 -177 -200.5t-234 -70.5q-132 0 -219.5 87t-87.5 239zM317 602q0 -110 57 -167.5 t152 -57.5q113 0 193.5 74t150.5 213q-22 53 -43 90t-55 77.5t-81.5 62t-106.5 21.5q-116 0 -191.5 -83.5t-75.5 -229.5zM987 629q17 -41 32.5 -71.5t41.5 -67t54.5 -59.5t69.5 -38.5t89 -15.5q116 0 191 86.5t75 228.5q0 107 -57.5 165t-151.5 58q-113 0 -193.5 -73.5 t-150.5 -212.5z" />
<glyph unicode="&#x222b;" horiz-adv-x="593" d="M-291 -356l47 86q93 -49 193 -49q79 0 121.5 42.5t54.5 141.5l197 1601q35 279 305 279q119 0 239 -66l-47 -86q-98 52 -203 52q-77 0 -121.5 -44.5t-56.5 -140.5l-196 -1601q-17 -142 -91.5 -210.5t-211.5 -68.5q-113 0 -230 64z" />
<glyph unicode="&#x2248;" d="M104 432q45 70 113 109t139 39q51 0 109.5 -23t110 -46.5t83.5 -23.5q93 0 162 91l72 -54q-97 -141 -250 -141q-62 0 -166.5 46t-140.5 46q-94 0 -162 -90zM145 786q45 70 113 109t139 39q51 0 109.5 -23t110 -46t83.5 -23q94 0 162 90l72 -53q-98 -142 -250 -142 q-62 0 -166.5 46t-140.5 46q-94 0 -162 -90z" />
<glyph unicode="&#x2260;" d="M121 406l12 106h238l180 250h-387l14 106h451l182 250l76 -41l-152 -209h180l-14 -106h-242l-182 -250h393l-12 -106h-457l-182 -252l-76 47l150 205h-172z" />
<glyph unicode="&#x2264;" d="M72 0l12 109h737l-12 -109h-737zM147 631l13 102l753 338l35 -98l-674 -297l600 -291l-57 -92z" />
<glyph unicode="&#x2265;" d="M72 0l12 109h737l-12 -109h-737zM96 391l674 297l-600 291l57 92l670 -338l-12 -102l-754 -338z" />
<glyph unicode="&#x25ca;" d="M84 682l469 680h98l310 -680l-467 -682h-99zM209 680l240 -571h8l379 571l-240 569h-8z" />
<glyph unicode="&#x25fc;" horiz-adv-x="1075" d="M0 0v1075h1075v-1075h-1075z" />
<glyph unicode="&#xfb01;" horiz-adv-x="1159" d="M-106 -324q146 68 201 145t77 236l127 918h-199l15 96h198l23 152q24 156 102 227.5t234 71.5q64 0 149 -20t150 -52l-47 -90q-52 28 -124.5 44.5t-137.5 16.5q-97 0 -146.5 -46t-64.5 -158l-21 -146h580l-150 -1071h-117l136 975h-463l-127 -916q-20 -143 -59 -227 t-106 -137.5t-196 -112.5z" />
<glyph unicode="&#xfb02;" horiz-adv-x="1161" d="M-106 -324q146 68 201 145t77 236l127 918h-199l15 96h198l23 152q24 157 103 228t243 71q128 0 260 -52l121 21l-186 -1311q-7 -58 9 -80t60 -22q30 0 74 14l24 -84q-60 -31 -133 -31q-90 0 -127 51.5t-22 159.5l166 1180q-121 53 -256 53q-105 0 -155.5 -45.5 t-65.5 -158.5l-21 -146h283l-29 -96h-268l-127 -916q-20 -143 -59 -227t-106 -137.5t-196 -112.5z" />
</font>
</defs>
</svg>
