<?xml version="1.0" encoding="utf-8"?>
<!-- Generator: Adobe Illustrator 16.0.2, SVG Export Plug-In . SVG Version: 6.00 Build 0)  -->
<!DOCTYPE svg PUBLIC "-//W3C//DTD SVG 1.1//EN" "http://www.w3.org/Graphics/SVG/1.1/DTD/svg11.dtd">
<svg version="1.1" id="Слой_1" xmlns="http://www.w3.org/2000/svg" xmlns:xlink="http://www.w3.org/1999/xlink" x="0px" y="0px"
	 width="183px" height="81px" viewBox="0 0 1193.39 581.1" enable-background="new 0 0 1193.39 581.1" xml:space="preserve">
<g>
	<g>
		<linearGradient id="SVGID_1_" gradientUnits="userSpaceOnUse" x1="83.6528" y1="510.7637" x2="83.6528" y2="584.9512">
			<stop  offset="0" style="stop-color:#F3CD00"/>
			<stop  offset="1" style="stop-color:#D6A800"/>
		</linearGradient>
		<path fill="url(#SVGID_1_)" d="M83.653,580.355c-7.553,0-13.762-2.723-18.616-7.561c-6.974-6.98-6.779-15.613-6.779-27.529
			c0-11.93-0.195-20.545,6.779-27.535c4.854-4.846,11.063-7.561,18.616-7.561c12.886,0,22.975,7.375,25.395,21.816H95.381
			c-1.358-5.525-4.843-9.801-11.636-9.801c-3.679,0-6.684,1.373-8.628,3.594c-2.612,2.914-3.394,6.207-3.394,19.486
			c0,13.271,0.782,16.57,3.394,19.484c1.945,2.229,4.95,3.584,8.628,3.584c6.793,0,10.277-4.27,11.636-9.797h13.666
			C106.627,572.986,96.449,580.355,83.653,580.355z"/>
		<linearGradient id="SVGID_2_" gradientUnits="userSpaceOnUse" x1="174.7231" y1="510.7617" x2="174.7231" y2="584.952">
			<stop  offset="0" style="stop-color:#F3CD00"/>
			<stop  offset="1" style="stop-color:#D6A800"/>
		</linearGradient>
		<path fill="url(#SVGID_2_)" d="M185.233,579.77l-13.471-27.531h-9.696v27.531h-13.465v-69.008h27.047
			c14.049,0,22.39,9.586,22.39,21.121c0,9.701-5.921,15.715-12.607,18.127l15.414,29.76H185.233z M174.767,522.773h-12.701v18.229
			h12.701c5.921,0,9.792-3.787,9.792-9.119C184.559,526.553,180.688,522.773,174.767,522.773z"/>
		<linearGradient id="SVGID_3_" gradientUnits="userSpaceOnUse" x1="264.2397" y1="510.7617" x2="264.2397" y2="584.9507">
			<stop  offset="0" style="stop-color:#F3CD00"/>
			<stop  offset="1" style="stop-color:#D6A800"/>
		</linearGradient>
		<path fill="url(#SVGID_3_)" d="M264.245,580.355c-14.155,0-25.401-9.59-25.401-24.242v-45.352h13.468v44.875
			c0,7.949,4.65,12.697,11.933,12.697c7.273,0,12.016-4.748,12.016-12.697v-44.875h13.375v45.352
			C289.635,570.766,278.392,580.355,264.245,580.355z"/>
		<linearGradient id="SVGID_4_" gradientUnits="userSpaceOnUse" x1="339.3169" y1="510.7617" x2="339.3169" y2="584.952">
			<stop  offset="0" style="stop-color:#F3CD00"/>
			<stop  offset="1" style="stop-color:#D6A800"/>
		</linearGradient>
		<path fill="url(#SVGID_4_)" d="M332.582,579.77v-69.008h13.47v69.008H332.582z"/>
		<linearGradient id="SVGID_5_" gradientUnits="userSpaceOnUse" x1="409.2534" y1="510.7637" x2="409.2534" y2="584.9512">
			<stop  offset="0" style="stop-color:#F3CD00"/>
			<stop  offset="1" style="stop-color:#D6A800"/>
		</linearGradient>
		<path fill="url(#SVGID_5_)" d="M409.056,580.355c-10.469,0-18.415-2.246-25.197-9.113l8.719-8.73
			c4.365,4.367,10.278,5.822,16.676,5.822c7.948,0,12.214-3.008,12.214-8.535c0-2.418-0.68-4.459-2.131-5.803
			c-1.358-1.268-2.92-1.949-6.104-2.432l-8.347-1.162c-5.909-0.869-10.269-2.711-13.372-5.719c-3.298-3.303-4.941-7.76-4.941-13.568
			c0-12.314,9.105-20.945,24.031-20.945c9.509,0,16.39,2.32,22.302,8.049l-8.535,8.434c-4.363-4.17-9.595-4.752-14.151-4.752
			c-7.172,0-10.662,3.979-10.662,8.725c0,1.744,0.582,3.584,2.03,4.949c1.364,1.258,3.595,2.328,6.407,2.711l8.143,1.158
			c6.302,0.879,10.275,2.623,13.183,5.346c3.68,3.482,5.329,8.508,5.329,14.627C434.648,572.795,423.5,580.355,409.056,580.355z"/>
		<linearGradient id="SVGID_6_" gradientUnits="userSpaceOnUse" x1="497.999" y1="510.7617" x2="497.999" y2="584.952">
			<stop  offset="0" style="stop-color:#F3CD00"/>
			<stop  offset="1" style="stop-color:#D6A800"/>
		</linearGradient>
		<path fill="url(#SVGID_6_)" d="M475.272,579.77v-69.008h45.453v12.012h-31.987v16.186h27.233v12.018h-27.233v16.762h31.987v12.031
			H475.272z"/>
		<linearGradient id="SVGID_7_" gradientUnits="userSpaceOnUse" x1="634.959" y1="510.7617" x2="634.959" y2="584.952">
			<stop  offset="0" style="stop-color:#F3CD00"/>
			<stop  offset="1" style="stop-color:#D6A800"/>
		</linearGradient>
		<path fill="url(#SVGID_7_)" d="M612.235,579.77v-69.008h45.446v12.012h-31.975v16.186h27.226v12.018h-27.226v16.762h31.975v12.031
			H612.235z"/>
		<linearGradient id="SVGID_8_" gradientUnits="userSpaceOnUse" x1="723.1191" y1="510.7617" x2="723.1191" y2="584.9507">
			<stop  offset="0" style="stop-color:#F3CD00"/>
			<stop  offset="1" style="stop-color:#D6A800"/>
		</linearGradient>
		<path fill="url(#SVGID_8_)" d="M723.114,580.355c-14.14,0-25.39-9.59-25.39-24.242v-45.352h13.486v44.875
			c0,7.949,4.645,12.697,11.903,12.697c7.282,0,12.022-4.748,12.022-12.697v-44.875h13.378v45.352
			C748.515,570.766,737.277,580.355,723.114,580.355z"/>
		<linearGradient id="SVGID_9_" gradientUnits="userSpaceOnUse" x1="817.5859" y1="510.7617" x2="817.5859" y2="584.952">
			<stop  offset="0" style="stop-color:#F3CD00"/>
			<stop  offset="1" style="stop-color:#D6A800"/>
		</linearGradient>
		<path fill="url(#SVGID_9_)" d="M828.109,579.77l-13.488-27.531h-9.693v27.531h-13.467v-69.008h27.049
			c14.047,0,22.393,9.586,22.393,21.121c0,9.701-5.912,15.715-12.604,18.127l15.413,29.76H828.109z M817.625,522.773h-12.697v18.229
			h12.697c5.925,0,9.789-3.787,9.789-9.119C827.414,526.553,823.55,522.773,817.625,522.773z"/>
		<linearGradient id="SVGID_10_" gradientUnits="userSpaceOnUse" x1="905.9404" y1="510.7637" x2="905.9404" y2="584.9512">
			<stop  offset="0" style="stop-color:#F3CD00"/>
			<stop  offset="1" style="stop-color:#D6A800"/>
		</linearGradient>
		<path fill="url(#SVGID_10_)" d="M924.549,572.795c-4.839,4.838-10.767,7.561-18.606,7.561c-7.863,0-13.86-2.723-18.718-7.561
			c-6.974-6.98-6.77-15.613-6.77-27.529c0-11.93-0.204-20.545,6.77-27.535c4.857-4.846,10.854-7.561,18.718-7.561
			c7.84,0,13.768,2.715,18.606,7.561c6.978,6.99,6.878,15.605,6.878,27.535C931.427,557.182,931.526,565.814,924.549,572.795z
			 M914.57,525.879c-1.951-2.234-4.952-3.693-8.628-3.693c-3.693,0-6.788,1.459-8.722,3.693c-2.621,2.902-3.298,6.107-3.298,19.387
			c0,13.271,0.677,16.471,3.298,19.379c1.934,2.234,5.028,3.689,8.722,3.689c3.676,0,6.677-1.455,8.628-3.689
			c2.609-2.908,3.395-6.107,3.395-19.379C917.965,531.986,917.18,528.781,914.57,525.879z"/>
		<linearGradient id="SVGID_11_" gradientUnits="userSpaceOnUse" x1="997.8809" y1="510.7617" x2="997.8809" y2="584.952">
			<stop  offset="0" style="stop-color:#F3CD00"/>
			<stop  offset="1" style="stop-color:#D6A800"/>
		</linearGradient>
		<path fill="url(#SVGID_11_)" d="M999.872,553.793h-13.279v25.977h-13.488v-69.008h26.768c14.25,0,22.785,9.783,22.785,21.516
			C1022.657,543.998,1014.122,553.793,999.872,553.793z M999.191,522.773h-12.599v18.898h12.599c6.112,0,9.981-3.77,9.981-9.395
			S1005.304,522.773,999.191,522.773z"/>
		<linearGradient id="SVGID_12_" gradientUnits="userSpaceOnUse" x1="1084.6406" y1="510.7617" x2="1084.6406" y2="584.952">
			<stop  offset="0" style="stop-color:#F3CD00"/>
			<stop  offset="1" style="stop-color:#D6A800"/>
		</linearGradient>
		<path fill="url(#SVGID_12_)" d="M1061.907,579.77v-69.008h45.466v12.012h-31.998v16.186h27.253v12.018h-27.253v16.762h31.998
			v12.031H1061.907z"/>
	</g>
	<linearGradient id="SVGID_13_" gradientUnits="userSpaceOnUse" x1="1014.1973" y1="-4.9219" x2="778.8982" y2="272.0762">
		<stop  offset="0" style="stop-color:#FFF9D5"/>
		<stop  offset="0.5054" style="stop-color:#FFE042"/>
		<stop  offset="1" style="stop-color:#F8AF00"/>
	</linearGradient>
	<path fill="url(#SVGID_13_)" d="M741.698,243.908c110.061,32.461,179.482,32.764,200.123,31.677l251.052-176.25l-602.098,79.601
		C596.173,184.317,631.637,211.448,741.698,243.908z"/>
	<linearGradient id="SVGID_14_" gradientUnits="userSpaceOnUse" x1="739.25" y1="-20.9893" x2="649.7947" y2="167.8598">
		<stop  offset="0" style="stop-color:#FFF9D5"/>
		<stop  offset="0.5054" style="stop-color:#FFE042"/>
		<stop  offset="1" style="stop-color:#F8AF00"/>
	</linearGradient>
	<path fill="url(#SVGID_14_)" d="M912.611,112.759L721.293,35.57l-283.414,79.936c6.018,4.319,35.425,13.767,53.665,20.699
		c21.172,8.043,57.327,24.07,65.278,25.698L912.611,112.759z"/>
	<linearGradient id="SVGID_15_" gradientUnits="userSpaceOnUse" x1="587.0732" y1="-46.7588" x2="441.457" y2="84.3547">
		<stop  offset="0" style="stop-color:#FFF9D5"/>
		<stop  offset="0.5054" style="stop-color:#FFE042"/>
		<stop  offset="1" style="stop-color:#F8AF00"/>
	</linearGradient>
	<path fill="url(#SVGID_15_)" d="M612.219,43.957L519.917,2L308.624,90.604c10.568,1.798,26.791,3.543,41.962,5.893
		c15.172,2.35,34.992,6.577,48.922,8.649L612.219,43.957z"/>
	<g>
		<linearGradient id="SVGID_16_" gradientUnits="userSpaceOnUse" x1="385.1807" y1="445.4326" x2="513.2346" y2="177.4123">
			<stop  offset="0" style="stop-color:#FFF8DB"/>
			<stop  offset="0.5163" style="stop-color:#F5CA2E"/>
			<stop  offset="1" style="stop-color:#CD7A21"/>
		</linearGradient>
		<path fill="url(#SVGID_16_)" d="M781.715,387.988l160.106-112.403c-92.505-5.076-219.657-25.93-341.791-91.731
			c-3.104-1.673-6.18-3.304-9.255-4.918L-0.322,257.082L781.715,387.988z"/>
		<linearGradient id="SVGID_17_" gradientUnits="userSpaceOnUse" x1="203.4404" y1="358.6035" x2="331.4953" y2="90.5812">
			<stop  offset="0" style="stop-color:#FFF8DB"/>
			<stop  offset="0.5163" style="stop-color:#F5CA2E"/>
			<stop  offset="1" style="stop-color:#CD7A21"/>
		</linearGradient>
		<path fill="url(#SVGID_17_)" d="M556.822,161.902c-43.245-20.639-83.042-35.611-118.943-46.397L1.356,238.63L556.822,161.902z"/>
		<linearGradient id="SVGID_18_" gradientUnits="userSpaceOnUse" x1="124.0874" y1="320.6934" x2="252.143" y2="52.6696">
			<stop  offset="0" style="stop-color:#FFF8DB"/>
			<stop  offset="0.5163" style="stop-color:#F5CA2E"/>
			<stop  offset="1" style="stop-color:#CD7A21"/>
		</linearGradient>
		<path fill="url(#SVGID_18_)" d="M399.508,105.146c-35.132-8.399-65.625-12.657-90.885-14.542L-0.322,220.166L399.508,105.146z"/>
	</g>
</g>
</svg>
