
<svg xmlns="http://www.w3.org/2000/svg" version="1.1" xmlns:xlink="http://www.w3.org/1999/xlink" preserveAspectRatio="none" x="0px" y="0px" width="109px" height="22px" viewBox="0 0 109 22">
<defs>
<g id="Layer0_0_FILL">
<path fill="#724C35" stroke="none" d="
M 9 11.5
L 8.85 11.25 24.85 1.5 16.05 1.5 0.2 11.5 16.2 21.25 25 21.25 9 11.5
M 56.95 1.5
L 48.15 1.5 32.3 11.5 48.3 21.25 57.1 21.25 41.1 11.5 40.95 11.25 56.95 1.5
M 85.75 11.1
Q 85.75 9.8 84.85 8.85 83.9 7.95 82.6 7.95 81.3 7.95 80.4 8.85 79.45 9.8 79.45 11.1 79.45 12.4 80.4 13.3 81.3 14.25 82.6 14.25 83.9 14.25 84.85 13.3 85.75 12.4 85.75 11.1
M 104.1 7.95
Q 102.8 7.95 101.9 8.85 100.95 9.8 100.95 11.1 100.95 12.4 101.9 13.3 102.8 14.25 104.1 14.25 104.7 14.25 105.25 14.05 105.85 13.8 106.35 13.3 107.2 12.45 107.25 11.2
L 107.25 11.05
Q 107.2 9.75 106.35 8.85 105.85 8.4 105.25 8.15 104.7 7.95 104.1 7.95 Z"/>

<path fill="#FFD11E" stroke="none" d="
M 40.35 1.5
L 31.55 1.5 15.7 11.5 31.7 21.25 40.5 21.25 24.5 11.5 24.35 11.25 40.35 1.5
M 63.8 21.25
L 72.6 21.25 56.6 11.5 56.45 11.25 72.45 1.5 63.65 1.5 47.8 11.5 63.8 21.25 Z"/>

<path fill="#B94D4D" stroke="none" d="
M 93.35 7.95
Q 92.05 7.95 91.15 8.85 90.2 9.8 90.2 11.1 90.2 12.4 91.15 13.3 92.05 14.25 93.35 14.25 94.65 14.25 95.6 13.3 96.5 12.4 96.5 11.1 96.5 9.8 95.6 8.85 94.65 7.95 93.35 7.95 Z"/>
</g>
</defs>

<g transform="matrix( 1, 0, 0, 1, 0,0) ">
<use xlink:href="#Layer0_0_FILL"/>
</g>
</svg>
