<?xml version="1.0" encoding="utf-8"?>
<!-- Generator: Adobe Illustrator 16.0.2, SVG Export Plug-In . SVG Version: 6.00 Build 0)  -->
<!DOCTYPE svg PUBLIC "-//W3C//DTD SVG 1.1//EN" "http://www.w3.org/Graphics/SVG/1.1/DTD/svg11.dtd">
<svg version="1.1" id="Слой_1" xmlns="http://www.w3.org/2000/svg" xmlns:xlink="http://www.w3.org/1999/xlink" x="0px" y="0px"
	 width="120px" height="96px" viewBox="0 0 120 96" enable-background="new 0 0 120 96" xml:space="preserve">
<path fill="#DF830C" d="M110.832,10.546c-0.278-0.609-0.915-1.014-1.601-0.939l-8.489,0.763l1.83-8.335
	c0.126-0.688-0.155-1.373-0.765-1.703c-0.58-0.357-1.322-0.281-1.828,0.175l-10.398,9.15c-0.255,0.23-0.432,0.535-0.506,0.84
	l-2.186,9.963l-5.946,5.234c-7.271-7.649-17.003-12.198-27.576-12.883c-11.134-0.688-21.858,2.972-30.194,10.317
	C14.812,30.5,9.83,40.666,9.118,51.799C8.431,62.905,12.092,73.63,19.437,81.993c7.371,8.334,17.536,13.317,28.669,14.027
	c11.108,0.711,21.835-2.975,30.196-10.317c8.336-7.349,13.314-17.538,14.027-28.645c0.563-8.845-1.65-17.464-6.353-24.935
	c-0.483-0.738-1.451-0.941-2.186-0.484c-0.738,0.459-0.968,1.45-0.481,2.186c4.345,6.887,6.382,14.843,5.874,23.028
	C87.837,78.053,69.511,94.188,48.289,92.87c-21.197-1.347-37.335-19.672-35.99-40.896c1.319-21.196,19.668-37.333,40.865-35.986
	c9.735,0.609,18.705,4.779,25.419,11.792l-7.678,6.762c-4.907-4.981-11.388-7.93-18.376-8.385
	c-15.605-0.969-29.076,10.9-30.067,26.479c-0.966,15.582,10.902,29.053,26.483,30.042c15.578,0.991,29.049-10.875,30.043-26.457
	c0.328-5.213-0.765-10.396-3.176-14.969c-0.409-0.762-1.376-1.067-2.139-0.66c-0.784,0.406-1.065,1.372-0.661,2.134
	c2.137,4.065,3.102,8.669,2.825,13.292c-0.896,13.821-12.863,24.373-26.688,23.51c-13.854-0.894-24.4-12.864-23.535-26.687
	c0.888-13.851,12.858-24.4,26.71-23.536c6.15,0.407,11.87,3.001,16.188,7.32l-7.673,6.786c-2.516-2.311-5.718-3.684-9.175-3.912
	c-8.209-0.508-15.325,5.743-15.861,13.976c-0.508,8.232,5.745,15.35,13.98,15.858c8.236,0.535,15.349-5.743,15.862-13.981
	c0.096-1.442-0.03-2.918-0.36-4.344c-0.2-0.837-1.041-1.375-1.904-1.17c-0.839,0.205-1.372,1.044-1.167,1.904
	c0.251,1.123,0.353,2.268,0.278,3.412c-0.407,6.506-6.027,11.438-12.505,11.028c-6.481-0.405-11.437-6.022-11.029-12.506
	c0.405-6.479,6.022-11.436,12.503-11.029c2.618,0.179,5.058,1.169,6.989,2.872l-8.769,7.73c-0.66,0.558-0.709,1.574-0.152,2.205
	c0.306,0.336,0.686,0.511,1.094,0.538c0.407,0.027,0.812-0.101,1.141-0.38l30.092-26.509c0.029-0.024,7.12-6.276,7.12-6.276
	l10.14-0.917c0.33-0.025,0.661-0.152,0.913-0.381l10.394-9.176C110.934,11.919,111.111,11.183,110.832,10.546z M92.048,11.692
	l6.38-5.618l-1.143,5.21l-6.377,5.641L92.048,11.692z M98.326,18.807l-5.336,0.484l6.38-5.615l5.334-0.483L98.326,18.807z"/>
</svg>
