<?xml version="1.0" encoding="utf-8"?>
<!-- Generator: Adobe Illustrator 16.0.2, SVG Export Plug-In . SVG Version: 6.00 Build 0)  -->
<!DOCTYPE svg PUBLIC "-//W3C//DTD SVG 1.1//EN" "http://www.w3.org/Graphics/SVG/1.1/DTD/svg11.dtd">
<svg version="1.1" id="Слой_1" xmlns="http://www.w3.org/2000/svg" xmlns:xlink="http://www.w3.org/1999/xlink" x="0px" y="0px"
	 width="21.26px" height="21.26px" viewBox="0 0 21.26 21.26" enable-background="new 0 0 21.26 21.26" xml:space="preserve">
<g>
	<path fill="#DF830C" d="M8.616,8.019v5.217l4.519-2.607L8.616,8.019z M14.39,11.063l-6.024,3.479
		c-0.078,0.045-0.164,0.066-0.251,0.066c-0.086,0-0.173-0.021-0.25-0.066c-0.156-0.09-0.251-0.255-0.251-0.436V7.15
		c0-0.18,0.096-0.345,0.251-0.436c0.155-0.089,0.346-0.089,0.502,0l6.025,3.479c0.154,0.091,0.25,0.255,0.25,0.436
		C14.642,10.808,14.545,10.973,14.39,11.063z M20.241,1.517c0-0.281-0.227-0.506-0.506-0.506H1.513
		c-0.281,0-0.506,0.226-0.506,0.506v18.222c0,0.28,0.226,0.507,0.506,0.507h18.222c0.279,0,0.506-0.227,0.506-0.507V1.517z
		 M19.735,21.257H1.513c-0.832,0-1.518-0.688-1.518-1.519V1.517c0-0.832,0.686-1.518,1.518-1.518h18.222
		c0.83,0,1.518,0.686,1.518,1.518v18.222C21.253,20.57,20.565,21.257,19.735,21.257z"/>
</g>
</svg>
