<?xml version="1.0" encoding="utf-8"?>
<!-- Generator: Adobe Illustrator 16.0.2, SVG Export Plug-In . SVG Version: 6.00 Build 0)  -->
<!DOCTYPE svg PUBLIC "-//W3C//DTD SVG 1.1//EN" "http://www.w3.org/Graphics/SVG/1.1/DTD/svg11.dtd">
<svg version="1.1" id="Слой_1" xmlns="http://www.w3.org/2000/svg" xmlns:xlink="http://www.w3.org/1999/xlink" x="0px" y="0px"
	 width="61.417px" height="54.332px" viewBox="0 0 61.417 54.332" enable-background="new 0 0 61.417 54.332" xml:space="preserve">
<path fill="#F9F9F9" d="M24.52,45.01l-6.48,2.44c-0.5-1.32-1.55-2.391-2.86-2.9l2.39-6.489c0.1,0.079,0.19,0.159,0.28,0.25
	c0.52,0.521,0.9,1.101,1.15,1.699c0.46,1.021,0.59,2.11,0.52,3.051c0.95-0.062,2.03,0.069,3.04,0.528c0.6,0.25,1.18,0.621,1.7,1.131
	C24.35,44.811,24.44,44.919,24.52,45.01z"/>
<path fill="#CCCCCC" d="M59.06,0H2.36C1.06,0,0,1.061,0,2.36v49.61c0,1.301,1.06,2.359,2.36,2.359h56.7
	c1.301,0,2.359-1.06,2.359-2.359V2.36C61.419,1.061,60.36,0,59.06,0z M60.22,51.97c0,0.641-0.52,1.16-1.16,1.16H2.36
	c-0.64,0-1.16-0.521-1.16-1.16V10.63h59.02V51.97z"/>
<path fill="#F9F9F9" d="M32.48,3.149h18.504c1.195,0,2.165,0.97,2.165,2.165c0,1.196-0.97,2.166-2.165,2.166H32.48
	c-1.195,0-2.165-0.97-2.165-2.166C30.315,4.119,31.285,3.149,32.48,3.149z"/>
<circle fill="#DF4B18" cx="13.583" cy="5.315" r="2.042"/>
<circle fill="#DF830C" cx="20.669" cy="5.315" r="2.042"/>
<circle fill="#314A5F" cx="6.496" cy="5.315" r="2.042"/>
<path fill="#DF4B18" d="M43.041,26.491L24.91,44.621l-0.39,0.391c-0.08-0.09-0.17-0.199-0.26-0.29c-0.52-0.511-1.1-0.88-1.7-1.13
	c-1.01-0.461-2.09-0.59-3.04-0.529c0.07-0.939-0.06-2.03-0.52-3.051c-0.25-0.6-0.63-1.18-1.15-1.699
	c-0.09-0.091-0.18-0.171-0.28-0.25l0.39-0.391l18.129-18.13l1.69,1.69l3.569,3.57L43.041,26.491z"/>
<path fill="#DF830C" d="M17.17,38.46l-0.04,0.05V38.49c0,0,0,0,0.01-0.01C17.15,38.47,17.16,38.47,17.17,38.46z"/>
<polygon fill="#F9F9F9" points="44.57,24.971 43.041,26.491 41.35,24.801 37.78,21.23 36.089,19.541 37.61,18.011 39.31,19.71 
	42.871,23.271 "/>
<path fill="#DF830C" d="M47.03,22.511l-2.46,2.46l-1.699-1.7l-3.562-3.56l-1.699-1.7l0.17-0.17l1.29-1.29l1-1
	c0.229-0.23,0.529-0.35,0.84-0.35c0.301,0,0.6,0.12,0.83,0.35l5.29,5.29C47.49,21.301,47.49,22.051,47.03,22.511z"/>
<path fill="#314A5F" d="M41.35,24.801L22.56,43.589c-1.01-0.459-2.09-0.59-3.04-0.528c0.07-0.94-0.06-2.03-0.52-3.051l18.78-18.78
	L41.35,24.801z"/>
<path fill="#DF4B18" d="M18.04,47.451l-3.09,1.051c-0.01,0-0.02,0-0.03,0.01c-0.05,0.011-0.09,0.011-0.14,0.011
	c-0.41,0-0.74-0.33-0.74-0.74c0-0.03,0-0.069,0.01-0.101l0.03-0.131l1.02-3.039c0.03,0.011,0.05,0.021,0.08,0.039
	C16.49,45.061,17.54,46.13,18.04,47.451z"/>
</svg>
