<?xml version="1.0" encoding="utf-8"?>
<!-- Generator: Adobe Illustrator 16.0.2, SVG Export Plug-In . SVG Version: 6.00 Build 0)  -->
<!DOCTYPE svg PUBLIC "-//W3C//DTD SVG 1.1//EN" "http://www.w3.org/Graphics/SVG/1.1/DTD/svg11.dtd">
<svg version="1.1" id="Слой_1" xmlns="http://www.w3.org/2000/svg" xmlns:xlink="http://www.w3.org/1999/xlink" x="0px" y="0px"
	 width="61.417px" height="54.332px" viewBox="0 0 61.417 54.332" enable-background="new 0 0 61.417 54.332" xml:space="preserve">
<path fill="#CCCCCC" d="M59.06,0H2.36C1.06,0,0,1.061,0,2.36v49.611c0,1.301,1.06,2.358,2.36,2.358h56.7
	c1.301,0,2.359-1.06,2.359-2.358V2.36C61.419,1.061,60.36,0,59.06,0z M60.22,51.971c0,0.641-0.52,1.159-1.16,1.159H2.36
	c-0.64,0-1.16-0.521-1.16-1.159V10.63h59.02V51.971z"/>
<path fill="#F9F9F9" d="M32.48,3.149h18.504c1.195,0,2.165,0.97,2.165,2.165c0,1.196-0.97,2.166-2.165,2.166H32.48
	c-1.195,0-2.165-0.97-2.165-2.166C30.315,4.119,31.285,3.149,32.48,3.149z"/>
<circle fill="#DF4B18" cx="13.583" cy="5.315" r="2.042"/>
<circle fill="#DF830C" cx="20.669" cy="5.315" r="2.042"/>
<circle fill="#314A5F" cx="6.496" cy="5.315" r="2.042"/>
<g>
	<path fill="#DF4B18" d="M30.709,50.245c-0.203,0-0.406-0.068-0.572-0.205l-2.251-1.853l-2.756,0.979
		c-0.406,0.144-0.857-0.019-1.077-0.391l-1.483-2.518l-2.917-0.031c-0.43-0.005-0.797-0.313-0.875-0.737l-0.528-2.866l-2.739-1.019
		c-0.405-0.15-0.646-0.566-0.574-0.992l0.481-2.876l-2.22-1.9c-0.327-0.28-0.41-0.752-0.198-1.127l1.441-2.548L13,29.633
		c-0.213-0.375-0.131-0.849,0.197-1.129l2.22-1.9l-0.481-2.886c-0.071-0.425,0.169-0.841,0.574-0.991l2.731-1.017l0.537-2.868
		c0.079-0.422,0.445-0.729,0.875-0.734l2.917-0.032l1.483-2.517c0.219-0.372,0.67-0.537,1.077-0.391l2.749,0.978l2.26-1.852
		c0.332-0.272,0.81-0.271,1.142,0.001l2.252,1.851l2.758-0.978c0.404-0.146,0.858,0.021,1.077,0.394l1.474,2.516l2.925,0.032
		c0.431,0.005,0.797,0.313,0.875,0.737l0.529,2.867l2.729,1.016c0.403,0.15,0.644,0.564,0.573,0.989L46,26.596l2.214,1.901
		c0.326,0.28,0.409,0.751,0.197,1.125l-1.435,2.54l1.435,2.539c0.212,0.374,0.129,0.846-0.197,1.125L46,37.728l0.473,2.888
		c0.07,0.425-0.17,0.839-0.573,0.989l-2.729,1.018l-0.528,2.867c-0.077,0.423-0.444,0.732-0.875,0.737l-2.925,0.031l-1.474,2.516
		c-0.219,0.373-0.673,0.537-1.077,0.393l-2.758-0.979l-2.251,1.853C31.115,50.177,30.912,50.245,30.709,50.245z M28.065,46.269
		c0.206,0,0.408,0.071,0.572,0.205l2.072,1.706l2.072-1.706c0.245-0.199,0.578-0.259,0.873-0.152l2.536,0.899l1.354-2.313
		c0.159-0.272,0.45-0.441,0.767-0.445l2.693-0.028l0.486-2.641c0.057-0.312,0.273-0.569,0.57-0.681l2.515-0.938l-0.435-2.656
		c-0.051-0.31,0.063-0.624,0.302-0.828l2.036-1.749l-1.32-2.338c-0.155-0.274-0.155-0.61,0-0.885l1.32-2.339l-2.036-1.75
		c-0.238-0.205-0.354-0.519-0.302-0.829l0.435-2.647l-2.514-0.936c-0.297-0.11-0.514-0.369-0.57-0.68l-0.487-2.64l-2.693-0.029
		c-0.316-0.003-0.607-0.172-0.767-0.445l-1.354-2.313l-2.536,0.899c-0.295,0.104-0.628,0.048-0.872-0.153l-2.074-1.705l-2.082,1.706
		c-0.244,0.2-0.575,0.256-0.872,0.152l-2.527-0.899l-1.364,2.315c-0.16,0.271-0.45,0.439-0.766,0.443l-2.686,0.029l-0.495,2.643
		c-0.058,0.311-0.275,0.568-0.571,0.678l-2.513,0.936l0.443,2.655c0.052,0.311-0.063,0.626-0.303,0.832l-2.042,1.747l1.326,2.327
		c0.157,0.275,0.157,0.612,0.001,0.889l-1.328,2.347l2.043,1.75c0.24,0.205,0.354,0.521,0.302,0.832l-0.442,2.644l2.521,0.938
		c0.297,0.11,0.514,0.369,0.572,0.681l0.487,2.641l2.683,0.028c0.315,0.004,0.605,0.172,0.766,0.443l1.364,2.315l2.537-0.9
		C27.862,46.286,27.964,46.269,28.065,46.269z"/>
</g>
<g>
	<path fill="#DF830C" d="M23.965,33.652c0-0.242-0.086-0.43-0.258-0.562c-0.172-0.131-0.481-0.269-0.929-0.411
		c-0.447-0.146-0.801-0.287-1.062-0.429c-0.71-0.385-1.066-0.901-1.066-1.554c0-0.338,0.095-0.639,0.286-0.903
		c0.191-0.267,0.464-0.474,0.821-0.621c0.357-0.149,0.757-0.226,1.202-0.226c0.447,0,0.846,0.082,1.195,0.244
		c0.349,0.162,0.621,0.392,0.814,0.687c0.194,0.295,0.291,0.631,0.291,1.006h-1.29c0-0.286-0.09-0.51-0.271-0.668
		c-0.18-0.159-0.434-0.239-0.761-0.239c-0.315,0-0.561,0.065-0.735,0.201c-0.175,0.133-0.262,0.309-0.262,0.524
		c0,0.205,0.103,0.375,0.308,0.512c0.205,0.14,0.506,0.269,0.905,0.388c0.734,0.221,1.269,0.496,1.604,0.821
		c0.335,0.326,0.503,0.731,0.503,1.222c0,0.541-0.205,0.967-0.615,1.274s-0.962,0.461-1.655,0.461c-0.481,0-0.92-0.088-1.316-0.264
		c-0.396-0.177-0.697-0.419-0.905-0.726c-0.208-0.309-0.312-0.662-0.312-1.065h1.294c0,0.69,0.413,1.036,1.238,1.036
		c0.307,0,0.546-0.063,0.718-0.188S23.965,33.876,23.965,33.652z"/>
	<path fill="#DF830C" d="M28.082,29.037l1.607,4.539l1.6-4.539h1.694v6.26h-1.294v-1.711l0.129-2.955l-1.689,4.666h-0.886
		l-1.686-4.66l0.129,2.949v1.711h-1.29v-6.26H28.082z"/>
	<path fill="#DF830C" d="M36.059,29.037l1.606,4.539l1.601-4.539h1.694v6.26h-1.295v-1.711l0.129-2.955l-1.689,4.666H37.22
		l-1.686-4.66l0.129,2.949v1.711h-1.291v-6.26H36.059z"/>
</g>
</svg>
