<?xml version="1.0" encoding="utf-8"?>
<!-- Generator: Adobe Illustrator 16.0.2, SVG Export Plug-In . SVG Version: 6.00 Build 0)  -->
<!DOCTYPE svg PUBLIC "-//W3C//DTD SVG 1.1//EN" "http://www.w3.org/Graphics/SVG/1.1/DTD/svg11.dtd">
<svg version="1.1" id="Слой_1" xmlns="http://www.w3.org/2000/svg" xmlns:xlink="http://www.w3.org/1999/xlink" x="0px" y="0px"
	 width="120px" height="96px" viewBox="0 0 120 96" enable-background="new 0 0 120 96" xml:space="preserve">
<g>
	<path fill="#DF830C" d="M95.858,72.054L82.762,64.53c-0.517-0.313-1.146-0.313-1.659,0c-0.517,0.316-0.829,0.83-0.829,1.402v15.1
		c0,0.569,0.313,1.114,0.829,1.398c0.257,0.174,0.514,0.229,0.83,0.229c0.229,0,0.541-0.031,0.829-0.198l13.097-7.579
		c0.486-0.285,0.799-0.829,0.799-1.399C96.657,72.911,96.345,72.369,95.858,72.054z M91.739,73.483L83.563,78.2v-9.436
		L91.739,73.483z"/>
	<g>
		<path fill="#DF830C" d="M98.375,51.124H76.04c-6.178,0-11.212,5.004-11.212,11.179v22.359c0,6.178,5.034,11.182,11.212,11.182
			h22.335c6.177,0,11.209-5.004,11.209-11.182V62.303C109.584,56.128,104.552,51.124,98.375,51.124z M98.375,92.557H76.04
			c-4.373,0-7.923-3.544-7.923-7.895V62.303c0-4.349,3.547-7.896,7.923-7.896h22.335c4.373,0,7.92,3.547,7.92,7.896v22.359
			C106.295,89.013,102.748,92.557,98.375,92.557z"/>
	</g>
	<g>
		<path fill="#DF830C" d="M31.973,62.104c-6.604,0-11.379,4.804-11.379,11.408c0,6.261,5.119,11.354,11.379,11.354
			c6.264,0,11.354-5.091,11.354-11.354C43.328,66.904,38.553,62.104,31.973,62.104z M31.973,81.777
			c-4.574,0-8.291-3.717-8.291-8.266c0-4.547,3.717-8.266,8.291-8.266c4.549,0,8.266,3.719,8.266,8.266
			C40.239,78.061,36.522,81.777,31.973,81.777z"/>
	</g>
	<path fill="#DF830C" d="M40.889,51.124H23.016c-7.435,0-13.469,6.034-13.469,13.468v17.845c0,7.434,6.034,13.497,13.469,13.497
		h17.873c7.434,0,13.468-6.063,13.468-13.497V64.592C54.357,57.158,48.322,51.124,40.889,51.124z M51.069,82.437
		c0,5.633-4.576,10.207-10.18,10.207H23.016c-5.604,0-10.18-4.574-10.18-10.207V64.592c0-5.604,4.576-10.182,10.18-10.182h17.873
		c5.604,0,10.18,4.577,10.18,10.182V82.437z"/>
	<path fill="#DF830C" d="M46.092,61.875c0,1.402-1.115,2.516-2.488,2.516c-1.401,0-2.516-1.113-2.516-2.516s1.115-2.488,2.516-2.488
		C44.977,59.387,46.092,60.504,46.092,61.875z"/>
	<path fill="#DF830C" d="M103.32-0.067H71.438c-3.636,0-6.609,2.946-6.609,6.577v31.885c0,3.633,2.974,6.607,6.609,6.607h17.471
		V29.274h-5.834v-2.717h5.834v-4.692c0-4.518,2.371-7.09,6.492-7.09c1,0,2.117,0.056,3.26,0.17v3.147h-2.347
		c-3.116,0-4.691,1.572-4.691,4.688v3.776h6.496l-0.458,2.717h-6.035v15.728h11.698c3.633,0,6.607-2.974,6.607-6.607V6.51
		C109.928,2.879,106.953-0.067,103.32-0.067z M106.812,38.398c0,1.916-1.575,3.488-3.491,3.488h-8.578v-9.492h4.23
		c0.715,0,1.371-0.545,1.544-1.315l0.944-5.833c0.056-0.458-0.062-0.916-0.344-1.26c-0.315-0.343-0.743-0.542-1.201-0.542h-5.177
		v-0.659c0-1.257,0.059-1.572,1.541-1.572h3.918c0.86,0,1.575-0.687,1.575-1.544v-6.09c0-0.802-0.631-1.488-1.399-1.544
		c-1.287-0.143-3.775-0.371-4.976-0.371c-5.834,0-9.609,4.001-9.609,10.207v1.575h-4.29c-0.857,0-1.544,0.684-1.544,1.544v5.834
		c0,0.857,0.687,1.572,1.544,1.572h4.29v9.492H71.435c-1.915,0-3.49-1.572-3.49-3.488V6.51c0-1.916,1.575-3.488,3.49-3.488h31.883
		c1.916,0,3.491,1.572,3.491,3.488v31.888H106.812z"/>
	<path fill="#DF830C" d="M48.044-0.067H16.162c-3.633,0-6.607,2.946-6.607,6.577v31.885c0,3.633,2.974,6.607,6.607,6.607h31.883
		c3.633,0,6.607-2.974,6.607-6.607V6.515C54.652,2.882,51.678-0.067,48.044-0.067z M51.535,38.398c0,1.916-1.575,3.488-3.491,3.488
		H16.162c-1.916,0-3.491-1.572-3.491-3.488V6.515c0-1.918,1.575-3.491,3.491-3.491h31.883c1.916,0,3.491,1.572,3.491,3.491V38.398z"
		/>
	<path fill="#DF830C" d="M44.671,27.071c-0.257-0.229-0.857-0.801-1.114-1.086c0.198-0.315,0.601-0.888,0.972-1.343l0.229-0.315
		c0.313-0.399,0.656-0.857,1.058-1.402c2.916-3.832,3.002-5.233,2.659-6.146c-0.344-0.975-1.315-1.516-2.631-1.516
		c-0.257,0-0.458,0.028-0.486,0.028l-4.775,0.028c-0.257,0-0.773,0.031-1.201,0.315c-0.6,0.315-0.916,0.944-1.03,1.201l-0.087,0.201
		c-0.17,0.399-0.798,1.944-1.6,3.259c-0.402,0.715-0.743,1.259-1.03,1.687v-0.229c0.028-0.115,0.028-0.229,0.028-0.313
		c0-0.402,0-0.801,0.031-1.145v-0.857c0.084-1.944,0.17-4.119-2.203-4.689c-0.628-0.173-1.086-0.26-2.544-0.288H29.63
		c-1.489,0.028-2.46,0.201-3.231,0.573c-0.631,0.315-1.773,1.201-1.603,2.401c0.114,0.715,0.687,1.259,1.346,1.315
		c0.257,0.028,0.371,0.086,0.371,0.086c0.084,0.17,0.198,0.743,0.198,1.315c0.059,0.771,0.031,1.485,0,2.058
		c-0.285-0.458-0.684-1.059-1.173-1.944c-0.827-1.402-1.485-3.061-1.542-3.203l-0.114-0.226c-0.087-0.17-0.344-0.628-0.802-1
		c-0.486-0.344-1.002-0.486-1.259-0.545l-0.257-0.028l-4.574,0.028c-0.315,0-1.402,0.059-2.089,0.857
		c-0.458,0.601-0.542,1.402-0.198,2.374l0.083,0.201c1.458,3.203,4.348,9.065,7.607,12.438c3.547,3.719,7.493,4.004,8.607,4.004
		c0.114,0,0.229,0,0.229,0l2.089-0.028c0.285-0.028,1.114-0.173,1.687-0.83c0.656-0.687,0.687-1.659,0.687-1.888
		c0-0.344,0.028-0.687,0.084-0.944c0.173,0.17,0.43,0.458,0.746,0.829c0.6,0.687,1.285,1.486,2.086,2.03
		c1.201,0.802,2.203,0.916,2.689,0.916c0.114,0,0.198,0,0.285-0.031l4.147-0.056c0.514,0,1.972-0.257,2.575-1.43
		c0.226-0.344,0.628-1.315-0.173-2.689C47.388,29.705,45.844,28.16,44.671,27.071z M41.496,32.19l-0.285,0.028
		c-0.17-0.028-0.486-0.114-0.885-0.371c-0.458-0.344-1.03-0.972-1.544-1.544c-0.975-1.114-1.975-2.231-3.262-2.231
		c-0.199,0-0.458,0-0.656,0.087c-1.346,0.402-2.117,1.86-2.204,3.977h-1.714c-0.573,0-3.575-0.146-6.348-3.033
		c-2.804-2.916-5.462-8.149-6.694-10.779h3.317c0.229,0.514,0.857,2,1.687,3.46c1.603,2.801,2.832,4.432,4.348,4.432
		c0.343,0,0.687-0.114,1.03-0.288c1.201-0.628,1.656-2.572,1.43-5.861c0-0.743-0.086-1.743-0.489-2.544
		c0.601-0.028,1.231-0.028,1.689-0.028c0.972,0.028,1.343,0.084,1.771,0.17c0.059,0.372,0.031,1.288,0,1.659
		c-0.028,0.601-0.056,1.315-0.056,2.117v0.601c-0.028,1.229-0.086,2.946,1.287,3.832c0.458,0.285,1,0.371,1.517,0.229
		c0.799-0.173,1.829-0.83,3.832-4.234c0.628-1.058,1.399-2.658,1.714-3.516l4.262-0.028c-0.288,0.542-0.83,1.43-1.832,2.801
		c-0.198,0.257-0.372,0.514-0.542,0.715c-0.201,0.229-0.371,0.458-0.514,0.659c-2.547,3.315-2.519,4.203,0.341,6.833
		c1.145,1.058,2.061,2.058,2.547,2.804L41.496,32.19z"/>
</g>
</svg>
