<?xml version="1.0" encoding="utf-8"?>
<!-- Generator: Adobe Illustrator 16.0.2, SVG Export Plug-In . SVG Version: 6.00 Build 0)  -->
<!DOCTYPE svg PUBLIC "-//W3C//DTD SVG 1.1//EN" "http://www.w3.org/Graphics/SVG/1.1/DTD/svg11.dtd">
<svg version="1.1" id="Слой_1" xmlns="http://www.w3.org/2000/svg" xmlns:xlink="http://www.w3.org/1999/xlink" x="0px" y="0px"
	 width="120px" height="96px" viewBox="0 0 120 96" enable-background="new 0 0 120 96" xml:space="preserve">
<path fill="#DF830C" d="M60.278,62.762c-8.347,0-15.242,6.35-16.157,14.498h32.312C75.519,69.111,68.624,62.762,60.278,62.762z
	 M78.373,80.95H42.187c-1.015,0-1.834-0.822-1.834-1.844c0-11.048,8.939-20.035,19.928-20.035c10.985,0,19.929,8.987,19.929,20.035
	C80.209,80.128,79.384,80.95,78.373,80.95z M60.278,35.309c-4.494,0-8.149,3.674-8.149,8.193c0,4.516,3.655,8.193,8.149,8.193
	c4.493,0,8.147-3.674,8.147-8.193C68.425,38.983,64.771,35.309,60.278,35.309z M60.278,55.383c-6.518,0-11.817-5.33-11.817-11.878
	c0-6.551,5.302-11.881,11.817-11.881c6.516,0,11.819,5.33,11.819,11.881C72.097,50.053,66.794,55.383,60.278,55.383z M35.271,39.95
	c-3.038,0-5.509,2.484-5.509,5.538c0,3.054,2.471,5.54,5.509,5.54c3.036,0,5.508-2.483,5.508-5.54
	C40.78,42.434,38.307,39.95,35.271,39.95z M35.271,54.713c-5.062,0-9.177-4.139-9.177-9.226c0-5.089,4.119-9.229,9.177-9.229
	c5.061,0,9.177,4.14,9.177,9.229C44.448,50.574,40.333,54.713,35.271,54.713z M43.165,62.701c-0.476,0.897-1.59,1.24-2.483,0.753
	c-1.65-0.886-3.519-1.356-5.408-1.356c-5.705,0-10.448,4.206-11.33,9.69h11.492c1.012,0,1.834,0.825,1.834,1.847
	c0,1.017-0.822,1.842-1.834,1.842H21.963c-1.012,0-1.834-0.825-1.834-1.842c0-8.397,6.793-15.229,15.145-15.229
	c2.489,0,4.962,0.623,7.142,1.8C43.306,60.686,43.644,61.801,43.165,62.701z M98.594,75.477H85.287
	c-1.014,0-1.836-0.825-1.836-1.842c0-1.021,0.822-1.844,1.836-1.844h11.327c-0.884-5.487-5.624-9.693-11.327-9.693
	c-1.889,0-3.76,0.471-5.41,1.356c-0.892,0.487-2.005,0.146-2.486-0.753c-0.477-0.897-0.139-2.016,0.753-2.497
	c2.182-1.177,4.657-1.8,7.144-1.8c8.351,0,15.146,6.827,15.146,15.229C100.427,74.651,99.607,75.477,98.594,75.477z M85.287,39.95
	c-3.04,0-5.51,2.484-5.51,5.538c0,3.054,2.47,5.54,5.51,5.54c3.034,0,5.507-2.483,5.507-5.54
	C90.794,42.434,88.321,39.95,85.287,39.95z M85.287,54.713c-5.062,0-9.182-4.139-9.182-9.226c0-5.089,4.12-9.229,9.182-9.229
	c5.059,0,9.176,4.14,9.176,9.229C94.463,50.574,90.346,54.713,85.287,54.713z M114.1,27.595c0-3.392-2.744-6.146-6.114-6.146H60.278
	c-1.012,0-1.837-0.828-1.837-1.844V9.767c0-3.392-2.741-6.147-6.112-6.147H12.575c-3.371,0-6.116,2.758-6.116,6.147v82.474H114.1
	V27.595z M115.935,95.927H4.622c-1.012,0-1.834-0.825-1.834-1.841V9.764c0-5.424,4.389-9.837,9.785-9.837h39.753
	c5.395,0,9.784,4.414,9.784,9.837v7.994h45.871c2.312,0,4.438,0.812,6.116,2.165v-2.162c0-3.392-2.744-6.149-6.116-6.149H67.616
	c-1.013,0-1.836-0.825-1.836-1.844s0.823-1.844,1.836-1.844h40.364c5.394,0,9.784,4.417,9.784,9.84v76.325
	C117.771,95.102,116.945,95.927,115.935,95.927z"/>
</svg>
