<?xml version="1.0" encoding="utf-8"?>
<!-- Generator: Adobe Illustrator 16.0.2, SVG Export Plug-In . SVG Version: 6.00 Build 0)  -->
<!DOCTYPE svg PUBLIC "-//W3C//DTD SVG 1.1//EN" "http://www.w3.org/Graphics/SVG/1.1/DTD/svg11.dtd">
<svg version="1.1" id="Слой_1" xmlns="http://www.w3.org/2000/svg" xmlns:xlink="http://www.w3.org/1999/xlink" x="0px" y="0px"
	 width="120px" height="96px" viewBox="0 0 120 96" enable-background="new 0 0 120 96" xml:space="preserve">
<g>
	<path fill="#DF830C" d="M83.727,11.989c-9.034,8.518-21.79,12.705-34.02,14.182v30.063c12.224,1.478,24.983,5.661,34.02,14.185
		V11.989z M24.964,61.683v30.188c0,0.456,0.372,0.83,0.831,0.83h6.125c0.399,0,0.74-0.284,0.816-0.675l5.752-30.344H24.964z
		 M16.031,31.18H8.616c-0.928,0-1.685,0.754-1.685,1.683v16.684c0,0.929,0.757,1.682,1.685,1.682h7.415V31.18z M94.55,43.404
		c0.904,0.027,1.601,0.816,1.601,1.72v32.985c0,2.373-1.926,4.296-4.296,4.296h-3.834c-2.371,0-4.294-1.926-4.294-4.296v-2.955
		C73.941,64.129,58.449,60.609,49.15,59.489c-0.737,1.306-2.136,2.19-3.739,2.19H41.85l-5.868,30.958
		C35.609,94.585,33.905,96,31.923,96h-6.126c-2.283,0-4.132-1.849-4.132-4.135V61.683h-1.341c-2.37,0-4.293-1.923-4.293-4.296V54.53
		H8.616c-2.755,0-4.986-2.234-4.986-4.984V32.862c0-2.756,2.231-4.987,4.986-4.987h7.415v-2.859c0-2.374,1.926-4.296,4.293-4.296
		h7.721c0.929,0,1.683,0.767,1.649,1.704c-0.027,0.904-0.816,1.6-1.718,1.6h-7.652c-0.543,0-0.988,0.448-0.988,0.992v4.509v23.353
		v4.509c0,0.546,0.445,0.991,0.988,0.991h25.087c0.546,0,1.07-0.401,0.991-1.683V25.704c0,0,0.047-0.869-0.139-1.18
		c-0.178-0.292-0.497-0.497-0.855-0.497h-9.662c-0.929,0-1.68-0.768-1.649-1.704c0.03-0.904,0.816-1.598,1.721-1.598h9.591
		c1.604,0,3.002,0.882,3.739,2.188c9.299-1.117,24.792-4.635,34.577-15.662v-2.96C83.725,1.92,85.649,0,88.018,0h3.834
		c2.373,0,4.296,1.923,4.296,4.291v33.056c0,0.932-0.768,1.683-1.701,1.65c-0.904-0.025-1.601-0.817-1.601-1.718V4.291
		c0-0.541-0.445-0.989-0.991-0.989h-3.834c-0.544,0-0.989,0.448-0.989,0.989v3.578v66.666v3.575c0,0.546,0.442,0.994,0.989,0.994
		h3.834c0.546,0,0.991-0.448,0.991-0.994V45.053C92.849,44.125,93.613,43.376,94.55,43.404z M115.374,74.343
		c-0.456,0.787-1.467,1.06-2.259,0.606l-9.993-5.773c-0.789-0.456-1.06-1.461-0.605-2.256c0.456-0.789,1.466-1.06,2.258-0.604
		l9.993,5.769C115.56,72.541,115.832,73.551,115.374,74.343z M116.114,57.834c-0.238,0.883-1.142,1.407-2.024,1.169l-11.147-2.987
		c-0.877-0.235-1.404-1.139-1.169-2.023c0.237-0.88,1.145-1.401,2.023-1.167l11.148,2.988
		C115.83,56.051,116.349,56.955,116.114,57.834z M114.719,42.852H103.18c-0.915,0-1.652-0.737-1.652-1.649
		c0-0.915,0.737-1.652,1.652-1.652h11.539c0.912,0,1.651,0.737,1.651,1.652C116.37,42.115,115.631,42.852,114.719,42.852z
		 M114.95,26.589l-11.147,2.985c-0.877,0.235-1.783-0.287-2.021-1.168c-0.237-0.879,0.29-1.786,1.166-2.021l11.148-2.988
		c0.879-0.235,1.789,0.29,2.023,1.169C116.354,25.447,115.835,26.352,114.95,26.589z M38.564,52.056H27.023
		c-0.915,0-1.655-0.74-1.655-1.652c0-0.909,0.74-1.649,1.655-1.649h11.538c0.91,0,1.652,0.74,1.652,1.649
		C40.214,51.315,39.474,52.056,38.564,52.056z M38.564,42.852H27.023c-0.915,0-1.655-0.737-1.655-1.649
		c0-0.915,0.74-1.652,1.655-1.652h11.538c0.91,0,1.652,0.737,1.652,1.652C40.214,42.115,39.474,42.852,38.564,42.852z
		 M38.564,33.648H27.023c-0.915,0-1.655-0.74-1.655-1.652c0-0.913,0.74-1.652,1.655-1.652h11.538c0.91,0,1.652,0.74,1.652,1.652
		C40.214,32.909,39.474,33.648,38.564,33.648z M114.768,10.32l-9.998,5.771c-0.789,0.456-1.803,0.183-2.259-0.604
		c-0.456-0.792-0.183-1.802,0.606-2.258l9.992-5.771c0.79-0.456,1.803-0.186,2.259,0.606C115.827,8.854,115.554,9.862,114.768,10.32
		z"/>
</g>
</svg>
