<?xml version="1.0" encoding="utf-8"?>
<!-- Generator: Adobe Illustrator 16.0.2, SVG Export Plug-In . SVG Version: 6.00 Build 0)  -->
<!DOCTYPE svg PUBLIC "-//W3C//DTD SVG 1.1//EN" "http://www.w3.org/Graphics/SVG/1.1/DTD/svg11.dtd">
<svg version="1.1" id="Слой_1" xmlns="http://www.w3.org/2000/svg" xmlns:xlink="http://www.w3.org/1999/xlink" x="0px" y="0px"
	 width="61.417px" height="54.332px" viewBox="0 0 61.417 54.332" enable-background="new 0 0 61.417 54.332" xml:space="preserve">
<path fill="#CCCCCC" d="M59.06,0H2.36C1.06,0,0,1.061,0,2.36v49.61c0,1.301,1.06,2.359,2.36,2.359h56.7
	c1.301,0,2.359-1.06,2.359-2.359V2.36C61.419,1.061,60.36,0,59.06,0z M60.22,51.97c0,0.641-0.52,1.16-1.16,1.16H2.36
	c-0.64,0-1.16-0.521-1.16-1.16V10.63h59.02V51.97z"/>
<path fill="#F9F9F9" d="M32.48,3.149h18.504c1.195,0,2.165,0.97,2.165,2.165c0,1.196-0.97,2.166-2.165,2.166H32.48
	c-1.195,0-2.165-0.97-2.165-2.166C30.315,4.119,31.285,3.149,32.48,3.149z"/>
<circle fill="#DF4B18" cx="13.583" cy="5.315" r="2.042"/>
<circle fill="#DF830C" cx="20.669" cy="5.315" r="2.042"/>
<circle fill="#314A5F" cx="6.496" cy="5.315" r="2.042"/>
<g>
	<polygon fill="#DF830C" points="22.564,41.667 15.348,33.602 22.564,25.538 24.353,27.138 18.569,33.602 24.353,40.067 	"/>
</g>
<g>
	<polygon fill="#DF830C" points="38.854,41.667 37.064,40.067 42.849,33.602 37.064,27.138 38.854,25.538 46.069,33.602 	"/>
</g>
<g>
	
		<rect x="29.509" y="22.785" transform="matrix(-0.934 -0.3573 0.3573 -0.934 47.4538 75.5843)" fill="#DF4B18" width="2.4" height="21.247"/>
</g>
</svg>
