<?xml version="1.0" encoding="utf-8"?>
<!-- Generator: Adobe Illustrator 16.0.2, SVG Export Plug-In . SVG Version: 6.00 Build 0)  -->
<!DOCTYPE svg PUBLIC "-//W3C//DTD SVG 1.1//EN" "http://www.w3.org/Graphics/SVG/1.1/DTD/svg11.dtd">
<svg version="1.1" id="Слой_1" xmlns:sketch="http://www.bohemiancoding.com/sketch/ns"
	 xmlns="http://www.w3.org/2000/svg" xmlns:xlink="http://www.w3.org/1999/xlink" x="0px" y="0px" width="897px" height="452px"
	 viewBox="0 0 897 452" enable-background="new 0 0 897 452" xml:space="preserve">
<g>
	<title>IPAD 2</title>
	<desc>Created with Sketch.</desc>
	<path fill="#F9F9F9" d="M449.617,17.637c-3.245,0-5.879,2.634-5.879,5.879c0,3.245,2.634,5.879,5.879,5.879
		c3.244,0,5.879-2.634,5.879-5.879C455.496,20.271,452.861,17.637,449.617,17.637z M449.617,27.043c-1.94,0-3.527-1.587-3.527-3.527
		s1.587-3.527,3.527-3.527c1.939,0,3.527,1.587,3.527,3.527S451.557,27.043,449.617,27.043z M128.631,412.697v0.036h639.621v-0.036
		H128.631z"/>
	<rect x="360.846" y="415.048" fill="#F9F9F9" width="175.191" height="0.036"/>
	<rect x="360.846" y="415.048" fill="#F9F9F9" width="175.191" height="0.036"/>
	<rect x="126.279" y="415.048" fill="#F9F9F9" width="233.391" height="0.036"/>
	<rect x="360.846" y="415.048" fill="#F9F9F9" width="175.191" height="0.036"/>
	<rect x="537.213" y="415.048" fill="#F9F9F9" width="233.391" height="0.036"/>
	<g id="webcam">
		<path fill="#F9F9F9" d="M449.617,17.637c-3.245,0-5.879,2.634-5.879,5.879c0,3.245,2.634,5.879,5.879,5.879
			c3.244,0,5.879-2.634,5.879-5.879C455.496,20.271,452.861,17.637,449.617,17.637z M449.617,27.043
			c-1.94,0-3.527-1.587-3.527-3.527s1.587-3.527,3.527-3.527c1.939,0,3.527,1.587,3.527,3.527S451.557,27.043,449.617,27.043z"/>
	</g>
	<rect x="360.846" y="415.048" fill="#F9F9F9" width="175.191" height="0.036"/>
	<path fill="#F9F9F9" d="M851.85,412.697h-81.246V30.323c0-16.72-13.709-30.323-30.57-30.323H156.85
		c-16.861,0-30.57,13.604-30.57,30.323v382.373H45.151c-2.599,0-4.703,1.812-4.703,4.033v15.979c0,6.607,25.35,18.801,61.481,18.801
		H795.07c42.553,0,61.471-13.169,61.482-18.166V416.73C856.553,414.508,854.447,412.697,851.85,412.697z M128.631,30.323
		c0-15.167,12.922-27.972,28.219-27.972h583.184c15.557,0,28.219,12.545,28.219,27.972v382.409H128.631V30.323z M536.037,415.084
		v3.598c0,1.904-4.34,2.774-8.359,2.774H369.453c-4.292,0-8.606-0.858-8.606-2.774v-3.598H536.037z M854.201,433.331
		c0,3.245-18.354,15.826-59.131,15.826H101.929c-35.897,0-59.13-12.216-59.13-16.449v-1.199h811.402V433.331z M854.201,430.333
		H42.799V416.73c0-0.916,1.07-1.682,2.352-1.682h314.52v3.634c0,3.668,7.49,3.95,9.782,3.95h158.225c2.232,0,9.535-0.282,9.535-3.95
		v-3.634H851.85c1.281,0,2.352,0.766,2.352,1.682V430.333z"/>
	<rect x="128.631" y="412.697" fill="#F9F9F9" width="639.621" height="0.036"/>
	<path fill="#F9F9F9" d="M449.617,17.637c-3.245,0-5.879,2.634-5.879,5.879c0,3.245,2.634,5.879,5.879,5.879
		c3.244,0,5.879-2.634,5.879-5.879C455.496,20.271,452.861,17.637,449.617,17.637z M449.617,27.043c-1.94,0-3.527-1.587-3.527-3.527
		s1.587-3.527,3.527-3.527c1.939,0,3.527,1.587,3.527,3.527S451.557,27.043,449.617,27.043z M128.631,412.697v0.036h639.621v-0.036
		H128.631z"/>
	<path fill="#F9F9F9" d="M449.617,17.637c-3.245,0-5.879,2.634-5.879,5.879c0,3.245,2.634,5.879,5.879,5.879
		c3.244,0,5.879-2.634,5.879-5.879C455.496,20.271,452.861,17.637,449.617,17.637z M449.617,27.043c-1.94,0-3.527-1.587-3.527-3.527
		s1.587-3.527,3.527-3.527c1.939,0,3.527,1.587,3.527,3.527S451.557,27.043,449.617,27.043z M128.631,412.697v0.036h639.621v-0.036
		H128.631z"/>
	<rect x="360.846" y="415.048" fill="#F9F9F9" width="175.191" height="0.036"/>
	<path fill="#F9F9F9" d="M152.734,46.443v344.513h590.32V46.443H152.734z M741.879,389.781H153.91V47.619h587.969V389.781z"/>
</g>
</svg>
