
<svg xmlns="http://www.w3.org/2000/svg" version="1.1" xmlns:xlink="http://www.w3.org/1999/xlink" preserveAspectRatio="none" x="0px" y="0px" width="77px" height="51px" viewBox="0 0 77 51">
<defs>
<g id="Layer0_0_FILL">
<path fill="#664F37" stroke="none" d="
M 50.2 0.5
L 0.15 25.75 50.2 51 50.2 0.5
M 24.55 26
Q 24.55 23.15 26.65 21.05 28.65 19 31.55 19 34.4 19 36.5 21.05 38.5 23.15 38.5 26 38.5 28.85 36.5 30.9 34.4 33 31.55 33 28.65 33 26.65 30.9 24.55 28.85 24.55 26 Z"/>

<path fill="#FFFF00" stroke="none" d="
M 26.65 21.05
Q 24.55 23.15 24.55 26 24.55 28.85 26.65 30.9 28.65 33 31.55 33 34.4 33 36.5 30.9 38.5 28.85 38.5 26 38.5 23.15 36.5 21.05 34.4 19 31.55 19 28.65 19 26.65 21.05 Z"/>

<path fill="#3FA4A0" stroke="none" d="
M 59.2 26.15
Q 59.2 29.55 61.55 31.9 63.95 34.3 67.35 34.3 70.7 34.3 73.05 31.9 75.5 29.55 75.5 26.15 75.5 22.8 73.05 20.4 70.7 18 67.35 18 63.95 18 61.55 20.4 59.2 22.8 59.2 26.15 Z"/>
</g>
</defs>

<g transform="matrix( 1, 0, 0, 1, 0,0) ">
<use xlink:href="#Layer0_0_FILL"/>
</g>
</svg>
