
<svg xmlns="http://www.w3.org/2000/svg" version="1.1" xmlns:xlink="http://www.w3.org/1999/xlink" preserveAspectRatio="none" x="0px" y="0px" width="77px" height="51px" viewBox="0 0 77 51">
<defs>
<g id="Layer0_0_FILL">
<path fill="#664F37" stroke="none" d="
M 76.95 25.75
L 26.9 0.5 26.9 51 76.95 25.75
M 50.45 21.05
Q 52.55 23.15 52.55 26 52.55 28.85 50.45 30.9 48.45 33 45.55 33 42.7 33 40.6 30.9 38.6 28.85 38.6 26 38.6 23.15 40.6 21.05 42.7 19 45.55 19 48.45 19 50.45 21.05 Z"/>

<path fill="#FFFF00" stroke="none" d="
M 52.55 26
Q 52.55 23.15 50.45 21.05 48.45 19 45.55 19 42.7 19 40.6 21.05 38.6 23.15 38.6 26 38.6 28.85 40.6 30.9 42.7 33 45.55 33 48.45 33 50.45 30.9 52.55 28.85 52.55 26 Z"/>

<path fill="#3FA4A0" stroke="none" d="
M 17.9 26.15
Q 17.9 22.8 15.55 20.4 13.15 18 9.75 18 6.4 18 4.05 20.4 1.6 22.8 1.6 26.15 1.6 29.55 4.05 31.9 6.4 34.3 9.75 34.3 13.15 34.3 15.55 31.9 17.9 29.55 17.9 26.15 Z"/>
</g>
</defs>

<g transform="matrix( 1, 0, 0, 1, 0,0) ">
<use xlink:href="#Layer0_0_FILL"/>
</g>
</svg>
