
<svg xmlns="http://www.w3.org/2000/svg" version="1.1" xmlns:xlink="http://www.w3.org/1999/xlink" preserveAspectRatio="none" x="0px" y="0px" width="139px" height="81px" viewBox="0 0 139 81">
<defs>
<g id="Layer0_0_FILL">
<path fill="#664F37" stroke="none" d="
M 0.95 11.9
L 15.95 41.65 30.95 11.9 0.95 11.9
M 16.1 18.85
Q 17.8 18.85 19 20.05 20.25 21.3 20.25 23 20.25 24.7 19 25.9 17.8 27.15 16.1 27.15 14.4 27.15 13.15 25.9 11.95 24.7 11.95 23 11.95 21.3 13.15 20.05 14.4 18.85 16.1 18.85
M 124 41.65
L 139 11.9 109 11.9 124 41.65
M 124.15 18.85
Q 125.85 18.85 127.05 20.05 128.3 21.3 128.3 23 128.3 24.7 127.05 25.9 125.85 27.15 124.15 27.15 122.45 27.15 121.2 25.9 120 24.7 120 23 120 21.3 121.2 20.05 122.45 18.85 124.15 18.85 Z"/>

<path fill="#FFFF00" stroke="none" d="
M 19 20.05
Q 17.8 18.85 16.1 18.85 14.4 18.85 13.15 20.05 11.95 21.3 11.95 23 11.95 24.7 13.15 25.9 14.4 27.15 16.1 27.15 17.8 27.15 19 25.9 20.25 24.7 20.25 23 20.25 21.3 19 20.05
M 127.05 20.05
Q 125.85 18.85 124.15 18.85 122.45 18.85 121.2 20.05 120 21.3 120 23 120 24.7 121.2 25.9 122.45 27.15 124.15 27.15 125.85 27.15 127.05 25.9 128.3 24.7 128.3 23 128.3 21.3 127.05 20.05 Z"/>

<path fill="#3FA4A0" stroke="none" d="
M 63.45 3.85
Q 60.95 6.4 60.95 10 60.95 13.6 63.45 16.1 66 18.65 69.6 18.65 73.2 18.65 75.7 16.1 78.25 13.6 78.25 10 78.25 6.4 75.7 3.85 73.2 1.35 69.6 1.35 66 1.35 63.45 3.85
M 103.2 41.2
L 103.15 30.65 69.95 52.45 69.7 52.2 36.5 30.4 36.45 40.95 70 63 103.2 41.2 Z"/>

<path fill="#FFD11E" stroke="none" d="
M 103.2 59.2
L 103.15 48.65 69.9 70.5 69.7 70.2 36.5 48.4 36.45 58.95 70 81 103.2 59.2 Z"/>

<path fill="#FF874F" stroke="none" d="
M 103.2 23.15
L 103.15 12.6 69.95 34.4 69.7 34.15 36.5 12.35 36.45 22.9 70 44.95 103.2 23.15 Z"/>
</g>
</defs>

<g transform="matrix( 1, 0, 0, 1, 0,0) ">
<use xlink:href="#Layer0_0_FILL"/>
</g>
</svg>
