
<svg xmlns="http://www.w3.org/2000/svg" version="1.1" xmlns:xlink="http://www.w3.org/1999/xlink" preserveAspectRatio="none" x="0px" y="0px" width="25px" height="34px" viewBox="0 0 25 34">
<defs>
<g id="Layer0_0_FILL">
<path fill="#3FA4A0" stroke="none" d="
M 20.6 7.4
Q 21.2 8 21.2 8.8 21.2 9.6 20.6 10.2 20 10.8 19.2 10.8 18.4 10.8 17.8 10.2 17.2 9.6 17.2 8.8 17.2 8 17.8 7.4 18.25 6.95 18.85 6.85 18.75 6.45 18.65 6.1 18.6 6 18.6 5.95
L 6.7 5.95
Q 6.65 6 6.65 6.1 6.5 6.55 6.4 7.05 6.8 7.15 7.15 7.5 7.7 8.05 7.7 8.8 7.7 9.55 7.15 10.1 6.6 10.65 5.85 10.65 5.1 10.65 4.55 10.1 4 9.55 4 8.8 4 8.05 4.55 7.5 4.95 7.1 5.4 7 5.4 6.95 5.45 6.9
L 5.4 6.9
Q 5.5 6.4 5.65 5.95
L 2.05 5.95 0.9 34.2 24.3 34.2 23.15 5.95 19.65 5.95
Q 19.75 6.4 19.9 6.95 20.25 7.05 20.6 7.4
M 2 22.1
L 6.15 22.1 6.15 26.25 2 26.25 2 22.1
M 6.5 21.6
L 6.5 17.45 10.65 17.45 10.65 21.6 6.5 21.6
M 15.35 17.45
L 19.5 17.45 19.5 21.6 15.35 21.6 15.35 17.45
M 10.85 22.1
L 15 22.1 15 26.25 10.85 26.25 10.85 22.1
M 19.5 22.1
L 23.65 22.1 23.65 26.25 19.5 26.25 19.5 22.1 Z"/>

<path fill="#9B0000" fill-opacity="0.6980392156862745" stroke="none" d="
M 23.65 22.1
L 19.5 22.1 19.5 26.25 23.65 26.25 23.65 22.1
M 15 22.1
L 10.85 22.1 10.85 26.25 15 26.25 15 22.1
M 6.15 22.1
L 2 22.1 2 26.25 6.15 26.25 6.15 22.1 Z"/>

<path fill="#86774B" fill-opacity="0.6980392156862745" stroke="none" d="
M 19.5 17.45
L 15.35 17.45 15.35 21.6 19.5 21.6 19.5 17.45
M 6.5 17.45
L 6.5 21.6 10.65 21.6 10.65 17.45 6.5 17.45 Z"/>

<path fill="#6B5D5D" stroke="none" d="
M 21.2 8.8
Q 21.2 8 20.6 7.4 20.25 7.05 19.9 6.95 19.75 6.4 19.65 5.95 19.6 5.85 19.6 5.8 19.05 4.1 17.9 2.75 15.7 0 12.6 0 9.5 0 7.3 2.75 6.2 4.1 5.7 5.8 5.65 5.85 5.65 5.95 5.5 6.4 5.4 6.9
L 5.45 6.9
Q 5.4 6.95 5.4 7 4.95 7.1 4.55 7.5 4 8.05 4 8.8 4 9.55 4.55 10.1 5.1 10.65 5.85 10.65 6.6 10.65 7.15 10.1 7.7 9.55 7.7 8.8 7.7 8.05 7.15 7.5 6.8 7.15 6.4 7.05 6.5 6.55 6.65 6.1 6.65 6 6.7 5.95 7.15 4.55 8.1 3.4 10 1 12.6 1 15.25 1 17.1 3.35
L 17.15 3.4
Q 18.1 4.55 18.6 5.95 18.6 6 18.65 6.1 18.75 6.45 18.85 6.85 18.25 6.95 17.8 7.4 17.2 8 17.2 8.8 17.2 9.6 17.8 10.2 18.4 10.8 19.2 10.8 20 10.8 20.6 10.2 21.2 9.6 21.2 8.8 Z"/>
</g>
</defs>

<g transform="matrix( 1, 0, 0, 1, 0,0) ">
<use xlink:href="#Layer0_0_FILL"/>
</g>
</svg>
