<?xml version="1.0" encoding="utf-8"?>
<!-- Generator: Adobe Illustrator 16.0.2, SVG Export Plug-In . SVG Version: 6.00 Build 0)  -->
<!DOCTYPE svg PUBLIC "-//W3C//DTD SVG 1.1//EN" "http://www.w3.org/Graphics/SVG/1.1/DTD/svg11.dtd">
<svg version="1.1" id="Слой_1" xmlns="http://www.w3.org/2000/svg" xmlns:xlink="http://www.w3.org/1999/xlink" x="0px" y="0px"
	 width="147px" height="212px" viewBox="0 0 443 640" enable-background="new 0 0 443 640" xml:space="preserve">
<g>
	<g>
		<path fill-rule="evenodd" clip-rule="evenodd" fill="#D8D697" d="M320.611,299.087c10.648,22.608,33.795,93.936,33,124.336
			c-45.854-22.592-78.293-50.547-104.281-78.115c-28.027-29.729-31.501-77.962-26.649-113.054l-0.269-0.39l0.317,0.073l0.041-0.321
			l0.268,0.391C257.602,239.781,302.469,260.569,320.611,299.087z"/>
		<path fill-rule="evenodd" clip-rule="evenodd" fill="#D8D697" d="M188.621,348.512c-18.196,17.132-78.841,61.238-107.993,69.901
			c7.275-50.599,23.802-90.102,41.964-123.357c19.583-35.858,64.367-54.102,99.238-60.357l0.284-0.379l0.029,0.321l0.315-0.057
			l-0.287,0.378C225.489,270.232,219.622,319.331,188.621,348.512z"/>
		<path fill-rule="evenodd" clip-rule="evenodd" fill="#D8D697" d="M313.535,157.07c24.75-3.443,99.732-4.325,128.521,5.478
			c-35.207,37.059-71.545,59.714-105.598,76.328c-36.721,17.914-83.803,6.882-115.862-8.192l-0.454,0.142l0.162-0.278l-0.292-0.137
			l0.454-0.142C238.172,199.583,271.365,162.934,313.535,157.07z"/>
		<path fill-rule="evenodd" clip-rule="evenodd" fill="#D8D697" d="M100.8,239.594c-22.049-11.76-83.233-55.116-100.765-79.965
			c50.264-9.292,92.981-6.265,130.297,0.306c40.238,7.086,71.846,43.683,88.925,74.719l0.45,0.152l-0.293,0.13l0.154,0.282
			l-0.449-0.153C186.761,249.489,138.365,259.632,100.8,239.594z"/>
		<path fill-rule="evenodd" clip-rule="evenodd" fill="#D8D697" d="M176.054,121.491C180.178,96.847,201.781,25.037,219.75,0.5
			c24.82,44.686,35.563,86.14,41.223,123.606c6.102,40.398-18.518,82.02-42.495,108.098v0.474l-0.218-0.237l-0.217,0.237v-0.474
			C194.063,206.126,169.029,163.484,176.054,121.491z"/>
	</g>
	<g>
		<path fill-rule="evenodd" clip-rule="evenodd" fill="#B2C76E" d="M219.105,234.482c-29.447-21.396-35.518-63.237-13.562-93.457
			c21.954-30.221,63.63-37.376,93.074-15.982c29.447,21.394,35.52,63.237,13.561,93.459
			C290.223,248.722,248.555,255.876,219.105,234.482z"/>
		<path fill-rule="evenodd" clip-rule="evenodd" fill="#B2C76E" d="M219.105,234.482c-29.447,21.395-71.116,14.24-93.074-15.98
			c-21.954-30.222-15.882-72.065,13.564-93.459c29.445-21.394,71.117-14.239,93.072,15.982
			C254.627,171.245,248.555,213.086,219.105,234.482z"/>
		<path fill-rule="evenodd" clip-rule="evenodd" fill="#B2C76E" d="M219.105,234.482c11.248,34.616-8.431,72.039-43.958,83.58
			c-35.529,11.545-73.446-7.16-84.692-41.778c-11.248-34.618,8.432-72.037,43.96-83.581
			C169.943,181.161,207.858,199.863,219.105,234.482z"/>
		<path fill-rule="evenodd" clip-rule="evenodd" fill="#B2C76E" d="M219.105,234.482c11.248-34.619,49.168-53.321,84.693-41.779
			c35.527,11.544,55.209,48.963,43.959,83.581c-11.246,34.618-49.164,53.324-84.691,41.778
			C227.541,306.521,207.858,269.098,219.105,234.482z"/>
		<path fill-rule="evenodd" clip-rule="evenodd" fill="#B2C76E" d="M219.109,369.756c36.299,0,65.904-30.385,65.904-67.636
			c0-37.252-29.605-67.639-65.904-67.639c-36.301,0-65.907,30.387-65.907,67.639C153.203,339.371,182.809,369.756,219.109,369.756z"
			/>
	</g>
	<g>
		<path fill-rule="evenodd" clip-rule="evenodd" fill="#F2EFBC" d="M186.659,120.429c6.363-42.107,29.417-106.673,32.742-116.278
			c0.093-0.348,0.23-0.485,0.349-0.253v0.253c-0.373,7.71-2.365,49.735-3.613,88.676c1.202-1.073,2.443-1.639,3.712-1.639
			c1.219,0,2.411,0.525,3.57,1.517c-1.249-38.905-3.239-80.854-3.609-88.554V4.054l0.027,0.097
			c3.326,9.605,23.404,72.472,30.025,116.278c6.107,40.403-7.408,85.697-31.385,111.775v0.474l-0.218-0.237l-0.217,0.237v-0.474
			C194.063,206.126,180.294,162.536,186.659,120.429z"/>
		<path fill-rule="evenodd" clip-rule="evenodd" fill="#F2EFBC" d="M102.041,227.512C63.963,208.448,9.68,166.569,1.572,160.439
			c-0.303-0.197-0.389-0.368-0.134-0.409l0.242,0.078c7.218,2.735,46.57,17.616,83.219,30.838c-0.648-1.477-0.805-2.832-0.412-4.037
			c0.377-1.161,1.246-2.132,2.545-2.926c-37.387-10.836-77.894-21.905-85.333-23.935l-0.094-0.032l0.102,0.007
			c10.162-0.195,76.157,0.134,119.865,7.375c40.314,6.676,79.214,33.527,96.604,64.389l0.454,0.148l-0.294,0.132l0.159,0.281
			l-0.451-0.146C185.831,246.951,140.12,246.576,102.041,227.512z"/>
		<path fill-rule="evenodd" clip-rule="evenodd" fill="#F2EFBC" d="M177.734,341.079c-29.897,30.321-86.502,69.01-94.837,74.826
			c-0.28,0.226-0.469,0.256-0.43,0l0.15-0.207c4.832-6.021,31.143-38.849,55.043-69.616c-1.603,0.158-2.938-0.109-3.965-0.855
			c-0.986-0.719-1.644-1.844-1.999-3.326c-21.857,32.21-44.903,67.314-49.13,73.763l-0.059,0.079l0.037-0.097
			c2.956-9.724,23.664-72.388,44.056-111.72c18.808-36.275,56.363-64.976,91.091-71.979l0.278-0.384l0.035,0.32l0.316-0.065
			l-0.279,0.386C222.117,267.395,207.632,310.753,177.734,341.079z"/>
		<path fill-rule="evenodd" clip-rule="evenodd" fill="#F2EFBC" d="M314.648,167.813c42.01-6.957,110.543-4.983,120.701-4.789
			c0.363-0.021,0.537,0.068,0.352,0.252l-0.238,0.08c-7.449,2.03-48.033,13.121-85.453,23.964c1.389,0.814,2.313,1.817,2.705,3.024
			c0.375,1.16,0.246,2.457-0.34,3.863c36.615-13.209,75.891-28.063,83.104-30.795l0.094-0.029l-0.086,0.056
			c-8.107,6.129-61.693,44.652-101.311,64.486c-36.537,18.294-83.787,19.439-116,4.69l-0.451,0.148l0.159-0.281l-0.292-0.134
			l0.451-0.146C235.434,201.338,272.635,174.774,314.648,167.813z"/>
		<path fill-rule="evenodd" clip-rule="evenodd" fill="#F2EFBC" d="M309.135,304.184c19.596,37.805,38.898,103.591,41.852,113.317
			c0.133,0.337,0.102,0.526-0.133,0.409l-0.146-0.206c-4.229-6.453-27.322-41.625-49.199-73.861
			c-0.342,1.573-1.012,2.76-2.041,3.505c-0.984,0.719-2.26,0.994-3.777,0.872c23.875,30.741,50.141,63.509,54.967,69.522
			l0.057,0.078l-0.076-0.064c-8.336-5.816-61.533-44.871-92.639-76.422c-28.688-29.099-44.378-73.684-40.306-108.875l-0.28-0.383
			l0.315,0.064l0.037-0.321l0.279,0.386C252.768,239.207,289.529,266.378,309.135,304.184z"/>
	</g>
	<path fill-rule="evenodd" clip-rule="evenodd" fill="#F2EFBC" d="M186.659,120.429c6.363-42.107,29.417-106.673,32.742-116.278
		c0.093-0.348,0.23-0.485,0.349-0.253v0.253c-0.373,7.71-2.365,49.735-3.613,88.676c1.202-1.073,2.443-1.639,3.712-1.639
		c1.219,0,2.411,0.525,3.57,1.517c-1.249-38.905-3.239-80.854-3.609-88.554V4.054l0.027,0.097
		c3.326,9.605,23.404,72.472,30.025,116.278c6.107,40.403-7.408,85.697-31.385,111.775v0.474l-0.218-0.237l-0.217,0.237v-0.474
		C194.063,206.126,180.294,162.536,186.659,120.429z"/>
	<g>
		<path fill-rule="evenodd" clip-rule="evenodd" fill="#D8D697" d="M136.907,172.692c-12.818-48.767-6.303-73.553,51.132-37.151
			c34.514,21.875,16.783,37.135,12.713,72.326l0.28,0.384l-0.317-0.065l-0.037,0.323l-0.278-0.386
			C165.673,201.12,147.294,212.21,136.907,172.692z"/>
		<path fill-rule="evenodd" clip-rule="evenodd" fill="#8F1016" d="M199.215,206.109c-11.6-8.057-27.768-17.021-32.935-30.518
			l-12.92,2.043C168.843,195.919,181.269,200.183,199.215,206.109z"/>
		<path fill-rule="evenodd" clip-rule="evenodd" fill="#8F1016" d="M198.792,205.813c-3.799-13.604-6.956-31.817-18.007-41.131
			l6.176-11.533C199.145,173.777,199.09,186.918,198.792,205.813z"/>
		<path fill-rule="evenodd" clip-rule="evenodd" fill="#FFFFFF" d="M137.414,171.031c17.381,5.401,29.855,4.979,37.581-1.076
			c7.712-6.042,10.897-17.879,9.713-35.304l3.472-0.231c1.271,18.637-2.354,31.464-11.044,38.272
			c-8.674,6.799-22.204,7.423-40.741,1.659L137.414,171.031z"/>
		<path fill-rule="evenodd" clip-rule="evenodd" fill="#FFFFFF" d="M164.321,177.619c-9.393-4.033-16.138-11.266-20.875-20.92
			c-4.651-9.479-7.351-21.296-8.713-34.696l3.459-0.338c1.324,13.01,3.917,24.432,8.374,33.51
			c4.369,8.906,10.555,15.56,19.131,19.245L164.321,177.619z"/>
		<path fill-rule="evenodd" clip-rule="evenodd" fill="#FFFFFF" d="M180.642,163.638c-1.1-9.265-5.73-17.082-13.033-23.803
			c-7.447-6.851-17.663-12.583-29.76-17.542l1.32-3.213c12.466,5.112,23.032,11.051,30.797,18.195
			c7.909,7.277,12.929,15.801,14.131,25.956L180.642,163.638z"/>
		<path fill-rule="evenodd" clip-rule="evenodd" fill="#7C7B4C" d="M170.09,120.225c6.354,3.11,13.083,6.884,19.99,11.262
			c26.688,16.916,22.286,32.572,17.098,53.136c-1.677,6.646-3.564,14.117-4.614,22.771c-0.181,2.076-1.62,2.565-3.176,2.298
			c-8.128-1.594-15.436-2.204-21.921-2.74c-2.547-0.213-5.005-0.405-7.376-0.638v-3.546c2.415,0.272,4.966,0.484,7.663,0.708
			c6.316,0.525,13.406,1.117,21.454,2.644l0.003-0.015l0.006,0.002c1.094-8.504,2.94-15.809,4.584-22.332
			c4.811-19.071,7.872-31.196-16.692-46.765c-6.302-3.993-11.958-7.239-17.017-9.792V120.225z M132.825,173.687
			c-6.557-24.946-14.141-52.001-6.453-60.26c5.998-6.447,22.853-3.414,43.718,6.798v6.995c-17.297-8.726-27.595-9.329-32.688-3.856
			c-6.722,7.223-5.073,25.069,1.185,48.885c6.49,24.689,16.26,28.803,31.503,30.52v3.546
			C152.659,204.628,139.993,200.96,132.825,173.687z"/>
	</g>
	<g>
		<path fill-rule="evenodd" clip-rule="evenodd" fill="#D8D697" d="M136.517,290.651c-50.338-2.878-71.898-16.738-19.529-60.11
			c31.468-26.065,40.502-4.489,72.714,10.26l0.453-0.148l-0.158,0.28l0.292,0.134l-0.451,0.146
			C172.444,272.076,177.311,292.985,136.517,290.651z"/>
		<path fill-rule="evenodd" clip-rule="evenodd" fill="#8F1016" d="M187.555,241.717c-11.251,8.545-24.77,21.149-39.201,21.895
			l-2.05,12.918C168.479,267.456,176.374,256.953,187.555,241.717z"/>
		<path fill-rule="evenodd" clip-rule="evenodd" fill="#8F1016" d="M187.141,242.026c-14.112-0.586-32.409-3.215-44.683,4.418
			l-9.058-9.437C156.786,231.795,169.265,235.906,187.141,242.026z"/>
		<path fill-rule="evenodd" clip-rule="evenodd" fill="#FFFFFF" d="M135.096,289.653c10.507-14.86,13.961-26.856,10.592-36.073
			c-3.365-9.203-13.638-15.891-30.576-20.146l0.852-3.375c18.118,4.553,29.197,11.963,32.987,22.331
			c3.784,10.353,0.196,23.41-11.012,39.26L135.096,289.653z"/>
		<path fill-rule="evenodd" clip-rule="evenodd" fill="#FFFFFF" d="M149.675,266.101c-6.738,7.688-15.7,11.867-26.345,13.39
			c-10.453,1.493-22.526,0.407-35.691-2.434l0.746-3.397c12.784,2.761,24.448,3.823,34.458,2.391
			c9.821-1.403,18.062-5.228,24.215-12.247L149.675,266.101z"/>
		<path fill-rule="evenodd" clip-rule="evenodd" fill="#FFFFFF" d="M141.422,246.26c-9.149-1.818-18.018,0.167-26.664,5.038
			c-8.818,4.966-17.425,12.912-25.881,22.882l-2.647-2.249c8.71-10.275,17.626-18.489,26.82-23.667
			c9.365-5.272,19.023-7.412,29.054-5.42L141.422,246.26z"/>
		<path fill-rule="evenodd" clip-rule="evenodd" fill="#7C7B4C" d="M138.008,215.503c11.204-0.997,20.555,5.077,31.573,12.003
			c5.801,3.648,12.324,7.751,20.23,11.425c1.92,0.812,1.938,2.333,1.203,3.729c-4.026,7.239-6.865,14-9.379,20.003
			c-8.09,19.295-13.25,33.453-43.627,32.261v-5.938c28.28,1.264,32.879-9.701,40.413-27.67c2.449-5.846,5.203-12.404,9.141-19.588
			l-0.011-0.005l0.004-0.006c-7.751-3.667-14.126-7.681-19.823-11.26c-10.834-6.812-19.102-12.006-29.724-9.696V215.503z
			 M136.204,294.84c-25.75-1.472-53.827-2.619-59.307-12.483c-5.579-10.041,9.891-32.67,36.865-55.01
			c9.401-7.787,17.191-11.216,24.246-11.843v5.258c-5.703,1.238-12.084,4.641-19.909,11.122
			c-25.395,21.03-33.034,34.604-28.341,43.055c4.791,8.625,22.274,12.569,46.859,13.978l1.391,0.072v5.938
			C137.414,294.902,136.816,294.875,136.204,294.84z"/>
	</g>
	<g>
		<path fill-rule="evenodd" clip-rule="evenodd" fill="#D8D697" d="M248.586,327.473c-18.295,46.984-38.138,63.209-63.208,0
			c-15.063-37.985,8.25-39.908,32.228-65.988v-0.473l0.216,0.236l0.22-0.236v0.476C242.018,287.564,263.41,289.395,248.586,327.473z
			"/>
		<path fill-rule="evenodd" clip-rule="evenodd" fill="#8F1016" d="M217.818,263.812c4.649,13.339,12.459,30.091,8.708,44.05
			l11.654,5.94C236.402,289.907,228.855,279.154,217.818,263.812z"/>
		<path fill-rule="evenodd" clip-rule="evenodd" fill="#8F1016" d="M217.984,264.3c-4.922,13.238-13.073,29.828-9.608,43.861
			l-11.772,5.7C198.87,290.008,206.639,279.413,217.984,264.3z"/>
		<path fill-rule="evenodd" clip-rule="evenodd" fill="#FFFFFF" d="M247.195,328.516c-10.885-14.584-21.228-21.575-31.034-21.218
			c-9.792,0.354-19.327,8.058-28.606,22.853l-2.947-1.854c9.927-15.824,20.399-24.071,31.431-24.472
			c11.012-0.401,22.327,7.045,33.936,22.604L247.195,328.516z"/>
		<path fill-rule="evenodd" clip-rule="evenodd" fill="#FFFFFF" d="M229.303,307.374c5.225,8.782,6.432,18.597,4.592,29.191
			c-1.813,10.402-6.574,21.551-13.343,33.191l-3-1.758c6.575-11.305,11.189-22.068,12.924-32.031
			c1.697-9.774,0.607-18.794-4.168-26.816L229.303,307.374z"/>
		<path fill-rule="evenodd" clip-rule="evenodd" fill="#FFFFFF" d="M207.881,309.088c-4.556,8.14-5.406,17.187-3.448,26.917
			c1.998,9.921,6.894,20.563,13.766,31.687l-2.959,1.822c-7.079-11.461-12.136-22.479-14.218-32.821
			c-2.122-10.537-1.172-20.383,3.824-29.306L207.881,309.088z"/>
		<path fill-rule="evenodd" clip-rule="evenodd" fill="#7C7B4C" d="M252.473,329.064c-9.359,24.035-19.127,50.383-30.201,52.545
			c-1.635,0.322-3.388,0.133-5.227-0.514v-13.82c0.721,0.014,1.436-0.048,2.144-0.188c9.685-1.891,18.843-17.298,27.776-40.245
			c10.73-27.556,1.67-35.363-13.332-48.287c-4.801-4.136-10.188-8.78-15.804-14.747l-0.008,0.009l-0.003-0.005l-0.773,0.813v-4.704
			c0.986-0.377,1.953,0.084,2.739,0.892c5.639,6.065,11.193,10.853,16.125,15.101C252.072,289.837,264.096,299.211,252.473,329.064z
			 M217.045,381.096c-10.827-3.816-24.662-23.712-35.699-51.544c-11.65-29.374,1.118-39.451,17.402-53.038
			c5.261-4.392,11.179-9.326,17.117-15.709c0.39-0.45,0.786-0.734,1.18-0.884v4.704c-5.618,5.844-11.124,10.437-16.061,14.56
			c-15.104,12.601-24.708,20.61-13.984,47.643c11.246,28.36,21.119,40.289,30.045,40.447V381.096z"/>
	</g>
	<g>
		<path fill-rule="evenodd" clip-rule="evenodd" fill="#D8D697" d="M249.213,136.608c42.416-27.258,68.002-28.72,51.133,37.151
			c-10.143,39.584-30.127,27.438-64.859,34.443l-0.275,0.383l-0.039-0.321l-0.316,0.064l0.281-0.387
			C231.068,172.754,214.837,158.697,249.213,136.608z"/>
		<path fill-rule="evenodd" clip-rule="evenodd" fill="#8F1016" d="M236.688,206.194c4.078-13.523,7.605-31.668,18.848-40.754
			l-5.941-11.656C236.99,174.16,236.771,187.298,236.688,206.194z"/>
		<path fill-rule="evenodd" clip-rule="evenodd" fill="#8F1016" d="M236.836,205.702c11.766-7.818,28.111-16.448,33.551-29.836
			l12.879,2.307C267.408,196.138,254.898,200.146,236.836,205.702z"/>
		<path fill-rule="evenodd" clip-rule="evenodd" fill="#FFFFFF" d="M250.949,136.58c0.234,18.198,4.492,29.933,12.633,35.409
			c8.131,5.469,20.371,4.84,36.58-1.674l1.291,3.232c-17.328,6.966-30.648,7.483-39.807,1.322
			c-9.148-6.149-13.926-18.821-14.172-38.233L250.949,136.58z"/>
		<path fill-rule="evenodd" clip-rule="evenodd" fill="#FFFFFF" d="M252.998,164.205c0.934-10.179,5.727-18.829,13.443-26.317
			c7.576-7.353,17.982-13.569,30.307-19.009l1.391,3.183c-11.965,5.282-22.025,11.277-29.279,18.321
			c-7.121,6.908-11.543,14.847-12.395,24.142L252.998,164.205z"/>
		<path fill-rule="evenodd" clip-rule="evenodd" fill="#FFFFFF" d="M271.338,175.404c8.467-3.905,14.473-10.726,18.609-19.746
			c4.215-9.202,6.508-20.689,7.484-33.726l3.469,0.262c-1.01,13.437-3.393,25.32-7.791,34.915
			c-4.475,9.768-11.029,17.176-20.316,21.459L271.338,175.404z"/>
		<path fill-rule="evenodd" clip-rule="evenodd" fill="#7C7B4C" d="M266.736,120.549c14.902-9.017,28.445-15.593,35.586-12.275
			c10.414,4.845,11.201,32.245,2.512,66.172c-6.934,27.062-20.439,30.707-38.098,32.17v-3.521
			c15.43-1.455,25.656-5.312,31.92-29.769c8.184-31.94,6.383-47.414-2.381-51.488c-6.398-2.979-16.641-0.2-29.539,6.494V120.549z
			 M247.004,133.035c6.563-4.216,13.273-8.582,19.732-12.486v7.783c-5.131,2.667-10.684,5.949-16.584,9.739
			c-24.877,15.986-22.14,27.628-17.598,46.899c1.453,6.168,3.08,13.093,4.117,21.223l0.016-0.004v0.005
			c8.424-1.587,15.939-2.089,22.65-2.541c2.59-0.174,5.057-0.339,7.398-0.559v3.521c-2.314,0.192-4.703,0.348-7.156,0.511
			c-6.84,0.46-14.527,0.975-23.086,2.649c-2.027,0.471-2.936-0.748-3.16-2.31c-0.998-8.224-2.676-15.361-4.172-21.696
			C224.271,165.007,220.052,150.353,247.004,133.035z"/>
	</g>
	<g>
		<path fill-rule="evenodd" clip-rule="evenodd" fill="#D8D697" d="M318.234,232.268c39.029,31.919,48.328,55.802-19.535,60.112
			c-40.777,2.588-35.402-20.177-52.797-51.041l-0.447-0.146l0.291-0.133l-0.16-0.282l0.451,0.146
			C278.252,226.18,286.604,206.403,318.234,232.268z"/>
		<path fill-rule="evenodd" clip-rule="evenodd" fill="#8F1016" d="M248.184,241.858c14.119-0.299,32.467-2.551,44.582,5.331
			l9.246-9.25C278.742,232.247,266.184,236.103,248.184,241.858z"/>
		<path fill-rule="evenodd" clip-rule="evenodd" fill="#8F1016" d="M248.699,241.85c11.072,8.771,24.326,21.65,38.744,22.691
			l1.779,12.958C267.24,267.971,259.561,257.312,248.699,241.85z"/>
		<path fill-rule="evenodd" clip-rule="evenodd" fill="#FFFFFF" d="M318.795,233.912c-17.232,5.846-27.076,13.521-29.77,22.958
			c-2.688,9.421,1.693,20.87,12.895,34.271l-2.67,2.228c-11.982-14.329-16.594-26.839-13.561-37.454
			c3.02-10.598,13.598-19.055,31.98-25.289L318.795,233.912z"/>
		<path fill-rule="evenodd" clip-rule="evenodd" fill="#FFFFFF" d="M293.156,244.396c9.971-2.259,19.678-0.372,29.184,4.654
			c9.338,4.935,18.467,12.91,27.447,22.946l-2.602,2.31c-8.717-9.748-17.529-17.464-26.473-22.188
			c-8.768-4.636-17.684-6.385-26.787-4.325L293.156,244.396z"/>
		<path fill-rule="evenodd" clip-rule="evenodd" fill="#FFFFFF" d="M288.172,265.297c6.334,6.85,14.676,10.455,24.535,11.6
			c10.049,1.165,21.684-0.203,34.391-3.301l0.818,3.377c-13.092,3.19-25.129,4.596-35.611,3.38
			c-10.678-1.241-19.746-5.184-26.691-12.69L288.172,265.297z"/>
		<path fill-rule="evenodd" clip-rule="evenodd" fill="#7C7B4C" d="M320.951,229.063c19.967,16.329,42.004,33.758,40.641,44.96
			c-1.389,11.403-27.203,20.616-62.156,22.834c-0.643,0.041-1.268,0.073-1.893,0.098v-6.254l1.049-0.061
			c32.904-2.09,47.063-8.583,48.236-18.175c1.191-9.796-10.633-23.264-29.695-38.853c-7.723-6.315-14.006-9.791-19.59-11.234v-5.314
			C304.283,218.013,311.787,221.569,320.951,229.063z M297.543,296.956c-29.869,1.281-35.441-13.75-43.174-33.035
			c-2.551-6.364-5.412-13.516-9.648-21.138c-1.08-1.783-0.203-3.025,1.217-3.723c7.512-3.49,13.779-7.291,19.346-10.669
			c11.496-6.976,20.764-12.946,32.26-11.326v5.314c-10.965-2.832-19.236,2.185-30.453,8.991c-5.418,3.289-11.498,6.978-18.91,10.474
			l0.01,0.011l-0.006,0.002c4.113,7.521,6.914,14.517,9.418,20.76c7.225,18.034,11.855,29.581,39.941,28.083V296.956z"/>
	</g>
	<path fill-rule="evenodd" clip-rule="evenodd" fill="#D8D697" d="M219.908,274.966c23.566,0,42.791-19.222,42.791-42.793
		c0-23.567-19.225-42.793-42.791-42.793c-23.57,0-42.794,19.227-42.794,42.793C177.114,255.744,196.338,274.966,219.908,274.966z"/>
	<g>
		<g>
			<path fill-rule="evenodd" clip-rule="evenodd" fill="#BD2723" d="M220.573,232.887c-4.085-9.729-0.371-20.804,8.397-27.795
				c15.373-12.257,55.324-64.23,55.324-64.23l0.367,0.345c0,0-35.873,54.735-41.549,73.559
				C239.947,225.274,231,233.15,220.573,232.887z"/>
			<path fill-rule="evenodd" clip-rule="evenodd" fill="#F2EFBC" d="M220.539,232.864c-1.323-5.077,1.313-11.458,6.154-15.949
				c8.484-7.872,31.98-39.439,31.98-39.439l0.158,0.164c0,0-21.682,32.8-25.838,43.6
				C230.674,227.271,225.681,232.263,220.539,232.864z"/>
		</g>
		<g>
			<path fill-rule="evenodd" clip-rule="evenodd" fill="#BD2723" d="M220.57,232.839c-10.522,0.744-19.817-6.329-23.621-16.881
				c-6.67-18.496-43.859-72.334-43.859-72.334l0.446-0.235c0,0,41.115,50.864,57.118,62.284
				C219.589,212.048,224.174,223.049,220.57,232.839z"/>
			<path fill-rule="evenodd" clip-rule="evenodd" fill="#F2EFBC" d="M220.539,232.864c-5.233-0.377-10.43-4.921-13.128-10.949
				c-4.727-10.564-27.071-42.958-27.071-42.958l0.207-0.096c0,0,24.095,31.067,32.986,38.477
				C218.499,221.474,221.624,227.803,220.539,232.864z"/>
		</g>
		<g>
			<path fill-rule="evenodd" clip-rule="evenodd" fill="#BD2723" d="M220.527,232.903c8.077-6.789,19.76-6.525,29.036-0.226
				c16.264,11.044,77.828,34.794,77.828,34.794l-0.223,0.454c0,0-62.988-19.039-82.65-18.873
				C233.545,249.147,223.37,242.94,220.527,232.903z"/>
			<path fill-rule="evenodd" clip-rule="evenodd" fill="#F2EFBC" d="M220.539,232.864c4.455-2.77,11.334-2.148,17.059,1.143
				c10.035,5.769,47.15,18.846,47.15,18.846l-0.109,0.196c0,0-37.756-10.974-49.303-11.739
				C228.887,240.882,222.643,237.597,220.539,232.864z"/>
		</g>
		<g>
			<path fill-rule="evenodd" clip-rule="evenodd" fill="#BD2723" d="M220.527,232.828c-2.75,10.186-12.482,16.644-23.698,16.777
				c-19.656,0.234-83.106,16.72-83.106,16.72l-0.078-0.499c0,0,61.927-21.169,77.965-32.54
				C200.563,226.936,212.459,226.216,220.527,232.828z"/>
			<path fill-rule="evenodd" clip-rule="evenodd" fill="#F2EFBC" d="M220.539,232.864c-2.075,4.819-8.071,8.239-14.648,8.812
				c-11.532,1-49.461,11.485-49.461,11.485l-0.024-0.228c0,0,37.252-12.571,47.167-18.542
				C209.109,231.057,216.11,230.182,220.539,232.864z"/>
		</g>
		<g>
			<path fill-rule="evenodd" clip-rule="evenodd" fill="#BD2723" d="M220.5,232.864c8.794,5.831,11.843,17.105,8.423,27.787
				c-5.993,18.723-10.416,84.13-10.416,84.13l-0.499-0.085c0,0-0.499-65.442-6.217-84.253
				C208.6,249.942,211.675,238.43,220.5,232.864z"/>
			<path fill-rule="evenodd" clip-rule="evenodd" fill="#F2EFBC" d="M220.539,232.864c3.917,3.491,5.267,10.262,3.727,16.686
				c-2.693,11.255-4.743,50.554-4.743,50.554l-0.222-0.048c0,0-0.147-39.318-2.679-50.611
				C215.211,243.138,216.597,236.217,220.539,232.864z"/>
		</g>
	</g>
</g>
<path fill-rule="evenodd" clip-rule="evenodd" fill="#8F1016" d="M72.397,542.594H54.732c0-2.434-1.677-9.313-5.032-20.658H24.196
	c-3.469,11.158-5.202,18.037-5.202,20.658H2.369c0-1.432,4.295-13.213,12.892-35.344c8.596-22.131,12.894-34.309,12.894-36.57
	h20.886c0,2.113,3.883,14.119,11.668,36.045C68.512,528.645,72.397,540.598,72.397,542.594L72.397,542.594z M115.964,560.553h0.604
	h12.783H364.76h0.162h0.18h0.191h0.201h25.357h0.119c1.125-0.002,2.213,0,3.238,0h0.115h0.109h0.109h3.24
	c5.527-0.037,9.869-1.658,9.869-8.402c0-2.732-1.041-4.693-3.111-5.918c-2.094-1.205-5.676-1.809-10.748-1.809
	c-8.74,0-25.01,0.164-25.01-12.102c0-4.055,2.109-7.428,6.354-10.162v-0.771c-5.98-2.979-8.957-7.635-8.957-13.967
	c0-5.41,2.053-9.955,6.164-13.592c4.092-3.641,10.445-5.467,19.02-5.467c5.846,0,10.594,1.111,14.25,3.318h0.771
	c1.055-6.955,4.641-10.445,10.707-10.445c2.396,0,4.488,0.434,6.299,1.264l-1.209,10.273c-5.746,0-9.346,0.83-10.779,2.488v0.715
	c2.186,2.771,3.26,5.863,3.26,9.295c0,5.258-1.939,9.744-5.822,13.459c-3.887,3.73-9.67,5.58-17.361,5.58
	c-3.77,0-6.844-0.285-9.234-0.887c-1.943,0.887-2.928,2.055-2.928,3.488c0,2.246,1.168,3.826,3.51,4.715
	c2.336,0.902,7.783,1.357,16.324,1.357c14.758,0,22.148,5.029,22.148,15.076c0,7.068-3.072,12.689-9.238,16.854
	c-5.131,3.465-11.033,3.926-17.975,3.982l-0.02,0.01h-1.359h-0.402h-1.613h-0.824H144.321l0.214,0.119
	c-1.521-0.131-9.217-0.152-17.819,0.121c-12.094,0.387-24.113,4-31.776,13.945c-3.727,4.832-5.581,10.695-5.581,17.604
	c0,7.059,2.213,13.193,6.616,18.369c4.427,5.195,10.601,7.793,18.565,7.793c4.676,0,9.733-0.811,15.218-2.426l-0.944,12.947
	c-5.349,1.287-10.598,1.924-15.794,1.924c-12.887,0-22.697-3.561-29.45-10.676c-6.734-7.119-10.1-15.777-10.1-25.953
	c0-10.561,3.58-19.756,10.734-27.566c2.011-2.191,4.459-4.301,7.219-6.201h-0.212l0.421-0.143c6.87-4.68,15.63-8.053,24.316-8.203
	L115.964,560.553L115.964,560.553z M46.892,511.398c-6.296-19.002-9.444-29.275-9.444-30.82h-0.886c0,1.43-3.26,11.703-9.785,30.82
	H46.892L46.892,511.398z M160.974,542.594c-0.15-12.193-0.225-21.355-0.225-27.5c0-0.699,0.037-2.037,0.112-3.998
	c0.077-1.98,0.113-3.318,0.113-4.014c0-7.109-1.583-12.01-4.769-14.723c-3.185-2.697-7.917-4.053-14.174-4.053
	c-5.334,0-10.726,2.168-16.176,6.52h-0.883c-3.053-4.352-8.333-6.52-15.854-6.52c-5.996,0-11.384,2.168-16.175,6.52h-0.884
	l-0.943-5.859l-14.138,1.545c1.81,7.992,2.696,16.305,2.696,24.92c0,6.615-0.32,15.684-0.979,27.162h14.853
	c0-11.479-0.094-24.523-0.283-39.094c2.658-2.695,5.994-4.037,9.99-4.037c4.356,0,7.221,1.059,8.598,3.154
	c1.375,2.086,2.072,5.611,2.072,10.535c0,9.539-0.415,19.357-1.225,29.441h14.817c-0.228-12.193-0.338-21.355-0.338-27.5
	c0-3.641,0.073-7.77,0.226-12.367c3.318-2.17,6.465-3.264,9.444-3.264c3.712,0,6.427,1.021,8.104,3.037
	c1.698,2.018,2.545,6.332,2.545,12.932c0,8.783-0.377,17.85-1.148,27.162H160.974L160.974,542.594z M218.184,542.539
	c-1.185-4.863-1.768-11.105-1.768-18.719c0-1.359,0.072-4.09,0.185-8.182c0.133-4.092,0.209-6.898,0.209-8.445
	c0-6.992-1.811-11.895-5.449-14.686c-3.62-2.809-8.765-4.201-15.438-4.201c-9.124,0-16.193,0.867-21.206,2.6l-1.208,10.16
	c5.298-1.471,10.725-2.203,16.286-2.203c5.127,0,8.635,0.621,10.557,1.902c1.905,1.266,2.864,3.885,2.864,7.859
	c0,0.586-0.037,1.227-0.113,1.887c-11.855,0.227-20.149,2.109-24.881,5.691c-4.732,3.563-7.089,8.145-7.089,13.742
	c0,4.242,1.507,7.633,4.563,10.199c3.035,2.547,6.843,3.826,11.46,3.826c6.883,0,12.347-1.734,16.401-5.184h0.717
	c0,1.246,0.282,2.639,0.882,4.205L218.184,542.539L218.184,542.539z M203.444,531.059c-0.227-4.975-0.34-9.275-0.34-12.877
	c-12.554,0-18.83,3.186-18.83,9.559c0,4.373,2.77,6.561,8.293,6.561C196.904,534.301,200.521,533.227,203.444,531.059
	L203.444,531.059z M268.701,531.551c-8.199,0.693-16.494,1.055-24.84,1.055v-0.832c0-1.338,3.486-6.521,10.441-15.57
	c5.955-7.783,10.104-12.93,12.422-15.479l0.828-10.59h-40.092l-0.285,10.877c7.373-0.623,15.438-0.943,24.188-0.943v0.887
	c0,1.32-3.639,6.578-10.934,15.736c-6.805,8.578-11.123,13.709-12.969,15.346l-0.776,10.557h41.757L268.701,531.551L268.701,531.551
	z M293.605,542.594c-0.506-8.027-0.771-16.775-0.771-26.238c0-11.084,0.246-20.188,0.715-27.332l-15.889,1.602
	c1.24,7.369,1.865,15.947,1.865,25.73c0,9.879-0.246,18.623-0.775,26.238H293.605L293.605,542.594z M296.152,473.451
	c0-2.242-0.719-4.166-2.135-5.768c-1.41-1.602-3.426-2.412-6.049-2.412c-3.092,0-5.482,0.922-7.199,2.77
	c-1.717,1.85-2.563,4.016-2.563,6.523c0,2.279,0.715,4.223,2.182,5.842c1.455,1.621,3.473,2.432,6.035,2.432
	c3.053,0,5.447-0.941,7.164-2.809C295.303,478.146,296.152,475.959,296.152,473.451L296.152,473.451z M356.018,542.594
	c-0.186-12.193-0.279-20.77-0.279-25.73c0-1.885,0.035-3.711,0.127-5.506c0.1-1.789,0.152-3.201,0.152-4.275
	c0-7.186-1.713-12.102-5.105-14.781c-3.41-2.658-7.957-3.994-13.631-3.994c-6.541,0-12.348,2.168-17.377,6.52h-0.887l-0.945-5.859
	l-14.139,1.545c1.813,7.803,2.699,16.117,2.699,24.92c0,6.58-0.324,15.643-0.982,27.162h14.854c0-11.52-0.094-24.469-0.283-38.83
	c3.752-2.863,7.732-4.301,11.934-4.301c3.508,0,6.109,1.039,7.82,3.094c1.701,2.055,2.568,5.975,2.568,11.764
	c0,9.537-0.416,18.961-1.227,28.273H356.018L356.018,542.594z M401.127,506.699c0-3.313-1.055-5.838-3.205-7.574
	c-2.131-1.734-4.58-2.58-7.33-2.58c-2.773,0-5.188,0.83-7.262,2.506c-2.09,1.674-3.125,4.129-3.125,7.371
	c0,3.277,1.072,5.766,3.201,7.465c2.131,1.676,4.621,2.525,7.447,2.525c2.693,0,5.072-0.813,7.164-2.453
	C400.094,512.32,401.127,509.91,401.127,506.699L401.127,506.699z M183.086,637.754c-1.187-4.863-1.772-11.1-1.772-18.719
	c0-1.357,0.067-4.088,0.19-8.178c0.12-4.09,0.206-6.9,0.206-8.445c0-6.996-1.818-11.887-5.447-14.684
	c-3.628-2.801-8.765-4.205-15.439-4.205c-9.126,0-16.192,0.867-21.206,2.602l-1.208,10.16c5.298-1.471,10.725-2.207,16.288-2.207
	c5.127,0,8.632,0.627,10.556,1.904c1.901,1.264,2.866,3.883,2.866,7.861c0,0.586-0.039,1.227-0.114,1.887
	c-11.857,0.227-20.146,2.117-24.881,5.691c-4.728,3.568-7.091,8.145-7.091,13.74c0,4.246,1.51,7.639,4.564,10.201
	c3.033,2.545,6.843,3.826,11.461,3.826c6.88,0,12.347-1.734,16.399-5.184h0.717c0,1.242,0.283,2.639,0.886,4.205L183.086,637.754
	L183.086,637.754z M168.345,626.275c-0.226-4.975-0.34-9.273-0.34-12.875c-12.553,0-18.83,3.186-18.83,9.557
	c0,4.375,2.771,6.563,8.292,6.563C161.802,629.52,165.423,628.443,168.345,626.275L168.345,626.275z M235.49,626.223
	c-4.863,1.467-8.935,2.203-12.198,2.203c-5.596,0-9.937-1.734-12.986-5.184c-3.058-3.463-4.578-7.709-4.578-12.703
	c0-4.602,1.281-8.482,3.863-11.635c2.582-3.146,6.088-4.729,10.554-4.729c4.189,0,7.971,0.715,11.369,2.109l1.887-11.275
	c-3.549-1.014-7.58-1.541-12.105-1.541c-9.271,0-16.585,2.887-21.922,8.652c-5.329,5.752-8.011,12.496-8.011,20.225
	c0,7.445,2.549,13.816,7.653,19.115c5.094,5.291,12.404,7.955,21.901,7.955c5.732,0,10.275-0.885,13.632-2.662L235.49,626.223
	L235.49,626.223z M289.006,637.754c-1.189-4.863-1.771-11.1-1.771-18.719c0-1.357,0.064-4.088,0.189-8.178
	c0.119-4.09,0.205-6.9,0.205-8.445c0-6.996-1.818-11.887-5.447-14.684c-3.629-2.801-8.764-4.205-15.438-4.205
	c-9.123,0-16.191,0.867-21.209,2.602l-1.203,10.16c5.299-1.471,10.723-2.207,16.283-2.207c5.131,0,8.635,0.627,10.561,1.904
	c1.9,1.264,2.863,3.883,2.863,7.861c0,0.586-0.039,1.227-0.115,1.887c-11.855,0.227-20.146,2.117-24.877,5.691
	c-4.73,3.568-7.09,8.145-7.09,13.74c0,4.246,1.508,7.639,4.561,10.201c3.033,2.545,6.844,3.826,11.463,3.826
	c6.879,0,12.346-1.734,16.402-5.184h0.709c0,1.242,0.287,2.639,0.889,4.205L289.006,637.754L289.006,637.754z M274.262,626.275
	c-0.223-4.975-0.338-9.273-0.338-12.875c-12.553,0-18.83,3.186-18.83,9.557c0,4.375,2.773,6.563,8.297,6.563
	C267.723,629.52,271.342,628.443,274.262,626.275L274.262,626.275z M352.832,610.367c0-8.691-2.619-15.439-7.861-20.244
	c-5.24-4.807-11.535-7.203-18.869-7.203c-7.725,0-14.453,2.625-20.203,7.9c-5.746,5.262-8.617,12.551-8.617,21.865
	c0,8.652,2.641,15.363,7.896,20.131c5.26,4.77,11.572,7.145,18.949,7.145c7.725,0,14.447-2.611,20.152-7.842
	C349.979,626.887,352.832,619.641,352.832,610.367L352.832,610.367z M338.436,612.027c0-5.338-1.258-9.832-3.754-13.463
	c-2.498-3.625-5.771-5.426-9.783-5.426c-3.906,0-7.076,1.695-9.523,5.07c-2.451,3.389-3.672,7.631-3.672,12.705
	c0,5.332,1.24,9.824,3.752,13.459c2.5,3.625,5.77,5.426,9.783,5.426c3.898,0,7.074-1.693,9.518-5.064
	C337.209,621.342,338.436,617.096,338.436,612.027z"/>
</svg>
