<?xml version="1.0" encoding="utf-8"?>
<!-- Generator: Adobe Illustrator 16.0.2, SVG Export Plug-In . SVG Version: 6.00 Build 0)  -->
<!DOCTYPE svg PUBLIC "-//W3C//DTD SVG 1.1//EN" "http://www.w3.org/Graphics/SVG/1.1/DTD/svg11.dtd">
<svg version="1.1" id="Слой_1" xmlns="http://www.w3.org/2000/svg" xmlns:xlink="http://www.w3.org/1999/xlink" x="0px" y="0px"
	 width="129px" height="31px" viewBox="0 0 129 31" enable-background="new 0 0 129 31" xml:space="preserve">
<g>
	<path fill="#F9F9F9" d="M126.433,30.805V29.85l-2.028,0.873c-0.516,0.199-0.992,0.277-1.43,0.277c-2.028,0-3.698-1.313-3.698-3.536
		V9.326h2.467v18.138c0,0.716,0.554,1.073,1.231,1.073c0.158,0,0.315-0.042,0.515-0.118l2.943-1.195V9.326h2.467v21.479H126.433z"/>
	<path fill="#F9F9F9" d="M109.97,17.238v13.566h-2.467V9.326h2.066l0.4,0.915c0.955-0.716,2.227-1.115,3.935-1.115v2.467
		C110.207,11.672,109.97,14.216,109.97,17.238z"/>
	<rect x="98.909" y="27.979" fill="#E09400" width="2.823" height="2.825"/>
	<path fill="#E09400" d="M89.554,9.133c-0.386,0-0.894,0.078-1.352,0.23l-2.81,0.868V2.955h-2.479v27.858h6.538
		c2.063,0,3.702-1.712,3.702-3.752V12.58C93.154,10.514,91.595,9.133,89.554,9.133z M90.681,27.109c0,0.667-0.565,1.229-1.229,1.229
		h-4.06v-15.4l3.523-1.198c0.203-0.077,0.483-0.102,0.638-0.102c0.64,0,1.127,0.355,1.127,1.073V27.109z"/>
	<path fill="#E09400" d="M76.965,20.551v-7.536c0-1.992-1.634-3.702-3.703-3.702h-2.426c-1.991,0-3.701,1.633-3.701,3.702v14.046
		c0,1.938,1.633,3.752,3.701,3.752h2.426c1.991,0,3.703-1.688,3.703-3.752v-3.349h-2.479v3.397c0,0.641-0.508,1.229-1.224,1.229
		h-2.426c-0.638,0-1.252-0.513-1.252-1.229v-6.559H76.965z M69.584,13.068c0-0.641,0.537-1.229,1.252-1.229h2.426
		c0.639,0,1.224,0.511,1.224,1.229v5.004h-4.901V13.068z"/>
	<polygon fill="#E09400" points="58.493,30.805 54.675,30.805 52.767,14.456 52.606,14.456 50.658,30.805 46.84,30.805 
		42.822,2.964 45.45,2.964 48.709,27.261 48.87,27.261 50.262,15.014 51.375,8.452 50.619,2.964 54.795,2.964 54.001,8.452 
		55.114,15.014 56.505,27.261 56.666,27.261 59.887,2.964 62.553,2.964 	"/>
	<path fill="#F9F9F9" d="M33.759,9.313H30.9c-2.069,0-3.703,1.71-3.703,3.755v14.041c0,2.016,1.634,3.703,3.703,3.703h2.859
		c2.068,0,3.704-1.688,3.704-3.703V13.068C37.463,10.999,35.777,9.313,33.759,9.313z M34.984,27.109
		c0,0.667-0.562,1.229-1.225,1.229H30.9c-0.691,0-1.252-0.562-1.252-1.229V13.068c0-0.691,0.561-1.229,1.252-1.229h2.859
		c0.663,0,1.225,0.537,1.225,1.229V27.109z"/>
	<path fill="#F9F9F9" d="M17.884,17.238v13.566h-2.467V9.326h2.071l0.396,0.915c0.955-0.716,2.227-1.115,3.937-1.115v2.467
		C18.124,11.672,17.884,14.216,17.884,17.238z"/>
	<path fill="#F9F9F9" d="M5.723,2.955h-5.823v27.858h2.631V19.479H5.95c2.095,0,3.5-1.691,3.5-3.708V6.708
		C9.45,4.639,7.738,2.955,5.723,2.955z M6.82,15.569c0,0.715-0.459,1.429-1.276,1.429H2.531V5.584h3.192
		c0.587,0,1.098,0.512,1.098,1.124V15.569z"/>
</g>
</svg>
