<svg xmlns="http://www.w3.org/2000/svg" xmlns:xlink="http://www.w3.org/1999/xlink"><symbol id="icon-facebook" viewBox="0 0 12 26">
<path fill="#F9F9F9" d="M8.021,25.839H3.209V13H0V8.575l3.209-0.001L3.205,5.968c0-3.61,0.978-5.807,5.229-5.807h3.54v4.426H9.763
	c-1.655,0-1.735,0.618-1.735,1.772L8.021,8.574H12l-0.469,4.424L8.024,13L8.021,25.839z"/>
</symbol><symbol id="icon-instagram" viewBox="0 0 20 20">
<path fill="#F9F9F9" d="M16.046,10c0,3.34-2.707,6.046-6.046,6.046c-3.339,0-6.046-2.706-6.046-6.046
	c0-0.398,0.04-0.786,0.114-1.163H0v8.037C0,18.6,1.397,20,3.125,20h13.749C18.6,20,20,18.602,20,16.874V8.837h-4.066
	C16.007,9.214,16.046,9.602,16.046,10z M16.874,0H3.125C1.399,0,0,1.4,0,3.125v3.386h5.063C6.157,4.965,7.96,3.954,10,3.954
	c2.04,0,3.843,1.011,4.938,2.557H20V3.125C20,1.4,18.6,0,16.874,0z M18.403,3.86c0,0.309-0.251,0.559-0.558,0.559h-1.674
	c-0.307,0-0.558-0.251-0.558-0.559V2.187c0-0.309,0.253-0.559,0.558-0.559h1.674c0.308,0,0.558,0.251,0.558,0.559V3.86z M13.721,10
	c0-2.056-1.666-3.721-3.721-3.721S6.279,7.944,6.279,10S7.945,13.721,10,13.721S13.721,12.056,13.721,10z"/>
</symbol><symbol id="icon-vk" viewBox="0 0 25 15">
<path fill="#FAFAF9" d="M24.866,13.25c-0.029-0.064-0.058-0.118-0.084-0.163c-0.435-0.78-1.261-1.739-2.484-2.878l-0.026-0.025
	l-0.013-0.012l-0.016-0.013H22.23c-0.555-0.53-0.906-0.888-1.053-1.067c-0.271-0.347-0.332-0.697-0.184-1.055
	c0.104-0.271,0.495-0.838,1.172-1.706c0.355-0.459,0.637-0.83,0.845-1.107c1.503-1.995,2.151-3.271,1.954-3.826l-0.08-0.131
	c-0.052-0.078-0.186-0.148-0.402-0.214c-0.217-0.064-0.493-0.076-0.832-0.032L19.9,1.047c-0.061-0.021-0.146-0.02-0.258,0.006
	c-0.113,0.026-0.172,0.04-0.172,0.04l-0.063,0.032l-0.052,0.038c-0.043,0.026-0.092,0.072-0.145,0.136
	c-0.052,0.067-0.097,0.142-0.129,0.229c-0.408,1.05-0.872,2.026-1.395,2.929c-0.319,0.539-0.614,1.004-0.885,1.398
	c-0.271,0.396-0.494,0.686-0.676,0.873c-0.184,0.187-0.348,0.335-0.496,0.45c-0.148,0.111-0.26,0.16-0.337,0.142
	c-0.079-0.017-0.153-0.036-0.224-0.052c-0.12-0.078-0.221-0.185-0.295-0.32c-0.07-0.135-0.121-0.303-0.147-0.507
	c-0.024-0.203-0.039-0.378-0.044-0.528c-0.006-0.146-0.003-0.355,0.005-0.624c0.011-0.269,0.015-0.451,0.015-0.547
	c0-0.33,0.006-0.686,0.019-1.072c0.015-0.387,0.024-0.692,0.034-0.918c0.008-0.225,0.013-0.464,0.013-0.716
	c0-0.251-0.015-0.449-0.047-0.592c-0.026-0.145-0.075-0.282-0.138-0.417c-0.06-0.135-0.147-0.239-0.264-0.313
	c-0.119-0.073-0.264-0.131-0.438-0.175c-0.46-0.104-1.047-0.161-1.758-0.169c-1.612-0.018-2.651,0.086-3.111,0.312
	C8.735,0.777,8.569,0.907,8.422,1.073C8.266,1.264,8.244,1.368,8.356,1.385c0.521,0.078,0.889,0.265,1.107,0.56l0.078,0.156
	c0.06,0.114,0.122,0.312,0.182,0.6c0.061,0.285,0.1,0.603,0.116,0.95c0.043,0.633,0.043,1.175,0,1.626
	C9.798,5.729,9.756,6.08,9.716,6.331C9.678,6.583,9.62,6.787,9.542,6.943C9.463,7.1,9.412,7.194,9.386,7.23
	C9.359,7.264,9.337,7.285,9.319,7.294c-0.112,0.044-0.23,0.065-0.351,0.065c-0.122,0-0.269-0.06-0.442-0.181
	c-0.174-0.123-0.354-0.29-0.542-0.502c-0.186-0.213-0.395-0.51-0.63-0.893C7.121,5.402,6.878,4.952,6.625,4.431L6.418,4.052
	C6.287,3.811,6.11,3.457,5.885,2.994c-0.226-0.466-0.427-0.914-0.6-1.349C5.216,1.463,5.112,1.324,4.973,1.228L4.908,1.189
	C4.864,1.155,4.796,1.118,4.7,1.079C4.604,1.04,4.504,1.012,4.4,0.995L0.833,1.021c-0.364,0-0.612,0.082-0.741,0.246L0.04,1.347
	C0.015,1.389,0,1.458,0,1.555C0,1.65,0.027,1.767,0.079,1.906C0.598,3.13,1.167,4.309,1.778,5.447
	C2.39,6.583,2.92,7.499,3.371,8.189c0.452,0.697,0.913,1.354,1.381,1.968c0.469,0.616,0.779,1.01,0.93,1.186
	c0.152,0.175,0.271,0.306,0.358,0.39l0.327,0.314c0.207,0.208,0.513,0.455,0.917,0.748c0.404,0.289,0.851,0.574,1.34,0.855
	c0.492,0.283,1.062,0.514,1.713,0.691c0.65,0.178,1.284,0.25,1.901,0.215h1.497c0.303-0.027,0.533-0.121,0.688-0.287l0.052-0.063
	c0.035-0.052,0.069-0.131,0.098-0.24c0.031-0.108,0.047-0.229,0.047-0.358c-0.01-0.375,0.021-0.709,0.085-1.008
	c0.063-0.301,0.139-0.524,0.223-0.677c0.082-0.153,0.173-0.28,0.277-0.384s0.179-0.169,0.223-0.191
	c0.042-0.02,0.077-0.033,0.104-0.043c0.208-0.07,0.453-0.004,0.734,0.202c0.282,0.203,0.545,0.455,0.795,0.753
	c0.246,0.303,0.543,0.637,0.891,1.012c0.349,0.371,0.65,0.647,0.91,0.832l0.261,0.154c0.174,0.104,0.399,0.198,0.679,0.288
	c0.275,0.086,0.521,0.108,0.729,0.063l3.332-0.053c0.332,0,0.587-0.054,0.768-0.162c0.184-0.106,0.292-0.229,0.327-0.356
	c0.032-0.132,0.037-0.276,0.005-0.442C24.93,13.432,24.898,13.314,24.866,13.25z"/>
</symbol></svg>