<?xml version="1.0" encoding="utf-8"?>
<!-- Generator: Adobe Illustrator 16.0.2, SVG Export Plug-In . SVG Version: 6.00 Build 0)  -->
<!DOCTYPE svg PUBLIC "-//W3C//DTD SVG 1.1//EN" "http://www.w3.org/Graphics/SVG/1.1/DTD/svg11.dtd">
<svg version="1.1" id="Слой_1" xmlns="http://www.w3.org/2000/svg" xmlns:xlink="http://www.w3.org/1999/xlink" x="0px" y="0px"
	 width="20px" height="20px" viewBox="0 0 20 20" enable-background="new 0 0 20 20" xml:space="preserve">
<path fill="#314A5F" d="M4.979,8.799c1.41,2.643,3.631,4.862,6.275,6.27l3.034-2.379c1.401,0.554,2.93,0.859,4.528,0.859v0.012
	C19.479,13.613,20,14.163,20,14.838v3.873c0,0.676-0.521,1.223-1.184,1.279V20c-0.03,0-0.058-0.003-0.086-0.003
	c-0.01,0-0.015,0.003-0.022,0.003h-0.431c-0.06,0-0.116-0.01-0.174-0.018C8.281,19.615,0.387,11.723,0.019,1.9
	C0.01,1.841,0,1.783,0,1.72V1.29c0-0.007,0.001-0.014,0.001-0.021C0.001,1.24,0,1.211,0,1.183h0.011C0.065,0.522,0.615,0,1.29,0
	h3.87c0.677,0,1.227,0.522,1.281,1.183h0.011c0,1.626,0.318,3.182,0.89,4.604L4.979,8.799z"/>
</svg>
