<?xml version="1.0" encoding="utf-8"?>
<!-- Generator: Adobe Illustrator 16.0.2, SVG Export Plug-In . SVG Version: 6.00 Build 0)  -->
<!DOCTYPE svg PUBLIC "-//W3C//DTD SVG 1.1//EN" "http://www.w3.org/Graphics/SVG/1.1/DTD/svg11.dtd">
<svg version="1.1" id="Слой_1" xmlns="http://www.w3.org/2000/svg" xmlns:xlink="http://www.w3.org/1999/xlink" x="0px" y="0px"
	 width="120px" height="96px" viewBox="0 0 120 96" enable-background="new 0 0 120 96" xml:space="preserve">
<g>
	<path fill="#DF830C" d="M89.849,0h-16.05c-0.936,0-1.684,0.751-1.684,1.656c0,0.933,0.748,1.656,1.684,1.656h11.003L8.997,59.621
		c-0.646,0.646-0.646,1.709,0,2.356c0.337,0.312,0.751,0.49,1.191,0.49c0.414,0,0.854-0.179,1.165-0.49L87.158,5.668l-3.06,11.003
		c0,0.908,0.754,1.658,1.659,1.658c0.931,0,1.684-0.75,1.684-1.658l4.061-15.016C91.507,0.751,90.754,0,89.849,0z"/>
	<path fill="#DF830C" d="M109.912,37.901c0.905,0,1.659-0.751,1.659-1.656v-6.189c0-0.905-0.754-1.656-1.659-1.656H74.937
		c-0.905,0-1.658,0.751-1.658,1.656v20.193H42.006c-0.906,0-1.655,0.751-1.655,1.658v21.282H10.111
		c-0.932,0-1.683,0.752-1.683,1.656v19.496c0,0.93,0.751,1.658,1.683,1.658h99.801c0.905,0,1.659-0.726,1.659-1.658V45.359
		c0-0.905-0.754-1.656-1.659-1.656c-0.93,0-1.684,0.751-1.684,1.656v47.326H76.596V39.483h21.591c0.931,0,1.658-0.75,1.658-1.658
		c0-0.931-0.723-1.656-1.658-1.656H76.596v-4.427h31.633v4.505C108.229,37.15,108.982,37.901,109.912,37.901z M40.351,92.684H11.769
		V84.27h24.465c0.906,0,1.657-0.752,1.657-1.659c0-0.931-0.751-1.681-1.657-1.681H11.769v-4.428h28.582V92.684z M73.278,92.684
		H43.664V61.332h22.525c0.93,0,1.679-0.75,1.679-1.658c0-0.907-0.749-1.658-1.679-1.658H43.664v-4.427h29.614V92.684z"/>
</g>
</svg>
