<?xml version="1.0" encoding="utf-8"?>
<!-- Generator: Adobe Illustrator 16.0.2, SVG Export Plug-In . SVG Version: 6.00 Build 0)  -->
<!DOCTYPE svg PUBLIC "-//W3C//DTD SVG 1.1//EN" "http://www.w3.org/Graphics/SVG/1.1/DTD/svg11.dtd">
<svg version="1.1" id="Слой_1" xmlns="http://www.w3.org/2000/svg" xmlns:xlink="http://www.w3.org/1999/xlink" x="0px" y="0px"
	 width="120px" height="96px" viewBox="0 0 120 96" enable-background="new 0 0 120 96" xml:space="preserve">
<path fill="#DF830C" d="M59.672,24.021c-2.2,0-3.991,1.784-3.991,3.977c0,2.194,1.791,3.977,3.991,3.977
	c2.198,0,3.991-1.783,3.991-3.977C63.663,25.805,61.87,24.021,59.672,24.021z M44.882,29.638v-0.504
	c0-8.478,6.92-15.374,15.425-15.374c8.507,0,15.425,6.896,15.425,15.374v1.263c0,3.318-2.708,6.016-6.037,6.016
	c-2.166,0-4.066-1.141-5.13-2.853c-1.307,1.146-3.021,1.842-4.896,1.842c-4.097,0-7.431-3.321-7.431-7.406
	c0-4.083,3.333-7.403,7.431-7.403c4.094,0,7.429,3.321,7.429,7.403V30.4c0,1.423,1.163,2.587,2.592,2.587
	c1.435,0,2.598-1.161,2.598-2.587v-1.266c0-6.589-5.378-11.945-11.985-11.945c-6.611,0-11.986,5.356-11.986,11.945v0.504
	c0,6.589,5.375,11.945,11.986,11.945h13.703c0.952,0,1.723,0.77,1.723,1.714c0,0.947-0.771,1.714-1.723,1.714H60.302
	C51.802,45.015,44.882,38.119,44.882,29.638z M108.797,43.977L69.235,64.893l39.562,26.134V43.977z M97.718,34.526v11.167
	l10.043-4.678L97.718,34.526z M94.766,3.357H25.847v44.15l28.792,15.222l4.719-3.116c0.575-0.382,1.324-0.382,1.9,0l4.721,3.116
	l28.787-15.222V3.357z M11.816,43.977v47.047L51.377,64.89L11.816,43.977z M22.406,35.047l-9.554,6.182l9.554,4.462V35.047z
	 M104.809,92.503L60.308,63.098L15.804,92.503H104.809z M110.514,95.929H10.098c-0.95,0-1.722-0.768-1.722-1.712V41.124
	c0-0.596,0.306-1.122,0.769-1.429l13.261-8.76V1.64c0-0.947,0.769-1.711,1.718-1.711h72.358c0.953,0,1.718,0.767,1.718,1.711v29.292
	l13.267,8.763c0.459,0.307,0.77,0.831,0.77,1.429v53.093C112.236,95.164,111.467,95.929,110.514,95.929z"/>
</svg>
