<?xml version="1.0" encoding="utf-8"?>
<!-- Generator: Adobe Illustrator 16.0.2, SVG Export Plug-In . SVG Version: 6.00 Build 0)  -->
<!DOCTYPE svg PUBLIC "-//W3C//DTD SVG 1.1//EN" "http://www.w3.org/Graphics/SVG/1.1/DTD/svg11.dtd">
<svg version="1.1" id="Слой_1" xmlns="http://www.w3.org/2000/svg" xmlns:xlink="http://www.w3.org/1999/xlink" x="0px" y="0px"
	 width="21.26px" height="21.26px" viewBox="0 0 21.26 21.26" enable-background="new 0 0 21.26 21.26" xml:space="preserve">
<path fill="#DF830C" d="M9.859,6.07c2.103,0,3.796,1.694,3.796,3.795c0,2.103-1.693,3.797-3.796,3.797
	c-2.101,0-3.795-1.694-3.795-3.797C6.064,7.764,7.759,6.07,9.859,6.07z M9.859,5.057c-2.647,0-4.808,2.16-4.808,4.808
	c0,2.649,2.16,4.81,4.808,4.81c1.144,0,2.192-0.404,3.021-1.073l2.455,2.455l0.716-0.716l-2.454-2.455
	c0.668-0.828,1.071-1.877,1.071-3.021C14.668,7.217,12.509,5.057,9.859,5.057z M1.513,1.011h18.222c0.279,0,0.506,0.226,0.506,0.506
	v18.222c0,0.28-0.227,0.507-0.506,0.507H1.513c-0.281,0-0.507-0.227-0.507-0.507V1.518C1.006,1.237,1.231,1.011,1.513,1.011z
	 M1.513,0C0.68,0-0.006,0.686-0.006,1.518V19.74c0,0.832,0.686,1.519,1.519,1.519h18.222c0.83,0,1.518-0.687,1.518-1.519V1.518
	C21.252,0.686,20.565,0,19.733,0H1.513z"/>
</svg>
