<?xml version="1.0" encoding="utf-8"?>
<!-- Generator: Adobe Illustrator 16.0.2, SVG Export Plug-In . SVG Version: 6.00 Build 0)  -->
<!DOCTYPE svg PUBLIC "-//W3C//DTD SVG 1.1//EN" "http://www.w3.org/Graphics/SVG/1.1/DTD/svg11.dtd">
<svg version="1.1" id="Слой_1" xmlns="http://www.w3.org/2000/svg" xmlns:xlink="http://www.w3.org/1999/xlink" x="0px" y="0px"
	 width="56px" height="53px" viewBox="0 0 56 53" enable-background="new 0 0 56 53" xml:space="preserve">
<path fill="#DF830C" d="M10.754,40.364v-2.493h14.373v2.493H10.754z M38.169,42.998l-4.911-4.846l1.787-1.764l3.124,3.083
	l6.186-6.102l1.786,1.764L38.169,42.998z M10.754,24.116v-2.493h14.373v2.493H10.754z M38.169,26.749l-4.911-4.844l1.787-1.764
	l3.124,3.083l6.186-6.101l1.786,1.762L38.169,26.749z M53.463,8.812c0-0.696-0.556-1.258-1.264-1.258H32.513
	c0.013-0.061,0.013-0.112,0.013-0.173c0-0.847-0.216-1.646-0.608-2.345c-0.847-1.506-2.476-2.542-4.345-2.542
	c-1.871,0-3.5,1.035-4.347,2.542c-0.393,0.698-0.606,1.498-0.606,2.345c0,0.061,0,0.112,0.012,0.173H3.802
	c-0.705,0-1.263,0.563-1.263,1.258v40.423c0,0.698,0.558,1.258,1.263,1.258h48.397c0.708,0,1.264-0.56,1.264-1.258V8.812z
	 M52.199,52.998H3.802c-2.083,0-3.815-1.694-3.815-3.764V8.812c0-2.067,1.732-3.776,3.815-3.776h16.681
	c0.985-2.928,3.792-5.034,7.089-5.034c3.299,0,6.102,2.106,7.089,5.034h17.538c2.085,0,3.815,1.709,3.815,3.776v40.423
	C56.015,51.304,54.284,52.998,52.199,52.998z"/>
</svg>
