<?xml version="1.0" encoding="utf-8"?>
<!-- Generator: Adobe Illustrator 16.0.2, SVG Export Plug-In . SVG Version: 6.00 Build 0)  -->
<!DOCTYPE svg PUBLIC "-//W3C//DTD SVG 1.1//EN" "http://www.w3.org/Graphics/SVG/1.1/DTD/svg11.dtd">
<svg version="1.1" id="Слой_1" xmlns="http://www.w3.org/2000/svg" xmlns:xlink="http://www.w3.org/1999/xlink" x="0px" y="0px"
	 width="23.622px" height="21.26px" viewBox="0 0 23.622 21.26" enable-background="new 0 0 23.622 21.26" xml:space="preserve">
<path fill="#DF830C" d="M22.342,14.68c0,0.839-0.682,1.517-1.518,1.517H9.118l-2.379,2.878v-2.878H2.646
	c-0.836,0-1.518-0.678-1.518-1.517V2.535c0-0.845,0.681-1.521,1.518-1.521h18.179c0.836,0,1.518,0.677,1.518,1.521V14.68z M20.825,0
	H2.646C1.259,0,0.122,1.144,0.122,2.535V14.68c0,1.392,1.137,2.531,2.524,2.531h3.091v3.544c0,0.227,0.145,0.422,0.361,0.481
	c0.045,0.016,0.095,0.021,0.14,0.021c0.165,0,0.325-0.08,0.42-0.227l2.996-3.819h11.171c1.387,0,2.523-1.141,2.523-2.531V2.535
	C23.349,1.144,22.211,0,20.825,0z"/>
</svg>
