<?xml version="1.0" encoding="utf-8"?>
<!-- Generator: Adobe Illustrator 16.0.2, SVG Export Plug-In . SVG Version: 6.00 Build 0)  -->
<!DOCTYPE svg PUBLIC "-//W3C//DTD SVG 1.1//EN" "http://www.w3.org/Graphics/SVG/1.1/DTD/svg11.dtd">
<svg version="1.1" id="Слой_1" xmlns="http://www.w3.org/2000/svg" xmlns:xlink="http://www.w3.org/1999/xlink" x="0px" y="0px"
	 width="23.622px" height="21.652px" viewBox="0 0 23.622 21.652" enable-background="new 0 0 23.622 21.652" xml:space="preserve">
<g>
	<path fill="#DF830C" d="M17.752,11.96L15.301,14.4l-1.238-1.239l-0.71,0.71l1.948,1.931l3.16-3.141L17.752,11.96z M17.752,4.98
		l-2.451,2.44l-1.238-1.23l-0.71,0.7l1.948,1.94l3.16-3.141L17.752,4.98z M17.752,11.96L15.301,14.4l-1.238-1.239l-0.71,0.71
		l1.948,1.931l3.16-3.141L17.752,11.96z M17.752,4.98l-2.451,2.44l-1.238-1.23l-0.71,0.7l1.948,1.94l3.16-3.141L17.752,4.98z
		 M17.752,11.96L15.301,14.4l-1.238-1.239l-0.71,0.71l1.948,1.931l3.16-3.141L17.752,11.96z M17.752,4.98l-2.451,2.44l-1.238-1.23
		l-0.71,0.7l1.948,1.94l3.16-3.141L17.752,4.98z M17.752,4.98l-2.451,2.44l-1.238-1.23l-0.71,0.7l1.948,1.94l3.16-3.141L17.752,4.98
		z M17.752,11.96L15.301,14.4l-1.238-1.239l-0.71,0.71l1.948,1.931l3.16-3.141L17.752,11.96z M17.752,11.96L15.301,14.4
		l-1.238-1.239l-0.71,0.71l1.948,1.931l3.16-3.141L17.752,11.96z M17.752,4.98l-2.451,2.44l-1.238-1.23l-0.71,0.7l1.948,1.94
		l3.16-3.141L17.752,4.98z M18.461,5.69l-0.709-0.71l-2.451,2.44l-1.238-1.23l-0.71,0.7l1.948,1.94L18.461,5.69z M15.301,14.4
		l-1.238-1.239l-0.71,0.71l1.948,1.931l3.16-3.141l-0.709-0.7L15.301,14.4z M21.103,0H2.922c-1.39,0-2.52,1.13-2.52,2.51v16.041
		c0,1.38,1.13,2.52,2.52,2.52h18.18c1.391,0,2.52-1.14,2.52-2.52V2.51C23.622,1.13,22.493,0,21.103,0z M22.622,18.551
		c0,0.84-0.68,1.51-1.52,1.51H2.922c-0.83,0-1.51-0.67-1.51-1.51V2.51c0-0.83,0.68-1.5,1.51-1.5h18.18c0.84,0,1.52,0.67,1.52,1.5
		V18.551z M15.301,7.42l-1.238-1.23l-0.71,0.7l1.948,1.94l3.16-3.141l-0.709-0.71L15.301,7.42z M15.301,14.4l-1.238-1.239
		l-0.71,0.71l1.948,1.931l3.16-3.141l-0.709-0.7L15.301,14.4z M17.752,11.96L15.301,14.4l-1.238-1.239l-0.71,0.71l1.948,1.931
		l3.16-3.141L17.752,11.96z M17.752,4.98l-2.451,2.44l-1.238-1.23l-0.71,0.7l1.948,1.94l3.16-3.141L17.752,4.98z M17.752,4.98
		l-2.451,2.44l-1.238-1.23l-0.71,0.7l1.948,1.94l3.16-3.141L17.752,4.98z M17.752,11.96L15.301,14.4l-1.238-1.239l-0.71,0.71
		l1.948,1.931l3.16-3.141L17.752,11.96z"/>
	<polygon fill="#DF830C" points="7.84,14.344 8.9,15.394 8.19,16.094 7.13,15.043 6.07,16.094 5.36,15.394 6.42,14.344 5.36,13.293 
		6.07,12.583 7.13,13.634 8.19,12.583 8.9,13.293 	"/>
	<polygon fill="#DF830C" points="7.84,7.363 8.9,8.413 8.19,9.124 7.13,8.073 6.07,9.124 5.36,8.413 6.42,7.363 5.36,6.313 
		6.07,5.613 7.13,6.663 8.19,5.613 8.9,6.313 	"/>
</g>
</svg>
