<?xml version="1.0" encoding="utf-8"?>
<!-- Generator: Adobe Illustrator 16.0.2, SVG Export Plug-In . SVG Version: 6.00 Build 0)  -->
<!DOCTYPE svg PUBLIC "-//W3C//DTD SVG 1.1//EN" "http://www.w3.org/Graphics/SVG/1.1/DTD/svg11.dtd">
<svg version="1.1" id="Слой_1" xmlns="http://www.w3.org/2000/svg" xmlns:xlink="http://www.w3.org/1999/xlink" x="0px" y="0px"
	 width="61.417px" height="54.332px" viewBox="0 0 61.417 54.332" enable-background="new 0 0 61.417 54.332" xml:space="preserve">
<path fill="#CCCCCC" d="M59.06,0H2.36C1.06,0,0,1.061,0,2.36v49.61c0,1.301,1.06,2.359,2.36,2.359h56.7
	c1.301,0,2.359-1.06,2.359-2.359V2.36C61.419,1.061,60.36,0,59.06,0z M60.22,51.97c0,0.641-0.52,1.16-1.16,1.16H2.36
	c-0.64,0-1.16-0.521-1.16-1.16V10.63h59.02V51.97z"/>
<path fill="#F9F9F9" d="M32.48,3.149h18.504c1.195,0,2.165,0.97,2.165,2.165c0,1.196-0.97,2.166-2.165,2.166H32.48
	c-1.195,0-2.165-0.97-2.165-2.166C30.315,4.119,31.285,3.149,32.48,3.149z"/>
<circle fill="#DF4B18" cx="13.583" cy="5.315" r="2.042"/>
<circle fill="#DF830C" cx="20.669" cy="5.315" r="2.042"/>
<circle fill="#314A5F" cx="6.496" cy="5.315" r="2.042"/>
<g>
	<path fill="#DF830C" d="M45.777,34.582l-0.793-0.899c0.723-0.636,1.191-1.933,1.191-3.3c0-1.368-0.469-2.664-1.191-3.3l0.793-0.9
		c0.986,0.867,1.598,2.478,1.598,4.2C47.375,32.106,46.764,33.714,45.777,34.582z"/>
</g>
<g>
	<g>
		<path fill="#DF4B18" d="M37.669,27.34h3.953c1.129,0,2.049,0.91,2.049,2.041c0,0.359,0,1.641,0,2c0,1.131-0.92,2.041-2.049,2.041
			h-3.703L37.669,27.34z"/>
	</g>
</g>
<g>
	<path fill="#DF4B18" d="M22.878,34.001v10c0,0.828-0.671,1.498-1.5,1.498h-1c-0.828,0-1.5-0.67-1.5-1.498v-10"/>
</g>
<g>
	<path fill="#DF4B18" d="M24.542,26.88v7h-9c-0.83,0-1.5-0.68-1.5-1.5v-4c0-0.831,0.67-1.5,1.5-1.5H24.542z"/>
</g>
<g>
	<path fill="#DF830C" d="M31.314,33.376v1c0,0.828-0.672,1.5-1.5,1.5H17.815c-0.829,0-1.499-0.672-1.499-1.5v-1v-6v-1
		c0-0.828,0.67-1.5,1.499-1.5h11.999c0.829,0,1.5,0.672,1.5,1.5v1V33.376z"/>
</g>
<g>
	<path fill="#CCCCCC" d="M40.443,20.531V40.22c0,1.13-0.91,2.051-2.041,2.051c-0.189,0-0.381-0.029-0.551-0.07
		c-0.109-0.05-0.219-0.101-0.35-0.14c-0.029-0.011-0.049-0.03-0.07-0.04c-3.18-1.301-9.879-4.45-9.899-4.46
		c-0.58-0.28-1.01-0.841-1.12-1.5v-11.21c0.08-0.76,0.57-1.39,1.25-1.68l9.88-4.48c0.08-0.05,0.17-0.08,0.26-0.11
		c0.189-0.06,0.391-0.09,0.6-0.09C39.533,18.491,40.443,19.4,40.443,20.531z"/>
</g>
<path fill="#F9F9F9" d="M36.539,22.646c0,0.36-0.18,0.68-0.45,0.88l-0.39,0.18c-0.01,0-0.021,0-0.04,0.01l-4.431,2.05
	c-0.02,0.01-0.029,0.02-0.05,0.02l-0.22,0.11c-0.1,0.04-0.22,0.06-0.34,0.06c-0.38,0-0.72-0.19-0.91-0.48
	c-0.01-0.01-0.02-0.03-0.02-0.04l-0.11-0.22c-0.04-0.11-0.06-0.23-0.06-0.35c0-0.37,0.18-0.69,0.45-0.89l0.391-0.18
	c0.01,0,0.02,0,0.04-0.01l4.619-2.14c0.131-0.06,0.271-0.09,0.421-0.09C36.048,21.556,36.539,22.045,36.539,22.646z"/>
</svg>
